<?xml version="1.0" encoding="UTF-8"?>
<svg width="36px" height="27px" viewBox="0 0 36 27" version="1.1" xmlns="http://www.w3.org/2000/svg" xmlns:xlink="http://www.w3.org/1999/xlink">
    <title>Icon/TF SCORE/A++</title>
    <g id="Icon/TF-SCORE/A++" stroke="none" stroke-width="1" fill="none" fill-rule="evenodd">
        <g transform="translate(-0.000000, -0.000000)" fill="#F9AF1B" fill-rule="nonzero">
            <path d="M13.3521927,10.6361294 L14.7294915,14.665955 L11.9868359,14.665955 C12.0982936,14.3653988 12.2137319,14.0450692 12.3251896,13.7010115 C12.4366473,13.3569537 12.5560663,13.0089413 12.667524,12.6530195 C12.7789817,12.2970978 12.89442,11.95304 13.0098584,11.6089823 C13.1252967,11.2649246 13.240735,10.9366856 13.3521927,10.6361294 Z" id="Path"></path>
            <path d="M26.902265,12.4987868 C26.448568,7.10303351 22.7678016,2.51014247 17.5763908,0.861883239 C12.38498,-0.786375996 6.70535054,0.834614001 3.18604274,4.96894872 C-0.333265068,9.10328344 -0.999138923,14.9367238 1.4989333,19.7490038 C3.99700552,24.5612838 9.16703944,27.4046461 14.5981306,26.953166 C18.1594208,26.6581731 21.4567717,24.9693595 23.7644051,22.2584489 C26.0720384,19.5475384 27.2008094,16.0367303 26.902265,12.4987868 Z M19.75703,19.5025366 C19.6642304,19.5835573 19.5415266,19.6222798 19.4186763,19.6093131 L16.8750523,19.6093131 C16.7637038,19.6167456 16.6526956,19.590553 16.5566017,19.5341741 C16.4742091,19.4714354 16.4142204,19.3841179 16.3854345,19.2850289 C16.2660156,18.9844727 16.1505772,18.6878712 16.0391195,18.3912697 C15.9276618,18.0946682 15.8162041,17.794112 15.7007658,17.4975105 L10.9916778,17.4975105 C10.8802201,17.794112 10.7647818,18.0946682 10.6493434,18.3912697 C10.5339051,18.6878712 10.4224474,18.9844727 10.3070091,19.2850289 C10.2541837,19.4859193 10.065819,19.6217178 9.85719761,19.6093131 L7.23794158,19.6093131 C7.13773063,19.6131757 7.03926698,19.5824317 6.95929732,19.52231 C6.8836653,19.4629897 6.87172341,19.3759866 6.91949099,19.257346 L11.736056,6.86335847 C11.7471553,6.82239004 11.7675844,6.78450429 11.7957655,6.75262725 C11.830429,6.70828138 11.8705477,6.6684242 11.9151845,6.63398665 C11.9606359,6.59915076 12.0118123,6.5723914 12.0664485,6.55489292 C12.1139517,6.53353704 12.1655746,6.52273991 12.2177125,6.52322754 L14.4866729,6.52322754 C14.5810464,6.52214234 14.672748,6.55437907 14.745414,6.61421322 C14.8016711,6.66508362 14.8548396,6.71922619 14.9046393,6.77635537 L15.1275547,7.27860055 L19.7848945,19.2138445 C19.8321093,19.3074197 19.8212836,19.4195805 19.75703,19.5025366 L19.75703,19.5025366 Z" id="Shape"></path>
            <path d="M32.108932,7.74920825 C31.6692435,7.74920825 31.3128055,7.39509356 31.3128055,6.95827095 L31.3128055,0.804778708 C31.3128055,0.360311701 31.6754811,0 32.1228642,0 C32.5702472,0 32.9329228,0.360311701 32.9329228,0.804778708 L32.9329228,6.93454283 C32.9396699,7.1532846 32.85489,7.36502704 32.6987516,7.5193983 C32.5426133,7.67376955 32.3290736,7.75697049 32.108932,7.74920825 Z" id="Path"></path>
            <path d="M35.1899413,4.68828088 L29.023942,4.68828088 C28.5765589,4.68828088 28.2138833,4.32796918 28.2138833,3.88350217 C28.2138833,3.43903516 28.5765589,3.07872346 29.023942,3.07872346 L35.1899413,3.07872346 C35.6373244,3.07872346 36,3.43903516 36,3.88350217 C36,4.32796918 35.6373244,4.68828088 35.1899413,4.68828088 Z" id="Path"></path>
            <path d="M32.108932,17.0189935 C31.6692435,17.0189935 31.3128055,16.6648788 31.3128055,16.2280562 L31.3128055,10.0666546 C31.3128055,9.62218755 31.6754811,9.26187585 32.1228642,9.26187585 C32.5702472,9.26187585 32.9329228,9.62218755 32.9329228,10.0666546 L32.9329228,16.192464 C32.9430772,16.4132246 32.8598042,16.6281382 32.7032727,16.7851519 C32.5467412,16.9421657 32.3312283,17.0269585 32.108932,17.0189935 Z" id="Path"></path>
            <path d="M35.1899413,13.934338 L29.023942,13.934338 C28.5765589,13.934338 28.2138833,13.5740263 28.2138833,13.1295593 C28.2138833,12.6850923 28.5765589,12.3247806 29.023942,12.3247806 L35.1899413,12.3247806 C35.6373244,12.3247806 36,12.6850923 36,13.1295593 C36,13.5740263 35.6373244,13.934338 35.1899413,13.934338 Z" id="Path"></path>
        </g>
    </g>
</svg>