<svg xmlns="http://www.w3.org/2000/svg" viewBox="0 0 82.3 66.04"><defs><style>.cls-1{fill:#7F7F7F;}</style></defs><g id="Layer_22" data-name="Layer 22"><path class="cls-1" d="M75.37,25.23a17.42,17.42,0,0,1-12.1-4,17.31,17.31,0,0,1-11.08,4h0a17.34,17.34,0,0,1-11.07-4,17.26,17.26,0,0,1-11.07,4h0a17.31,17.31,0,0,1-11.07-4,17.26,17.26,0,0,1-16,3.28V57.77A8.27,8.27,0,0,0,11.2,66h3.28V36.48H34.55V66H71a8.28,8.28,0,0,0,8.28-8.27V24.55A18.82,18.82,0,0,1,75.37,25.23ZM67.66,50.59H44.58V36.48H67.66Z"/><path class="cls-1" d="M81.73,18.48a5.88,5.88,0,0,1-2.47,1.76,13.41,13.41,0,0,1-4.13.92,13.58,13.58,0,0,1-10.4-4.08l-1.11-1.16-.35-.36-.35.36L61.8,17.08a13.29,13.29,0,0,1-9.61,4.1h0a13.26,13.26,0,0,1-9.6-4.11l-1.11-1.15-.35-.37-.35.37-1.12,1.15A13.26,13.26,0,0,1,30,21.18h0a13.26,13.26,0,0,1-9.6-4.11l-1.11-1.15L19,15.55l-.35.37L17.5,17.07A13.25,13.25,0,0,1,2.93,20.22c-.39-.16-.77-.34-1.15-.53A3.46,3.46,0,0,1,.22,15.44L6.5,2.67l.07-.14A4,4,0,0,1,10.29,0H72a4,4,0,0,1,3.64,2.34c.45,1,1.23,2.48,2.14,4.2,1.66,3.18,4,7.54,4.36,9.24A3.05,3.05,0,0,1,81.73,18.48Z"/><polygon class="cls-1" points="18.97 15.55 19.32 15.92 18.62 15.92 18.97 15.55"/><polygon class="cls-1" points="41.12 15.55 41.47 15.92 40.77 15.92 41.12 15.55"/><polygon class="cls-1" points="63.62 15.92 62.92 15.92 63.27 15.56 63.62 15.92"/><path class="cls-1" d="M19,15.55l-.35.37h.7Zm22.15,0-.35.37h.7Zm22.15,0-.35.36h.7Zm0,0-.35.36h.7Zm-22.15,0-.35.37h.7ZM19,15.55l-.35.37h.7Z"/></g></svg>