<svg xmlns="http://www.w3.org/2000/svg" viewBox="0 0 62.18 64.23"><defs><style>.cls-1{fill:#ffffff;}</style></defs><g id="profile"><path class="cls-1" d="M43.13,51.49H19.05V41.16a31.89,31.89,0,0,1,24.08,0Z"/><path class="cls-1" d="M62.18,64.23H0a31.73,31.73,0,0,1,15-21V53.53a2,2,0,0,0,2,2H45.16a2,2,0,0,0,2-2V43.18A31.75,31.75,0,0,1,62.18,64.23Z"/><path class="cls-1" d="M13.79,19.46h34.6a17.42,17.42,0,0,1-34.6,0Z"/><path class="cls-1" d="M48.39,15.4H13.79a16.68,16.68,0,0,1,1-4.07,17.43,17.43,0,0,1,32.65,0A16.25,16.25,0,0,1,48.39,15.4Z"/><path class="cls-1" d="M56.27,13.36a2,2,0,0,1-2,2H8a2,2,0,0,1,0-4.07H54.23A2,2,0,0,1,56.27,13.36Z"/></g></svg>