<svg xmlns="http://www.w3.org/2000/svg" viewBox="0 0 49 68.7"><defs><style>.cls-1{fill:#7F7F7F;}</style></defs><g id="inventory"><path class="cls-1" d="M38.6,3.81h-.52V7.12a6.36,6.36,0,0,1-6.36,6.35H16.83a6.36,6.36,0,0,1-6.36-6.35V3.81H10.4A10.4,10.4,0,0,0,0,14.22V58.29A10.4,10.4,0,0,0,10.4,68.7H38.6A10.41,10.41,0,0,0,49,58.29V14.22A10.41,10.41,0,0,0,38.6,3.81ZM14.35,55.39a2,2,0,0,1-2,2H8.94a2,2,0,0,1-2-2V52a2,2,0,0,1,2-2h3.38a2,2,0,0,1,2,2Zm0-14a2,2,0,0,1-2,2H8.94a2,2,0,0,1-2-2V38a2,2,0,0,1,2-2h3.38a2,2,0,0,1,2,2Zm0-14a2,2,0,0,1-2,2H8.94a2,2,0,0,1-2-2V24a2,2,0,0,1,2-2h3.38a2,2,0,0,1,2,2Zm25,28.4H24.5a2,2,0,0,1,0-4.08H39.36a2,2,0,0,1,0,4.08Zm0-14H24.5a2,2,0,0,1,0-4.07H39.36a2,2,0,0,1,0,4.07Zm0-14H24.5a2,2,0,0,1,0-4.06H39.36a2,2,0,1,1,0,4.06ZM16.83,9.4H31.72A2.28,2.28,0,0,0,34,7.12V3.81H14.54V7.12A2.29,2.29,0,0,0,16.83,9.4ZM14.54,3.81V7.12A2.29,2.29,0,0,0,16.83,9.4H31.72A2.28,2.28,0,0,0,34,7.12V3.81Z"/><path class="cls-1" d="M34,2.29V7.12A2.28,2.28,0,0,1,31.72,9.4H16.83a2.29,2.29,0,0,1-2.29-2.28V2.29A2.29,2.29,0,0,1,16.83,0H31.72A2.28,2.28,0,0,1,34,2.29Z"/></g></svg>