<svg xmlns="http://www.w3.org/2000/svg" viewBox="0 0 64.67 59.3"><defs><style>.cls-1{fill:#f9af1b;}</style></defs><g id="Layer_29" data-name="Layer 29"><path class="cls-1" d="M36.05,43.91v2.87a6.82,6.82,0,0,1,4.52,6.33h.52a6.19,6.19,0,0,1,6.19,6.19H17.47a6.2,6.2,0,0,1,6.19-6.19h.52a6.8,6.8,0,0,1,4.52-6.33V44L22,37.55A37.87,37.87,0,0,1,10.34,10.23V0h44V10.23A37.83,37.83,0,0,1,42.67,37.55Z"/><path class="cls-1" d="M38.24,33.74l-1.41-3.81,7-2.59c9.43-3.48,15.77-10.78,16.68-19H45V4.31H64.67v2c0,10.71-7.63,20.45-19.45,24.82Z"/><path class="cls-1" d="M26.43,33.74l-7-2.58C7.63,26.79,0,17.05,0,6.34v-2H19.67V8.38H4.18c.91,8.18,7.25,15.48,16.68,19l7,2.59Z"/></g></svg>