<svg xmlns="http://www.w3.org/2000/svg" viewBox="0 0 40.12 65.16"><defs><style>.cls-1{fill:#f9af1b;}</style></defs><g id="Layer_13" data-name="Layer 13"><path class="cls-1" d="M39.86,55.14v10l-6.1-4.84-6.09,4.84v-10a10.38,10.38,0,0,0,6.08,2c.29,0,.59,0,.89,0A10.37,10.37,0,0,0,39.86,55.14Z"/><path class="cls-1" d="M33.33,0H6.58A6.59,6.59,0,0,0,0,6.58V46.27a6.58,6.58,0,0,0,6.58,6.58H25.33a10.49,10.49,0,0,1,7.56-16.66,8.77,8.77,0,0,1,.88,0,10.41,10.41,0,0,1,6.14,2V6.58A6.58,6.58,0,0,0,33.33,0ZM20,35.73H8.5a2.06,2.06,0,0,1,0-4.12H20a2.06,2.06,0,0,1,0,4.12Zm7.71-9.25H8.5a2.06,2.06,0,0,1,0-4.12H27.67a2.06,2.06,0,0,1,0,4.12Zm0-9.24H8.5a2.06,2.06,0,0,1,0-4.12H27.67a2.06,2.06,0,0,1,0,4.12Z"/><path class="cls-1" d="M38.29,51.07a6.24,6.24,0,0,1-4,1.89l-.54,0a5.7,5.7,0,0,1-1.25-.13,6.35,6.35,0,0,1,.73-12.55l.54,0A6.39,6.39,0,0,1,39.91,45a6.19,6.19,0,0,1,.19,1.06A6.29,6.29,0,0,1,38.29,51.07Z"/></g></svg>