<svg id="dashboard" xmlns="http://www.w3.org/2000/svg" viewBox="0 0 68.59 64.27"><defs><style>.cls-1{fill:#7F7F7F;}</style></defs><g id="Layer_36" data-name="Layer 36"><rect class="cls-1" x="0.27" y="44.11" width="13.3" height="20.16"/><rect class="cls-1" x="18.35" y="32.58" width="13.3" height="31.69"/><rect class="cls-1" x="36.42" y="38.81" width="13.3" height="25.45"/><rect class="cls-1" x="54.5" y="26.66" width="13.3" height="37.61"/><path class="cls-1" d="M2,38A2,2,0,0,1,.55,37.4a2,2,0,0,1,.09-2.88L23.6,13a2,2,0,0,1,2.68-.1L42.83,26.34,64.4,1.63a2,2,0,1,1,3.06,2.68L44.61,30.49a2,2,0,0,1-2.82.24L25.09,17.2,3.43,37.49A2,2,0,0,1,2,38Z"/><path class="cls-1" d="M66.55,16.12a2,2,0,0,1-2-2v-10h-10A2,2,0,0,1,54.5,0h12a2,2,0,0,1,2,2V14.09A2,2,0,0,1,66.55,16.12Z"/></g></svg>