<?xml version="1.0" encoding="UTF-8"?>
<svg width="18px" height="20px" viewBox="0 0 18 20" version="1.1" xmlns="http://www.w3.org/2000/svg" xmlns:xlink="http://www.w3.org/1999/xlink">
    <title>Icon</title>
    <g id="Symbols" stroke="none" stroke-width="1" fill="none" fill-rule="evenodd">
        <g id="Icon/Edit" transform="translate(0.000000, 0.857143)" fill="#FE8340" fill-rule="nonzero">
            <g id="Icon">
                <path d="M14.2353209,9.17676335 C13.8210129,9.17676335 13.4861368,9.51942993 13.4861368,9.94149654 L13.4861368,16.0597822 C13.4861368,16.4811487 13.1504375,16.8245154 12.7369527,16.8245154 L2.24768946,16.8245154 C1.8340674,16.8245154 1.49850538,16.4811487 1.49850538,16.0597822 L1.49850538,5.35281729 C1.49850538,4.93145085 1.8340674,4.58808411 2.24768946,4.58808411 L8.24157377,4.58808411 C8.65588177,4.58808411 8.99075786,4.24541753 8.99075786,3.82335092 C8.99075786,3.40114425 8.65588177,3.05847767 8.24157377,3.05847767 L2.24768946,3.05847767 C1.00846957,3.05847767 0,4.08787774 0,5.35281729 L0,16.0597822 C0,17.3247218 1.00846957,18.3541218 2.24768946,18.3541218 L12.7369527,18.3541218 C13.9761726,18.3541218 14.9846422,17.3247218 14.9846422,16.0597822 L14.9846422,9.94149654 C14.9846422,9.5185897 14.6496289,9.17676335 14.2353209,9.17676335 Z" id="Path"></path>
                <path d="M7.02471551,8.48008734 C6.97230968,8.53358087 6.93705235,8.60163805 6.92209882,8.67501659 L6.39241567,11.3793798 C6.36772181,11.5047115 6.40668323,11.6339641 6.49503235,11.7249871 C6.56623297,11.7976655 6.66212741,11.8365953 6.76035411,11.8365953 C6.78422482,11.8365953 6.80905585,11.8343548 6.8337497,11.8290334 L9.48230275,11.2883568 C9.55569838,11.2729529 9.62237177,11.2371038 9.67409166,11.1834703 L15.6019885,5.13254165 L12.9534355,2.4291587 L7.02471551,8.48008734 Z" id="Path"></path>
                <path d="M17.4330378,0.559266282 C16.7026485,-0.186422094 15.5143253,-0.186422094 14.7844848,0.559266282 L13.7476172,1.61765368 L16.3961703,4.32117666 L17.4330378,3.26264927 C17.7867086,2.90247828 17.9815157,2.42215692 17.9815157,1.91130786 C17.9815157,1.4004588 17.7867086,0.920137476 17.4330378,0.559266282 Z" id="Path"></path>
            </g>
        </g>
    </g>
</svg>