<svg version="1.1" xmlns="http://www.w3.org/2000/svg" xmlns:xlink="http://www.w3.org/1999/xlink" width="25" height="17" viewBox="0 0 25 17">
<path id="Email" d="M24.290,15.947 C23.859,16.320 23.362,16.496 22.791,16.496 C19.200,16.493 15.609,16.494 12.018,16.494 C8.775,16.495 5.531,16.482 2.287,16.503 C1.038,16.512 0.161,15.649 0.030,14.733 C0.028,14.719 0.010,14.707 -0.000,14.694 C-0.000,10.413 -0.000,6.134 -0.000,1.854 C0.108,1.387 0.287,0.957 0.642,0.615 C1.111,0.163 1.679,-0.005 2.324,-0.003 C4.909,0.004 7.494,0.001 10.079,0.001 C14.278,0.002 18.476,0.001 22.675,0.001 C23.907,0.001 24.678,0.602 24.968,1.784 C24.973,1.809 24.989,1.831 25.000,1.854 C25.000,6.134 25.000,10.413 25.000,14.694 C24.872,15.171 24.678,15.611 24.290,15.947 zM24.169,2.259 C24.169,1.335 23.632,0.819 22.690,0.819 C15.868,0.819 9.045,0.819 2.223,0.819 C1.397,0.819 0.830,1.376 0.830,2.190 C0.829,6.220 0.829,10.250 0.831,14.281 C0.831,14.417 0.836,14.558 0.868,14.689 C1.020,15.295 1.523,15.672 2.193,15.673 C5.621,15.676 9.050,15.675 12.478,15.675 C12.478,15.675 12.478,15.676 12.478,15.677 C15.898,15.677 19.318,15.678 22.738,15.676 C23.637,15.675 24.169,15.155 24.170,14.273 C24.172,10.268 24.172,6.264 24.169,2.259 zM21.127,12.740 C21.047,12.714 20.967,12.675 20.897,12.628 C19.713,11.850 18.531,11.072 17.353,10.286 C17.259,10.223 17.154,10.119 17.134,10.019 C17.111,9.901 17.140,9.735 17.216,9.650 C17.291,9.564 17.451,9.525 17.576,9.519 C17.666,9.515 17.768,9.588 17.853,9.644 C19.029,10.415 20.206,11.187 21.375,11.969 C21.506,12.058 21.592,12.212 21.654,12.283 C21.641,12.645 21.389,12.823 21.127,12.740 zM21.296,4.995 C18.483,6.853 15.667,8.708 12.854,10.569 C12.605,10.733 12.390,10.732 12.140,10.566 C9.299,8.686 6.455,6.812 3.611,4.937 C3.424,4.813 3.278,4.649 3.383,4.425 C3.446,4.290 3.601,4.198 3.719,4.083 C3.911,4.184 4.054,4.246 4.182,4.330 C6.586,5.914 8.988,7.501 11.391,9.087 C11.694,9.288 12.005,9.476 12.298,9.690 C12.451,9.802 12.556,9.789 12.707,9.688 C14.927,8.216 17.150,6.751 19.373,5.284 C19.892,4.941 20.412,4.598 20.930,4.253 C21.100,4.140 21.272,4.085 21.461,4.205 C21.664,4.334 21.717,4.573 21.567,4.759 C21.494,4.852 21.395,4.929 21.296,4.995 zM3.677,11.931 C4.843,11.158 6.010,10.388 7.178,9.619 C7.441,9.445 7.676,9.466 7.821,9.668 C7.976,9.883 7.919,10.108 7.637,10.296 C6.436,11.094 5.233,11.888 4.028,12.679 C3.952,12.729 3.856,12.751 3.714,12.808 C3.612,12.722 3.455,12.648 3.405,12.530 C3.358,12.422 3.401,12.255 3.451,12.134 C3.485,12.049 3.592,11.988 3.677,11.931 z" fill="#f9af1b" />
</svg>
