<?xml version="1.0" encoding="UTF-8"?>
<svg width="27px" height="27px" viewBox="0 0 27 27" version="1.1" xmlns="http://www.w3.org/2000/svg" xmlns:xlink="http://www.w3.org/1999/xlink">
    <title>Icon/Member Level/Gold</title>
    <g id="Icon/Member-Level/Gold" stroke="none" stroke-width="1" fill="none" fill-rule="evenodd">
        <g id="FREE-MEMBER" fill="#FCB11B" fill-rule="nonzero">
            <path d="M13.5053964,0 L13.5053964,1.62319055 C19.8575648,1.64765262 25.0659841,6.66599129 25.3264781,13.0128634 C25.5869721,19.3597354 20.8073122,24.7880138 14.4785131,25.3329394 C14.1435057,25.3608567 13.8084983,25.3768095 13.4734909,25.3768095 C7.10329733,25.3771428 1.86723473,20.3518036 1.60604735,13.9869668 C1.34485997,7.62212999 6.15157147,2.18467564 12.5003742,1.66307238 C12.8353816,1.6351551 13.170389,1.62319055 13.5053964,1.62319055 L13.5053964,0 M13.5053964,0 C13.1065781,0 12.7476416,0 12.364776,0.0478581979 C5.16072663,0.655908586 -0.285550925,6.83134345 0.0116003664,14.0548989 C0.308751658,21.2784544 6.2438403,26.9857005 13.4734909,27 C13.8523683,27 14.2312457,27 14.6141113,26.9521418 C21.8181607,26.3440914 27.2644383,20.1686565 26.967287,12.9451011 C26.6701357,5.72154557 20.735047,0.0142994849 13.5053964,0 Z" id="Shape"></path>
            <polygon id="Path" points="13.5133728 5.31225997 16.0259282 10.3971935 21.6373019 11.2107829 17.5773314 15.1710487 18.5344954 20.7584934 13.5133728 18.1223043 8.49623835 20.7584934 9.45340231 15.1710487 5.39343185 11.2107829 11.0048056 10.3971935"></polygon>
        </g>
    </g>
</svg>