<svg xmlns="http://www.w3.org/2000/svg" viewBox="0 0 51.92 62.22"><defs><style>.cls-1{fill:#f9af1b;}</style></defs><g id="Layer_11" data-name="Layer 11"><path class="cls-1" d="M25.84,0A17.55,17.55,0,0,0,8.3,17.53V28.69a2.06,2.06,0,0,0,2.06,2.06h31a2.06,2.06,0,0,0,2.06-2.06V17.53A17.55,17.55,0,0,0,25.84,0ZM39.25,26.63H12.42v-9.1a13.42,13.42,0,0,1,26.83,0Z"/><path class="cls-1" d="M43.37,24.63a12.81,12.81,0,0,0-4.12-.77H12.42A12.94,12.94,0,0,0,0,36.8V49.28A12.94,12.94,0,0,0,12.94,62.22H39A12.94,12.94,0,0,0,51.92,49.28V36.8A12.92,12.92,0,0,0,43.37,24.63ZM29,45.41V51a3,3,0,0,1-6.1,0V45.41a6,6,0,1,1,6.1,0Z"/></g></svg>