<?xml version="1.0" encoding="UTF-8"?>
<svg width="23.9019608px" height="19.745098px" viewBox="0 0 23.9019608 19.745098" version="1.1" xmlns="http://www.w3.org/2000/svg" xmlns:xlink="http://www.w3.org/1999/xlink">
    <title>Icon/Menu/White</title>
    <g id="Icon/Menu/White" stroke="none" stroke-width="1" fill="none" fill-rule="evenodd">
        <path d="M22.3472941,8.5132549 L1.06415686,8.5132549 C0.476439256,8.5132549 -6.03961325e-14,8.98969416 -6.03961325e-14,9.57741176 C-6.03961325e-14,10.1651294 0.476439256,10.6415686 1.06415686,10.6415686 L22.3472941,10.6415686 C22.9350117,10.6415686 23.411451,10.1651294 23.411451,9.57741176 C23.411451,8.98969416 22.9350117,8.5132549 22.3472941,8.5132549 Z" id="Path" fill="#FFFFFF" fill-rule="nonzero"></path>
        <path d="M1.06415686,2.12831373 L22.3472941,2.12831373 C22.9350117,2.12831373 23.411451,1.65187447 23.411451,1.06415686 C23.411451,0.476439256 22.9350117,-2.26485497e-14 22.3472941,-2.26485497e-14 L1.06415686,-2.26485497e-14 C0.476439256,-2.26485497e-14 -6.03961325e-14,0.476439256 -6.03961325e-14,1.06415686 C-6.03961325e-14,1.65187447 0.476439256,2.12831373 1.06415686,2.12831373 Z" id="Path" fill="#FFFFFF" fill-rule="nonzero"></path>
        <path d="M22.3472941,17.0265098 L1.06415686,17.0265098 C0.476439256,17.0265098 -6.03961325e-14,17.5029491 -6.03961325e-14,18.0906667 C-6.03961325e-14,18.6783843 0.476439256,19.1548235 1.06415686,19.1548235 L22.3472941,19.1548235 C22.9350117,19.1548235 23.411451,18.6783843 23.411451,18.0906667 C23.411451,17.5029491 22.9350117,17.0265098 22.3472941,17.0265098 Z" id="Path" fill="#FFFFFF" fill-rule="nonzero"></path>
    </g>
</svg>