<?xml version="1.0" encoding="UTF-8"?>
<svg width="47px" height="38px" viewBox="0 0 47 38" version="1.1" xmlns="http://www.w3.org/2000/svg" xmlns:xlink="http://www.w3.org/1999/xlink">
    <title>Icon/photo upload</title>
    <g id="Symbols" stroke="none" stroke-width="1" fill="none" fill-rule="evenodd">
        <g id="Upload/Media" transform="translate(-129.000000, -50.000000)" fill="#FE8340" fill-rule="nonzero">
            <g id="Icon/photo-upload" transform="translate(129.000000, 50.703704)">
                <path d="M39.9794979,37 C44.5025105,37 47,34.5513288 47,30.1552892 L47,6.84471079 C47,2.42939031 44.5025105,0 39.9794979,0 L7.02050209,0 C2.49748954,0 0,2.42939031 0,6.84471079 L0,30.1552892 C0,34.5706097 2.49748954,37 7.02050209,37 L39.9794979,37 Z M5.27029289,26.7618551 L5.27029289,7.50026055 C5.27029289,5.88066701 6.07656904,5.16727462 7.63012552,5.16727462 L39.3698745,5.16727462 C40.9037657,5.16727462 41.7297071,5.88066701 41.7297071,7.50026055 L41.7297071,25.9906201 L33.332636,18.2975508 C32.467364,17.5455967 31.4447699,17.1406983 30.4025105,17.1406983 C29.3405858,17.1406983 28.3573222,17.5070349 27.4723849,18.2782699 L18.6033473,26.0484627 L15.0046025,22.8671183 C14.1589958,22.134445 13.2543933,21.7681084 12.3301255,21.7681084 C11.3861925,21.7681084 10.6389121,22.1151641 9.81297071,22.8285565 L5.27029289,26.7618551 Z M16.4598326,19.1844711 C19.1146444,19.1844711 21.3171548,17.0442939 21.3171548,14.402814 C21.3171548,11.7806149 19.1146444,9.60187598 16.4598326,9.60187598 C13.7656904,9.60187598 11.5631799,11.7806149 11.5631799,14.402814 C11.5631799,17.0442939 13.7656904,19.1844711 16.4598326,19.1844711 Z" id="Icon"></path>
            </g>
        </g>
    </g>
</svg>