<?xml version="1.0" encoding="utf-8"?>
<!-- Generator: Adobe Illustrator 25.1.0, SVG Export Plug-In . SVG Version: 6.00 Build 0)  -->
<svg version="1.1" xmlns="http://www.w3.org/2000/svg" xmlns:xlink="http://www.w3.org/1999/xlink" x="0px" y="0px"
	 viewBox="0 0 610.29 392.6" style="enable-background:new 0 0 610.29 392.6;" xml:space="preserve">
<style type="text/css">
	.st0{fill:#00502F;}
	.st1{fill:#00512F;}
	.st2{opacity:0.09;}
	.st3{fill:#FFFFFF;}
	.st4{fill:#4F4D4E;}
	.st5{fill:#221F1F;}
	.st6{fill:#F47A34;}
	.st7{fill:url(#SVGID_1_);}
	.st8{fill:url(#SVGID_2_);}
	.st9{fill:#FCB11A;}
	.st10{fill:url(#SVGID_3_);}
	.st11{fill:url(#SVGID_4_);}
	.st12{fill:url(#SVGID_5_);}
	.st13{fill:url(#SVGID_6_);}
	.st14{fill:url(#SVGID_7_);}
	.st15{fill:url(#SVGID_8_);}
	.st16{fill:none;stroke:#929497;stroke-width:1.2849;stroke-miterlimit:10;}
	.st17{fill:#F17A25;}
	.st18{fill:#FCB11B;}
	.st19{opacity:0.4;fill:#FFFFFF;}
	.st20{opacity:0.3;fill:#FFFFFF;}
	.st21{opacity:0.2;fill:#FFFFFF;}
	.st22{opacity:0.1;fill:#FFFFFF;}
	.st23{fill:none;stroke:#FFFFFF;stroke-width:3;stroke-miterlimit:10;}
</style>
<g id="Capa_2">
</g>
<g id="Capa_3">
</g>
<g id="Capa_1">
	<g>
		<path class="st0" d="M535.21,277.2l1.48,0c0.32-2.5,0.58-4.31,3.56-4.3l1.79,0l-0.03,11.93c0,0.46-0.41,0.85-1,0.85l-2.08-0.01
			l0,1.54l8.74,0.02l0-1.54l-1.89-0.01c-0.75,0-1.14-0.19-1.14-0.83l0.03-11.95l1.91,0.01c2.94,0.01,3.16,1.82,3.49,4.32l1.46,0
			l0.02-5.89l-16.35-0.05L535.21,277.2z"/>
		<path class="st0" d="M578.57,272.96l1.91,0.01l0.01-1.54l-6.74-0.02l-5.93,12.55l-5.77-12.59l-6.81-0.02l0,1.54l2.09,0.01
			c0.5,0,0.95,0.39,0.95,0.85l-0.03,11.13c0,0.46-0.43,0.85-1.03,0.85l-2.02-0.01l0,1.54l8.08,0.02l0-1.54l-1.96,0
			c-0.73,0-1.16-0.19-1.16-0.83l0.03-11.84l6.49,14.22l1.41,0l6.69-14.2l-0.03,11.84c0,0.46-0.41,0.85-1,0.85l-2.09-0.01l0,1.54
			l8.79,0.02l0-1.54l-1.87-0.01c-0.75,0-1.18-0.19-1.18-0.83l0.03-11.17C577.43,273.16,577.89,272.96,578.57,272.96"/>
		<path class="st0" d="M474.03,310.21l1.59,1.19c0,0,2.29,1.72,2.3,1.72c0.18,0.14,0.38,0.24,0.57,0.32
			c0.06,0.02,0.13,0.04,0.19,0.05c0.14,0.05,0.28,0.08,0.43,0.09c0.07,0.01,0.14,0.01,0.21,0.01c0.19,0.01,0.38-0.01,0.57-0.05
			c0.05,0,0.1-0.01,0.15-0.02c0.23-0.06,0.46-0.14,0.68-0.25c0.05-0.03,0.1-0.05,0.14-0.09c0.17-0.09,0.33-0.21,0.48-0.33
			c0.05-0.05,0.11-0.09,0.16-0.14c0.18-0.18,0.35-0.37,0.48-0.58c0.82-1.37,0.35-3.14-0.99-4.06c-1.1-0.73-2.26-1.54-3.47-2.36
			c2.29-3.82,3.58-8.34,3.39-13.24c-0.44-11.06-8.73-20.58-19.63-22.5c-7.84-1.37-15.25,1.19-20.49,6.1c0,0-4.51-3.81-3.8-5.51
			c0.92-2.17,2.1-4.95,2.71-6.32c0.04-0.09,10.78,0.56,10.97,0.51c0.51-0.11,58.67-28.35,58.67-28.35l0.46-1.38l-0.08-2.88
			c5.28-8.17,6.04-17.04,4.08-22.86c-0.14-0.43-1.58-4.41-4.53-6.51c0.19,0.02,4.01,0.33,5.46,2.8c3.5,3.58,8.16,4.32,8.52,4.4
			c5.69,1.22,15.04,1.35,15.04,1.35c-6.61-13.35-19.27-14.48-19.51-14.51c-8.61-0.89-12.59,3.85-12.59,3.85
			c-1.1-0.61-1.87-0.9-1.87-0.9c0.04-0.07,0.36-0.91,0.44-1.21c0.22-0.92,0.03-1.63-1.16-1.85c-2.11-0.37-2.19,1.18-2.17,1.52
			c0,0.3,0,0.6-0.02,0.92c-3.2-2.08-7.21-1.43-8.04-1.34c-0.22,0.03-3.21-1.79-3.05-1.84c0-0.03-0.12-0.53-0.18-0.77
			c-2.34-9.07-12.86-12-12.94-12.01c0-0.04,2.94-1.74,2.94-1.74c4.06,2.69,11.85,3.57,12.19,3.6c9.85,0.72,16.99-4.86,16.99-4.86
			c-0.61-0.53-1.24-0.99-1.83-1.47c-7.1-5.7-15.47-5.23-15.64-5.22c-10.35,0.84-18.56,7.47-18.58,7.45
			c-2.54-0.4-2.76,2.17-2.66,2.48c-1.39,0-12.94,3.55-15.67,13.04l-4.83,0.47c-3.51-3.11-10.84-1.89-10.89-1.88l-1.07-2.24
			c1.63-0.38,7.31,0.64,15.68-5.74c5.5-4.19,8.7-10.36,8.7-10.36c-10.35-1.5-16.35,2.08-16.39,2.09
			c-7.54,3.31-12.19,13.14-12.35,13.47l-3.84,0.75c0.58-1.55,1.67-5.98,1.79-7.41c0.13-1.54,0.87-7.78-4.02-11.21
			c-0.95-0.66-2.04-1.26-3.37-1.72c0.07-0.08,0.89-1.16,0.82-1.44c-0.07-0.29-0.34-0.56-0.82-0.84c-1.33-0.72-1.77,1.23-1.79,1.27
			c0,0-2.17-3.91-3.09-5.24c-2.4-3.46-6.3-5.58-10.51-5.73c-1.75-0.06-8.4,1.02-9.29,1.39c0,0,4.25,6.85,13.25,7.67
			c4.67,0.47,4.71,1.68,4.71,1.68c-2.3-0.12-3.98,0.61-4.32,0.8c-0.02,0.01-0.02,0.01-0.04,0.02c-3.45,1.98-6.87,6.46-8.11,12.48
			l-0.96,4.31c-0.08-0.02-2.74-0.64-3.02-0.69c-0.63-0.11-1.27-0.21-1.86-0.23c0,0-2.54,0.27-3.65,0.58
			c-4.99,1.39-8.4,7.82-8.93,9.04c-0.49,1.16-1.95,5.34-1.95,5.34l-8.57-2.19c0,0-0.11,7.31-0.14,9.19
			c-2.64-2.14-36.25-35.4-38.43-37.73c-2.9-3.1-8.66-11.22-10.38-14.32c-0.62-1.14-1.45-2.18-2.25-3.2
			c-0.79-1.01-2.02-2.05-2.59-3.2c-0.53-1.08,0.14-2.06,0.46-3.09c0.41-1.33-0.18-2.47-0.79-3.64c-0.27-0.52-0.43-0.8-0.85-1.23
			c-0.44-0.44-0.87-0.56-1.33-0.93c-0.41-0.33-0.64-0.86-1.11-1.16c-1.63-1.06-2.97-0.9-2.93-3.48c0.01-0.52,0.53-6.72-0.52-11.12
			c-0.73-3.13-3.39-8.62-3.74-9.78c-1-3.37-4.84-6.61-4.96-6.69c-0.23-0.15-0.36-0.83-0.44-1.6c0.32-0.08,0.63-0.19,0.92-0.34
			c1-0.54,1.11-0.55,1.17-1.77c0.05-1.06,0.25-2.74-0.1-3.72c-0.51-1.4-2.1-2.33-3.36-3.04c0.02-0.17,0.02-0.33,0.07-0.5
			c0.39-1.31,1.98-0.87,2.93-1.44c0.43-0.25,0.66-0.63,0.92-1.04c0.83-1.36,1.44-2.89,2.14-4.31c0.16-0.33,0.75-2.12,1.12-2.26
			c6.92-2.65,11.38-6.98,11.04-11.54c-0.2-2.73-2.09-5.13-5.13-6.96c-1.65-1-3.63-1.83-5.87-2.44c-0.48-0.14-0.97-0.26-1.47-0.37
			c-1.37-2.44-3.56-4.4-6.23-5.44c-0.34-0.14-0.68-0.25-1.02-0.34c-0.16-0.05-0.33-0.09-0.49-0.14c-0.16-0.03-0.33-0.08-0.49-0.11
			c-0.49-0.1-0.97-0.16-1.43-0.21c-0.1-0.02-0.21-0.02-0.31-0.03c-2.59-0.17-5.06,0.48-7.14,1.73c-1.38,0.98-2.69,2.26-3.74,3.46
			c-0.77,0.88-1.41,1.72-1.82,2.38c-7.52,2.6-12.47,7.14-12.12,11.94c0.34,4.6,5.08,7.36,8.95,8.76c1.26,0.46,3.92,0.36,3.83,2.14
			c-0.04,0.85-0.6,1.69-0.7,2.56c-0.03,0.29-0.03,0.6-0.04,0.92c-0.76-0.21-1.25-0.99-2.12-0.31c-0.75,0.58-0.46,1.63-0.46,2.47
			c0,0.51,0,0.84,0.05,1.09c-0.2,0.09-0.38,0.17-0.55,0.25c-0.41,0.2-1.17,0.41-1.5,0.73c-0.32,0.3-0.28,0.58-0.47,0.9
			c-0.3,0.51-0.22,0.44-0.66,0.84c-0.72,0.65-1.55,1.19-2.28,1.83c-1.83,1.61-3.52,3.38-5.06,5.27c-3.99,4.89-4.69,14.3-4.75,14.9
			c0.03,4.19,0.74,8.88-0.5,12.96c-0.55,1.82-0.74,3.74-1.56,5.47c-0.77,1.63,0.05,3.37,1.41,4.54c-0.79-0.68-1.25,1.96-1.27,2.19
			c-0.1,1.38,0.41,2.22,0.92,3.4c0.28,0.64,0.39,1,0.35,1.7c-0.04,0.77-0.07,1.62-0.18,2.38c-0.1,0.71-0.7,1.38-0.66,2.07
			c0.04,0.63,0.39,1.61,0.51,2.24c0.49,2.43,2.84,4.02,2.95,6.55c0.13,3.06-0.46,6.36-1.46,9.24c-2.65,7.63-4.48,15.05-3.9,23.25
			c0.28,3.96,1.73,7.73,2.27,11.66c0.38,2.73,0.07,5.4,0.07,8.15c0,1-0.01,2-0.01,2.99c0,1.04,0.43,1.99,0.43,3
			c0,0.86-0.34,1.76-0.41,2.63c-0.12,1.62-1.27,3.06-1.33,4.65c-0.04,1.01,0.77,1.75,0.73,2.75c-0.06,1.52-1.65,1.49-2.38,2.61
			c-0.76,1.15-0.8,2.66-0.81,3.99c0,0.45-0.12,1.1-0.02,1.53c0.11,0.47,0.56,0.48,0.33,1.03c-0.13,0.31-0.47,0.31-0.69,0.46
			c-0.43,0.29-0.48,0.3-0.75,0.76c-0.64,1.05-0.93,2.25-1.06,3.46c-0.08,0.8,0.18,2.78-1.08,2.92c-0.87,0.09-2.26-0.19-3.22-0.45
			c-0.56-0.16-0.95-0.87-1.73-0.34c-0.26,0.18-0.59,1.52-0.73,1.86c-0.26,0.63-0.6,1.4-0.79,2.01c-0.82,2.67-1.26,5.43-2.55,7.94
			c-1.42,2.78-2.57,6.57-3.4,9.78c-0.9,3.48-1.44,7.44-2.73,10.77c-0.68,1.77-1.6,3.32-2.04,5.18c-0.44,1.86-0.84,3.18-2.08,4.66
			c-1.12,1.33-2.01,2.96-2.12,4.72c-0.07,1.03,0.09,2.05,0.08,3.08c0,0.29,0.05,0.53-0.21,0.69c-0.36,0.22-0.62-0.09-0.82,0.43
			c-0.14,0.38-0.01,0.73-0.08,1.14c-0.07,0.41-0.25,0.69-0.2,1.14c0.05,0.51,0.41,0.95,0.55,1.37c0.01,0.02,0,0.04,0.01,0.05
			c-1.43,0.04-2.86,0.08-4.29,0.12c0.08-0.08,0.15-0.16,0.2-0.28c0.15-0.39,0.11-0.86,0.13-1.28c0.01-0.39,0.14-0.84-0.02-1.21
			c-0.14-0.34-0.52-0.63-0.78-0.88c-0.38-0.37-0.79-0.7-0.99-1.21c-0.19-0.5-0.18-1.06-0.27-1.58c-0.26-1.46-0.99-2.77-2.29-3.52
			c-2.63-1.52-6.24-0.82-9.05-0.28c-3.66,0.7-5.76-0.44-7.45-2.59c-0.01-0.05,0-0.1-0.01-0.15c-0.43-2.46-1.85-5.31-2.25-7.57
			c-0.59-3.35-0.87-6.77-1.13-10.17c-0.22-2.83-0.49-5.66-0.83-8.48c-0.15-1.24-0.32-2.49-1.25-3.45c-1.22-1.25-2.17-0.48-3.68,0
			c-0.12,0.04-0.24,0.08-0.36,0.11c-0.66-6.16-0.85-12.69,0.76-18.66c0.12-0.44,0.1-0.94,0.02-1.39c-0.38-2.06-0.61-4.4-1.46-6.34
			c-0.33-0.74-0.78-1.4-0.93-2.22c-0.17-0.95,0.2-1.93-0.02-2.87c-0.31-1.34-1.29-2.79-1.73-4.18c-0.95-3.01-3.39-5.55-3.81-8.75
			c-0.17-1.28-0.06-2.39-0.45-3.67c-1.09-3.61-2.72-7.04-3.84-10.65c-0.61-1.96-1.08-3.96-1.24-6c-0.11-1.4,0.19-2.77,0.15-4.15
			c-0.01-0.36-0.08-0.75-0.18-1.15c1.9,1.86,3.84,3.28,6.77,4.32c3.97,1.41,7.98,1.78,12.04,0.38c4.13-1.42,7.62-4.27,10.27-7.77
			c0.83-1.1,1.58-2.26,2.23-3.46c3.9-7.13,4.72-15.5,6.13-23.4c0.92,0.46,2.26,0.14,2.85-0.77c0.75-1.17,0.38-2.81-0.56-3.83
			c-1.22-1.32-4.36-2.44-6.54-2.92c0.37-1.38,0.65-2.77,0.9-4.03c0.22-1.16,0.41-2.64,0.33-4.08c-0.06-0.94-0.24-1.85-0.6-2.63
			c-0.37-0.78-0.93-1.42-1.76-1.82c0.38-1.45,0.84-2.61,1.3-3.52c-0.04,0.34-0.1,0.99-0.05,1.78c0.02,0.35,0.06,0.72,0.14,1.13
			c0.01,0.05,0.02,0.09,0.03,0.14c0.23,1.18,0.7,2.03,1.25,2.66c0.21,0.24,0.46,0.48,0.75,0.7c0.54,0.4,1.21,0.72,2.07,0.91
			c0,0,0.68-0.92,0.78-2.37c0.01-0.21,0.01-0.43,0-0.66c-0.04-0.64-0.2-1.35-0.52-2.11c0,0-0.06-0.06-0.06-0.07
			c-0.04-0.09-0.09-0.18-0.14-0.27c-0.57-1.09-1.62-1.61-2.52-1.87c-0.74-0.21-1.37-0.24-1.58-0.24c0.34-0.63,0.67-1.14,0.98-1.54
			c0.41-0.53,0.76-0.88,1.03-1.1c0.13-0.11,0.23-0.18,0.3-0.23c0.04-0.03,0.06-0.04,0.14-0.1c0.04-0.05,0.06-0.11,0.05-0.17
			c-0.01-0.13-0.09-0.28-0.22-0.42c-0.15-0.16-0.33-0.25-0.48-0.24c-0.05,0-0.1,0.02-0.14,0.05c-0.02,0.01-0.03,0.03-0.07,0.07
			c-0.48,0.54-0.9,1.13-1.27,1.74c-0.14,0.2-0.25,0.38-0.33,0.52c-0.31,0.52-0.58,1.16-0.82,1.82c-0.57,1.41-0.88,2.66-1.01,3.25
			c-0.56-0.21-1.14-0.29-1.73-0.26c-2.4,0.14-4.93,2.13-7.35,4.98c-0.35,0.42-0.73,0.81-1.11,1.2c-0.2-0.98-0.38-1.85-0.48-2.51
			c-0.18-1.16-0.51-2.63-1.08-3.97c-0.37-0.87-0.85-1.69-1.47-2.32c-0.61-0.63-1.36-1.08-2.29-1.22c-0.13-1.48-0.09-2.71,0.04-3.71
			c0.08,0.33,0.24,0.97,0.56,1.7c0.14,0.33,0.31,0.67,0.51,1.03c0.03,0.04,0.05,0.09,0.08,0.13c0.62,1.05,1.36,1.72,2.1,2.17
			c0.28,0.17,0.59,0.32,0.94,0.44c0.65,0.23,1.4,0.34,2.28,0.27c0,0,0.44-1.38-0.29-3.1c-0.25-0.59-0.65-1.22-1.22-1.85
			c0,0-0.07-0.04-0.08-0.05c-0.07-0.07-0.14-0.14-0.22-0.22c-0.92-0.87-2.09-1.07-3.04-1.06c-0.77,0.01-1.39,0.16-1.58,0.22
			c0.1-0.69,0.25-1.27,0.41-1.74c0.21-0.62,0.43-1.06,0.6-1.33c0.09-0.14,0.16-0.24,0.21-0.31c0.03-0.03,0.05-0.06,0.1-0.13
			c0.02-0.05,0.02-0.11,0-0.18c-0.05-0.12-0.18-0.24-0.35-0.34c-0.2-0.11-0.4-0.14-0.54-0.09c-0.05,0.02-0.09,0.05-0.11,0.09
			c-0.01,0.02-0.01,0.04-0.04,0.09c-0.27,0.65-0.47,1.32-0.62,2.01c-0.06,0.23-0.11,0.43-0.14,0.59c-0.12,0.58-0.16,1.27-0.17,1.98
			c-0.06,1.49,0.07,2.75,0.14,3.34c-0.61-0.03-1.18,0.05-1.73,0.25c-1.84,0.66-3.07,1.89-3.96,3.37c-0.26-0.3-0.55-0.52-0.9-0.78
			c-1.09-0.8-1.85-1.93-2.89-2.79c-0.73-0.61-1.53-1.11-2.36-1.4c-0.84-0.28-1.71-0.34-2.59-0.05c-0.79-1.26-1.32-2.37-1.66-3.32
			c0.22,0.26,0.65,0.75,1.27,1.26c0.27,0.23,0.58,0.46,0.92,0.68c0.04,0.03,0.09,0.05,0.13,0.08c1.03,0.65,1.99,0.92,2.86,0.97
			c0.33,0.02,0.67,0.02,1.04-0.03c0.68-0.09,1.4-0.33,2.15-0.79c0,0-0.01-0.04-0.03-0.11c-0.08-0.35-0.44-1.52-1.65-2.52
			c-0.49-0.41-1.13-0.79-1.93-1.09c0,0-0.08,0-0.1,0c-0.1-0.03-0.19-0.06-0.3-0.09c-1.21-0.35-2.35,0-3.18,0.44
			c-0.68,0.36-1.16,0.78-1.31,0.92c-0.22-0.67-0.36-1.25-0.43-1.74c-0.1-0.64-0.1-1.14-0.07-1.46c0.01-0.16,0.03-0.29,0.05-0.37
			c0.01-0.04,0.02-0.07,0.03-0.16c-0.01-0.06-0.04-0.11-0.09-0.15c-0.1-0.08-0.27-0.13-0.47-0.14c-0.22,0-0.42,0.06-0.52,0.16
			c-0.03,0.04-0.05,0.08-0.05,0.13c0,0.02,0.01,0.04,0,0.1c0.05,0.7,0.18,1.39,0.37,2.07c0.05,0.23,0.1,0.43,0.14,0.59
			c0.16,0.57,0.43,1.2,0.75,1.84c0.63,1.36,1.31,2.42,1.65,2.91c-0.55,0.24-1.03,0.58-1.43,1.01c-1.58,1.69-2.07,3.69-2.04,5.75
			c-0.27-0.24-0.52-0.49-0.77-0.74c0.07-8.11-1.25-16.58-6.82-21.83c-1.97-1.85-4.06-3.96-5.09-6.51c0.67-0.6,0.99-1.99,0.62-2.71
			c-0.11-0.22-0.73-0.82-0.99-0.99c0.08-0.71,0.19-1.42,0.23-2.12c0.59-0.12,1.16-0.26,1.7-0.44c0.75-0.25,1.3-0.63,1.96-1.02
			c1.68-1,2.18-3.1,2.59-4.9c0.12-0.54,0.07-0.99,0.14-1.54c0.05-0.47,0.26-0.87,0.32-1.35c0.11-0.88-0.01-1.85-0.01-2.74
			c0-0.44,0.12-1.1,0.02-1.53c-0.1-0.42-0.31-0.52-0.33-1.04c-0.01-0.57,0.23-0.83,0.33-1.37c0.06-0.37-0.02-0.83-0.02-1.21
			c0-0.49-0.03-0.98,0.07-1.45c0.07-0.3,0.24-0.56,0.24-0.98c-0.01-0.42,0.11-0.98,0.01-1.37c-0.09-0.36-0.39-0.6-0.26-0.98
			c0.07-0.2,0.58-0.53,0.74-0.64c0.11-0.07,0.93-0.3,0.98-0.4c0.16-0.3-0.41-1.57-0.56-1.91c-0.43-0.95-0.49-1.73-0.73-2.72
			c-0.1-0.4-0.5-0.88-0.58-1.22c-0.13-0.48-0.02-0.94-0.16-1.43c-0.16-0.57-0.62-1.07-0.98-1.53c-0.21-0.27-0.41-0.54-0.61-0.8
			c-0.96-1.23-1.9-2.32-3.27-3.25c-1.4-0.95-2.96-1.43-4.51-2.07c-0.64-0.27-0.93-0.2-1.6-0.26c-0.65-0.06-1.16-0.36-1.8-0.41
			c-0.98-0.07-1.95-0.04-2.92,0.11c-1.58,0.24-3.42-0.17-4.77,0.89c-0.56,0.44-1.34,1.14-1.45,1.9c-0.24-0.1-1.1,1.52-1.57,2.02
			c-0.8,0.27-1.51,0.26-2.06,1.01c-0.89,1.22-1.42,2.79-1.45,4.26c-0.07,3.66-0.73,5.73,1.42,9.13c-0.74,0.81-0.69,1.56-0.81,2.62
			c-0.08,0.72-0.34,1.27-0.33,2.02c0.01,0.62,0.11,1.11,0.31,1.7c0.86,2.6,2.56,5.41,4.59,7.72c-0.21,0.14-0.43,0.28-0.62,0.46
			c-0.96,0.88,0.21,0.97-0.05,2.15c-0.03,0.15-0.09,0.27-0.13,0.42c-1.21,0.02-2.24,0.35-2.39,1.41c-0.09,0.61,0.3,1.35,0.8,1.93
			c-1.63,2.23-3.93,3.72-5.85,6.11c-3.46,4.31-5.37,10.11-5.6,15.59c-0.18,4.36,1.64,8.18,2.45,12.28c0.14,0.71,0.33,1.36,0.38,2.09
			c0.04,0.62,0.3,0.93,0.39,1.49c0.11,0.72,0.01,1,0.3,1.61c-0.44,0.29-0.39,1.17-0.5,1.62c-0.1,0.4-0.08,1.38-0.5,1.61
			c0.39,0.55,0.33,1.39,0.59,2.08c0.33,0.9,0.7,1.58,0.9,2.54c0.23,1.1,0.61,2.23,1.09,3.23c0.2,0.41,0.47,0.79,0.65,1.2
			c-0.4,0.03-0.5,0.35-0.66,0.67c-0.08,0.16-0.34,0.91-0.39,1.12c-0.19,0.83,0.02,1.99,0.02,2.85c0,1.06,0.02,1.9,0.29,2.91
			c0.22,0.8,0.19,1.72,0.46,2.5c0.41,1.19,0.96,1.36,0.7,2.67c-0.24,1.2-0.48,2.4-0.71,3.6c-0.5,2.54-0.97,5.09-1.34,7.66
			c-0.74,5.15-1.11,10.43-0.31,15.6c0.85,5.49,3.75,10.4,4.52,15.86c0.58,4.1,1.3,8.94-0.87,12.73c-0.45,0.79-1.03,1.35-1.32,2.15
			c-0.56,1.56-0.37,3.35-1.35,4.74c-0.89,1.25-2.16,2.14-3,3.44c-1.25,1.95-1.34,4.28-2.33,6.34c-1.53,3.17-4.43,5.11-6.91,7.46
			c-1.29-1.08-2.69-1.87-4.01-0.56c-7.13,7.08-13.65,18.14-17.27,27.5c-1.13,2.92-1.96,4.39-1.63,5.68
			c-0.64,0.77-1.27,1.55-1.89,2.32c-1.78,2.25-3.49,4.77-4.72,7.37c-0.25,0.53-0.21,1.17,0.11,1.66c-0.45-0.43-1.17,0.22-1.44,0.58
			c-0.33,0.44-0.39,0.95-0.16,1.45c0.29,0.64,0.92,1.15,1.41,1.63c0.55,0.55,1.11,1.08,1.66,1.63c1.16,1.18,2.71,1.88,4.17,2.5
			c0.44-0.3,0.36-0.84,0.65-1.11c0.26-0.23,0.65-0.32,0.95-0.57c0.67,0.56,1.08,1.96,1.46,2.73c0.49,0.98,0.89,1.98,1.59,2.82
			c1.33,1.58,3.77,2.58,6.01,3.27c-35.37,3.84-69.55,8.91-102.21,15.14c83.1-6.06,170.58-9.3,260.88-9.3
			c90.3,0,177.77,3.23,260.88,9.3c-27.66-5.27-56.41-9.72-86.04-13.29C466.13,316.09,470.6,313.68,474.03,310.21 M226.9,144.41
			C226.9,144.41,226.9,144.41,226.9,144.41c0-0.02,0-0.03,0.01-0.05C226.9,144.38,226.9,144.4,226.9,144.41 M227.15,145.47
			L227.15,145.47l0.28-2.11l-0.13-0.22v0l0.13,0.22L227.15,145.47z M227.29,143L227.29,143C227.29,143,227.29,143,227.29,143
			C227.29,143,227.29,143,227.29,143 M227.44,143.26l0.09-0.67c0,0,0,0,0,0L227.44,143.26L227.44,143.26z M227.48,143.46
			L227.48,143.46l0.71,1.22L227.48,143.46z M227.55,142.39L227.55,142.39C227.56,142.39,227.56,142.39,227.55,142.39L227.55,142.39z
			 M228.1,147.06c-0.01-0.09-0.02-0.19-0.03-0.28C228.08,146.87,228.09,146.97,228.1,147.06C228.1,147.06,228.1,147.06,228.1,147.06
			 M228.12,144.44l0.22,0.37l0-0.01c0,0,0,0.01,0,0.01L228.12,144.44z M228.34,147.33l0.22-2l-0.21-0.36l0.21,0.35L228.34,147.33z
			 M229.3,146.61c0-0.01,0-0.01,0-0.02l-0.68-1.18l-0.22,1.97c0,0,0,0,0,0l0.22-1.97l0.68,1.18L229.3,146.61z M228.72,143.97
			L228.72,143.97l-0.14,1.25h0L228.72,143.97z M228.76,144.14l-0.13,1.17l0,0L228.76,144.14z M229.37,146.59l0.03,0.06
			L229.37,146.59z M229.51,146.95l-0.16-0.27c0,0,0,0,0,0L229.51,146.95z M229.5,148.32L229.5,148.32l0.11-1.19L229.5,148.32z
			 M229.49,144.82c0.05,0.1,0.11,0.21,0.16,0.31C229.59,145.03,229.54,144.92,229.49,144.82L229.49,144.82z M229.38,144.76
			L229.38,144.76c0.02,0.03,0.03,0.06,0.05,0.09C229.42,144.82,229.4,144.79,229.38,144.76 M229.42,144.71
			c-0.02-0.04-0.04-0.07-0.05-0.11C229.39,144.63,229.41,144.67,229.42,144.71L229.42,144.71z M229.36,144.71L229.36,144.71
			C229.35,144.7,229.35,144.7,229.36,144.71C229.35,144.7,229.35,144.7,229.36,144.71 M229.34,146.41
			c-0.01,0.03-0.01,0.06-0.02,0.09v0C229.33,146.47,229.33,146.44,229.34,146.41 M229.37,148.22c0,0-0.01,0-0.01-0.01
			c-0.01-0.05-0.02-0.1-0.03-0.15C229.33,148.12,229.35,148.17,229.37,148.22 M228.38,143.17c0.2,0.24,0.4,0.5,0.59,0.79
			C228.77,143.67,228.57,143.41,228.38,143.17L228.38,143.17z M228.32,143.1C228.32,143.1,228.32,143.1,228.32,143.1
			c-0.01-0.01-0.02-0.02-0.03-0.03C228.3,143.08,228.3,143.09,228.32,143.1 M227.14,141.93c0.32,0.27,0.7,0.63,1.09,1.07
			C227.84,142.56,227.46,142.21,227.14,141.93C227.14,141.94,227.14,141.94,227.14,141.93 M226.88,142.43l0.38,0.65
			c0,0.01-0.01,0.02-0.01,0.03c0-0.01,0.01-0.02,0.01-0.03L226.88,142.43z M228.56,138.25c0,0,0.01-0.01,0.01-0.01
			c-0.01,0-0.03,0-0.04-0.01c0.02,0,0.03,0,0.05,0C228.57,138.24,228.57,138.25,228.56,138.25 M228.33,137.45
			c0.08,0.04,0.15,0.1,0.22,0.17C228.49,137.54,228.4,137.49,228.33,137.45C228.33,137.45,228.33,137.45,228.33,137.45
			 M227.93,137.55c0,0.01,0,0.02,0,0.03L227.93,137.55L227.93,137.55z M226.2,141.24c0.01-0.04,0.01-0.07,0.01-0.07
			S226.21,141.19,226.2,141.24l0,0.01C226.2,141.24,226.2,141.24,226.2,141.24 M210.62,138.24L210.62,138.24l0,0.04
			C210.62,138.27,210.62,138.25,210.62,138.24 M210.73,139.61c0-0.02-0.01-0.04-0.01-0.05
			C210.72,139.57,210.73,139.59,210.73,139.61L210.73,139.61z M211.33,140.54l-0.45-2.08h0L211.33,140.54L211.33,140.54z
			 M212.23,139.57c0-0.02,0-0.05,0-0.07C212.23,139.52,212.23,139.55,212.23,139.57L212.23,139.57z M212.3,138.48L212.3,138.48
			l-0.04,0L212.3,138.48z M212.3,139.63L212.3,139.63l0.3,0.26l-0.29-1.23c0,0,0,0,0-0.01l0.29,1.24L212.3,139.63z M212.78,141.78
			c-0.04-0.08-0.08-0.17-0.12-0.26c0.04,0.09,0.09,0.18,0.14,0.27C212.79,141.78,212.78,141.78,212.78,141.78 M214.36,142.52
			c-0.04-0.05-0.07-0.11-0.1-0.16c0.03,0.06,0.08,0.11,0.12,0.17C214.37,142.52,214.37,142.52,214.36,142.52 M214.46,142.54
			l-0.32-1.2l-0.31-0.27l0.31,0.27L214.46,142.54L214.46,142.54 M213.82,140.96L213.82,140.96l0.25,0.22L213.82,140.96z
			 M214.54,142.57l-0.3-1.16v0L214.54,142.57z M215.45,142.68c0-0.01,0.01-0.02,0.01-0.04
			C215.46,142.66,215.45,142.67,215.45,142.68h-0.02H215.45z M215.37,142.32C215.37,142.33,215.38,142.33,215.37,142.32l-1.06-0.92
			L215.37,142.32z M213.77,139.91l0.35,1.32l0,0L213.77,139.91v0.02C213.77,139.92,213.77,139.91,213.77,139.91 M213.77,141.02
			c0-0.01,0-0.02-0.01-0.03l-0.99-0.87l0.99,0.87C213.76,141,213.77,141.01,213.77,141.02 M213.75,140.9c0-0.03-0.01-0.05-0.01-0.08
			C213.74,140.84,213.74,140.87,213.75,140.9l-1.06-0.93l-0.25-1.07l0.25,1.07L213.75,140.9z M213.22,139.23
			c0.03,0.03,0.05,0.05,0.08,0.08C213.27,139.28,213.24,139.25,213.22,139.23L213.22,139.23z M213.17,139.18L213.17,139.18
			c0,0-0.01-0.01-0.01-0.01C213.16,139.17,213.16,139.18,213.17,139.18 M211.71,138L211.71,138c0.01,0.01,0.03,0.02,0.04,0.03
			C211.73,138.02,211.72,138.01,211.71,138 M211.42,140.65l-0.46-2.12L211.42,140.65z M210.68,138.21l0.17,0.15L210.68,138.21z
			 M210.68,138.29l0.11,0.09L210.68,138.29z M210.67,137.5L210.67,137.5L210.67,137.5L210.67,137.5z M210.62,138.16
			c0-0.01,0-0.02,0-0.03L210.62,138.16l-0.14-0.12L210.62,138.16z M210.22,133.28C210.22,133.28,210.23,133.27,210.22,133.28
			c0-0.01-0.01-0.01-0.02-0.01c0.01,0,0.02,0,0.03,0C210.23,133.27,210.22,133.28,210.22,133.28 M209.38,132.8
			c0,0.01,0,0.02,0.01,0.03L209.38,132.8C209.38,132.8,209.38,132.8,209.38,132.8 M194.17,135.65L194.17,135.65L194.17,135.65
			L194.17,135.65z M194.46,136.33L194.46,136.33c0.01,0.01,0.01,0.03,0.02,0.04C194.47,136.35,194.47,136.34,194.46,136.33
			 M194.54,136.35L194.54,136.35l0.14,0.03L194.54,136.35z M195.18,137.5c-0.01-0.02-0.02-0.03-0.03-0.05
			C195.16,137.47,195.17,137.48,195.18,137.5C195.19,137.5,195.18,137.5,195.18,137.5 M196.14,138.06l-1.35-1.64L196.14,138.06z
			 M196.27,138.11l-1.38-1.68h0L196.27,138.11z M196.04,135.79l0.03-0.02L196.04,135.79z M196.51,136.78
			c-0.01-0.02-0.03-0.04-0.03-0.06C196.48,136.74,196.5,136.76,196.51,136.78z M196.6,136.8l0.39,0.1l-0.82-0.96c0,0,0,0,0,0
			l0.82,0.97L196.6,136.8L196.6,136.8z M197.99,138.5c-0.08-0.06-0.15-0.12-0.23-0.18c0.08,0.06,0.16,0.12,0.24,0.18
			C198.01,138.5,198,138.5,197.99,138.5 M198.51,137.35l-1.28-0.32L198.51,137.35c0.01,0.01,0.01,0.02,0.02,0.02
			C198.53,137.37,198.52,137.36,198.51,137.35 M198.56,137.3l0.32,0.08L198.56,137.3z M198.61,137.37l0.4,0.1L198.61,137.37
			 M199.74,138.43c-0.06-0.03-0.11-0.06-0.16-0.1c0.05,0.03,0.12,0.06,0.18,0.09C199.75,138.43,199.75,138.43,199.74,138.43
			 M199.84,138.4l-0.82-0.92L199.84,138.4L199.84,138.4 M199.92,138.4l-0.8-0.9l0,0L199.92,138.4z M200.78,138.04
			c0,0.02,0,0.03,0.01,0.04c0,0-0.01,0-0.02,0.01c0,0,0.01,0,0.02-0.01C200.78,138.07,200.78,138.06,200.78,138.04 M200.56,137.8
			l-1.36-0.34L200.56,137.8L200.56,137.8z M198.94,137.39L198.94,137.39l-0.91-1.01l0,0.01c0-0.01,0-0.01-0.01-0.02L198.94,137.39z
			 M197.23,136.02c0.04,0.01,0.07,0.02,0.11,0.03C197.3,136.05,197.26,136.04,197.23,136.02L197.23,136.02z M197.16,136.01
			L197.16,136.01c-0.01,0-0.01,0-0.02,0C197.15,136.01,197.15,136.01,197.16,136.01 M197.09,136.93l1.37,0.35
			c-0.02-0.02-0.03-0.04-0.05-0.07c0.02,0.03,0.03,0.05,0.05,0.07L197.09,136.93l-0.71-0.84L197.09,136.93z M195.33,135.62
			L195.33,135.62c0.02,0,0.03,0,0.05,0C195.36,135.62,195.34,135.62,195.33,135.62 M194.51,136.27L194.51,136.27l0.22,0.06
			L194.51,136.27z M194.43,136.25c0-0.01-0.01-0.02-0.01-0.03C194.42,136.23,194.42,136.24,194.43,136.25l-0.18-0.04L194.43,136.25z
			 M190.89,132.06C190.89,132.05,190.89,132.05,190.89,132.06c0.01,0,0.01,0.01,0.02,0.01L190.89,132.06z M191.83,132.1
			c0.01-0.01,0.02-0.01,0.03-0.02c0,0,0,0.01,0,0.02c0,0,0-0.01,0-0.01C191.85,132.09,191.84,132.09,191.83,132.1 M192.35,135.78
			c-0.01-0.01-0.02-0.02-0.02-0.03C192.34,135.76,192.35,135.77,192.35,135.78c0.01,0.03,0.03,0.06,0.03,0.09
			C192.38,135.84,192.36,135.81,192.35,135.78 M315.09,167.71c3.67,2.47,7.33,4.94,11,7.41c1.61,1.09,5.66,2.85,6.46,4.67
			c0.54,1.25-0.37,3.2-0.21,4.6c0.21,1.89,1.05,3.73,2.45,5.03c1.83,1.7,4.51,2.39,6.96,1.97c1.87-0.33,3.07-1.57,4.84-0.89
			c2.08,0.8,4.46,4.3,6.1,5.88c0,0,13.95,12.65,13.96,12.65c0,0,9.34,8.08,9.34,8.19c-0.33,3.06-0.03,6.86,0.14,7.63
			c0.25,1.1,0.68,2.21,1.26,3.31l-2.29,1.03c-0.56-0.43-44.24-34.48-44.24-34.48c0.07-0.27,0.43-2.84-0.68-3.73
			c-1.15-0.93-6.15-3.55-6.71-3.86c-3.85-2.23-6.79-6.46-9.32-10.97c-0.12-1.21-0.28-2.84-0.41-4.05
			C313.74,172.09,315.01,168.83,315.09,167.71 M314.36,197.27c0.78,2.3,1.6,3.6,2.34,4.32c1.05,2.32,3.29,4.01,6,4.2
			c2.03,0.15,3.93-0.57,5.32-1.84c0.37-0.33,0.7-0.71,0.99-1.1c0.01-0.08,0.02-0.15,0.03-0.23c0.01-0.13,0.11-0.2,0.28-0.23
			c0.63-0.11,2.12,0.43,2.12,0.44l0.81,0.62l104.03,78.35c-2.37,4.22-3.55,9.23-2.88,14.66c1.04,8.42,6.62,15.65,14.26,18.94
			c-34.31-3.8-69.75-6.41-106.08-7.74c0.54-0.69,0.84-1.68,0.62-2.45c-0.01-0.03-0.02-0.06-0.03-0.1c-0.29-0.83-1.13-0.65-1.46-1.22
			c-1.07-1.84,0.43-4.06-0.88-6.07c-0.99-1.53-2.98-2.54-4.78-2.66c-1.58-0.11-3.32,0.67-5.03,0.58c-2.69-0.14-7.12-1.08-9.34-2.63
			c0.05-2.26-0.36-4.86-0.17-6.81c0.34-3.35,0.99-6.67,1.65-9.97c0.55-2.75,1.05-5.51,1.49-8.28c0.19-1.22,0.36-2.46-0.27-3.61
			c-0.46-0.84-1.01-1.07-1.67-1.09c-0.04-2.56-0.14-5.13-0.18-7.68c-0.07-4.34-0.47-8.66-1.23-12.93l-8.92-50.64l0-0.04l-0.03-0.81
			C311.45,191.4,314.22,196.86,314.36,197.27 M313.42,306.91c-1.6-0.03-3.2-0.06-4.81-0.08c0.49-0.07,0.99-0.12,1.51-0.11
			C311.23,306.75,312.32,306.84,313.42,306.91 M287.81,97.03c-0.26,0.11-0.53,0.18-0.82,0.18
			C285.95,97.04,285.87,95.95,287.81,97.03 M224.55,144.8l0.01,0.01c0.08,0.03,0.17,0.07,0.25,0.11l0,0v0
			C224.73,144.88,224.64,144.85,224.55,144.8C224.55,144.81,224.55,144.81,224.55,144.8 M222.1,144.68
			c-2.17,0.43-4.45,2.28-6.63,4.87C217.65,146.96,219.94,145.1,222.1,144.68 M208.98,136.76c0,0.01,0,0.03,0.01,0.04
			c0,0.03-0.01,0.06-0.01,0.09c0-0.03,0.01-0.07,0.01-0.1C208.99,136.78,208.98,136.77,208.98,136.76 M208.88,140.04L208.88,140.04
			c0-0.02,0-0.04,0-0.06C208.88,140,208.88,140.02,208.88,140.04 M208.64,140.65c0.09,0,0.19,0.01,0.28,0.03h0c0-0.02,0-0.03,0-0.05
			c0,0.02,0,0.04,0,0.05c-0.1-0.01-0.2-0.02-0.3-0.03v-0.01L208.64,140.65z M206.86,140.95L206.86,140.95
			c-0.48,0.17-0.94,0.43-1.37,0.77C205.92,141.38,206.38,141.12,206.86,140.95 M205.27,141.93c-0.35,0.3-0.7,0.61-1.02,1
			C204.56,142.54,204.91,142.23,205.27,141.93 M203.83,143.52c-0.24,0.33-0.49,0.65-0.72,1.04
			C203.34,144.18,203.58,143.86,203.83,143.52 M193.8,139.37c0.08-0.04,0.17-0.07,0.26-0.1l0,0c-0.01-0.02-0.02-0.04-0.03-0.05
			c0.01,0.02,0.02,0.03,0.03,0.05c-0.09,0.03-0.19,0.07-0.28,0.11c0,0,0,0,0,0L193.8,139.37z M193.74,138.73L193.74,138.73
			c-0.01-0.02-0.02-0.04-0.03-0.06C193.72,138.69,193.73,138.71,193.74,138.73 M192.35,140.45L192.35,140.45
			c-0.7,0.75-1.16,1.75-1.43,2.95C191.19,142.21,191.65,141.2,192.35,140.45 M190.81,144.24c-0.11,0.71-0.16,1.48-0.16,2.29
			C190.65,145.72,190.7,144.96,190.81,144.24 M149.01,310.57c-0.13-0.19-0.5-0.4-0.55-0.6c-0.04-0.18,0.14-0.48,0.16-0.68
			c0.02-0.26-0.03-0.53-0.1-0.77c-0.13-0.45-0.38-0.95-0.77-1.24c-0.57-0.43-0.97-1.04-1.7-1.3c-0.37-0.13-0.7-0.2-1.09-0.22
			c-0.48-0.01-0.81,0.15-1.27,0.2c-0.3,0.04-0.54-0.01-0.84,0.07c-0.22,0.05-0.4,0.13-0.63,0.15c-1.09,0.1-2.17,0.25-3.26,0.37
			c-0.38,0.04-0.71,0.03-1.04-0.17c-0.22-0.14-0.38-0.35-0.54-0.55c-1-1.24-1.72-2.68-2.71-3.93c-2.09-2.65-2.14-5.6-1.39-8.54
			c0.18-0.08,0.39-0.14,0.56-0.23c0.46-0.25,0.9-0.59,1.33-0.98c1.85-1.68,3.51-4.4,5.2-5.93c2.53-2.29,5.26-4.35,8-6.38
			c2.28-1.69,4.53-3.43,6.74-5.22c0.97-0.79,1.94-1.6,2.25-2.9c0.41-1.69-0.75-2.09-1.97-3.12c-0.74-0.62-1.48-1.24-2.22-1.87
			c1.59-1.35,3.19-2.68,4.77-3.97c2.6-2.12,5.39-3.79,8.2-5.51c1.79-1.1,3.17-2.58,4.33-4.33c3.27-4.92,4.64-10.63,6.78-16.02
			c0.15-0.37,0.37-0.71,0.56-1.06c0.36,0.25,0.74,0.49,1.07,0.77c0.17,0.15,0.27,0.38,0.41,0.57c2.32,3.41,5.84,6.79,5.89,11.08
			c0.01,1.19,0.41,1.78,0.89,2.8c0.42,0.89,0.52,2.01,1.45,2.57c-1.15-0.7-0.82,2.6-0.81,2.96c0.08,2.03,0.27,2.96,1.55,4.49
			c1.41,1.7,1.01,3.96,1.3,6.04c0.13,0.93,0.31,1.86,0.52,2.78c-0.05,0.02-0.11,0.03-0.16,0.05c-1.26,0.4-3.89,0.69-4.65,2.08
			c-0.08,0.12-0.12,0.26-0.17,0.4c0,0.01-0.01,0.03-0.02,0.04v0.01c-0.12,0.35-0.17,0.74-0.07,1.23c0.16,0.72,0.33,1.45,0.51,2.19
			c0.3,1.89,0.85,3.83,1.97,5.36c0.03,0.04,0.06,0.08,0.09,0.12c0.21,0.56,0.41,1.14,0.65,1.69c0.97,2.19,2.06,4.33,2.87,6.58
			c0.27,0.76,0.74,1.36,1.17,2.01c0.28,0.5,0.55,1.01,0.84,1.5c0.52,1.06,0.97,2.14,1.56,3.16c0.17,0.3,0.39,0.57,0.61,0.84
			c0.04,0.08,0.08,0.15,0.12,0.23c0.66,1.22,1.46,2.39,2.04,3.65c0.17,0.37,0.28,0.76,0.42,1.14c-0.04,0.09-0.08,0.18-0.11,0.28
			c-0.12,0.4-0.2,0.82-0.23,1.23c-0.03,0.42,0.06,0.77,0.19,1.09c-0.12,0.3-0.2,0.61-0.35,0.89c-0.31,0.58-0.81,1.08-0.92,1.75
			c-0.11,0.61,0.04,1.27,0.28,1.9c-16.22,0.97-32.24,2.19-48.04,3.66c0.03-0.03,0.06-0.04,0.09-0.07c0.38-0.43,0.62-0.98,0.53-1.56
			C149.28,311.06,149.16,310.8,149.01,310.57 M280.18,306.68c0.03-0.06,0.08-0.11,0.11-0.17c0.19-0.54-0.07-1.11,0.08-1.65
			c0.07-0.26,0.13-0.34,0.08-0.61c-0.02-0.08-0.11-0.21-0.14-0.31c-0.03-0.12,0.02-0.26-0.02-0.39c-0.14-0.49-0.67-0.82-0.99-1.2
			c-0.25-0.29-0.38-0.58-0.43-0.96c-0.24-1.62,0.07-3.24-1.4-4.4c-1.54-1.21-3.75-0.51-5.51-0.3c-1.42,0.17-2.99,0.26-4.38-0.14
			c-2.09-0.6-2.99-2.33-4.78-3.44c-1.61-0.99-1.27-1.76-0.05-2.97c2.27-2.25,3.95-4.4,5.8-7.09c3.83-5.56,7.66-11.11,11.49-16.67
			c0.69-1,0.5-2.33-0.43-2.88l-1.91-1.14l6.94-12.91c0.77-0.71,1.28-1.69,1.36-2.81l2.61-10.77l0.02-0.05l3.45-14.23
			c1.43,4.17,2.47,8.84,4.67,12.63c0.7,1.2,1,2.74,1.4,4.06c0.33,1.09,0.49,2.19,0.65,3.31c0.14,0.91,0.54,1.81,0.73,2.6
			c0.17,0.7,0.31,1.25,0.5,1.96c0.09,0.35,0.24,0.36,0.3,0.83c0.06,0.43-0.03,0.9-0.01,1.34c0.04,0.86,0.27,1.02,0.85,1.6
			c0.4,0.4,1.2,0.76,1.49,1.19c0.43,0.65,0.26,2.21,0.23,2.96c-0.05,1.35-0.02,3.3-0.62,4.54c-0.17,0.35-0.26,0.48-0.59,0.69
			c-0.86,0.57-1.31,0.63-1.37,1.85c-0.03,0.67,0.07,1.25,0.19,1.9c0.15,0.86,0.15,0.84-0.71,1.09c-1.17,0.33-2.11,0.76-2.18,2.15
			c-0.16,2.83,0.71,6,1.1,8.81c0.51,3.63,1.07,7.25,1.55,10.88c0.43,3.22,0.03,6.27,0.05,9.5c0.01,2.03,1.49,3.89,1.3,5.87
			c-2.34,0.13-1.75,4.04-0.98,5.39c-4.77-0.05-9.55-0.08-14.35-0.08C284.28,306.65,282.23,306.68,280.18,306.68"/>
	</g>
</g>
</svg>
