<?xml version="1.0" encoding="utf-8"?>
<!-- Generator: Adobe Illustrator 25.1.0, SVG Export Plug-In . SVG Version: 6.00 Build 0)  -->
<svg version="1.1" xmlns="http://www.w3.org/2000/svg" xmlns:xlink="http://www.w3.org/1999/xlink" x="0px" y="0px"
	 viewBox="0 0 610.29 392.6" style="enable-background:new 0 0 610.29 392.6;" xml:space="preserve">
<style type="text/css">
	.st0{fill:#00502F;}
	.st1{fill:#00512F;}
	.st2{opacity:0.09;}
	.st3{fill:#FFFFFF;}
	.st4{fill:#4F4D4E;}
	.st5{fill:#221F1F;}
	.st6{fill:#F47A34;}
	.st7{fill:url(#SVGID_1_);}
	.st8{fill:url(#SVGID_2_);}
	.st9{fill:#FCB11A;}
	.st10{fill:url(#SVGID_3_);}
	.st11{fill:url(#SVGID_4_);}
	.st12{fill:url(#SVGID_5_);}
	.st13{fill:url(#SVGID_6_);}
	.st14{fill:url(#SVGID_7_);}
	.st15{fill:url(#SVGID_8_);}
	.st16{fill:none;stroke:#929497;stroke-width:1.2849;stroke-miterlimit:10;}
	.st17{fill:#F17A25;}
	.st18{fill:#FCB11B;}
	.st19{opacity:0.4;fill:#FFFFFF;}
	.st20{opacity:0.3;fill:#FFFFFF;}
	.st21{opacity:0.2;fill:#FFFFFF;}
	.st22{opacity:0.1;fill:#FFFFFF;}
	.st23{fill:none;stroke:#FFFFFF;stroke-width:3;stroke-miterlimit:10;}
</style>
<g id="Capa_2">
</g>
<g id="Capa_3">
</g>
<g id="Capa_1">
	<g>
		<path class="st9" d="M533.7,277.76l1.47,0c0.31-2.47,0.56-4.27,3.51-4.27l1.78,0l0,11.8c0,0.45-0.4,0.84-0.99,0.84l-2.05,0l0,1.52
			l8.65,0l0-1.52l-1.87,0c-0.74,0-1.13-0.18-1.13-0.82l-0.01-11.82l1.89,0c2.9,0,3.13,1.79,3.47,4.26l1.44,0l0-5.83l-16.16,0.01
			L533.7,277.76z"/>
		<path class="st9" d="M576.57,273.43l1.89,0l0-1.52l-6.67,0l-5.82,12.43l-5.75-12.43l-6.73,0l0,1.52l2.07,0
			c0.5,0,0.95,0.39,0.95,0.84l0,11c0,0.45-0.43,0.84-1.01,0.84l-2,0l0,1.52l7.99,0l0-1.52l-1.93,0c-0.72,0-1.15-0.18-1.15-0.82
			l-0.01-11.71l6.47,14.04l1.39,0l6.57-14.07l0.01,11.71c0,0.45-0.4,0.84-0.99,0.84l-2.07,0l0,1.52l8.69,0l0-1.52l-1.85,0
			c-0.74,0-1.17-0.18-1.17-0.82l0-11.05C575.44,273.63,575.9,273.43,576.57,273.43"/>
		<path class="st9" d="M473.2,310.33l1.57,1.17c0,0,2.26,1.7,2.27,1.7c0.18,0.14,0.37,0.24,0.57,0.32c0.06,0.02,0.12,0.04,0.19,0.05
			c0.14,0.05,0.28,0.08,0.42,0.09c0.07,0.01,0.14,0.01,0.21,0.01c0.19,0.01,0.37-0.01,0.56-0.05c0.05,0,0.1-0.01,0.15-0.02
			c0.23-0.06,0.45-0.14,0.67-0.25c0.05-0.02,0.1-0.05,0.14-0.09c0.17-0.09,0.32-0.21,0.47-0.33c0.05-0.05,0.1-0.09,0.15-0.14
			c0.18-0.17,0.35-0.36,0.48-0.58c0.82-1.36,0.34-3.1-0.98-4.01c-1.09-0.72-2.23-1.52-3.43-2.33c2.27-3.78,3.54-8.25,3.35-13.1
			c-0.44-10.94-8.63-20.35-19.42-22.25c-7.75-1.36-15.08,1.17-20.27,6.03c0,0-4.46-3.77-3.76-5.44c0.91-2.15,2.08-4.89,2.68-6.25
			c0.04-0.09,10.66,0.55,10.85,0.5c0.5-0.1,58.03-28.04,58.03-28.04l0.46-1.36l-0.08-2.85c5.22-8.08,5.97-16.85,4.03-22.6
			c-0.14-0.43-1.56-4.36-4.48-6.44c0.19,0.02,3.97,0.32,5.4,2.77c3.46,3.54,8.07,4.27,8.43,4.35c5.63,1.2,14.87,1.33,14.87,1.33
			c-6.54-13.2-19.06-14.32-19.29-14.35c-8.51-0.88-12.45,3.81-12.45,3.81c-1.08-0.6-1.85-0.89-1.85-0.89
			c0.04-0.07,0.36-0.9,0.43-1.2c0.22-0.91,0.03-1.62-1.14-1.83c-2.09-0.37-2.17,1.17-2.15,1.5c0,0.29,0,0.6-0.02,0.91
			c-3.16-2.06-7.13-1.41-7.96-1.32c-0.22,0.03-3.18-1.77-3.02-1.82c0-0.03-0.12-0.53-0.18-0.76c-2.31-8.97-12.71-11.87-12.79-11.88
			c0-0.04,2.91-1.72,2.91-1.72c4.01,2.66,11.72,3.53,12.06,3.56c9.74,0.71,16.81-4.81,16.81-4.81c-0.6-0.52-1.23-0.98-1.81-1.45
			c-7.03-5.63-15.3-5.18-15.46-5.16c-10.24,0.83-18.36,7.39-18.37,7.36c-2.51-0.4-2.73,2.15-2.63,2.45
			c-1.37,0-12.79,3.51-15.49,12.9l-4.78,0.46c-3.47-3.07-10.72-1.87-10.77-1.86l-1.05-2.22c1.61-0.38,7.23,0.63,15.5-5.68
			c5.44-4.15,8.6-10.24,8.6-10.24c-10.24-1.48-16.17,2.06-16.21,2.07c-7.46,3.28-12.06,13-12.21,13.32l-3.8,0.74
			c0.58-1.53,1.65-5.92,1.77-7.33c0.13-1.52,0.86-7.7-3.97-11.09c-0.93-0.66-2.02-1.25-3.33-1.7c0.07-0.08,0.88-1.14,0.81-1.43
			c-0.07-0.29-0.34-0.55-0.81-0.83c-1.32-0.72-1.75,1.22-1.77,1.26c0,0-2.14-3.86-3.06-5.19c-2.37-3.42-6.23-5.52-10.39-5.66
			c-1.73-0.06-8.3,1.01-9.19,1.37c0,0,4.21,6.78,13.1,7.58c4.62,0.47,4.66,1.66,4.66,1.66c-2.28-0.12-3.93,0.6-4.27,0.79
			c-0.02,0.01-0.02,0.01-0.04,0.02c-3.41,1.96-6.79,6.38-8.02,12.35l-0.95,4.26c-0.08-0.02-2.71-0.63-2.99-0.68
			c-0.63-0.1-1.25-0.21-1.84-0.22c0,0-2.51,0.26-3.61,0.57c-4.94,1.38-8.31,7.73-8.83,8.94c-0.49,1.15-1.92,5.28-1.92,5.28
			l-8.47-2.16c0,0-0.11,7.23-0.14,9.09c-2.61-2.11-35.85-35.01-38.01-37.31c-2.87-3.07-8.57-11.09-10.27-14.17
			c-0.62-1.13-1.43-2.16-2.23-3.16c-0.79-1-2-2.02-2.56-3.17c-0.52-1.06,0.14-2.04,0.45-3.06c0.41-1.32-0.17-2.44-0.78-3.6
			c-0.27-0.51-0.42-0.79-0.84-1.21c-0.43-0.44-0.86-0.56-1.32-0.92c-0.41-0.33-0.63-0.85-1.1-1.15c-1.62-1.05-2.93-0.89-2.9-3.45
			c0.01-0.51,0.52-6.65-0.51-11c-0.73-3.1-3.35-8.53-3.69-9.67c-0.99-3.33-4.79-6.54-4.91-6.61c-0.23-0.15-0.36-0.82-0.44-1.58
			c0.32-0.08,0.62-0.19,0.91-0.34c0.99-0.53,1.1-0.54,1.15-1.75c0.05-1.05,0.25-2.71-0.1-3.68c-0.51-1.39-2.08-2.31-3.32-3
			c0.02-0.17,0.02-0.33,0.07-0.49c0.39-1.29,1.96-0.86,2.9-1.42c0.43-0.25,0.66-0.62,0.91-1.03c0.82-1.34,1.42-2.85,2.12-4.27
			c0.16-0.32,0.74-2.1,1.11-2.24c6.84-2.62,11.26-6.9,10.92-11.42c-0.2-2.7-2.07-5.08-5.07-6.88c-1.63-0.99-3.59-1.81-5.81-2.42
			c-0.48-0.14-0.96-0.26-1.46-0.37c-1.35-2.42-3.52-4.35-6.16-5.38c-0.34-0.14-0.67-0.25-1.01-0.34c-0.16-0.05-0.32-0.09-0.48-0.13
			c-0.16-0.03-0.32-0.07-0.48-0.11c-0.48-0.1-0.96-0.16-1.41-0.21c-0.1-0.02-0.21-0.02-0.3-0.03c-2.56-0.17-5.01,0.48-7.06,1.71
			c-1.36,0.97-2.66,2.23-3.7,3.43c-0.77,0.87-1.39,1.7-1.8,2.35c-7.44,2.57-12.33,7.07-11.99,11.81c0.33,4.55,5.02,7.28,8.85,8.66
			c1.25,0.45,3.87,0.36,3.79,2.11c-0.04,0.84-0.6,1.68-0.69,2.54c-0.03,0.29-0.03,0.6-0.04,0.91c-0.75-0.2-1.23-0.98-2.09-0.31
			c-0.74,0.58-0.45,1.61-0.46,2.44c0,0.5,0,0.83,0.05,1.08c-0.19,0.09-0.38,0.17-0.54,0.25c-0.41,0.2-1.15,0.4-1.49,0.72
			c-0.31,0.3-0.28,0.57-0.47,0.89c-0.29,0.5-0.22,0.43-0.65,0.83c-0.71,0.64-1.53,1.18-2.25,1.81c-1.81,1.59-3.48,3.35-5.01,5.21
			c-3.95,4.84-4.64,14.15-4.7,14.74c0.03,4.14,0.74,8.78-0.49,12.81c-0.55,1.8-0.73,3.7-1.54,5.41c-0.77,1.62,0.05,3.33,1.39,4.49
			c-0.78-0.67-1.24,1.94-1.26,2.16c-0.1,1.37,0.4,2.19,0.91,3.36c0.28,0.64,0.38,0.99,0.35,1.68c-0.04,0.76-0.07,1.61-0.17,2.35
			c-0.1,0.71-0.69,1.36-0.65,2.05c0.04,0.62,0.38,1.59,0.51,2.21c0.48,2.4,2.81,3.97,2.92,6.47c0.13,3.02-0.46,6.29-1.45,9.14
			c-2.62,7.55-4.44,14.89-3.86,23c0.28,3.92,1.71,7.65,2.24,11.53c0.37,2.7,0.07,5.34,0.07,8.06c0,0.99-0.01,1.97-0.01,2.96
			c0,1.03,0.42,1.97,0.42,2.97c0,0.85-0.34,1.74-0.4,2.6c-0.12,1.6-1.25,3.03-1.32,4.6c-0.04,1,0.76,1.73,0.72,2.72
			c-0.06,1.5-1.63,1.48-2.36,2.58c-0.75,1.14-0.79,2.63-0.8,3.95c0,0.45-0.12,1.09-0.02,1.51c0.11,0.47,0.56,0.47,0.33,1.02
			c-0.13,0.31-0.46,0.31-0.68,0.46c-0.43,0.29-0.47,0.3-0.74,0.75c-0.63,1.04-0.92,2.23-1.04,3.42c-0.08,0.79,0.18,2.75-1.07,2.88
			c-0.86,0.09-2.23-0.18-3.18-0.45c-0.55-0.16-0.94-0.86-1.71-0.34c-0.26,0.18-0.58,1.5-0.73,1.84c-0.25,0.62-0.59,1.38-0.78,1.99
			c-0.81,2.64-1.25,5.37-2.52,7.85c-1.4,2.75-2.54,6.5-3.36,9.67c-0.89,3.44-1.43,7.35-2.7,10.65c-0.67,1.75-1.58,3.28-2.02,5.12
			c-0.44,1.84-0.83,3.15-2.06,4.61c-1.1,1.32-1.99,2.93-2.1,4.67c-0.07,1.02,0.09,2.03,0.07,3.05c0,0.29,0.05,0.52-0.21,0.68
			c-0.36,0.22-0.61-0.09-0.81,0.42c-0.14,0.37-0.01,0.73-0.08,1.12c-0.07,0.4-0.25,0.69-0.2,1.13c0.05,0.5,0.41,0.94,0.55,1.35
			c0.01,0.02,0,0.04,0.01,0.05c-1.41,0.04-2.83,0.07-4.24,0.12c0.08-0.07,0.15-0.15,0.19-0.28c0.14-0.39,0.11-0.85,0.12-1.26
			c0.01-0.38,0.14-0.83-0.02-1.2c-0.14-0.34-0.51-0.62-0.77-0.87c-0.38-0.37-0.79-0.69-0.98-1.2c-0.19-0.5-0.18-1.05-0.27-1.57
			c-0.26-1.44-0.98-2.73-2.27-3.48c-2.6-1.5-6.17-0.81-8.95-0.28c-3.62,0.69-5.7-0.44-7.37-2.56c-0.01-0.05,0-0.1-0.01-0.15
			c-0.43-2.44-1.83-5.25-2.22-7.48c-0.58-3.32-0.86-6.69-1.12-10.05c-0.22-2.8-0.48-5.6-0.82-8.39c-0.15-1.23-0.32-2.46-1.24-3.41
			c-1.2-1.23-2.15-0.47-3.64,0c-0.12,0.04-0.24,0.08-0.36,0.11c-0.65-6.09-0.84-12.55,0.75-18.45c0.12-0.43,0.1-0.93,0.02-1.37
			c-0.37-2.04-0.6-4.36-1.45-6.27c-0.32-0.73-0.77-1.39-0.92-2.19c-0.17-0.94,0.2-1.9-0.02-2.84c-0.31-1.32-1.27-2.76-1.71-4.14
			c-0.94-2.98-3.35-5.49-3.77-8.65c-0.17-1.27-0.06-2.37-0.44-3.63c-1.08-3.57-2.69-6.96-3.79-10.53c-0.6-1.93-1.07-3.92-1.22-5.94
			c-0.11-1.39,0.18-2.74,0.14-4.1c-0.01-0.36-0.07-0.74-0.17-1.14c1.88,1.84,3.8,3.24,6.7,4.27c3.93,1.4,7.89,1.76,11.91,0.38
			c4.08-1.41,7.54-4.23,10.16-7.69c0.82-1.08,1.56-2.23,2.21-3.42c3.86-7.05,4.67-15.33,6.07-23.14c0.91,0.45,2.23,0.14,2.81-0.76
			c0.74-1.15,0.37-2.78-0.55-3.79c-1.21-1.31-4.32-2.41-6.47-2.88c0.36-1.37,0.65-2.74,0.89-3.98c0.22-1.14,0.41-2.61,0.32-4.03
			c-0.06-0.93-0.23-1.83-0.6-2.6c-0.36-0.77-0.92-1.4-1.74-1.8c0.38-1.43,0.83-2.58,1.28-3.48c-0.04,0.34-0.1,0.98-0.05,1.76
			c0.02,0.34,0.06,0.72,0.14,1.11c0.01,0.05,0.02,0.09,0.03,0.14c0.23,1.17,0.69,2.01,1.24,2.63c0.21,0.24,0.45,0.47,0.74,0.7
			c0.53,0.4,1.2,0.72,2.05,0.9c0,0,0.67-0.91,0.77-2.35c0.01-0.21,0.01-0.42,0-0.65c-0.04-0.63-0.2-1.33-0.52-2.09
			c0,0-0.06-0.06-0.06-0.07c-0.04-0.09-0.09-0.18-0.13-0.27c-0.57-1.07-1.61-1.6-2.49-1.85c-0.73-0.21-1.36-0.24-1.56-0.24
			c0.33-0.62,0.66-1.13,0.97-1.53c0.4-0.52,0.76-0.87,1.01-1.08c0.13-0.11,0.23-0.18,0.3-0.23c0.04-0.02,0.06-0.04,0.13-0.1
			c0.04-0.05,0.06-0.1,0.05-0.17c-0.01-0.13-0.09-0.28-0.21-0.42c-0.15-0.15-0.33-0.25-0.47-0.24c-0.05,0-0.1,0.02-0.14,0.05
			c-0.02,0.01-0.02,0.03-0.07,0.07c-0.48,0.53-0.89,1.12-1.26,1.72c-0.13,0.2-0.25,0.38-0.33,0.51c-0.3,0.52-0.58,1.15-0.81,1.8
			c-0.57,1.4-0.87,2.63-1,3.21c-0.56-0.21-1.13-0.29-1.71-0.26c-2.37,0.14-4.88,2.11-7.27,4.93c-0.35,0.41-0.72,0.81-1.1,1.19
			c-0.19-0.97-0.38-1.83-0.48-2.48c-0.18-1.15-0.5-2.61-1.07-3.93c-0.37-0.86-0.84-1.67-1.45-2.3c-0.61-0.62-1.35-1.07-2.26-1.21
			c-0.13-1.47-0.09-2.68,0.04-3.67c0.07,0.33,0.24,0.96,0.55,1.68c0.14,0.32,0.3,0.66,0.51,1.01c0.02,0.04,0.05,0.09,0.08,0.13
			c0.61,1.04,1.34,1.7,2.08,2.14c0.28,0.17,0.58,0.31,0.93,0.44c0.65,0.22,1.38,0.34,2.25,0.27c0,0,0.43-1.37-0.29-3.06
			c-0.25-0.58-0.64-1.21-1.2-1.83c0,0-0.07-0.04-0.08-0.05c-0.07-0.07-0.14-0.14-0.22-0.21c-0.91-0.86-2.07-1.06-3-1.04
			c-0.77,0.01-1.37,0.16-1.57,0.22c0.1-0.69,0.25-1.26,0.4-1.72c0.2-0.61,0.43-1.04,0.6-1.32c0.09-0.14,0.16-0.24,0.21-0.31
			c0.02-0.03,0.05-0.06,0.1-0.13c0.02-0.05,0.02-0.11,0-0.17c-0.05-0.12-0.18-0.24-0.35-0.34c-0.2-0.1-0.4-0.14-0.53-0.09
			c-0.05,0.02-0.09,0.05-0.11,0.09c-0.01,0.02-0.01,0.04-0.04,0.09c-0.27,0.64-0.47,1.31-0.61,1.99c-0.06,0.23-0.11,0.43-0.14,0.58
			c-0.12,0.58-0.16,1.25-0.17,1.96c-0.06,1.48,0.07,2.72,0.14,3.31c-0.6-0.03-1.17,0.05-1.71,0.25c-1.82,0.66-3.04,1.87-3.92,3.33
			c-0.26-0.3-0.55-0.52-0.89-0.77c-1.08-0.79-1.83-1.9-2.86-2.76c-0.72-0.6-1.51-1.1-2.34-1.38c-0.83-0.28-1.69-0.34-2.57-0.05
			c-0.78-1.25-1.3-2.35-1.64-3.28c0.22,0.26,0.65,0.74,1.25,1.25c0.27,0.23,0.58,0.45,0.91,0.67c0.04,0.03,0.09,0.05,0.13,0.08
			c1.02,0.65,1.97,0.91,2.83,0.96c0.33,0.02,0.66,0.02,1.03-0.03c0.67-0.09,1.38-0.33,2.13-0.79c0,0-0.01-0.04-0.02-0.1
			c-0.08-0.35-0.44-1.5-1.63-2.49c-0.49-0.41-1.12-0.79-1.91-1.08c0,0-0.08,0-0.1,0c-0.1-0.03-0.19-0.06-0.29-0.09
			c-1.2-0.35-2.32,0-3.15,0.44c-0.67,0.36-1.14,0.77-1.29,0.91c-0.22-0.66-0.35-1.23-0.42-1.72c-0.1-0.64-0.1-1.12-0.07-1.44
			c0.01-0.16,0.03-0.29,0.05-0.37c0.01-0.04,0.02-0.07,0.03-0.16c-0.01-0.06-0.04-0.11-0.09-0.15c-0.1-0.08-0.27-0.13-0.46-0.14
			c-0.22,0-0.42,0.06-0.52,0.16c-0.03,0.04-0.05,0.08-0.05,0.13c0,0.02,0.01,0.04,0,0.1c0.05,0.69,0.18,1.38,0.36,2.05
			c0.05,0.23,0.1,0.43,0.14,0.58c0.16,0.57,0.43,1.19,0.74,1.82c0.62,1.34,1.3,2.39,1.63,2.88c-0.55,0.24-1.02,0.58-1.41,1
			c-1.56,1.68-2.05,3.65-2.01,5.69c-0.26-0.24-0.51-0.49-0.77-0.73c0.07-8.02-1.23-16.4-6.74-21.59c-1.95-1.83-4.01-3.91-5.04-6.44
			c0.66-0.6,0.98-1.97,0.61-2.68c-0.11-0.22-0.72-0.81-0.98-0.98c0.08-0.7,0.19-1.4,0.23-2.1c0.58-0.12,1.15-0.26,1.68-0.43
			c0.74-0.24,1.28-0.62,1.94-1.01c1.66-0.98,2.16-3.07,2.56-4.84c0.12-0.54,0.07-0.98,0.14-1.52c0.05-0.47,0.26-0.86,0.32-1.33
			c0.1-0.87-0.01-1.83-0.01-2.71c0-0.44,0.12-1.09,0.02-1.51c-0.1-0.42-0.31-0.51-0.32-1.03c-0.01-0.56,0.23-0.82,0.32-1.35
			c0.06-0.36-0.02-0.82-0.02-1.2c0-0.49-0.03-0.96,0.07-1.43c0.07-0.3,0.24-0.56,0.23-0.97c-0.01-0.41,0.11-0.97,0.01-1.36
			c-0.09-0.36-0.38-0.6-0.26-0.97c0.07-0.2,0.57-0.53,0.73-0.63c0.11-0.07,0.92-0.3,0.97-0.39c0.15-0.3-0.4-1.55-0.55-1.89
			c-0.43-0.94-0.49-1.71-0.73-2.68c-0.1-0.4-0.49-0.87-0.58-1.2c-0.12-0.48-0.02-0.93-0.16-1.41c-0.16-0.56-0.62-1.06-0.96-1.51
			c-0.2-0.27-0.41-0.54-0.61-0.79c-0.95-1.22-1.88-2.3-3.23-3.21c-1.38-0.93-2.93-1.41-4.46-2.05c-0.64-0.26-0.92-0.2-1.59-0.26
			c-0.64-0.06-1.15-0.36-1.78-0.4c-0.97-0.07-1.93-0.04-2.88,0.11c-1.57,0.24-3.38-0.17-4.72,0.88c-0.55,0.43-1.33,1.13-1.44,1.87
			c-0.24-0.1-1.08,1.51-1.55,2c-0.79,0.27-1.49,0.26-2.04,1c-0.88,1.2-1.4,2.76-1.43,4.22c-0.07,3.62-0.73,5.67,1.41,9.03
			c-0.73,0.8-0.68,1.54-0.8,2.59c-0.08,0.72-0.34,1.26-0.32,2c0.01,0.62,0.11,1.09,0.31,1.68c0.85,2.57,2.53,5.35,4.54,7.63
			c-0.21,0.14-0.42,0.28-0.61,0.45c-0.95,0.87,0.2,0.96-0.05,2.13c-0.03,0.15-0.09,0.27-0.13,0.42c-1.2,0.02-2.22,0.34-2.37,1.39
			c-0.09,0.6,0.3,1.33,0.79,1.91c-1.61,2.21-3.89,3.68-5.78,6.04c-3.43,4.27-5.31,10-5.54,15.42c-0.18,4.31,1.62,8.09,2.42,12.14
			c0.14,0.7,0.33,1.34,0.37,2.07c0.04,0.62,0.3,0.92,0.39,1.48c0.11,0.72,0.01,0.98,0.29,1.59c-0.43,0.29-0.39,1.16-0.5,1.6
			c-0.1,0.39-0.07,1.36-0.5,1.6c0.39,0.54,0.33,1.37,0.58,2.06c0.33,0.89,0.69,1.56,0.89,2.51c0.23,1.08,0.6,2.2,1.08,3.19
			c0.2,0.41,0.46,0.78,0.65,1.19c-0.4,0.03-0.49,0.34-0.65,0.66c-0.08,0.16-0.34,0.9-0.38,1.11c-0.19,0.82,0.02,1.97,0.02,2.82
			c0,1.05,0.02,1.88,0.28,2.88c0.21,0.79,0.19,1.7,0.46,2.47c0.4,1.17,0.95,1.35,0.69,2.64c-0.24,1.19-0.47,2.37-0.7,3.56
			c-0.49,2.52-0.96,5.04-1.33,7.58c-0.74,5.1-1.1,10.32-0.3,15.43c0.84,5.42,3.7,10.28,4.47,15.69c0.58,4.06,1.28,8.84-0.86,12.59
			c-0.45,0.78-1.02,1.34-1.3,2.12c-0.55,1.54-0.36,3.31-1.34,4.69c-0.88,1.23-2.14,2.11-2.97,3.4c-1.24,1.93-1.32,4.24-2.3,6.27
			c-1.52,3.13-4.39,5.06-6.83,7.38c-1.27-1.07-2.66-1.85-3.96-0.55c-7.05,7-13.5,17.94-17.08,27.19c-1.12,2.89-1.94,4.34-1.61,5.61
			c-0.63,0.76-1.26,1.53-1.87,2.3c-1.76,2.23-3.45,4.71-4.67,7.29c-0.25,0.53-0.21,1.15,0.11,1.64c-0.44-0.43-1.16,0.21-1.43,0.57
			c-0.33,0.43-0.38,0.94-0.16,1.44c0.29,0.63,0.91,1.14,1.4,1.61c0.54,0.54,1.1,1.07,1.64,1.61c1.15,1.17,2.68,1.86,4.12,2.47
			c0.44-0.3,0.36-0.83,0.65-1.1c0.25-0.23,0.65-0.31,0.94-0.56c0.66,0.55,1.06,1.94,1.44,2.7c0.48,0.97,0.88,1.96,1.58,2.79
			c1.31,1.56,3.72,2.56,5.95,3.23c-34.98,3.8-68.78,8.82-101.08,14.98c82.19-5.99,168.69-9.19,257.99-9.19
			c89.3,0,175.81,3.2,257.99,9.19c-27.35-5.22-55.79-9.61-85.08-13.14C465.39,316.14,469.81,313.76,473.2,310.33 M228.8,146.37
			C228.8,146.37,228.8,146.36,228.8,146.37c0-0.02,0-0.03,0.01-0.05C228.81,146.34,228.8,146.35,228.8,146.37 M229.05,147.42
			L229.05,147.42l0.27-2.09l-0.13-0.22v0l0.13,0.22L229.05,147.42z M229.19,144.97L229.19,144.97
			C229.19,144.97,229.19,144.97,229.19,144.97C229.19,144.97,229.19,144.97,229.19,144.97 M229.33,145.23l0.09-0.66c0,0,0,0,0,0
			L229.33,145.23L229.33,145.23z M229.38,145.42L229.38,145.42l0.71,1.21L229.38,145.42z M229.45,144.37L229.45,144.37
			C229.45,144.37,229.45,144.37,229.45,144.37L229.45,144.37z M229.99,148.99c-0.01-0.09-0.02-0.19-0.03-0.28
			C229.97,148.8,229.98,148.89,229.99,148.99C229.99,148.99,229.99,148.99,229.99,148.99 M230.01,146.39l0.21,0.36l0-0.01
			c0,0,0,0.01,0,0.01L230.01,146.39z M230.23,149.25l0.22-1.98l-0.2-0.35l0.2,0.35L230.23,149.25z M231.18,148.54
			c0-0.01,0-0.01,0-0.02l-0.68-1.16l-0.22,1.95c0,0,0,0,0,0l0.22-1.95l0.68,1.17L231.18,148.54z M230.6,145.93L230.6,145.93
			l-0.14,1.24h0L230.6,145.93z M230.65,146.1l-0.13,1.16l0,0L230.65,146.1z M231.25,148.52l0.03,0.06L231.25,148.52z M231.38,148.87
			l-0.15-0.26c0,0,0,0,0,0L231.38,148.87z M231.38,150.22L231.38,150.22l0.11-1.18L231.38,150.22z M231.36,146.77
			c0.05,0.1,0.11,0.2,0.16,0.31C231.47,146.97,231.41,146.87,231.36,146.77L231.36,146.77z M231.26,146.71L231.26,146.71
			c0.02,0.03,0.03,0.06,0.05,0.09C231.29,146.77,231.27,146.74,231.26,146.71 M231.3,146.65c-0.02-0.04-0.04-0.07-0.05-0.11
			C231.26,146.58,231.28,146.62,231.3,146.65L231.3,146.65z M231.23,146.65L231.23,146.65
			C231.23,146.65,231.23,146.65,231.23,146.65C231.23,146.65,231.23,146.65,231.23,146.65 M231.22,148.34
			c-0.01,0.03-0.01,0.06-0.02,0.09v0C231.2,148.4,231.21,148.37,231.22,148.34 M231.24,150.13c0,0-0.01,0-0.01-0.01
			c-0.01-0.05-0.02-0.1-0.03-0.15C231.21,150.03,231.23,150.08,231.24,150.13 M230.26,145.13c0.2,0.24,0.39,0.5,0.59,0.78
			C230.65,145.63,230.46,145.37,230.26,145.13L230.26,145.13z M230.2,145.07C230.2,145.07,230.2,145.07,230.2,145.07
			c-0.01-0.01-0.02-0.02-0.03-0.03C230.18,145.04,230.19,145.05,230.2,145.07 M229.05,143.91c0.32,0.27,0.7,0.62,1.08,1.06
			C229.74,144.54,229.36,144.18,229.05,143.91C229.05,143.92,229.05,143.92,229.05,143.91 M228.79,144.4l0.37,0.64
			c0,0.01-0.01,0.02-0.01,0.03c0-0.01,0.01-0.02,0.01-0.03L228.79,144.4z M230.44,140.27c0,0,0.01-0.01,0.01-0.01
			c-0.01,0-0.02,0-0.04-0.01c0.02,0,0.03,0,0.05,0C230.46,140.26,230.45,140.27,230.44,140.27 M230.22,139.48
			c0.07,0.04,0.15,0.1,0.22,0.17C230.37,139.57,230.29,139.52,230.22,139.48C230.22,139.48,230.22,139.48,230.22,139.48
			 M229.83,139.58c0,0.01,0,0.02,0,0.02L229.83,139.58L229.83,139.58z M228.11,143.22c0.01-0.04,0.01-0.07,0.01-0.07
			S228.12,143.18,228.11,143.22l0,0.01C228.11,143.23,228.11,143.23,228.11,143.22 M212.7,140.26L212.7,140.26l0,0.04
			C212.7,140.29,212.7,140.27,212.7,140.26 M212.81,141.61c0-0.02-0.01-0.04-0.01-0.05C212.8,141.58,212.81,141.6,212.81,141.61
			L212.81,141.61z M213.4,142.54l-0.45-2.06h0L213.4,142.54L213.4,142.54z M214.3,141.58c0-0.02,0-0.05,0-0.07
			C214.3,141.53,214.3,141.55,214.3,141.58L214.3,141.58z M214.37,140.49L214.37,140.49l-0.04,0L214.37,140.49z M214.37,141.64
			L214.37,141.64l0.29,0.26l-0.29-1.21c0,0,0,0,0-0.01l0.29,1.22L214.37,141.64z M214.84,143.76c-0.04-0.08-0.08-0.17-0.12-0.26
			c0.04,0.09,0.09,0.18,0.14,0.27C214.85,143.77,214.84,143.76,214.84,143.76 M216.4,144.49c-0.04-0.05-0.07-0.11-0.1-0.16
			c0.03,0.06,0.08,0.11,0.12,0.17C216.41,144.49,216.41,144.49,216.4,144.49 M216.5,144.51l-0.31-1.19l-0.31-0.27l0.31,0.27
			L216.5,144.51L216.5,144.51 M215.87,142.96L215.87,142.96l0.25,0.22L215.87,142.96z M216.58,144.54l-0.3-1.15v0L216.58,144.54z
			 M217.48,144.65c0-0.01,0.01-0.02,0.01-0.04C217.49,144.63,217.48,144.64,217.48,144.65h-0.02H217.48z M217.41,144.3
			C217.41,144.3,217.41,144.3,217.41,144.3l-1.04-0.91L217.41,144.3z M215.82,141.91l0.34,1.31l0,0L215.82,141.91v0.02
			C215.82,141.92,215.82,141.92,215.82,141.91 M215.81,143.01c0-0.01,0-0.02-0.01-0.03l-0.98-0.86l0.98,0.86
			C215.81,142.99,215.81,143,215.81,143.01 M215.8,142.89c0-0.03-0.01-0.05-0.01-0.08C215.79,142.84,215.79,142.86,215.8,142.89
			l-1.05-0.92l-0.25-1.06l0.25,1.06L215.8,142.89z M215.27,141.24c0.03,0.02,0.05,0.05,0.08,0.08
			C215.33,141.29,215.3,141.26,215.27,141.24L215.27,141.24z M215.22,141.19L215.22,141.19c0,0-0.01-0.01-0.01-0.01
			C215.21,141.18,215.22,141.19,215.22,141.19 M213.78,140.03L213.78,140.03c0.01,0.01,0.03,0.02,0.04,0.02
			C213.81,140.04,213.79,140.03,213.78,140.03 M213.49,142.65l-0.46-2.1L213.49,142.65z M212.76,140.23l0.17,0.15L212.76,140.23z
			 M212.76,140.31l0.1,0.09L212.76,140.31z M212.75,139.53L212.75,139.53L212.75,139.53L212.75,139.53z M212.7,140.18
			c0-0.01,0-0.02,0-0.03L212.7,140.18l-0.13-0.12L212.7,140.18z M212.31,135.36C212.31,135.35,212.31,135.35,212.31,135.36
			c0-0.01-0.01-0.01-0.02-0.01c0.01,0,0.02,0,0.03,0C212.31,135.35,212.31,135.35,212.31,135.36 M211.48,134.88
			c0,0.01,0,0.02,0.01,0.02L211.48,134.88C211.48,134.88,211.48,134.88,211.48,134.88 M196.43,137.7L196.43,137.7L196.43,137.7
			L196.43,137.7z M196.72,138.37L196.72,138.37c0.01,0.01,0.01,0.02,0.02,0.04C196.74,138.39,196.73,138.38,196.72,138.37
			 M196.8,138.39L196.8,138.39l0.13,0.03L196.8,138.39z M197.44,139.53c-0.01-0.02-0.02-0.03-0.03-0.05
			C197.42,139.5,197.43,139.51,197.44,139.53C197.44,139.53,197.44,139.53,197.44,139.53 M198.39,140.08l-1.34-1.63L198.39,140.08z
			 M198.52,140.14l-1.36-1.66h0L198.52,140.14z M198.29,137.84l0.03-0.02L198.29,137.84z M198.75,138.82
			c-0.01-0.02-0.02-0.04-0.03-0.06C198.72,138.78,198.74,138.8,198.75,138.82z M198.84,138.84l0.38,0.1l-0.81-0.95c0,0,0,0,0,0
			l0.81,0.96L198.84,138.84L198.84,138.84z M200.22,140.51c-0.08-0.06-0.15-0.12-0.22-0.17c0.07,0.06,0.16,0.12,0.24,0.18
			C200.23,140.52,200.22,140.51,200.22,140.51 M200.73,139.38l-1.26-0.32L200.73,139.38c0.01,0.01,0.01,0.02,0.02,0.02
			C200.75,139.4,200.74,139.39,200.73,139.38 M200.78,139.33l0.32,0.08L200.78,139.33z M200.83,139.4l0.4,0.1L200.83,139.4
			 M201.95,140.45c-0.06-0.03-0.11-0.06-0.16-0.1c0.05,0.03,0.12,0.06,0.18,0.09C201.96,140.45,201.95,140.45,201.95,140.45
			 M202.05,140.42l-0.81-0.91L202.05,140.42L202.05,140.42 M202.12,140.41l-0.79-0.89l0,0L202.12,140.41z M202.97,140.06
			c0,0.02,0,0.03,0.01,0.04c0,0-0.01,0-0.02,0.01c0,0,0.01,0,0.02-0.01C202.98,140.1,202.97,140.08,202.97,140.06 M202.76,139.83
			l-1.35-0.34L202.76,139.83L202.76,139.83z M201.16,139.42L201.16,139.42l-0.9-1l0,0.01c0-0.01,0-0.01-0.01-0.02L201.16,139.42z
			 M199.46,138.07c0.04,0.01,0.07,0.02,0.11,0.03C199.53,138.09,199.49,138.08,199.46,138.07L199.46,138.07z M199.39,138.05
			L199.39,138.05c-0.01,0-0.01,0-0.02,0C199.38,138.05,199.39,138.05,199.39,138.05 M199.32,138.96l1.35,0.34
			c-0.02-0.02-0.03-0.04-0.05-0.07c0.02,0.02,0.03,0.05,0.05,0.07L199.32,138.96l-0.71-0.83L199.32,138.96z M197.58,137.67
			L197.58,137.67c0.02,0,0.03,0,0.05,0C197.61,137.67,197.59,137.67,197.58,137.67 M196.77,138.32L196.77,138.32l0.22,0.06
			L196.77,138.32z M196.69,138.3c0-0.01-0.01-0.02-0.01-0.03C196.68,138.28,196.68,138.29,196.69,138.3l-0.17-0.04L196.69,138.3z
			 M193.19,134.14C193.19,134.14,193.19,134.14,193.19,134.14c0.01,0,0.01,0.01,0.02,0.01L193.19,134.14z M194.12,134.19
			c0.01-0.01,0.02-0.01,0.02-0.02c0,0,0,0.01,0,0.02c0,0,0-0.01,0-0.01C194.14,134.18,194.13,134.18,194.12,134.19 M194.64,137.83
			c-0.01-0.01-0.02-0.02-0.02-0.03C194.62,137.81,194.63,137.82,194.64,137.83c0.01,0.03,0.02,0.06,0.03,0.09
			C194.66,137.89,194.65,137.86,194.64,137.83 M316.02,169.41c3.63,2.44,7.25,4.88,10.88,7.32c1.59,1.07,5.6,2.81,6.39,4.62
			c0.54,1.24-0.36,3.16-0.21,4.55c0.21,1.87,1.04,3.69,2.42,4.98c1.81,1.68,4.46,2.37,6.88,1.95c1.85-0.32,3.04-1.55,4.79-0.88
			c2.06,0.79,4.41,4.25,6.03,5.82c0,0,13.79,12.51,13.8,12.51c0,0,9.24,7.99,9.23,8.1c-0.33,3.02-0.03,6.78,0.14,7.54
			c0.24,1.08,0.68,2.18,1.25,3.27l-2.26,1.02c-0.56-0.43-43.75-34.1-43.75-34.1c0.07-0.27,0.43-2.81-0.67-3.69
			c-1.14-0.92-6.09-3.51-6.64-3.82c-3.81-2.2-6.72-6.39-9.22-10.84c-0.12-1.19-0.28-2.81-0.4-4.01
			C314.69,173.74,315.94,170.51,316.02,169.41 M315.29,198.63c0.77,2.27,1.58,3.56,2.31,4.27c1.03,2.29,3.26,3.96,5.94,4.16
			c2.01,0.15,3.88-0.56,5.27-1.82c0.37-0.33,0.69-0.7,0.98-1.09c0.01-0.07,0.02-0.15,0.02-0.22c0.01-0.13,0.11-0.2,0.28-0.23
			c0.63-0.11,2.1,0.43,2.1,0.44l0.8,0.61l102.88,77.48c-2.34,4.17-3.51,9.13-2.85,14.5c1.03,8.32,6.54,15.48,14.11,18.73
			c-33.93-3.75-68.98-6.34-104.91-7.65c0.54-0.68,0.83-1.66,0.61-2.42c-0.01-0.03-0.02-0.06-0.03-0.1
			c-0.28-0.82-1.12-0.65-1.44-1.21c-1.05-1.82,0.42-4.02-0.87-6.01c-0.98-1.51-2.95-2.51-4.72-2.63c-1.56-0.1-3.29,0.67-4.98,0.57
			c-2.66-0.14-7.04-1.06-9.24-2.6c0.05-2.24-0.36-4.8-0.17-6.74c0.34-3.31,0.98-6.59,1.63-9.86c0.55-2.72,1.04-5.45,1.47-8.19
			c0.19-1.21,0.36-2.43-0.26-3.57c-0.45-0.83-1-1.05-1.65-1.08c-0.04-2.53-0.14-5.07-0.18-7.6c-0.07-4.29-0.47-8.56-1.22-12.79
			l-8.82-50.08l0-0.04l-0.02-0.81C312.42,192.83,315.16,198.24,315.29,198.63 M314.37,307.07c-1.58-0.03-3.17-0.06-4.75-0.08
			c0.48-0.07,0.98-0.12,1.49-0.1C312.2,306.91,313.28,306.99,314.37,307.07 M289.04,99.5c-0.26,0.1-0.53,0.18-0.81,0.18
			C287.21,99.52,287.12,98.43,289.04,99.5 M226.48,146.75l0.01,0.01c0.08,0.03,0.17,0.07,0.25,0.1l0,0v0
			C226.66,146.83,226.57,146.8,226.48,146.75C226.48,146.76,226.48,146.76,226.48,146.75 M224.06,146.63
			c-2.14,0.42-4.4,2.26-6.56,4.82C219.66,148.89,221.92,147.05,224.06,146.63 M211.08,138.79c0,0.01,0,0.02,0.01,0.04
			c0,0.03-0.01,0.06-0.01,0.09c0-0.03,0.01-0.07,0.01-0.1C211.09,138.81,211.09,138.8,211.08,138.79 M210.99,142.04L210.99,142.04
			c0-0.02,0-0.04,0-0.06C210.98,142,210.98,142.02,210.99,142.04 M210.75,142.64c0.09,0,0.18,0.01,0.28,0.03h0c0-0.02,0-0.03,0-0.05
			c0,0.02,0,0.04,0,0.05c-0.1-0.01-0.2-0.02-0.29-0.03v-0.01L210.75,142.64z M208.98,142.94L208.98,142.94
			c-0.48,0.17-0.93,0.43-1.36,0.76C208.06,143.37,208.51,143.11,208.98,142.94 M207.41,143.91c-0.35,0.29-0.69,0.6-1.01,0.99
			C206.72,144.51,207.06,144.2,207.41,143.91 M205.99,145.49c-0.24,0.33-0.49,0.65-0.71,1.03
			C205.5,146.13,205.75,145.82,205.99,145.49 M196.07,141.38c0.08-0.04,0.17-0.07,0.26-0.1l0,0c-0.01-0.02-0.02-0.04-0.03-0.05
			c0.01,0.02,0.02,0.03,0.03,0.05c-0.09,0.03-0.18,0.07-0.27,0.11c0,0,0,0,0,0L196.07,141.38z M196.01,140.74L196.01,140.74
			c-0.01-0.02-0.02-0.04-0.03-0.06C195.99,140.7,196,140.72,196.01,140.74 M194.63,142.45L194.63,142.45
			c-0.69,0.74-1.14,1.73-1.41,2.92C193.49,144.18,193.95,143.19,194.63,142.45 M193.11,146.2c-0.1,0.71-0.16,1.46-0.15,2.27
			C192.95,147.66,193.01,146.9,193.11,146.2 M151.77,310.68c-0.13-0.19-0.49-0.39-0.54-0.6c-0.04-0.18,0.14-0.48,0.16-0.67
			c0.02-0.26-0.03-0.52-0.1-0.77c-0.13-0.45-0.38-0.94-0.76-1.23c-0.57-0.43-0.96-1.03-1.68-1.29c-0.36-0.13-0.7-0.2-1.08-0.21
			c-0.47-0.01-0.8,0.15-1.25,0.2c-0.3,0.04-0.53-0.01-0.83,0.07c-0.21,0.05-0.39,0.13-0.62,0.14c-1.08,0.1-2.15,0.25-3.23,0.37
			c-0.37,0.04-0.7,0.03-1.03-0.17c-0.22-0.14-0.38-0.34-0.54-0.54c-0.99-1.22-1.7-2.65-2.68-3.89c-2.06-2.62-2.12-5.54-1.37-8.45
			c0.18-0.08,0.38-0.14,0.55-0.23c0.45-0.25,0.89-0.58,1.32-0.97c1.83-1.66,3.47-4.35,5.14-5.87c2.5-2.26,5.2-4.3,7.91-6.31
			c2.25-1.67,4.48-3.39,6.66-5.16c0.96-0.78,1.92-1.58,2.22-2.86c0.4-1.68-0.74-2.07-1.94-3.08c-0.73-0.62-1.46-1.23-2.19-1.85
			c1.57-1.34,3.15-2.65,4.72-3.92c2.57-2.09,5.33-3.75,8.1-5.45c1.77-1.08,3.13-2.55,4.28-4.28c3.23-4.87,4.59-10.51,6.71-15.84
			c0.14-0.37,0.37-0.7,0.56-1.05c0.36,0.25,0.73,0.48,1.06,0.76c0.17,0.14,0.27,0.37,0.4,0.57c2.3,3.37,5.78,6.72,5.83,10.96
			c0.01,1.17,0.4,1.76,0.88,2.77c0.42,0.88,0.52,1.99,1.43,2.54c-1.14-0.69-0.81,2.57-0.8,2.93c0.08,2.01,0.27,2.92,1.53,4.44
			c1.39,1.68,1,3.91,1.29,5.97c0.13,0.92,0.31,1.84,0.51,2.75c-0.05,0.02-0.1,0.03-0.15,0.05c-1.24,0.39-3.85,0.68-4.6,2.05
			c-0.08,0.12-0.12,0.26-0.17,0.4c0,0.01-0.01,0.02-0.02,0.04v0.01c-0.12,0.35-0.17,0.73-0.07,1.21c0.16,0.71,0.33,1.44,0.5,2.16
			c0.3,1.87,0.84,3.79,1.95,5.3c0.03,0.04,0.06,0.08,0.09,0.12c0.21,0.56,0.4,1.12,0.64,1.67c0.96,2.17,2.04,4.28,2.84,6.51
			c0.27,0.75,0.73,1.35,1.16,1.98c0.27,0.5,0.55,0.99,0.83,1.49c0.51,1.05,0.96,2.12,1.55,3.13c0.17,0.3,0.38,0.57,0.6,0.83
			c0.04,0.07,0.08,0.15,0.12,0.22c0.65,1.2,1.44,2.37,2.02,3.61c0.17,0.37,0.28,0.75,0.41,1.13c-0.04,0.09-0.08,0.18-0.11,0.27
			c-0.12,0.4-0.2,0.81-0.23,1.22c-0.03,0.42,0.06,0.76,0.19,1.08c-0.12,0.29-0.2,0.6-0.35,0.88c-0.31,0.58-0.8,1.07-0.91,1.73
			c-0.11,0.61,0.04,1.26,0.28,1.87c-16.04,0.96-31.89,2.16-47.51,3.62c0.03-0.03,0.06-0.04,0.09-0.07c0.38-0.42,0.61-0.97,0.53-1.55
			C152.04,311.17,151.93,310.91,151.77,310.68 M281.5,306.84c0.03-0.06,0.08-0.11,0.11-0.17c0.19-0.53-0.07-1.1,0.08-1.63
			c0.07-0.26,0.13-0.33,0.08-0.6c-0.02-0.08-0.11-0.2-0.14-0.31c-0.03-0.12,0.02-0.25-0.02-0.39c-0.13-0.49-0.66-0.81-0.98-1.18
			c-0.24-0.29-0.37-0.57-0.43-0.95c-0.24-1.6,0.07-3.21-1.39-4.35c-1.52-1.2-3.7-0.51-5.44-0.29c-1.41,0.17-2.95,0.25-4.33-0.14
			c-2.06-0.59-2.95-2.31-4.72-3.4c-1.59-0.98-1.25-1.74-0.05-2.94c2.25-2.22,3.91-4.35,5.74-7.01c3.79-5.49,7.58-10.99,11.37-16.49
			c0.68-0.99,0.49-2.3-0.42-2.85l-1.89-1.12l6.87-12.77c0.76-0.7,1.27-1.67,1.35-2.78l2.58-10.65l0.02-0.05l3.42-14.08
			c1.41,4.12,2.44,8.74,4.62,12.49c0.69,1.19,0.99,2.71,1.38,4.01c0.32,1.08,0.48,2.16,0.65,3.27c0.14,0.9,0.53,1.79,0.72,2.57
			c0.17,0.69,0.31,1.23,0.49,1.94c0.09,0.35,0.24,0.35,0.3,0.82c0.06,0.43-0.03,0.89-0.01,1.32c0.04,0.85,0.27,1.01,0.84,1.58
			c0.39,0.4,1.19,0.75,1.47,1.18c0.43,0.64,0.25,2.19,0.23,2.93c-0.05,1.33-0.02,3.26-0.61,4.49c-0.17,0.34-0.26,0.47-0.58,0.69
			c-0.85,0.57-1.29,0.62-1.36,1.83c-0.03,0.66,0.07,1.24,0.18,1.87c0.15,0.85,0.15,0.84-0.7,1.07c-1.16,0.32-2.09,0.76-2.16,2.12
			c-0.15,2.8,0.7,5.94,1.09,8.71c0.5,3.59,1.06,7.17,1.53,10.76c0.43,3.18,0.03,6.2,0.05,9.4c0.01,2,1.47,3.85,1.29,5.81
			c-2.31,0.13-1.73,3.99-0.96,5.33c-4.72-0.05-9.45-0.08-14.19-0.08C285.55,306.81,283.53,306.83,281.5,306.84"/>
	</g>
</g>
</svg>
