<svg id="visual" viewBox="0 0 900 350" width="700" height="350" xmlns="http://www.w3.org/2000/svg" xmlns:xlink="http://www.w3.org/1999/xlink" version="1.1"><path d="M0 217L13.7 212.2C27.3 207.3 54.7 197.7 82 212.8C109.3 228 136.7 268 163.8 282C191 296 218 284 245.2 280.8C272.3 277.7 299.7 283.3 327 281C354.3 278.7 381.7 268.3 409 278C436.3 287.7 463.7 317.3 491 323.5C518.3 329.7 545.7 312.3 573 291.8C600.3 271.3 627.7 247.7 654.8 248.2C682 248.7 709 273.3 736.2 266.2C763.3 259 790.7 220 818 214.8C845.3 209.7 872.7 238.3 886.3 252.7L900 267L900 451L886.3 451C872.7 451 845.3 451 818 451C790.7 451 763.3 451 736.2 451C709 451 682 451 654.8 451C627.7 451 600.3 451 573 451C545.7 451 518.3 451 491 451C463.7 451 436.3 451 409 451C381.7 451 354.3 451 327 451C299.7 451 272.3 451 245.2 451C218 451 191 451 163.8 451C136.7 451 109.3 451 82 451C54.7 451 27.3 451 13.7 451L0 451Z" fill="#F5F6F8" stroke-linecap="round" stroke-linejoin="miter"></path></svg>