<?xml version="1.0" encoding="utf-8"?>
<!-- Generator: Adobe Illustrator 25.1.0, SVG Export Plug-In . SVG Version: 6.00 Build 0)  -->
<svg version="1.1" xmlns="http://www.w3.org/2000/svg" xmlns:xlink="http://www.w3.org/1999/xlink" x="0px" y="0px"
	 viewBox="0 0 610.29 392.6" style="enable-background:new 0 0 610.29 392.6;" xml:space="preserve">
<style type="text/css">
	.st0{fill:#00502F;}
	.st1{fill:#00512F;}
	.st2{opacity:0.09;}
	.st3{fill:#FFFFFF;}
	.st4{fill:#4F4D4E;}
	.st5{fill:#221F1F;}
	.st6{fill:#F47A34;}
	.st7{fill:url(#SVGID_1_);}
	.st8{fill:url(#SVGID_2_);}
	.st9{fill:#FCB11A;}
	.st10{fill:url(#SVGID_3_);}
	.st11{fill:url(#SVGID_4_);}
	.st12{fill:url(#SVGID_5_);}
	.st13{fill:url(#SVGID_6_);}
	.st14{fill:url(#SVGID_7_);}
	.st15{fill:url(#SVGID_8_);}
	.st16{fill:none;stroke:#929497;stroke-width:1.2849;stroke-miterlimit:10;}
	.st17{fill:#F17A25;}
	.st18{fill:#FCB11B;}
	.st19{opacity:0.4;fill:#FFFFFF;}
	.st20{opacity:0.3;fill:#FFFFFF;}
	.st21{opacity:0.2;fill:#FFFFFF;}
	.st22{opacity:0.1;fill:#FFFFFF;}
	.st23{fill:none;stroke:#FFFFFF;stroke-width:3;stroke-miterlimit:10;}
</style>
<g id="Capa_2">
</g>
<g id="Capa_3">
</g>
<g id="Capa_1">
	<g>
		<path class="st9" d="M187.02,253.28c0,1.44,1.01,2.09,2.16,2.09h5.77v6.67h-30.32v-6.67h5.77c1.01,0,2.09-0.65,2.09-2.09v-29.34
			h-5.01c-7.1,0-7.48,6.01-7.99,11.18h-6.79v-18.1H207v18.1h-6.66c-0.51-5.36-0.95-11.18-8.37-11.18h-4.95V253.28z"/>
		<path class="st9" d="M221.22,225.85c-0.82-2.07-2.98-2.26-5.07-2.26h-2.15V217h26.38v6.59h-1.46c-2.28,0-2.98,0.71-2.98,2
			c0,0.97,2.41,7.17,8.62,22.74l7.99-19.9c-1.71-4.13-2.47-4.85-6.85-4.85h-1.58V217h27.33v6.59h-2.85c-2.35,0-3.3,0.45-3.3,1.74
			c0,0.26,0.06,0.58,0.19,0.9l8.62,21.77l8.37-20.87c0.38-0.97,0.57-1.68,0.57-2.2c0-1.16-0.95-1.36-2.47-1.36h-4.38V217h22.45v6.59
			c-4.31,0-6.47,0-7.55,2.71l-14.4,35.73h-11.04l-9.07-23.19l-9.32,23.19h-11.67L221.22,225.85z"/>
		<path class="st9" d="M328.61,253.28c0,1.44,1.01,2.09,2.16,2.09h5.84v6.67h-30.44v-6.67h5.84c1.08,0,2.03-0.65,2.03-2.09v-27.51
			c0-1.44-0.95-2.09-2.03-2.09h-5.84v-6.67h30.44v6.67h-5.84c-1.14,0-2.16,0.65-2.16,2.09V253.28z"/>
		<path class="st9" d="M351.32,253.28v-27.45c0-0.78-0.44-2.16-2.6-2.16h-5.33v-6.67h21.56l24.92,30.59v-21.44
			c0-2.29-1.21-2.48-3.23-2.48h-4.31v-6.67h23.21v6.67h-5.33c-1.4,0-2.54,0.2-2.54,2.29v36.08h-13.13l-25.3-30.46v21.7
			c0,1.44,1.01,2.09,2.15,2.09h5.77v6.67h-23.78v-6.67h5.9C350.37,255.37,351.32,254.71,351.32,253.28"/>
		<path class="st9" d="M454.79,233.2h-7.07c-2.01-6.78-8.37-10.3-16.02-10.3c-4.21,0-9.53,1.19-9.53,4.96
			c0,1.76,1.36,2.83,3.57,3.27l17.96,3.64c8.11,1.63,13.88,5.28,13.88,12.81c0,9.73-10.38,14.76-21.27,14.76
			c-6.36,0-12.06-0.94-17.19-3.77l-2.01,3.27h-6.74v-16.83h7.2c1.55,7.29,8.82,10.74,17.51,10.74c4.22,0,10.64-1.13,10.64-5.21
			c0-2.14-2.14-3.08-4.73-3.58L421.39,243c-7.33-1.51-11.61-6.03-11.61-12.25c0-9.67,10.25-14.45,20.88-14.45
			c6.1,0,11.54,1.01,15.11,3.58l2.27-2.95h6.74V233.2z"/>
		<polygon class="st9" points="234.76,282.56 234.76,286.39 248.75,286.39 248.75,290.03 234.76,290.03 234.76,295.8 230.52,295.8 
			230.52,278.92 250.65,278.92 250.65,282.56 		"/>
		<path class="st9" d="M284.53,278.92h-5.43l-9.69,16.88h4.51l1.95-3.38h11.89l1.95,3.38h4.51L284.53,278.92z M277.97,288.78
			l3.86-6.7l3.86,6.7H277.97z"/>
		<path class="st9" d="M333.1,287.88c0.31-0.41,0.57-0.9,0.76-1.46c0.19-0.56,0.29-1.21,0.29-1.95c0-1.12-0.2-2.05-0.61-2.76
			c-0.4-0.71-0.89-1.28-1.47-1.69c-0.58-0.41-1.19-0.7-1.82-0.86c-0.64-0.16-1.18-0.24-1.63-0.24h-15.16v16.88h4.24v-5.76h8.85
			l2.7,5.76h4.53l-2.94-6.25c0.4-0.16,0.8-0.38,1.19-0.65C332.43,288.63,332.79,288.29,333.1,287.88 M329.66,285.42
			c-0.16,0.25-0.35,0.44-0.57,0.59c-0.22,0.15-0.43,0.24-0.64,0.3c-0.21,0.06-0.36,0.09-0.46,0.09h-10.29v-3.83H328
			c0.13,0,0.3,0.02,0.52,0.07c0.22,0.05,0.43,0.14,0.64,0.27c0.21,0.14,0.39,0.33,0.53,0.58c0.15,0.25,0.22,0.58,0.22,0.98
			C329.9,284.85,329.83,285.17,329.66,285.42"/>
		<polygon class="st9" points="375.55,295.8 375.55,282.27 369.18,295.8 365.06,295.8 358.72,282.25 358.72,295.8 354.47,295.8 
			354.47,278.92 361.51,278.92 367.13,291.34 372.75,278.92 379.77,278.92 379.77,295.8 		"/>
		<path class="st9" d="M405.75,178.75l0.65,0c0.14-1.09,0.25-1.88,1.55-1.88l0.78,0l0,5.21c0,0.2-0.18,0.37-0.44,0.37l-0.91,0
			l0,0.67l3.82,0l0-0.67l-0.82,0c-0.33,0-0.5-0.08-0.5-0.36l0-5.22l0.84,0c1.28,0,1.38,0.79,1.53,1.88l0.64,0l0-2.57l-7.14,0
			L405.75,178.75z"/>
		<path class="st9" d="M424.69,176.84l0.84,0l0-0.67l-2.94,0l-2.57,5.49l-2.54-5.49l-2.97,0l0,0.67l0.91,0
			c0.22,0,0.42,0.17,0.42,0.37l0,4.86c0,0.2-0.19,0.37-0.45,0.37l-0.88,0l0,0.67l3.53,0l0-0.67l-0.85,0c-0.32,0-0.51-0.08-0.51-0.36
			l0-5.17l2.86,6.2l0.62,0l2.9-6.21l0,5.17c0,0.2-0.18,0.37-0.44,0.37l-0.91,0l0,0.67l3.84,0l0-0.67l-0.82,0
			c-0.33,0-0.52-0.08-0.52-0.36l0-4.88C424.19,176.93,424.39,176.84,424.69,176.84"/>
		<path class="st9" d="M379.03,193.14l0.69,0.52c0,0,1,0.75,1,0.75c0.08,0.06,0.16,0.1,0.25,0.14c0.03,0.01,0.05,0.02,0.08,0.02
			c0.06,0.02,0.12,0.04,0.19,0.04c0.03,0.01,0.06,0,0.09,0.01c0.08,0,0.17,0,0.25-0.02c0.02,0,0.04,0,0.07-0.01
			c0.1-0.02,0.2-0.06,0.29-0.11c0.02-0.01,0.04-0.02,0.06-0.04c0.07-0.04,0.14-0.09,0.21-0.15c0.02-0.02,0.05-0.04,0.07-0.06
			c0.08-0.08,0.15-0.16,0.21-0.26c0.36-0.6,0.15-1.37-0.43-1.77c-0.48-0.32-0.99-0.67-1.51-1.03c1-1.67,1.57-3.64,1.48-5.78
			c-0.19-4.83-3.81-8.99-8.58-9.83c-3.42-0.6-6.66,0.52-8.95,2.67c0,0-1.97-1.66-1.66-2.41c0.4-0.95,0.92-2.16,1.18-2.76
			c0.02-0.04,4.71,0.24,4.79,0.22c0.22-0.05,25.63-12.39,25.63-12.39l0.2-0.6l-0.03-1.26c2.31-3.57,2.64-7.44,1.78-9.98
			c-0.06-0.19-0.69-1.93-1.98-2.85c0.08,0.01,1.75,0.14,2.39,1.22c1.53,1.56,3.56,1.89,3.72,1.92c2.49,0.53,6.57,0.59,6.57,0.59
			c-2.89-5.83-8.42-6.33-8.52-6.34c-3.76-0.39-5.5,1.68-5.5,1.68c-0.48-0.27-0.82-0.39-0.82-0.39c0.02-0.03,0.16-0.4,0.19-0.53
			c0.1-0.4,0.02-0.71-0.51-0.81c-0.92-0.16-0.96,0.52-0.95,0.66c0,0.13,0,0.26-0.01,0.4c-1.4-0.91-3.15-0.62-3.51-0.58
			c-0.1,0.01-1.4-0.78-1.33-0.8c0-0.01-0.05-0.23-0.08-0.34c-1.02-3.96-5.62-5.24-5.65-5.25c0-0.02,1.28-0.76,1.28-0.76
			c1.77,1.17,5.18,1.56,5.33,1.57c4.3,0.31,7.42-2.12,7.42-2.12c-0.27-0.23-0.54-0.43-0.8-0.64c-3.1-2.49-6.76-2.29-6.83-2.28
			c-4.52,0.36-8.11,3.26-8.11,3.25c-1.11-0.18-1.21,0.95-1.16,1.08c-0.61,0-5.65,1.55-6.84,5.7l-2.11,0.21
			c-1.53-1.36-4.73-0.83-4.76-0.82l-0.47-0.98c0.71-0.17,3.19,0.28,6.85-2.51c2.4-1.83,3.8-4.52,3.8-4.52
			c-4.52-0.65-7.14,0.91-7.16,0.91c-3.29,1.45-5.33,5.74-5.39,5.88l-1.68,0.33c0.25-0.68,0.73-2.61,0.78-3.24
			c0.06-0.67,0.38-3.4-1.76-4.9c-0.41-0.29-0.89-0.55-1.47-0.75c0.03-0.04,0.39-0.51,0.36-0.63c-0.03-0.13-0.15-0.24-0.36-0.36
			c-0.58-0.32-0.77,0.54-0.78,0.56c0,0-0.95-1.71-1.35-2.29c-1.05-1.51-2.75-2.44-4.59-2.5c-0.76-0.03-3.67,0.44-4.06,0.61
			c0,0,1.86,2.99,5.79,3.35c2.04,0.21,2.06,0.73,2.06,0.73c-1.01-0.05-1.74,0.27-1.89,0.35c-0.01,0-0.01,0-0.02,0.01
			c-1.51,0.86-3,2.82-3.54,5.45l-0.42,1.88c-0.04-0.01-1.2-0.28-1.32-0.3c-0.28-0.05-0.55-0.09-0.81-0.1c0,0-1.11,0.12-1.59,0.25
			c-2.18,0.61-3.67,3.42-3.9,3.95c-0.21,0.51-0.85,2.33-0.85,2.33l-3.74-0.96c0,0-0.05,3.19-0.06,4.02
			c-1.15-0.93-15.83-15.46-16.79-16.48c-1.27-1.35-3.78-4.9-4.54-6.26c-0.27-0.5-0.63-0.95-0.98-1.4c-0.35-0.44-0.88-0.89-1.13-1.4
			c-0.23-0.47,0.06-0.9,0.2-1.35c0.18-0.58-0.08-1.08-0.34-1.59c-0.12-0.23-0.19-0.35-0.37-0.54c-0.19-0.19-0.38-0.25-0.58-0.4
			c-0.18-0.15-0.28-0.38-0.49-0.51c-0.71-0.46-1.3-0.39-1.28-1.52c0-0.23,0.23-2.94-0.23-4.86c-0.32-1.37-1.48-3.77-1.63-4.27
			c-0.44-1.47-2.12-2.89-2.17-2.92c-0.1-0.07-0.16-0.36-0.19-0.7c0.14-0.03,0.28-0.08,0.4-0.15c0.44-0.23,0.48-0.24,0.51-0.77
			c0.02-0.46,0.11-1.2-0.04-1.62c-0.22-0.61-0.92-1.02-1.47-1.33c0.01-0.07,0.01-0.14,0.03-0.22c0.17-0.57,0.86-0.38,1.28-0.63
			c0.19-0.11,0.29-0.27,0.4-0.46c0.36-0.59,0.63-1.26,0.93-1.88c0.07-0.14,0.33-0.93,0.49-0.99c3.02-1.16,4.97-3.05,4.82-5.04
			c-0.09-1.19-0.91-2.24-2.24-3.04c-0.72-0.44-1.59-0.8-2.57-1.07c-0.21-0.06-0.42-0.11-0.64-0.16c-0.6-1.07-1.56-1.92-2.72-2.38
			c-0.15-0.06-0.29-0.11-0.44-0.15c-0.07-0.02-0.14-0.04-0.21-0.06c-0.07-0.02-0.14-0.03-0.21-0.05c-0.21-0.04-0.42-0.07-0.62-0.09
			c-0.05-0.01-0.09-0.01-0.13-0.01c-1.13-0.07-2.21,0.21-3.12,0.76c-0.6,0.43-1.17,0.99-1.63,1.51c-0.34,0.38-0.62,0.75-0.8,1.04
			c-3.29,1.14-5.45,3.12-5.3,5.21c0.15,2.01,2.22,3.22,3.91,3.83c0.55,0.2,1.71,0.16,1.67,0.93c-0.02,0.37-0.26,0.74-0.3,1.12
			c-0.01,0.13-0.01,0.26-0.02,0.4c-0.33-0.09-0.54-0.43-0.92-0.14c-0.33,0.26-0.2,0.71-0.2,1.08c0,0.22,0,0.37,0.02,0.48
			c-0.09,0.04-0.17,0.08-0.24,0.11c-0.18,0.09-0.51,0.18-0.66,0.32c-0.14,0.13-0.12,0.25-0.21,0.39c-0.13,0.22-0.1,0.19-0.29,0.37
			c-0.31,0.28-0.68,0.52-1,0.8c-0.8,0.7-1.54,1.48-2.21,2.3c-1.74,2.14-2.05,6.25-2.07,6.51c0.01,1.83,0.33,3.88-0.22,5.66
			c-0.24,0.79-0.32,1.63-0.68,2.39c-0.34,0.71,0.02,1.47,0.61,1.99c-0.34-0.3-0.55,0.85-0.55,0.95c-0.04,0.6,0.18,0.97,0.4,1.49
			c0.12,0.28,0.17,0.44,0.15,0.74c-0.02,0.34-0.03,0.71-0.08,1.04c-0.04,0.31-0.31,0.6-0.29,0.91c0.02,0.28,0.17,0.7,0.22,0.98
			c0.21,1.06,1.24,1.76,1.29,2.86c0.06,1.34-0.2,2.78-0.64,4.04c-1.16,3.33-1.96,6.58-1.7,10.16c0.12,1.73,0.76,3.38,0.99,5.09
			c0.16,1.19,0.03,2.36,0.03,3.56c0,0.44-0.01,0.87,0,1.31c0,0.45,0.19,0.87,0.19,1.31c0,0.38-0.15,0.77-0.18,1.15
			c-0.05,0.71-0.55,1.34-0.58,2.03c-0.02,0.44,0.34,0.77,0.32,1.2c-0.03,0.66-0.72,0.65-1.04,1.14c-0.33,0.5-0.35,1.16-0.35,1.74
			c0,0.2-0.05,0.48-0.01,0.67c0.05,0.21,0.25,0.21,0.14,0.45c-0.06,0.14-0.2,0.14-0.3,0.2c-0.19,0.13-0.21,0.13-0.33,0.33
			c-0.28,0.46-0.4,0.98-0.46,1.51c-0.04,0.35,0.08,1.21-0.47,1.27c-0.38,0.04-0.99-0.08-1.41-0.2c-0.24-0.07-0.41-0.38-0.76-0.15
			c-0.11,0.08-0.26,0.66-0.32,0.81c-0.11,0.27-0.26,0.61-0.34,0.88c-0.36,1.16-0.55,2.37-1.11,3.47c-0.62,1.21-1.12,2.87-1.49,4.27
			c-0.39,1.52-0.63,3.25-1.19,4.7c-0.3,0.77-0.7,1.45-0.89,2.26c-0.19,0.81-0.37,1.39-0.91,2.04c-0.49,0.58-0.88,1.29-0.93,2.06
			c-0.03,0.45,0.04,0.9,0.03,1.35c0,0.13,0.02,0.23-0.09,0.3c-0.16,0.1-0.27-0.04-0.36,0.19c-0.06,0.17-0.01,0.32-0.04,0.5
			c-0.03,0.18-0.11,0.3-0.09,0.5c0.02,0.22,0.18,0.42,0.24,0.6c0,0.01,0,0.02,0.01,0.02c-0.62,0.02-1.25,0.03-1.87,0.05
			c0.03-0.03,0.07-0.07,0.09-0.12c0.06-0.17,0.05-0.38,0.05-0.56c0.01-0.17,0.06-0.36-0.01-0.53c-0.06-0.15-0.23-0.28-0.34-0.39
			c-0.17-0.16-0.35-0.31-0.43-0.53c-0.08-0.22-0.08-0.47-0.12-0.69c-0.11-0.64-0.43-1.21-1-1.54c-1.15-0.66-2.73-0.36-3.95-0.12
			c-1.6,0.31-2.52-0.19-3.26-1.13c0-0.02,0-0.04-0.01-0.07c-0.19-1.08-0.81-2.32-0.98-3.31c-0.26-1.46-0.38-2.96-0.49-4.44
			c-0.1-1.24-0.21-2.47-0.36-3.71c-0.07-0.54-0.14-1.09-0.55-1.51c-0.53-0.54-0.95-0.21-1.61,0c-0.05,0.02-0.11,0.03-0.16,0.05
			c-0.29-2.69-0.37-5.54,0.33-8.15c0.05-0.19,0.04-0.41,0.01-0.61c-0.16-0.9-0.27-1.92-0.64-2.77c-0.14-0.32-0.34-0.61-0.41-0.97
			c-0.08-0.42,0.09-0.84-0.01-1.25c-0.14-0.58-0.56-1.22-0.76-1.83c-0.42-1.32-1.48-2.42-1.66-3.82c-0.07-0.56-0.03-1.04-0.2-1.6
			c-0.48-1.58-1.19-3.08-1.68-4.65c-0.27-0.85-0.47-1.73-0.54-2.62c-0.05-0.61,0.08-1.21,0.06-1.81c-0.01-0.16-0.03-0.33-0.08-0.5
			c0.83,0.81,1.68,1.43,2.96,1.89c1.74,0.62,3.48,0.78,5.26,0.17c1.8-0.62,3.33-1.87,4.49-3.4c0.36-0.48,0.69-0.99,0.98-1.51
			c1.71-3.11,2.06-6.77,2.68-10.22c0.4,0.2,0.99,0.06,1.24-0.34c0.33-0.51,0.17-1.23-0.24-1.67c-0.53-0.58-1.91-1.07-2.86-1.27
			c0.16-0.6,0.29-1.21,0.39-1.76c0.1-0.51,0.18-1.15,0.14-1.78c-0.02-0.41-0.1-0.81-0.26-1.15c-0.16-0.34-0.4-0.62-0.77-0.79
			c0.17-0.63,0.36-1.14,0.57-1.54c-0.02,0.15-0.04,0.43-0.02,0.78c0.01,0.15,0.03,0.32,0.06,0.49c0,0.02,0.01,0.04,0.01,0.06
			c0.1,0.51,0.31,0.89,0.55,1.16c0.09,0.11,0.2,0.21,0.33,0.31c0.24,0.18,0.53,0.32,0.9,0.4c0,0,0.3-0.4,0.34-1.04
			c0.01-0.09,0.01-0.19,0-0.29c-0.02-0.28-0.09-0.59-0.23-0.92c0,0-0.02-0.03-0.03-0.03c-0.02-0.04-0.04-0.08-0.06-0.12
			c-0.25-0.47-0.71-0.71-1.1-0.82c-0.32-0.09-0.6-0.1-0.69-0.1c0.15-0.28,0.29-0.5,0.43-0.67c0.18-0.23,0.33-0.38,0.45-0.48
			c0.06-0.05,0.1-0.08,0.13-0.1c0.02-0.01,0.03-0.02,0.06-0.04c0.02-0.02,0.03-0.05,0.02-0.07c0-0.06-0.04-0.12-0.09-0.18
			c-0.07-0.07-0.14-0.11-0.21-0.11c-0.02,0-0.04,0.01-0.06,0.02c-0.01,0.01-0.01,0.02-0.03,0.03c-0.21,0.23-0.39,0.49-0.55,0.76
			c-0.06,0.09-0.11,0.17-0.15,0.23c-0.13,0.23-0.25,0.51-0.36,0.79c-0.25,0.62-0.38,1.16-0.44,1.42c-0.25-0.09-0.5-0.13-0.75-0.11
			c-1.05,0.06-2.15,0.93-3.21,2.18c-0.15,0.18-0.32,0.36-0.48,0.52c-0.09-0.43-0.17-0.81-0.21-1.1c-0.08-0.51-0.22-1.15-0.47-1.73
			c-0.16-0.38-0.37-0.74-0.64-1.01c-0.27-0.27-0.6-0.47-1-0.53c-0.06-0.65-0.04-1.18,0.02-1.62c0.03,0.15,0.1,0.42,0.24,0.74
			c0.06,0.14,0.13,0.29,0.22,0.45c0.01,0.02,0.02,0.04,0.04,0.06c0.27,0.46,0.59,0.75,0.92,0.95c0.12,0.07,0.26,0.14,0.41,0.19
			c0.29,0.1,0.61,0.15,1,0.12c0,0,0.19-0.6-0.13-1.35c-0.11-0.26-0.28-0.53-0.53-0.81c0,0-0.03-0.02-0.04-0.02
			c-0.03-0.03-0.06-0.06-0.1-0.09c-0.4-0.38-0.91-0.47-1.33-0.46c-0.34,0.01-0.61,0.07-0.69,0.1c0.05-0.3,0.11-0.55,0.18-0.76
			c0.09-0.27,0.19-0.46,0.26-0.58c0.04-0.06,0.07-0.11,0.09-0.14c0.01-0.02,0.02-0.03,0.04-0.06c0.01-0.02,0.01-0.05,0-0.08
			c-0.02-0.05-0.08-0.11-0.15-0.15c-0.09-0.05-0.18-0.06-0.23-0.04c-0.02,0.01-0.04,0.02-0.05,0.04c-0.01,0.01-0.01,0.02-0.02,0.04
			c-0.12,0.28-0.21,0.58-0.27,0.88c-0.03,0.1-0.05,0.19-0.06,0.26c-0.05,0.25-0.07,0.55-0.07,0.87c-0.03,0.65,0.03,1.2,0.06,1.46
			c-0.26-0.01-0.52,0.02-0.76,0.11c-0.8,0.29-1.34,0.83-1.73,1.47c-0.11-0.13-0.24-0.23-0.39-0.34c-0.48-0.35-0.81-0.84-1.26-1.22
			c-0.32-0.26-0.67-0.49-1.03-0.61c-0.37-0.12-0.75-0.15-1.13-0.02c-0.35-0.55-0.57-1.04-0.72-1.45c0.1,0.11,0.29,0.33,0.55,0.55
			c0.12,0.1,0.25,0.2,0.4,0.3c0.02,0.01,0.04,0.02,0.06,0.03c0.45,0.28,0.87,0.4,1.25,0.42c0.14,0.01,0.29,0.01,0.46-0.02
			c0.3-0.04,0.61-0.14,0.94-0.35c0,0,0-0.02-0.01-0.05c-0.04-0.15-0.19-0.66-0.72-1.1c-0.22-0.18-0.49-0.35-0.84-0.48
			c0,0-0.04,0-0.04,0c-0.04-0.01-0.08-0.03-0.13-0.04c-0.53-0.15-1.03,0-1.39,0.19c-0.3,0.16-0.51,0.34-0.57,0.4
			c-0.1-0.29-0.16-0.55-0.19-0.76c-0.04-0.28-0.04-0.5-0.03-0.64c0.01-0.07,0.01-0.13,0.02-0.16c0-0.02,0.01-0.03,0.01-0.07
			c0-0.02-0.02-0.05-0.04-0.07c-0.04-0.04-0.12-0.06-0.2-0.06c-0.1,0-0.18,0.03-0.23,0.07c-0.01,0.02-0.02,0.03-0.02,0.06
			c0,0.01,0,0.02,0,0.04c0.02,0.3,0.08,0.61,0.16,0.9c0.02,0.1,0.04,0.19,0.06,0.26c0.07,0.25,0.19,0.52,0.33,0.8
			c0.27,0.59,0.57,1.06,0.72,1.27c-0.24,0.11-0.45,0.26-0.62,0.44c-0.69,0.74-0.91,1.61-0.89,2.51c-0.12-0.11-0.23-0.22-0.34-0.32
			c0.03-3.54-0.54-7.24-2.98-9.53c-0.86-0.81-1.77-1.73-2.23-2.84c0.29-0.26,0.43-0.87,0.27-1.18c-0.05-0.09-0.32-0.36-0.43-0.43
			c0.04-0.31,0.08-0.62,0.1-0.93c0.26-0.05,0.51-0.11,0.74-0.19c0.33-0.11,0.57-0.27,0.86-0.45c0.73-0.43,0.95-1.36,1.13-2.14
			c0.05-0.24,0.03-0.43,0.06-0.67c0.02-0.21,0.12-0.38,0.14-0.59c0.05-0.39,0-0.81,0-1.2c0-0.19,0.05-0.48,0.01-0.67
			c-0.04-0.18-0.14-0.23-0.14-0.46c0-0.25,0.1-0.36,0.14-0.6c0.03-0.16-0.01-0.36-0.01-0.53c0-0.22-0.01-0.43,0.03-0.63
			c0.03-0.13,0.11-0.25,0.1-0.43c0-0.18,0.05-0.43,0.01-0.6c-0.04-0.16-0.17-0.26-0.11-0.43c0.03-0.09,0.25-0.23,0.32-0.28
			c0.05-0.03,0.41-0.13,0.43-0.17c0.07-0.13-0.18-0.68-0.25-0.83c-0.19-0.42-0.22-0.76-0.32-1.19c-0.04-0.18-0.22-0.38-0.25-0.53
			c-0.06-0.21-0.01-0.41-0.07-0.62c-0.07-0.25-0.27-0.47-0.43-0.67c-0.09-0.12-0.18-0.24-0.27-0.35c-0.42-0.54-0.83-1.02-1.43-1.42
			c-0.61-0.41-1.29-0.62-1.97-0.9c-0.28-0.12-0.41-0.09-0.7-0.11c-0.28-0.03-0.51-0.16-0.79-0.18c-0.43-0.03-0.85-0.02-1.27,0.05
			c-0.69,0.11-1.49-0.08-2.08,0.39c-0.24,0.19-0.59,0.5-0.64,0.83c-0.1-0.04-0.48,0.67-0.68,0.88c-0.35,0.12-0.66,0.11-0.9,0.44
			c-0.39,0.53-0.62,1.22-0.63,1.86c-0.03,1.6-0.32,2.5,0.62,3.99c-0.32,0.35-0.3,0.68-0.35,1.14c-0.04,0.32-0.15,0.56-0.14,0.88
			c0.01,0.27,0.05,0.48,0.13,0.74c0.38,1.13,1.12,2.36,2.01,3.37c-0.09,0.06-0.19,0.12-0.27,0.2c-0.42,0.38,0.09,0.42-0.02,0.94
			c-0.01,0.07-0.04,0.12-0.06,0.18c-0.53,0.01-0.98,0.15-1.04,0.61c-0.04,0.27,0.13,0.59,0.35,0.85c-0.71,0.97-1.72,1.63-2.55,2.67
			c-1.51,1.88-2.35,4.41-2.45,6.81c-0.08,1.9,0.71,3.57,1.07,5.36c0.06,0.31,0.14,0.59,0.17,0.91c0.02,0.27,0.13,0.41,0.17,0.65
			c0.05,0.32,0,0.43,0.13,0.7c-0.19,0.13-0.17,0.51-0.22,0.71c-0.04,0.17-0.03,0.6-0.22,0.71c0.17,0.24,0.15,0.61,0.26,0.91
			c0.15,0.39,0.31,0.69,0.39,1.11c0.1,0.48,0.27,0.97,0.48,1.41c0.09,0.18,0.21,0.34,0.28,0.53c-0.17,0.02-0.22,0.15-0.29,0.29
			c-0.04,0.07-0.15,0.4-0.17,0.49c-0.08,0.36,0.01,0.87,0.01,1.25c0,0.46,0.01,0.83,0.12,1.27c0.09,0.35,0.08,0.75,0.2,1.09
			c0.18,0.52,0.42,0.6,0.3,1.17c-0.1,0.52-0.21,1.05-0.31,1.57c-0.22,1.11-0.42,2.22-0.59,3.35c-0.32,2.25-0.48,4.56-0.13,6.82
			c0.37,2.4,1.64,4.54,1.97,6.93c0.25,1.79,0.57,3.91-0.38,5.56c-0.2,0.34-0.45,0.59-0.57,0.94c-0.24,0.68-0.16,1.46-0.59,2.07
			c-0.39,0.54-0.95,0.93-1.31,1.5c-0.55,0.85-0.58,1.87-1.02,2.77c-0.67,1.38-1.94,2.23-3.02,3.26c-0.56-0.47-1.17-0.82-1.75-0.24
			c-3.11,3.09-5.96,7.93-7.54,12.01c-0.49,1.28-0.86,1.92-0.71,2.48c-0.28,0.34-0.56,0.67-0.83,1.02c-0.78,0.98-1.53,2.08-2.06,3.22
			c-0.11,0.23-0.09,0.51,0.05,0.72c-0.2-0.19-0.51,0.09-0.63,0.25c-0.15,0.19-0.17,0.42-0.07,0.63c0.13,0.28,0.4,0.5,0.62,0.71
			c0.24,0.24,0.49,0.47,0.72,0.71c0.51,0.52,1.18,0.82,1.82,1.09c0.19-0.13,0.16-0.37,0.29-0.48c0.11-0.1,0.29-0.14,0.42-0.25
			c0.29,0.24,0.47,0.86,0.64,1.19c0.21,0.43,0.39,0.86,0.7,1.23c0.58,0.69,1.65,1.13,2.63,1.43c-15.45,1.68-30.38,3.89-44.65,6.61
			c36.3-2.65,74.51-4.06,113.96-4.06c39.45,0,77.65,1.41,113.96,4.06c-12.08-2.3-24.64-4.24-37.58-5.8
			C375.58,195.71,377.53,194.66,379.03,193.14 M271.08,120.72C271.08,120.72,271.08,120.72,271.08,120.72c0-0.01,0-0.01,0-0.02
			C271.08,120.7,271.08,120.71,271.08,120.72 M271.19,121.18L271.19,121.18l0.12-0.92l-0.06-0.09v0l0.06,0.1L271.19,121.18z
			 M271.25,120.1L271.25,120.1C271.25,120.1,271.25,120.1,271.25,120.1C271.25,120.1,271.25,120.1,271.25,120.1 M271.31,120.21
			l0.04-0.29c0,0,0,0,0,0L271.31,120.21L271.31,120.21z M271.33,120.3L271.33,120.3l0.31,0.53L271.33,120.3z M271.37,119.83
			L271.37,119.83C271.37,119.83,271.37,119.83,271.37,119.83L271.37,119.83z M271.61,121.87c-0.01-0.04-0.01-0.08-0.01-0.12
			C271.6,121.79,271.6,121.83,271.61,121.87C271.61,121.87,271.61,121.87,271.61,121.87 M271.61,120.73l0.09,0.16l0,0
			c0,0,0,0,0,0.01L271.61,120.73z M271.71,121.99l0.1-0.87l-0.09-0.16l0.09,0.16L271.71,121.99z M272.13,121.68
			C272.13,121.67,272.13,121.67,272.13,121.68l-0.3-0.52l-0.1,0.86c0,0,0,0,0,0l0.1-0.86L272.13,121.68L272.13,121.68z
			 M271.87,120.52L271.87,120.52l-0.06,0.55h0L271.87,120.52z M271.89,120.6l-0.06,0.51l0,0L271.89,120.6z M272.16,121.67l0.02,0.03
			L272.16,121.67z M272.22,121.82l-0.07-0.12c0,0,0,0,0,0L272.22,121.82z M272.22,122.42L272.22,122.42l0.05-0.52L272.22,122.42z
			 M272.21,120.9c0.02,0.04,0.05,0.09,0.07,0.14C272.26,120.98,272.23,120.94,272.21,120.9L272.21,120.9z M272.17,120.87
			L272.17,120.87c0.01,0.01,0.01,0.03,0.02,0.04C272.18,120.89,272.17,120.88,272.17,120.87 M272.18,120.84
			c-0.01-0.02-0.02-0.03-0.02-0.05C272.17,120.81,272.18,120.83,272.18,120.84L272.18,120.84z M272.15,120.84L272.15,120.84
			C272.15,120.84,272.15,120.84,272.15,120.84C272.15,120.84,272.15,120.84,272.15,120.84 M272.15,121.59
			c0,0.01-0.01,0.03-0.01,0.04v0C272.14,121.62,272.14,121.6,272.15,121.59 M272.16,122.38
			C272.16,122.38,272.15,122.38,272.16,122.38c-0.01-0.03-0.01-0.05-0.02-0.07C272.14,122.34,272.15,122.36,272.16,122.38
			 M271.72,120.17c0.09,0.1,0.17,0.22,0.26,0.34C271.9,120.39,271.81,120.28,271.72,120.17L271.72,120.17z M271.7,120.14
			C271.7,120.14,271.7,120.14,271.7,120.14c-0.01,0-0.01-0.01-0.01-0.02C271.69,120.13,271.69,120.14,271.7,120.14 M271.19,119.63
			c0.14,0.12,0.31,0.28,0.48,0.47C271.49,119.91,271.33,119.75,271.19,119.63C271.19,119.63,271.19,119.63,271.19,119.63
			 M271.07,119.85l0.16,0.28c0,0.01,0,0.01-0.01,0.01c0,0,0-0.01,0-0.01L271.07,119.85z M271.8,118.03
			C271.81,118.02,271.81,118.02,271.8,118.03c0-0.01,0-0.01-0.01-0.01C271.8,118.02,271.81,118.02,271.8,118.03
			C271.81,118.02,271.81,118.02,271.8,118.03 M271.71,117.67c0.03,0.02,0.07,0.04,0.1,0.08
			C271.77,117.72,271.74,117.69,271.71,117.67C271.7,117.67,271.7,117.67,271.71,117.67 M271.53,117.72c0,0,0,0.01,0,0.01
			L271.53,117.72L271.53,117.72z M270.78,119.33c0-0.02,0.01-0.03,0.01-0.03S270.78,119.31,270.78,119.33L270.78,119.33
			C270.77,119.33,270.77,119.33,270.78,119.33 M263.97,118.02L263.97,118.02l0,0.02C263.97,118.03,263.97,118.02,263.97,118.02
			 M264.02,118.62c0-0.01,0-0.02,0-0.02C264.01,118.6,264.01,118.61,264.02,118.62L264.02,118.62z M264.28,119.03l-0.2-0.91h0
			L264.28,119.03L264.28,119.03z M264.67,118.6c0-0.01,0-0.02,0-0.03C264.67,118.58,264.67,118.59,264.67,118.6L264.67,118.6z
			 M264.7,118.12L264.7,118.12l-0.02,0L264.7,118.12z M264.7,118.63L264.7,118.63l0.13,0.11l-0.13-0.54c0,0,0,0,0,0l0.13,0.54
			L264.7,118.63z M264.91,119.57c-0.02-0.04-0.04-0.08-0.05-0.11C264.87,119.49,264.9,119.53,264.91,119.57
			C264.91,119.57,264.91,119.57,264.91,119.57 M265.6,119.89c-0.02-0.02-0.03-0.05-0.04-0.07
			C265.57,119.84,265.59,119.87,265.6,119.89C265.61,119.89,265.61,119.89,265.6,119.89 M265.65,119.9l-0.14-0.53l-0.14-0.12
			l0.14,0.12L265.65,119.9L265.65,119.9 M265.37,119.21L265.37,119.21l0.11,0.1L265.37,119.21z M265.68,119.91l-0.13-0.51v0
			L265.68,119.91z M266.08,119.96c0,0,0-0.01,0.01-0.02C266.08,119.95,266.08,119.96,266.08,119.96L266.08,119.96L266.08,119.96z
			 M266.05,119.8C266.05,119.81,266.05,119.81,266.05,119.8l-0.46-0.4L266.05,119.8z M265.35,118.75l0.15,0.58l0,0L265.35,118.75
			L265.35,118.75C265.35,118.75,265.35,118.75,265.35,118.75 M265.34,119.24c0,0,0-0.01,0-0.01l-0.43-0.38l0.43,0.38
			C265.34,119.23,265.34,119.23,265.34,119.24 M265.33,119.18c0-0.01,0-0.02,0-0.04C265.33,119.16,265.33,119.17,265.33,119.18
			l-0.46-0.41l-0.11-0.47l0.11,0.47L265.33,119.18z M265.1,118.45c0.01,0.01,0.02,0.02,0.04,0.03
			C265.13,118.47,265.11,118.46,265.1,118.45L265.1,118.45z M265.08,118.43L265.08,118.43
			C265.08,118.43,265.08,118.43,265.08,118.43C265.08,118.43,265.08,118.43,265.08,118.43 M264.44,117.92L264.44,117.92
			c0.01,0,0.01,0.01,0.02,0.01C264.46,117.92,264.45,117.92,264.44,117.92 M264.32,119.07l-0.2-0.93L264.32,119.07z M264,118.01
			l0.08,0.07L264,118.01z M263.99,118.04l0.05,0.04L263.99,118.04z M263.99,117.7L263.99,117.7L263.99,117.7L263.99,117.7z
			 M263.97,117.98c0-0.01,0-0.01,0-0.02L263.97,117.98l-0.06-0.05L263.97,117.98z M263.79,115.85
			C263.8,115.85,263.8,115.85,263.79,115.85c0,0-0.01,0-0.01,0C263.79,115.85,263.79,115.85,263.79,115.85
			C263.8,115.85,263.8,115.85,263.79,115.85 M263.43,115.64c0,0,0,0.01,0,0.01L263.43,115.64
			C263.43,115.65,263.43,115.64,263.43,115.64 M256.78,116.89L256.78,116.89L256.78,116.89L256.78,116.89z M256.91,117.18
			L256.91,117.18c0,0.01,0.01,0.01,0.01,0.02C256.92,117.2,256.91,117.19,256.91,117.18 M256.94,117.19L256.94,117.19l0.06,0.01
			L256.94,117.19z M257.22,117.7c-0.01-0.01-0.01-0.01-0.01-0.02C257.22,117.68,257.22,117.69,257.22,117.7
			C257.23,117.7,257.23,117.7,257.22,117.7 M257.65,117.94l-0.59-0.72L257.65,117.94z M257.7,117.97l-0.6-0.73h0L257.7,117.97z
			 M257.6,116.95l0.01-0.01L257.6,116.95z M257.8,117.38c-0.01-0.01-0.01-0.02-0.01-0.03C257.79,117.36,257.8,117.37,257.8,117.38z
			 M257.84,117.39l0.17,0.04l-0.36-0.42c0,0,0,0,0,0l0.36,0.42L257.84,117.39L257.84,117.39z M258.45,118.13
			c-0.03-0.02-0.07-0.05-0.1-0.08C258.39,118.08,258.43,118.11,258.45,118.13C258.46,118.13,258.46,118.13,258.45,118.13
			 M258.68,117.63l-0.56-0.14L258.68,117.63c0,0,0.01,0.01,0.01,0.01C258.69,117.64,258.68,117.63,258.68,117.63 M258.7,117.61
			l0.14,0.03L258.7,117.61z M258.72,117.64l0.18,0.04L258.72,117.64 M259.22,118.1c-0.02-0.01-0.05-0.03-0.07-0.04
			C259.17,118.08,259.2,118.09,259.22,118.1C259.22,118.1,259.22,118.1,259.22,118.1 M259.26,118.09l-0.36-0.4L259.26,118.09
			L259.26,118.09 M259.3,118.09l-0.35-0.39l0,0L259.3,118.09z M259.67,117.93c0,0.01,0,0.01,0,0.02c0,0-0.01,0-0.01,0
			c0,0,0,0,0.01,0C259.67,117.95,259.67,117.94,259.67,117.93 M259.57,117.83l-0.6-0.15L259.57,117.83L259.57,117.83z
			 M258.87,117.65L258.87,117.65l-0.4-0.44l0,0.01c0,0,0-0.01,0-0.01L258.87,117.65z M258.12,117.05c0.02,0.01,0.03,0.01,0.05,0.02
			C258.15,117.06,258.13,117.06,258.12,117.05L258.12,117.05z M258.09,117.05L258.09,117.05
			C258.09,117.04,258.08,117.04,258.09,117.05C258.08,117.04,258.09,117.04,258.09,117.05 M258.06,117.45l0.6,0.15
			c-0.01-0.01-0.01-0.02-0.02-0.03c0.01,0.01,0.01,0.02,0.02,0.03L258.06,117.45l-0.31-0.37L258.06,117.45z M257.29,116.88
			L257.29,116.88c0.01,0,0.01,0,0.02,0C257.3,116.88,257.29,116.88,257.29,116.88 M256.93,117.16L256.93,117.16l0.1,0.03
			L256.93,117.16z M256.89,117.15c0,0,0-0.01-0.01-0.01C256.89,117.14,256.89,117.15,256.89,117.15l-0.08-0.02L256.89,117.15z
			 M255.35,115.32C255.35,115.32,255.35,115.32,255.35,115.32C255.35,115.32,255.35,115.32,255.35,115.32L255.35,115.32z
			 M255.76,115.34c0,0,0.01-0.01,0.01-0.01C255.77,115.33,255.77,115.33,255.76,115.34C255.77,115.33,255.77,115.33,255.76,115.34
			C255.77,115.33,255.76,115.34,255.76,115.34 M255.99,116.95c0-0.01-0.01-0.01-0.01-0.01
			C255.98,116.94,255.99,116.94,255.99,116.95c0.01,0.01,0.01,0.03,0.01,0.04C256,116.97,255.99,116.96,255.99,116.95
			 M309.61,130.89c1.6,1.08,3.2,2.16,4.8,3.23c0.7,0.47,2.47,1.24,2.82,2.04c0.24,0.55-0.16,1.4-0.09,2.01
			c0.09,0.83,0.46,1.63,1.07,2.2c0.8,0.74,1.97,1.04,3.04,0.86c0.82-0.14,1.34-0.68,2.12-0.39c0.91,0.35,1.95,1.88,2.66,2.57
			c0,0,6.09,5.52,6.1,5.52c0,0,4.08,3.53,4.08,3.58c-0.14,1.34-0.01,3,0.06,3.33c0.11,0.48,0.3,0.96,0.55,1.44l-1,0.45
			c-0.25-0.19-19.32-15.06-19.32-15.06c0.03-0.12,0.19-1.24-0.3-1.63c-0.5-0.41-2.69-1.55-2.93-1.69c-1.68-0.97-2.97-2.82-4.07-4.79
			c-0.05-0.53-0.12-1.24-0.18-1.77C309.01,132.81,309.57,131.38,309.61,130.89 M309.28,143.8c0.34,1,0.7,1.57,1.02,1.89
			c0.46,1.01,1.44,1.75,2.62,1.84c0.89,0.07,1.71-0.25,2.33-0.8c0.16-0.14,0.31-0.31,0.43-0.48c0.01-0.03,0.01-0.07,0.01-0.1
			c0-0.06,0.05-0.09,0.12-0.1c0.28-0.05,0.93,0.19,0.93,0.19l0.36,0.27l45.44,34.22c-1.03,1.84-1.55,4.03-1.26,6.4
			c0.45,3.68,2.89,6.84,6.23,8.27c-14.99-1.66-30.47-2.8-46.34-3.38c0.24-0.3,0.36-0.73,0.27-1.07c0-0.01-0.01-0.03-0.01-0.04
			c-0.12-0.36-0.49-0.28-0.64-0.53c-0.47-0.8,0.19-1.77-0.38-2.65c-0.43-0.67-1.3-1.11-2.09-1.16c-0.69-0.05-1.45,0.29-2.2,0.25
			c-1.17-0.06-3.11-0.47-4.08-1.15c0.02-0.99-0.16-2.12-0.07-2.97c0.15-1.46,0.43-2.91,0.72-4.36c0.24-1.2,0.46-2.41,0.65-3.62
			c0.08-0.53,0.16-1.07-0.12-1.58c-0.2-0.37-0.44-0.47-0.73-0.48c-0.02-1.12-0.06-2.24-0.08-3.35c-0.03-1.89-0.21-3.78-0.54-5.65
			l-3.9-22.12l0-0.02l-0.01-0.36C308.01,141.24,309.22,143.63,309.28,143.8 M308.88,191.7c-0.7-0.01-1.4-0.03-2.1-0.04
			c0.21-0.03,0.43-0.05,0.66-0.05C307.92,191.63,308.4,191.67,308.88,191.7 M297.69,100.02c-0.12,0.05-0.23,0.08-0.36,0.08
			C296.88,100.02,296.84,99.55,297.69,100.02 M270.05,120.89L270.05,120.89c0.04,0.02,0.08,0.03,0.12,0.05l0,0v0
			C270.13,120.92,270.09,120.91,270.05,120.89C270.05,120.89,270.05,120.89,270.05,120.89 M268.98,120.83
			c-0.95,0.19-1.94,1-2.9,2.13C267.04,121.83,268.04,121.02,268.98,120.83 M263.25,117.37c0,0.01,0,0.01,0,0.02
			c0,0.01,0,0.03-0.01,0.04c0-0.01,0-0.03,0.01-0.04C263.25,117.38,263.25,117.38,263.25,117.37 M263.21,118.81L263.21,118.81
			c0-0.01,0-0.02,0-0.03C263.21,118.79,263.21,118.8,263.21,118.81 M263.11,119.07c0.04,0,0.08,0.01,0.12,0.01h0
			c0-0.01,0-0.02,0-0.02c0,0.01,0,0.02,0,0.02C263.19,119.08,263.14,119.08,263.11,119.07L263.11,119.07L263.11,119.07z
			 M262.32,119.2L262.32,119.2c-0.21,0.08-0.41,0.19-0.6,0.34C261.92,119.39,262.12,119.28,262.32,119.2 M261.63,119.63
			c-0.15,0.13-0.3,0.27-0.45,0.44C261.32,119.9,261.48,119.76,261.63,119.63 M261,120.33c-0.11,0.15-0.21,0.29-0.31,0.45
			C260.79,120.61,260.9,120.47,261,120.33 M256.62,118.52c0.04-0.02,0.07-0.03,0.11-0.04l0,0c-0.01-0.01-0.01-0.02-0.02-0.02
			c0.01,0.01,0.01,0.02,0.02,0.02C256.7,118.49,256.66,118.5,256.62,118.52C256.62,118.52,256.62,118.52,256.62,118.52
			L256.62,118.52z M256.59,118.23L256.59,118.23c-0.01-0.01-0.01-0.02-0.01-0.03C256.58,118.22,256.59,118.22,256.59,118.23
			 M255.99,118.99L255.99,118.99c-0.3,0.33-0.51,0.77-0.62,1.29C255.48,119.75,255.68,119.31,255.99,118.99 M255.31,120.64
			c-0.05,0.31-0.07,0.65-0.07,1C255.24,121.29,255.27,120.95,255.31,120.64 M237.05,193.3c-0.06-0.08-0.22-0.17-0.24-0.26
			c-0.02-0.08,0.06-0.21,0.07-0.3c0.01-0.11-0.01-0.23-0.04-0.34c-0.06-0.2-0.17-0.41-0.34-0.54c-0.25-0.19-0.43-0.45-0.74-0.57
			c-0.16-0.06-0.31-0.09-0.48-0.09c-0.21-0.01-0.35,0.07-0.55,0.09c-0.13,0.02-0.23,0-0.37,0.03c-0.09,0.02-0.17,0.06-0.27,0.06
			c-0.48,0.04-0.95,0.11-1.43,0.16c-0.16,0.02-0.31,0.02-0.45-0.08c-0.1-0.06-0.17-0.15-0.24-0.24c-0.44-0.54-0.75-1.17-1.18-1.72
			c-0.91-1.16-0.93-2.45-0.61-3.73c0.08-0.03,0.17-0.06,0.24-0.1c0.2-0.11,0.39-0.26,0.58-0.43c0.81-0.73,1.53-1.92,2.27-2.59
			c1.1-1,2.3-1.9,3.49-2.79c1-0.74,1.98-1.5,2.94-2.28c0.43-0.34,0.85-0.7,0.98-1.27c0.18-0.74-0.33-0.91-0.86-1.36
			c-0.32-0.27-0.65-0.54-0.97-0.82c0.69-0.59,1.39-1.17,2.08-1.73c1.14-0.92,2.35-1.66,3.58-2.41c0.78-0.48,1.38-1.13,1.89-1.89
			c1.43-2.15,2.03-4.64,2.96-7c0.06-0.16,0.16-0.31,0.25-0.46c0.16,0.11,0.32,0.21,0.47,0.34c0.08,0.06,0.12,0.17,0.18,0.25
			c1.01,1.49,2.55,2.97,2.57,4.84c0.01,0.52,0.18,0.78,0.39,1.22c0.19,0.39,0.23,0.88,0.63,1.12c-0.5-0.3-0.36,1.14-0.35,1.29
			c0.04,0.89,0.12,1.29,0.68,1.96c0.62,0.74,0.44,1.73,0.57,2.64c0.06,0.41,0.14,0.81,0.23,1.21c-0.02,0.01-0.05,0.01-0.07,0.02
			c-0.55,0.17-1.7,0.3-2.03,0.91c-0.03,0.05-0.05,0.11-0.07,0.18c0,0.01-0.01,0.01-0.01,0.02v0c-0.05,0.15-0.08,0.32-0.03,0.54
			c0.07,0.31,0.14,0.63,0.22,0.96c0.13,0.83,0.37,1.67,0.86,2.34c0.01,0.02,0.03,0.03,0.04,0.05c0.09,0.25,0.18,0.5,0.28,0.74
			c0.42,0.96,0.9,1.89,1.25,2.88c0.12,0.33,0.32,0.6,0.51,0.88c0.12,0.22,0.24,0.44,0.37,0.66c0.23,0.46,0.42,0.94,0.68,1.38
			c0.08,0.13,0.17,0.25,0.26,0.37c0.02,0.03,0.04,0.07,0.05,0.1c0.29,0.53,0.64,1.05,0.89,1.6c0.07,0.16,0.12,0.33,0.18,0.5
			c-0.02,0.04-0.03,0.08-0.05,0.12c-0.05,0.18-0.09,0.36-0.1,0.54c-0.01,0.18,0.03,0.34,0.08,0.48c-0.05,0.13-0.09,0.27-0.15,0.39
			c-0.14,0.26-0.35,0.47-0.4,0.76c-0.05,0.27,0.02,0.55,0.12,0.83c-7.09,0.42-14.08,0.96-20.99,1.6c0.01-0.01,0.03-0.02,0.04-0.03
			c0.17-0.19,0.27-0.43,0.23-0.68C237.17,193.51,237.12,193.4,237.05,193.3 M294.36,191.6c0.01-0.03,0.04-0.05,0.05-0.08
			c0.08-0.23-0.03-0.49,0.04-0.72c0.03-0.11,0.06-0.15,0.04-0.27c-0.01-0.04-0.05-0.09-0.06-0.14c-0.01-0.05,0.01-0.11-0.01-0.17
			c-0.06-0.22-0.29-0.36-0.43-0.52c-0.11-0.13-0.16-0.25-0.19-0.42c-0.11-0.71,0.03-1.42-0.61-1.92c-0.67-0.53-1.64-0.22-2.4-0.13
			c-0.62,0.08-1.3,0.11-1.91-0.06c-0.91-0.26-1.3-1.02-2.09-1.5c-0.7-0.43-0.55-0.77-0.02-1.3c0.99-0.98,1.73-1.92,2.53-3.1
			c1.67-2.43,3.35-4.85,5.02-7.28c0.3-0.44,0.22-1.02-0.19-1.26l-0.83-0.5l3.03-5.64c0.34-0.31,0.56-0.74,0.6-1.23l1.14-4.71
			l0.01-0.02l1.51-6.22c0.62,1.82,1.08,3.86,2.04,5.52c0.31,0.52,0.44,1.2,0.61,1.77c0.14,0.48,0.21,0.96,0.28,1.44
			c0.06,0.4,0.24,0.79,0.32,1.13c0.08,0.31,0.14,0.54,0.22,0.86c0.04,0.15,0.11,0.16,0.13,0.36c0.02,0.19-0.01,0.39-0.01,0.58
			c0.02,0.38,0.12,0.45,0.37,0.7c0.17,0.17,0.52,0.33,0.65,0.52c0.19,0.28,0.11,0.97,0.1,1.29c-0.02,0.59-0.01,1.44-0.27,1.98
			c-0.07,0.15-0.11,0.21-0.26,0.3c-0.37,0.25-0.57,0.28-0.6,0.81c-0.01,0.29,0.03,0.55,0.08,0.83c0.07,0.38,0.07,0.37-0.31,0.47
			c-0.51,0.14-0.92,0.33-0.95,0.94c-0.07,1.24,0.31,2.62,0.48,3.85c0.22,1.58,0.47,3.17,0.68,4.75c0.19,1.4,0.01,2.74,0.02,4.15
			c0.01,0.89,0.65,1.7,0.57,2.57c-1.02,0.06-0.76,1.76-0.43,2.35c-2.09-0.02-4.17-0.04-6.27-0.04
			C296.14,191.58,295.25,191.6,294.36,191.6"/>
	</g>
</g>
</svg>
