<?xml version="1.0" encoding="utf-8"?>
<!-- Generator: Adobe Illustrator 25.1.0, SVG Export Plug-In . SVG Version: 6.00 Build 0)  -->
<svg version="1.1" id="Layer_1" xmlns="http://www.w3.org/2000/svg" xmlns:xlink="http://www.w3.org/1999/xlink" x="0px" y="0px"
	 viewBox="0 0 819.96 415.1" style="enable-background:new 0 0 819.96 415.1;" xml:space="preserve">
<style type="text/css">
	.st0{fill:#00502F;}
	.st1{fill:url(#SVGID_1_);}
	.st2{fill:url(#SVGID_2_);}
	.st3{fill:#221E1E;}
	.st4{fill:url(#SVGID_3_);}
	.st5{fill:url(#SVGID_4_);}
	.st6{fill:url(#SVGID_5_);}
	.st7{fill:url(#SVGID_6_);}
	.st8{fill:#FFFFFF;}
	.st9{fill:#F17A25;}
	.st10{fill:#FBB01A;}
	.st11{fill:#F37A34;}
</style>
<rect class="st0" width="819.96" height="415.1"/>
<g>
	<path class="st8" d="M399.25,223.88c0,1.44,1.01,2.09,2.16,2.09h5.77v6.67h-30.32v-6.67h5.77c1.01,0,2.09-0.65,2.09-2.09v-29.34
		h-5.01c-7.1,0-7.48,6.01-7.99,11.18h-6.79v-18.1h54.29v18.1h-6.66c-0.51-5.36-0.95-11.18-8.37-11.18h-4.95V223.88z"/>
	<path class="st8" d="M433.45,196.46c-0.82-2.07-2.98-2.26-5.07-2.26h-2.15v-6.59h26.38v6.59h-1.46c-2.28,0-2.98,0.71-2.98,2
		c0,0.97,2.41,7.17,8.62,22.74l7.99-19.9c-1.71-4.13-2.47-4.85-6.85-4.85h-1.58v-6.59h27.33v6.59h-2.85c-2.35,0-3.3,0.45-3.3,1.74
		c0,0.26,0.06,0.58,0.19,0.9l8.62,21.77l8.37-20.87c0.38-0.97,0.57-1.68,0.57-2.2c0-1.16-0.95-1.36-2.47-1.36h-4.38v-6.59h22.45
		v6.59c-4.31,0-6.47,0-7.55,2.71l-14.4,35.73H477.9l-9.07-23.19l-9.32,23.19h-11.67L433.45,196.46z"/>
	<path class="st8" d="M540.83,223.88c0,1.44,1.01,2.09,2.16,2.09h5.84v6.67h-30.44v-6.67h5.84c1.08,0,2.03-0.65,2.03-2.09v-27.51
		c0-1.44-0.95-2.09-2.03-2.09h-5.84v-6.67h30.44v6.67h-5.84c-1.14,0-2.16,0.65-2.16,2.09V223.88z"/>
	<path class="st8" d="M563.54,223.88v-27.45c0-0.78-0.44-2.16-2.6-2.16h-5.33v-6.67h21.56l24.92,30.59v-21.44
		c0-2.29-1.21-2.48-3.23-2.48h-4.31v-6.67h23.21v6.67h-5.33c-1.4,0-2.54,0.2-2.54,2.29v36.08h-13.13l-25.3-30.46v21.7
		c0,1.44,1.01,2.09,2.15,2.09h5.77v6.67h-23.78v-6.67h5.9C562.59,225.97,563.54,225.32,563.54,223.88"/>
	<path class="st8" d="M667.02,203.8h-7.07c-2.01-6.78-8.37-10.3-16.02-10.3c-4.21,0-9.53,1.19-9.53,4.96c0,1.76,1.36,2.83,3.57,3.27
		l17.96,3.64c8.11,1.63,13.88,5.28,13.88,12.81c0,9.73-10.38,14.76-21.27,14.76c-6.36,0-12.06-0.94-17.19-3.77l-2.01,3.27h-6.74
		v-16.83h7.2c1.55,7.29,8.82,10.74,17.51,10.74c4.22,0,10.64-1.13,10.64-5.21c0-2.14-2.14-3.08-4.73-3.58l-19.58-3.96
		c-7.33-1.51-11.61-6.03-11.61-12.25c0-9.67,10.24-14.45,20.88-14.45c6.1,0,11.54,1.01,15.11,3.58l2.27-2.95h6.74V203.8z"/>
	<polygon class="st8" points="446.99,253.16 446.99,256.99 460.97,256.99 460.97,260.64 446.99,260.64 446.99,266.4 442.75,266.4 
		442.75,249.52 462.88,249.52 462.88,253.16 	"/>
	<path class="st8" d="M496.75,249.52h-5.43l-9.69,16.88h4.51l1.95-3.38h11.89l1.95,3.38h4.51L496.75,249.52z M490.2,259.38l3.86-6.7
		l3.86,6.7H490.2z"/>
	<path class="st8" d="M545.33,258.48c0.31-0.41,0.57-0.9,0.76-1.46c0.19-0.56,0.29-1.21,0.29-1.95c0-1.12-0.2-2.05-0.6-2.76
		c-0.4-0.71-0.89-1.28-1.47-1.69c-0.58-0.41-1.19-0.7-1.82-0.86c-0.64-0.16-1.18-0.24-1.63-0.24h-15.16v16.88h4.24v-5.76h8.85
		l2.7,5.76h4.53l-2.94-6.25c0.4-0.16,0.8-0.38,1.19-0.65C544.66,259.23,545.01,258.89,545.33,258.48 M541.89,256.02
		c-0.16,0.25-0.35,0.44-0.57,0.59c-0.22,0.15-0.43,0.24-0.64,0.3c-0.21,0.06-0.36,0.09-0.46,0.09h-10.29v-3.83h10.29
		c0.13,0,0.3,0.02,0.52,0.07c0.22,0.05,0.43,0.14,0.64,0.27c0.21,0.14,0.39,0.33,0.53,0.58c0.15,0.25,0.22,0.58,0.22,0.98
		C542.13,255.45,542.05,255.77,541.89,256.02"/>
	<polygon class="st8" points="587.77,266.4 587.77,252.87 581.41,266.4 577.29,266.4 570.94,252.85 570.94,266.4 566.7,266.4 
		566.7,249.52 573.74,249.52 579.36,261.94 584.98,249.52 591.99,249.52 591.99,266.4 	"/>
</g>
<g>
	<path class="st8" d="M307.54,249.02l0.65,0c0.14-1.09,0.25-1.88,1.55-1.88l0.78,0l0,5.21c0,0.2-0.18,0.37-0.44,0.37l-0.91,0l0,0.67
		l3.82,0l0-0.67l-0.82,0c-0.33,0-0.5-0.08-0.5-0.36l0-5.22l0.84,0c1.28,0,1.38,0.79,1.53,1.88l0.64,0l0-2.57l-7.14,0L307.54,249.02z
		"/>
	<path class="st8" d="M326.48,247.11l0.84,0l0-0.67l-2.94,0l-2.57,5.49l-2.54-5.49l-2.97,0l0,0.67l0.91,0
		c0.22,0,0.42,0.17,0.42,0.37l0,4.86c0,0.2-0.19,0.37-0.45,0.37l-0.88,0l0,0.67l3.53,0l0-0.67l-0.85,0c-0.32,0-0.51-0.08-0.51-0.36
		l0-5.17l2.86,6.2l0.62,0l2.9-6.21l0,5.17c0,0.2-0.18,0.37-0.44,0.37l-0.91,0l0,0.67l3.84,0l0-0.67l-0.82,0
		c-0.33,0-0.52-0.08-0.52-0.36l0-4.88C325.98,247.2,326.18,247.11,326.48,247.11"/>
	<path class="st8" d="M280.82,263.41l0.69,0.52c0,0,1,0.75,1,0.75c0.08,0.06,0.16,0.1,0.25,0.14c0.03,0.01,0.05,0.02,0.08,0.02
		c0.06,0.02,0.12,0.04,0.19,0.04c0.03,0.01,0.06,0,0.09,0.01c0.08,0,0.17,0,0.25-0.02c0.02,0,0.04,0,0.07-0.01
		c0.1-0.02,0.2-0.06,0.29-0.11c0.02-0.01,0.04-0.02,0.06-0.04c0.07-0.04,0.14-0.09,0.21-0.15c0.02-0.02,0.05-0.04,0.07-0.06
		c0.08-0.08,0.15-0.16,0.21-0.26c0.36-0.6,0.15-1.37-0.43-1.77c-0.48-0.32-0.99-0.67-1.51-1.03c1-1.67,1.57-3.64,1.48-5.78
		c-0.19-4.83-3.81-8.99-8.58-9.83c-3.42-0.6-6.66,0.52-8.95,2.67c0,0-1.97-1.66-1.66-2.41c0.4-0.95,0.92-2.16,1.18-2.76
		c0.02-0.04,4.71,0.24,4.79,0.22c0.22-0.05,25.63-12.39,25.63-12.39l0.2-0.6l-0.03-1.26c2.31-3.57,2.64-7.44,1.78-9.98
		c-0.06-0.19-0.69-1.93-1.98-2.85c0.08,0.01,1.75,0.14,2.39,1.22c1.53,1.56,3.56,1.89,3.72,1.92c2.49,0.53,6.57,0.59,6.57,0.59
		c-2.89-5.83-8.42-6.33-8.52-6.34c-3.76-0.39-5.5,1.68-5.5,1.68c-0.48-0.27-0.82-0.39-0.82-0.39c0.02-0.03,0.16-0.4,0.19-0.53
		c0.1-0.4,0.02-0.71-0.51-0.81c-0.92-0.16-0.96,0.52-0.95,0.66c0,0.13,0,0.26-0.01,0.4c-1.4-0.91-3.15-0.62-3.51-0.58
		c-0.1,0.01-1.4-0.78-1.33-0.8c0-0.01-0.05-0.23-0.08-0.34c-1.02-3.96-5.62-5.24-5.65-5.25c0-0.02,1.28-0.76,1.28-0.76
		c1.77,1.17,5.18,1.56,5.33,1.57c4.3,0.31,7.42-2.12,7.42-2.12c-0.27-0.23-0.54-0.43-0.8-0.64c-3.1-2.49-6.76-2.29-6.83-2.28
		c-4.52,0.36-8.11,3.26-8.11,3.25c-1.11-0.18-1.21,0.95-1.16,1.08c-0.61,0-5.65,1.55-6.84,5.7l-2.11,0.21
		c-1.53-1.36-4.73-0.83-4.76-0.82l-0.47-0.98c0.71-0.17,3.19,0.28,6.85-2.51c2.4-1.83,3.8-4.52,3.8-4.52
		c-4.52-0.65-7.14,0.91-7.16,0.91c-3.29,1.45-5.33,5.74-5.39,5.88l-1.68,0.33c0.25-0.68,0.73-2.61,0.78-3.24
		c0.06-0.67,0.38-3.4-1.76-4.9c-0.41-0.29-0.89-0.55-1.47-0.75c0.03-0.04,0.39-0.51,0.36-0.63c-0.03-0.13-0.15-0.24-0.36-0.36
		c-0.58-0.32-0.77,0.54-0.78,0.56c0,0-0.95-1.71-1.35-2.29c-1.05-1.51-2.75-2.44-4.59-2.5c-0.76-0.03-3.67,0.44-4.06,0.61
		c0,0,1.86,2.99,5.79,3.35c2.04,0.21,2.06,0.73,2.06,0.73c-1.01-0.05-1.74,0.27-1.89,0.35c-0.01,0-0.01,0-0.02,0.01
		c-1.51,0.86-3,2.82-3.54,5.45l-0.42,1.88c-0.04-0.01-1.2-0.28-1.32-0.3c-0.28-0.05-0.55-0.09-0.81-0.1c0,0-1.11,0.12-1.59,0.25
		c-2.18,0.61-3.67,3.42-3.9,3.95c-0.21,0.51-0.85,2.33-0.85,2.33l-3.74-0.96c0,0-0.05,3.19-0.06,4.02
		c-1.15-0.93-15.83-15.46-16.79-16.48c-1.27-1.35-3.78-4.9-4.54-6.26c-0.27-0.5-0.63-0.95-0.98-1.4c-0.35-0.44-0.88-0.89-1.13-1.4
		c-0.23-0.47,0.06-0.9,0.2-1.35c0.18-0.58-0.08-1.08-0.34-1.59c-0.12-0.23-0.19-0.35-0.37-0.54c-0.19-0.19-0.38-0.25-0.58-0.4
		c-0.18-0.15-0.28-0.38-0.49-0.51c-0.71-0.46-1.3-0.39-1.28-1.52c0-0.23,0.23-2.94-0.23-4.86c-0.32-1.37-1.48-3.77-1.63-4.27
		c-0.44-1.47-2.12-2.89-2.17-2.92c-0.1-0.07-0.16-0.36-0.19-0.7c0.14-0.03,0.28-0.08,0.4-0.15c0.44-0.23,0.48-0.24,0.51-0.77
		c0.02-0.46,0.11-1.2-0.04-1.62c-0.22-0.61-0.92-1.02-1.47-1.33c0.01-0.07,0.01-0.14,0.03-0.22c0.17-0.57,0.86-0.38,1.28-0.63
		c0.19-0.11,0.29-0.27,0.4-0.46c0.36-0.59,0.63-1.26,0.93-1.88c0.07-0.14,0.33-0.93,0.49-0.99c3.02-1.16,4.97-3.05,4.82-5.04
		c-0.09-1.19-0.91-2.24-2.24-3.04c-0.72-0.44-1.59-0.8-2.57-1.07c-0.21-0.06-0.42-0.11-0.64-0.16c-0.6-1.07-1.56-1.92-2.72-2.38
		c-0.15-0.06-0.29-0.11-0.44-0.15c-0.07-0.02-0.14-0.04-0.21-0.06c-0.07-0.02-0.14-0.03-0.21-0.05c-0.21-0.04-0.42-0.07-0.62-0.09
		c-0.05-0.01-0.09-0.01-0.13-0.01c-1.13-0.07-2.21,0.21-3.12,0.76c-0.6,0.43-1.17,0.99-1.63,1.51c-0.34,0.38-0.62,0.75-0.8,1.04
		c-3.29,1.14-5.45,3.12-5.3,5.21c0.15,2.01,2.22,3.22,3.91,3.83c0.55,0.2,1.71,0.16,1.67,0.93c-0.02,0.37-0.26,0.74-0.3,1.12
		c-0.01,0.13-0.01,0.26-0.02,0.4c-0.33-0.09-0.54-0.43-0.92-0.14c-0.33,0.26-0.2,0.71-0.2,1.08c0,0.22,0,0.37,0.02,0.48
		c-0.09,0.04-0.17,0.08-0.24,0.11c-0.18,0.09-0.51,0.18-0.66,0.32c-0.14,0.13-0.12,0.25-0.21,0.39c-0.13,0.22-0.1,0.19-0.29,0.37
		c-0.31,0.28-0.68,0.52-1,0.8c-0.8,0.7-1.54,1.48-2.21,2.3c-1.74,2.14-2.05,6.25-2.07,6.51c0.01,1.83,0.33,3.88-0.22,5.66
		c-0.24,0.79-0.32,1.63-0.68,2.39c-0.34,0.71,0.02,1.47,0.61,1.99c-0.34-0.3-0.55,0.85-0.55,0.95c-0.04,0.6,0.18,0.97,0.4,1.49
		c0.12,0.28,0.17,0.44,0.15,0.74c-0.02,0.34-0.03,0.71-0.08,1.04c-0.04,0.31-0.31,0.6-0.29,0.91c0.02,0.28,0.17,0.7,0.22,0.98
		c0.21,1.06,1.24,1.76,1.29,2.86c0.06,1.34-0.2,2.78-0.64,4.04c-1.16,3.33-1.96,6.58-1.7,10.16c0.12,1.73,0.76,3.38,0.99,5.09
		c0.16,1.19,0.03,2.36,0.03,3.56c0,0.44-0.01,0.87,0,1.31c0,0.45,0.19,0.87,0.19,1.31c0,0.38-0.15,0.77-0.18,1.15
		c-0.05,0.71-0.55,1.34-0.58,2.03c-0.02,0.44,0.34,0.77,0.32,1.2c-0.03,0.66-0.72,0.65-1.04,1.14c-0.33,0.5-0.35,1.16-0.35,1.74
		c0,0.2-0.05,0.48-0.01,0.67c0.05,0.21,0.25,0.21,0.14,0.45c-0.06,0.14-0.2,0.14-0.3,0.2c-0.19,0.13-0.21,0.13-0.33,0.33
		c-0.28,0.46-0.4,0.98-0.46,1.51c-0.04,0.35,0.08,1.21-0.47,1.27c-0.38,0.04-0.99-0.08-1.41-0.2c-0.24-0.07-0.41-0.38-0.76-0.15
		c-0.11,0.08-0.26,0.66-0.32,0.81c-0.11,0.27-0.26,0.61-0.34,0.88c-0.36,1.16-0.55,2.37-1.11,3.47c-0.62,1.21-1.12,2.87-1.49,4.27
		c-0.39,1.52-0.63,3.25-1.19,4.7c-0.3,0.77-0.7,1.45-0.89,2.26c-0.19,0.81-0.37,1.39-0.91,2.04c-0.49,0.58-0.88,1.29-0.93,2.06
		c-0.03,0.45,0.04,0.9,0.03,1.35c0,0.13,0.02,0.23-0.09,0.3c-0.16,0.1-0.27-0.04-0.36,0.19c-0.06,0.17-0.01,0.32-0.04,0.5
		c-0.03,0.18-0.11,0.3-0.09,0.5c0.02,0.22,0.18,0.42,0.24,0.6c0,0.01,0,0.02,0.01,0.02c-0.62,0.02-1.25,0.03-1.87,0.05
		c0.03-0.03,0.07-0.07,0.09-0.12c0.06-0.17,0.05-0.38,0.05-0.56c0.01-0.17,0.06-0.36-0.01-0.53c-0.06-0.15-0.23-0.28-0.34-0.39
		c-0.17-0.16-0.35-0.31-0.43-0.53c-0.08-0.22-0.08-0.47-0.12-0.69c-0.11-0.64-0.43-1.21-1-1.54c-1.15-0.66-2.73-0.36-3.95-0.12
		c-1.6,0.31-2.52-0.19-3.26-1.13c0-0.02,0-0.04-0.01-0.07c-0.19-1.08-0.81-2.32-0.98-3.31c-0.26-1.46-0.38-2.96-0.49-4.44
		c-0.1-1.24-0.21-2.47-0.36-3.71c-0.07-0.54-0.14-1.09-0.55-1.51c-0.53-0.54-0.95-0.21-1.61,0c-0.05,0.02-0.11,0.03-0.16,0.05
		c-0.29-2.69-0.37-5.54,0.33-8.15c0.05-0.19,0.04-0.41,0.01-0.61c-0.16-0.9-0.27-1.92-0.64-2.77c-0.14-0.32-0.34-0.61-0.41-0.97
		c-0.08-0.42,0.09-0.84-0.01-1.25c-0.14-0.58-0.56-1.22-0.76-1.83c-0.42-1.32-1.48-2.42-1.66-3.82c-0.07-0.56-0.03-1.04-0.2-1.6
		c-0.48-1.58-1.19-3.08-1.68-4.65c-0.27-0.85-0.47-1.73-0.54-2.62c-0.05-0.61,0.08-1.21,0.06-1.81c-0.01-0.16-0.03-0.33-0.08-0.5
		c0.83,0.81,1.68,1.43,2.96,1.89c1.74,0.62,3.48,0.78,5.26,0.17c1.8-0.62,3.33-1.87,4.49-3.4c0.36-0.48,0.69-0.99,0.98-1.51
		c1.71-3.11,2.06-6.77,2.68-10.22c0.4,0.2,0.99,0.06,1.24-0.34c0.33-0.51,0.17-1.23-0.24-1.67c-0.53-0.58-1.91-1.07-2.86-1.27
		c0.16-0.6,0.29-1.21,0.39-1.76c0.1-0.51,0.18-1.15,0.14-1.78c-0.02-0.41-0.1-0.81-0.26-1.15c-0.16-0.34-0.4-0.62-0.77-0.79
		c0.17-0.63,0.36-1.14,0.57-1.54c-0.02,0.15-0.04,0.43-0.02,0.78c0.01,0.15,0.03,0.32,0.06,0.49c0,0.02,0.01,0.04,0.01,0.06
		c0.1,0.51,0.31,0.89,0.55,1.16c0.09,0.11,0.2,0.21,0.33,0.31c0.24,0.18,0.53,0.32,0.9,0.4c0,0,0.3-0.4,0.34-1.04
		c0.01-0.09,0.01-0.19,0-0.29c-0.02-0.28-0.09-0.59-0.23-0.92c0,0-0.02-0.03-0.03-0.03c-0.02-0.04-0.04-0.08-0.06-0.12
		c-0.25-0.47-0.71-0.71-1.1-0.82c-0.32-0.09-0.6-0.1-0.69-0.1c0.15-0.28,0.29-0.5,0.43-0.67c0.18-0.23,0.33-0.38,0.45-0.48
		c0.06-0.05,0.1-0.08,0.13-0.1c0.02-0.01,0.03-0.02,0.06-0.04c0.02-0.02,0.03-0.05,0.02-0.07c0-0.06-0.04-0.12-0.09-0.18
		c-0.07-0.07-0.14-0.11-0.21-0.11c-0.02,0-0.04,0.01-0.06,0.02c-0.01,0.01-0.01,0.02-0.03,0.03c-0.21,0.23-0.39,0.49-0.55,0.76
		c-0.06,0.09-0.11,0.17-0.15,0.23c-0.13,0.23-0.25,0.51-0.36,0.79c-0.25,0.62-0.38,1.16-0.44,1.42c-0.25-0.09-0.5-0.13-0.75-0.11
		c-1.05,0.06-2.15,0.93-3.21,2.18c-0.15,0.18-0.32,0.36-0.48,0.52c-0.09-0.43-0.17-0.81-0.21-1.1c-0.08-0.51-0.22-1.15-0.47-1.73
		c-0.16-0.38-0.37-0.74-0.64-1.01c-0.27-0.27-0.6-0.47-1-0.53c-0.06-0.65-0.04-1.18,0.02-1.62c0.03,0.15,0.1,0.42,0.24,0.74
		c0.06,0.14,0.13,0.29,0.22,0.45c0.01,0.02,0.02,0.04,0.04,0.06c0.27,0.46,0.59,0.75,0.92,0.95c0.12,0.07,0.26,0.14,0.41,0.19
		c0.29,0.1,0.61,0.15,1,0.12c0,0,0.19-0.6-0.13-1.35c-0.11-0.26-0.28-0.53-0.53-0.81c0,0-0.03-0.02-0.04-0.02
		c-0.03-0.03-0.06-0.06-0.1-0.09c-0.4-0.38-0.91-0.47-1.33-0.46c-0.34,0.01-0.61,0.07-0.69,0.1c0.05-0.3,0.11-0.55,0.18-0.76
		c0.09-0.27,0.19-0.46,0.26-0.58c0.04-0.06,0.07-0.11,0.09-0.14c0.01-0.02,0.02-0.03,0.04-0.06c0.01-0.02,0.01-0.05,0-0.08
		c-0.02-0.05-0.08-0.11-0.15-0.15c-0.09-0.05-0.18-0.06-0.23-0.04c-0.02,0.01-0.04,0.02-0.05,0.04c-0.01,0.01-0.01,0.02-0.02,0.04
		c-0.12,0.28-0.21,0.58-0.27,0.88c-0.03,0.1-0.05,0.19-0.06,0.26c-0.05,0.25-0.07,0.55-0.07,0.87c-0.03,0.65,0.03,1.2,0.06,1.46
		c-0.26-0.01-0.52,0.02-0.76,0.11c-0.8,0.29-1.34,0.83-1.73,1.47c-0.11-0.13-0.24-0.23-0.39-0.34c-0.48-0.35-0.81-0.84-1.26-1.22
		c-0.32-0.26-0.67-0.49-1.03-0.61c-0.37-0.12-0.75-0.15-1.13-0.02c-0.35-0.55-0.57-1.04-0.72-1.45c0.1,0.11,0.29,0.33,0.55,0.55
		c0.12,0.1,0.25,0.2,0.4,0.3c0.02,0.01,0.04,0.02,0.06,0.03c0.45,0.28,0.87,0.4,1.25,0.42c0.14,0.01,0.29,0.01,0.46-0.02
		c0.3-0.04,0.61-0.14,0.94-0.35c0,0,0-0.02-0.01-0.05c-0.04-0.15-0.19-0.66-0.72-1.1c-0.22-0.18-0.49-0.35-0.84-0.48
		c0,0-0.04,0-0.04,0c-0.04-0.01-0.08-0.03-0.13-0.04c-0.53-0.15-1.03,0-1.39,0.19c-0.3,0.16-0.51,0.34-0.57,0.4
		c-0.1-0.29-0.16-0.55-0.19-0.76c-0.04-0.28-0.04-0.5-0.03-0.64c0.01-0.07,0.01-0.13,0.02-0.16c0-0.02,0.01-0.03,0.01-0.07
		c0-0.02-0.02-0.05-0.04-0.07c-0.04-0.04-0.12-0.06-0.2-0.06c-0.1,0-0.18,0.03-0.23,0.07c-0.01,0.02-0.02,0.03-0.02,0.06
		c0,0.01,0,0.02,0,0.04c0.02,0.3,0.08,0.61,0.16,0.9c0.02,0.1,0.04,0.19,0.06,0.26c0.07,0.25,0.19,0.52,0.33,0.8
		c0.27,0.59,0.57,1.06,0.72,1.27c-0.24,0.11-0.45,0.26-0.62,0.44c-0.69,0.74-0.91,1.61-0.89,2.51c-0.12-0.11-0.23-0.22-0.34-0.32
		c0.03-3.54-0.54-7.24-2.98-9.53c-0.86-0.81-1.77-1.73-2.23-2.84c0.29-0.26,0.43-0.87,0.27-1.18c-0.05-0.09-0.32-0.36-0.43-0.43
		c0.04-0.31,0.08-0.62,0.1-0.93c0.26-0.05,0.51-0.11,0.74-0.19c0.33-0.11,0.57-0.27,0.86-0.45c0.73-0.43,0.95-1.36,1.13-2.14
		c0.05-0.24,0.03-0.43,0.06-0.67c0.02-0.21,0.12-0.38,0.14-0.59c0.05-0.39,0-0.81,0-1.2c0-0.19,0.05-0.48,0.01-0.67
		c-0.04-0.18-0.14-0.23-0.14-0.46c0-0.25,0.1-0.36,0.14-0.6c0.03-0.16-0.01-0.36-0.01-0.53c0-0.22-0.01-0.43,0.03-0.63
		c0.03-0.13,0.11-0.25,0.1-0.43c0-0.18,0.05-0.43,0.01-0.6c-0.04-0.16-0.17-0.26-0.11-0.43c0.03-0.09,0.25-0.23,0.32-0.28
		c0.05-0.03,0.41-0.13,0.43-0.17c0.07-0.13-0.18-0.68-0.25-0.83c-0.19-0.42-0.22-0.76-0.32-1.19c-0.04-0.18-0.22-0.38-0.25-0.53
		c-0.06-0.21-0.01-0.41-0.07-0.62c-0.07-0.25-0.27-0.47-0.43-0.67c-0.09-0.12-0.18-0.24-0.27-0.35c-0.42-0.54-0.83-1.02-1.43-1.42
		c-0.61-0.41-1.29-0.62-1.97-0.9c-0.28-0.12-0.41-0.09-0.7-0.11c-0.28-0.03-0.51-0.16-0.79-0.18c-0.43-0.03-0.85-0.02-1.27,0.05
		c-0.69,0.11-1.49-0.08-2.08,0.39c-0.24,0.19-0.59,0.5-0.64,0.83c-0.1-0.04-0.48,0.67-0.68,0.88c-0.35,0.12-0.66,0.11-0.9,0.44
		c-0.39,0.53-0.62,1.22-0.63,1.86c-0.03,1.6-0.32,2.5,0.62,3.99c-0.32,0.35-0.3,0.68-0.35,1.14c-0.04,0.32-0.15,0.56-0.14,0.88
		c0.01,0.27,0.05,0.48,0.13,0.74c0.38,1.13,1.12,2.36,2.01,3.37c-0.09,0.06-0.19,0.12-0.27,0.2c-0.42,0.38,0.09,0.42-0.02,0.94
		c-0.01,0.07-0.04,0.12-0.06,0.18c-0.53,0.01-0.98,0.15-1.04,0.61c-0.04,0.27,0.13,0.59,0.35,0.85c-0.71,0.97-1.72,1.63-2.55,2.67
		c-1.51,1.88-2.35,4.41-2.45,6.81c-0.08,1.9,0.71,3.57,1.07,5.36c0.06,0.31,0.14,0.59,0.17,0.91c0.02,0.27,0.13,0.41,0.17,0.65
		c0.05,0.32,0,0.43,0.13,0.7c-0.19,0.13-0.17,0.51-0.22,0.71c-0.04,0.17-0.03,0.6-0.22,0.71c0.17,0.24,0.15,0.61,0.26,0.91
		c0.15,0.39,0.31,0.69,0.39,1.11c0.1,0.48,0.27,0.97,0.48,1.41c0.09,0.18,0.21,0.34,0.28,0.53c-0.17,0.02-0.22,0.15-0.29,0.29
		c-0.04,0.07-0.15,0.4-0.17,0.49c-0.08,0.36,0.01,0.87,0.01,1.25c0,0.46,0.01,0.83,0.12,1.27c0.09,0.35,0.08,0.75,0.2,1.09
		c0.18,0.52,0.42,0.6,0.3,1.17c-0.1,0.52-0.21,1.05-0.31,1.57c-0.22,1.11-0.42,2.22-0.59,3.35c-0.32,2.25-0.48,4.56-0.13,6.82
		c0.37,2.4,1.64,4.54,1.97,6.93c0.25,1.79,0.57,3.91-0.38,5.56c-0.2,0.34-0.45,0.59-0.57,0.94c-0.24,0.68-0.16,1.46-0.59,2.07
		c-0.39,0.54-0.95,0.93-1.31,1.5c-0.55,0.85-0.58,1.87-1.02,2.77c-0.67,1.38-1.94,2.23-3.02,3.26c-0.56-0.47-1.17-0.82-1.75-0.24
		c-3.11,3.09-5.96,7.93-7.54,12.01c-0.49,1.28-0.86,1.92-0.71,2.48c-0.28,0.34-0.56,0.67-0.83,1.02c-0.78,0.98-1.53,2.08-2.06,3.22
		c-0.11,0.23-0.09,0.51,0.05,0.72c-0.2-0.19-0.51,0.09-0.63,0.25c-0.15,0.19-0.17,0.42-0.07,0.63c0.13,0.28,0.4,0.5,0.62,0.71
		c0.24,0.24,0.49,0.47,0.72,0.71c0.51,0.52,1.18,0.82,1.82,1.09c0.19-0.13,0.16-0.37,0.29-0.48c0.11-0.1,0.29-0.14,0.42-0.25
		c0.29,0.24,0.47,0.86,0.64,1.19c0.21,0.43,0.39,0.86,0.7,1.23c0.58,0.69,1.65,1.13,2.63,1.43c-15.45,1.68-30.38,3.89-44.65,6.61
		c36.3-2.65,74.51-4.06,113.96-4.06c39.45,0,77.65,1.41,113.96,4.06c-12.08-2.3-24.64-4.24-37.58-5.8
		C277.37,265.98,279.32,264.92,280.82,263.41 M172.87,190.99C172.87,190.99,172.87,190.98,172.87,190.99c0-0.01,0-0.01,0-0.02
		C172.87,190.97,172.87,190.98,172.87,190.99 M172.98,191.45L172.98,191.45l0.12-0.92l-0.06-0.09v0l0.06,0.1L172.98,191.45z
		 M173.04,190.37L173.04,190.37C173.04,190.37,173.04,190.37,173.04,190.37C173.04,190.37,173.04,190.37,173.04,190.37
		 M173.1,190.48l0.04-0.29c0,0,0,0,0,0L173.1,190.48L173.1,190.48z M173.12,190.57L173.12,190.57l0.31,0.53L173.12,190.57z
		 M173.15,190.1L173.15,190.1C173.16,190.1,173.16,190.1,173.15,190.1L173.15,190.1z M173.39,192.14c-0.01-0.04-0.01-0.08-0.01-0.12
		C173.38,192.06,173.39,192.1,173.39,192.14C173.39,192.14,173.39,192.14,173.39,192.14 M173.4,191l0.09,0.16l0,0c0,0,0,0,0,0.01
		L173.4,191z M173.5,192.26l0.1-0.87l-0.09-0.16l0.09,0.16L173.5,192.26z M173.92,191.95C173.92,191.94,173.92,191.94,173.92,191.95
		l-0.3-0.52l-0.1,0.86c0,0,0,0,0,0l0.1-0.86L173.92,191.95L173.92,191.95z M173.66,190.79L173.66,190.79l-0.06,0.55h0L173.66,190.79
		z M173.68,190.87l-0.06,0.51l0,0L173.68,190.87z M173.95,191.93l0.02,0.03L173.95,191.93z M174.01,192.09l-0.07-0.12c0,0,0,0,0,0
		L174.01,192.09z M174.01,192.69L174.01,192.69l0.05-0.52L174.01,192.69z M174,191.16c0.02,0.04,0.05,0.09,0.07,0.14
		C174.04,191.25,174.02,191.21,174,191.16L174,191.16z M173.95,191.14L173.95,191.14c0.01,0.01,0.01,0.03,0.02,0.04
		C173.97,191.16,173.96,191.15,173.95,191.14 M173.97,191.11c-0.01-0.02-0.02-0.03-0.02-0.05
		C173.95,191.08,173.96,191.1,173.97,191.11L173.97,191.11z M173.94,191.11L173.94,191.11
		C173.94,191.11,173.94,191.11,173.94,191.11C173.94,191.11,173.94,191.11,173.94,191.11 M173.93,191.86c0,0.01-0.01,0.03-0.01,0.04
		v0C173.93,191.88,173.93,191.87,173.93,191.86 M173.95,192.65C173.94,192.65,173.94,192.65,173.95,192.65
		c-0.01-0.03-0.01-0.05-0.02-0.07C173.93,192.6,173.94,192.63,173.95,192.65 M173.51,190.44c0.09,0.1,0.17,0.22,0.26,0.34
		C173.69,190.66,173.6,190.55,173.51,190.44L173.51,190.44z M173.49,190.41C173.49,190.41,173.49,190.41,173.49,190.41
		c-0.01,0-0.01-0.01-0.01-0.02C173.48,190.4,173.48,190.41,173.49,190.41 M172.97,189.9c0.14,0.12,0.31,0.28,0.48,0.47
		C173.28,190.18,173.11,190.02,172.97,189.9C172.97,189.9,172.97,189.9,172.97,189.9 M172.86,190.12l0.16,0.28
		c0,0.01,0,0.01-0.01,0.01c0,0,0-0.01,0-0.01L172.86,190.12z M173.59,188.29C173.59,188.29,173.6,188.29,173.59,188.29
		c0-0.01,0-0.01-0.01-0.01C173.59,188.29,173.59,188.29,173.59,188.29C173.6,188.29,173.6,188.29,173.59,188.29 M173.49,187.94
		c0.03,0.02,0.07,0.04,0.1,0.08C173.56,187.98,173.52,187.96,173.49,187.94C173.49,187.94,173.49,187.94,173.49,187.94
		 M173.32,187.99c0,0,0,0.01,0,0.01L173.32,187.99L173.32,187.99z M172.56,189.6c0-0.02,0.01-0.03,0.01-0.03
		S172.57,189.58,172.56,189.6L172.56,189.6C172.56,189.6,172.56,189.6,172.56,189.6 M165.75,188.29L165.75,188.29l0,0.02
		C165.76,188.3,165.75,188.29,165.75,188.29 M165.8,188.88c0-0.01,0-0.02,0-0.02C165.8,188.87,165.8,188.88,165.8,188.88
		L165.8,188.88z M166.07,189.29l-0.2-0.91h0L166.07,189.29L166.07,189.29z M166.46,188.87c0-0.01,0-0.02,0-0.03
		C166.46,188.85,166.46,188.86,166.46,188.87L166.46,188.87z M166.49,188.39L166.49,188.39l-0.02,0L166.49,188.39z M166.49,188.9
		L166.49,188.9l0.13,0.11l-0.13-0.54c0,0,0,0,0,0l0.13,0.54L166.49,188.9z M166.7,189.83c-0.02-0.04-0.04-0.08-0.05-0.11
		C166.66,189.76,166.68,189.8,166.7,189.83C166.7,189.84,166.7,189.84,166.7,189.83 M167.39,190.16c-0.02-0.02-0.03-0.05-0.04-0.07
		C167.36,190.11,167.38,190.13,167.39,190.16C167.39,190.16,167.39,190.16,167.39,190.16 M167.44,190.16l-0.14-0.53l-0.14-0.12
		l0.14,0.12L167.44,190.16L167.44,190.16 M167.16,189.48L167.16,189.48l0.11,0.1L167.16,189.48z M167.47,190.18l-0.13-0.51v0
		L167.47,190.18z M167.87,190.23c0,0,0-0.01,0.01-0.02C167.87,190.22,167.87,190.22,167.87,190.23L167.87,190.23L167.87,190.23z
		 M167.83,190.07C167.83,190.07,167.83,190.07,167.83,190.07l-0.46-0.4L167.83,190.07z M167.13,189.02l0.15,0.58l0,0L167.13,189.02
		L167.13,189.02C167.13,189.02,167.13,189.02,167.13,189.02 M167.13,189.5c0,0,0-0.01,0-0.01l-0.43-0.38l0.43,0.38
		C167.13,189.49,167.13,189.5,167.13,189.5 M167.12,189.45c0-0.01,0-0.02,0-0.04C167.12,189.43,167.12,189.44,167.12,189.45
		l-0.46-0.41l-0.11-0.47l0.11,0.47L167.12,189.45z M166.89,188.72c0.01,0.01,0.02,0.02,0.04,0.03
		C166.91,188.74,166.9,188.73,166.89,188.72L166.89,188.72z M166.87,188.7L166.87,188.7C166.87,188.7,166.87,188.7,166.87,188.7
		C166.87,188.7,166.87,188.7,166.87,188.7 M166.23,188.18L166.23,188.18c0.01,0,0.01,0.01,0.02,0.01
		C166.24,188.19,166.24,188.19,166.23,188.18 M166.1,189.34l-0.2-0.93L166.1,189.34z M165.78,188.28l0.08,0.07L165.78,188.28z
		 M165.78,188.31l0.05,0.04L165.78,188.31z M165.78,187.96L165.78,187.96L165.78,187.96L165.78,187.96z M165.76,188.25
		c0-0.01,0-0.01,0-0.02L165.76,188.25l-0.06-0.05L165.76,188.25z M165.58,186.12C165.58,186.12,165.58,186.12,165.58,186.12
		c0,0-0.01,0-0.01,0C165.58,186.12,165.58,186.12,165.58,186.12C165.58,186.12,165.58,186.12,165.58,186.12 M165.22,185.91
		c0,0,0,0.01,0,0.01L165.22,185.91C165.22,185.91,165.22,185.91,165.22,185.91 M158.57,187.16L158.57,187.16L158.57,187.16
		L158.57,187.16z M158.7,187.45L158.7,187.45c0,0.01,0.01,0.01,0.01,0.02C158.7,187.46,158.7,187.46,158.7,187.45 M158.73,187.46
		L158.73,187.46l0.06,0.01L158.73,187.46z M159.01,187.96c-0.01-0.01-0.01-0.01-0.01-0.02C159,187.95,159.01,187.96,159.01,187.96
		C159.01,187.96,159.01,187.96,159.01,187.96 M159.43,188.21l-0.59-0.72L159.43,188.21z M159.49,188.23l-0.6-0.73h0L159.49,188.23z
		 M159.39,187.22l0.01-0.01L159.39,187.22z M159.59,187.65c-0.01-0.01-0.01-0.02-0.01-0.03
		C159.58,187.63,159.59,187.64,159.59,187.65z M159.63,187.66l0.17,0.04l-0.36-0.42c0,0,0,0,0,0l0.36,0.42L159.63,187.66
		L159.63,187.66z M160.24,188.4c-0.03-0.02-0.07-0.05-0.1-0.08C160.18,188.35,160.21,188.38,160.24,188.4
		C160.25,188.4,160.24,188.4,160.24,188.4 M160.47,187.9l-0.56-0.14L160.47,187.9c0,0,0.01,0.01,0.01,0.01
		C160.47,187.91,160.47,187.9,160.47,187.9 M160.49,187.88l0.14,0.03L160.49,187.88z M160.51,187.91l0.18,0.04L160.51,187.91
		 M161,188.37c-0.02-0.01-0.05-0.03-0.07-0.04C160.96,188.35,160.99,188.36,161,188.37C161.01,188.37,161.01,188.37,161,188.37
		 M161.05,188.36l-0.36-0.4L161.05,188.36L161.05,188.36 M161.08,188.36l-0.35-0.39l0,0L161.08,188.36z M161.46,188.2
		c0,0.01,0,0.01,0,0.02c0,0-0.01,0-0.01,0c0,0,0,0,0.01,0C161.46,188.22,161.46,188.21,161.46,188.2 M161.36,188.1l-0.6-0.15
		L161.36,188.1L161.36,188.1z M160.66,187.92L160.66,187.92l-0.4-0.44l0,0.01c0,0,0-0.01,0-0.01L160.66,187.92z M159.91,187.32
		c0.02,0.01,0.03,0.01,0.05,0.02C159.94,187.33,159.92,187.33,159.91,187.32L159.91,187.32z M159.88,187.31L159.88,187.31
		C159.87,187.31,159.87,187.31,159.88,187.31C159.87,187.31,159.87,187.31,159.88,187.31 M159.85,187.71l0.6,0.15
		c-0.01-0.01-0.01-0.02-0.02-0.03c0.01,0.01,0.01,0.02,0.02,0.03L159.85,187.71l-0.31-0.37L159.85,187.71z M159.08,187.14
		L159.08,187.14c0.01,0,0.01,0,0.02,0C159.09,187.15,159.08,187.15,159.08,187.14 M158.72,187.43L158.72,187.43l0.1,0.03
		L158.72,187.43z M158.68,187.42c0,0,0-0.01-0.01-0.01C158.68,187.41,158.68,187.42,158.68,187.42l-0.08-0.02L158.68,187.42z
		 M157.14,185.59C157.14,185.59,157.14,185.58,157.14,185.59C157.14,185.59,157.14,185.59,157.14,185.59L157.14,185.59z
		 M157.55,185.61c0,0,0.01-0.01,0.01-0.01C157.56,185.6,157.56,185.6,157.55,185.61C157.56,185.6,157.56,185.6,157.55,185.61
		C157.56,185.6,157.55,185.6,157.55,185.61 M157.78,187.21c0-0.01-0.01-0.01-0.01-0.01C157.77,187.21,157.77,187.21,157.78,187.21
		c0.01,0.01,0.01,0.03,0.01,0.04C157.79,187.24,157.78,187.23,157.78,187.21 M211.39,201.16c1.6,1.08,3.2,2.16,4.8,3.23
		c0.7,0.47,2.47,1.24,2.82,2.04c0.24,0.55-0.16,1.4-0.09,2.01c0.09,0.83,0.46,1.63,1.07,2.2c0.8,0.74,1.97,1.04,3.04,0.86
		c0.82-0.14,1.34-0.68,2.12-0.39c0.91,0.35,1.95,1.88,2.66,2.57c0,0,6.09,5.52,6.1,5.52c0,0,4.08,3.53,4.08,3.58
		c-0.14,1.34-0.01,3,0.06,3.33c0.11,0.48,0.3,0.96,0.55,1.44l-1,0.45c-0.25-0.19-19.32-15.06-19.32-15.06
		c0.03-0.12,0.19-1.24-0.3-1.63c-0.5-0.41-2.69-1.55-2.93-1.69c-1.68-0.97-2.97-2.82-4.07-4.79c-0.05-0.53-0.12-1.24-0.18-1.77
		C210.8,203.08,211.35,201.65,211.39,201.16 M211.07,214.07c0.34,1,0.7,1.57,1.02,1.89c0.46,1.01,1.44,1.75,2.62,1.84
		c0.89,0.07,1.71-0.25,2.33-0.8c0.16-0.14,0.31-0.31,0.43-0.48c0.01-0.03,0.01-0.07,0.01-0.1c0-0.06,0.05-0.09,0.12-0.1
		c0.28-0.05,0.93,0.19,0.93,0.19l0.36,0.27L264.33,251c-1.03,1.84-1.55,4.03-1.26,6.4c0.45,3.68,2.89,6.84,6.23,8.27
		c-14.99-1.66-30.47-2.8-46.34-3.38c0.24-0.3,0.36-0.73,0.27-1.07c0-0.01-0.01-0.03-0.01-0.04c-0.12-0.36-0.49-0.28-0.64-0.53
		c-0.47-0.8,0.19-1.77-0.38-2.65c-0.43-0.67-1.3-1.11-2.09-1.16c-0.69-0.05-1.45,0.29-2.2,0.25c-1.17-0.06-3.11-0.47-4.08-1.15
		c0.02-0.99-0.16-2.12-0.07-2.97c0.15-1.46,0.43-2.91,0.72-4.36c0.24-1.2,0.46-2.41,0.65-3.62c0.08-0.53,0.16-1.07-0.12-1.58
		c-0.2-0.37-0.44-0.47-0.73-0.48c-0.02-1.12-0.06-2.24-0.08-3.35c-0.03-1.89-0.21-3.78-0.54-5.65l-3.9-22.12l0-0.02l-0.01-0.36
		C209.8,211.51,211.01,213.9,211.07,214.07 M210.66,261.97c-0.7-0.01-1.4-0.03-2.1-0.04c0.21-0.03,0.43-0.05,0.66-0.05
		C209.7,261.9,210.18,261.93,210.66,261.97 M199.47,170.29c-0.12,0.05-0.23,0.08-0.36,0.08
		C198.66,170.29,198.63,169.81,199.47,170.29 M171.84,191.16L171.84,191.16c0.04,0.02,0.08,0.03,0.12,0.05l0,0v0
		C171.92,191.19,171.88,191.18,171.84,191.16C171.84,191.16,171.84,191.16,171.84,191.16 M170.77,191.1c-0.95,0.19-1.94,1-2.9,2.13
		C168.83,192.1,169.83,191.29,170.77,191.1 M165.04,187.64c0,0.01,0,0.01,0,0.02c0,0.01,0,0.03-0.01,0.04c0-0.01,0-0.03,0.01-0.04
		C165.04,187.65,165.04,187.64,165.04,187.64 M165,189.08L165,189.08c0-0.01,0-0.02,0-0.03C165,189.06,165,189.07,165,189.08
		 M164.89,189.34c0.04,0,0.08,0.01,0.12,0.01h0c0-0.01,0-0.02,0-0.02c0,0.01,0,0.02,0,0.02
		C164.97,189.35,164.93,189.35,164.89,189.34L164.89,189.34L164.89,189.34z M164.11,189.47L164.11,189.47
		c-0.21,0.08-0.41,0.19-0.6,0.34C163.7,189.66,163.9,189.55,164.11,189.47 M163.42,189.9c-0.15,0.13-0.3,0.27-0.45,0.44
		C163.11,190.17,163.26,190.03,163.42,189.9 M162.79,190.6c-0.11,0.15-0.21,0.29-0.31,0.45
		C162.57,190.88,162.68,190.74,162.79,190.6 M158.41,188.78c0.04-0.02,0.07-0.03,0.11-0.04l0,0c-0.01-0.01-0.01-0.02-0.02-0.02
		c0.01,0.01,0.01,0.02,0.02,0.02C158.49,188.75,158.45,188.77,158.41,188.78C158.41,188.79,158.4,188.79,158.41,188.78
		L158.41,188.78z M158.38,188.5L158.38,188.5c-0.01-0.01-0.01-0.02-0.01-0.03C158.37,188.48,158.38,188.49,158.38,188.5
		 M157.77,189.26L157.77,189.26c-0.3,0.33-0.51,0.77-0.62,1.29C157.27,190.02,157.47,189.58,157.77,189.26 M157.1,190.91
		c-0.05,0.31-0.07,0.65-0.07,1C157.03,191.56,157.06,191.22,157.1,190.91 M138.84,263.56c-0.06-0.08-0.22-0.17-0.24-0.26
		c-0.02-0.08,0.06-0.21,0.07-0.3c0.01-0.11-0.01-0.23-0.04-0.34c-0.06-0.2-0.17-0.41-0.34-0.54c-0.25-0.19-0.43-0.45-0.74-0.57
		c-0.16-0.06-0.31-0.09-0.48-0.09c-0.21-0.01-0.35,0.07-0.55,0.09c-0.13,0.02-0.23,0-0.37,0.03c-0.09,0.02-0.17,0.06-0.27,0.06
		c-0.48,0.04-0.95,0.11-1.43,0.16c-0.16,0.02-0.31,0.02-0.45-0.08c-0.1-0.06-0.17-0.15-0.24-0.24c-0.44-0.54-0.75-1.17-1.18-1.72
		c-0.91-1.16-0.93-2.45-0.61-3.73c0.08-0.03,0.17-0.06,0.24-0.1c0.2-0.11,0.39-0.26,0.58-0.43c0.81-0.73,1.53-1.92,2.27-2.59
		c1.1-1,2.3-1.9,3.49-2.79c1-0.74,1.98-1.5,2.94-2.28c0.43-0.34,0.85-0.7,0.98-1.27c0.18-0.74-0.33-0.91-0.86-1.36
		c-0.32-0.27-0.65-0.54-0.97-0.82c0.69-0.59,1.39-1.17,2.08-1.73c1.14-0.92,2.35-1.66,3.58-2.41c0.78-0.48,1.38-1.13,1.89-1.89
		c1.43-2.15,2.03-4.64,2.96-7c0.06-0.16,0.16-0.31,0.25-0.46c0.16,0.11,0.32,0.21,0.47,0.34c0.08,0.06,0.12,0.17,0.18,0.25
		c1.01,1.49,2.55,2.97,2.57,4.84c0.01,0.52,0.18,0.78,0.39,1.22c0.19,0.39,0.23,0.88,0.63,1.12c-0.5-0.3-0.36,1.14-0.35,1.29
		c0.04,0.89,0.12,1.29,0.68,1.96c0.62,0.74,0.44,1.73,0.57,2.64c0.06,0.41,0.14,0.81,0.23,1.21c-0.02,0.01-0.05,0.01-0.07,0.02
		c-0.55,0.17-1.7,0.3-2.03,0.91c-0.03,0.05-0.05,0.11-0.07,0.18c0,0.01-0.01,0.01-0.01,0.02v0c-0.05,0.15-0.08,0.32-0.03,0.54
		c0.07,0.31,0.14,0.63,0.22,0.96c0.13,0.83,0.37,1.67,0.86,2.34c0.01,0.02,0.03,0.03,0.04,0.05c0.09,0.25,0.18,0.5,0.28,0.74
		c0.42,0.96,0.9,1.89,1.25,2.88c0.12,0.33,0.32,0.6,0.51,0.88c0.12,0.22,0.24,0.44,0.37,0.66c0.23,0.46,0.42,0.94,0.68,1.38
		c0.08,0.13,0.17,0.25,0.26,0.37c0.02,0.03,0.04,0.07,0.05,0.1c0.29,0.53,0.64,1.05,0.89,1.6c0.07,0.16,0.12,0.33,0.18,0.5
		c-0.02,0.04-0.03,0.08-0.05,0.12c-0.05,0.18-0.09,0.36-0.1,0.54c-0.01,0.18,0.03,0.34,0.08,0.48c-0.05,0.13-0.09,0.27-0.15,0.39
		c-0.14,0.26-0.35,0.47-0.4,0.76c-0.05,0.27,0.02,0.55,0.12,0.83c-7.09,0.42-14.08,0.96-20.99,1.6c0.01-0.01,0.03-0.02,0.04-0.03
		c0.17-0.19,0.27-0.43,0.23-0.68C138.96,263.78,138.91,263.66,138.84,263.56 M196.14,261.87c0.01-0.03,0.04-0.05,0.05-0.08
		c0.08-0.23-0.03-0.49,0.04-0.72c0.03-0.11,0.06-0.15,0.04-0.27c-0.01-0.04-0.05-0.09-0.06-0.14c-0.01-0.05,0.01-0.11-0.01-0.17
		c-0.06-0.22-0.29-0.36-0.43-0.52c-0.11-0.13-0.16-0.25-0.19-0.42c-0.11-0.71,0.03-1.42-0.61-1.92c-0.67-0.53-1.64-0.22-2.4-0.13
		c-0.62,0.08-1.3,0.11-1.91-0.06c-0.91-0.26-1.3-1.02-2.09-1.5c-0.7-0.43-0.55-0.77-0.02-1.3c0.99-0.98,1.73-1.92,2.53-3.1
		c1.67-2.43,3.35-4.85,5.02-7.28c0.3-0.44,0.22-1.02-0.19-1.26l-0.83-0.5l3.03-5.64c0.34-0.31,0.56-0.74,0.6-1.23l1.14-4.71
		l0.01-0.02l1.51-6.22c0.62,1.82,1.08,3.86,2.04,5.52c0.31,0.52,0.44,1.2,0.61,1.77c0.14,0.48,0.21,0.96,0.28,1.44
		c0.06,0.4,0.24,0.79,0.32,1.13c0.08,0.31,0.14,0.54,0.22,0.86c0.04,0.15,0.11,0.16,0.13,0.36c0.02,0.19-0.01,0.39-0.01,0.58
		c0.02,0.38,0.12,0.45,0.37,0.7c0.17,0.17,0.52,0.33,0.65,0.52c0.19,0.28,0.11,0.97,0.1,1.29c-0.02,0.59-0.01,1.44-0.27,1.98
		c-0.07,0.15-0.11,0.21-0.26,0.3c-0.37,0.25-0.57,0.28-0.6,0.81c-0.01,0.29,0.03,0.55,0.08,0.83c0.07,0.38,0.07,0.37-0.31,0.47
		c-0.51,0.14-0.92,0.33-0.95,0.94c-0.07,1.24,0.31,2.62,0.48,3.85c0.22,1.58,0.47,3.17,0.68,4.75c0.19,1.4,0.01,2.74,0.02,4.15
		c0.01,0.89,0.65,1.7,0.57,2.57c-1.02,0.06-0.76,1.76-0.43,2.35c-2.09-0.02-4.17-0.04-6.27-0.04
		C197.93,261.85,197.04,261.86,196.14,261.87"/>
</g>
</svg>
