<svg xmlns="http://www.w3.org/2000/svg" viewBox="0 0 1007.56 894.59"><defs><style>.cls-1{isolation:isolate;}.cls-2{fill:#f1f2f2;}.cls-3{fill:#e6e7e8;}.cls-4{fill:#d1d3d4;}.cls-5{fill:#f5945c;}.cls-6{fill:#f17934;}.cls-7{fill:#fab01b;}.cls-8{fill:#fabe44;}.cls-9{fill:#0a4f2e;}.cls-10,.cls-27{fill:none;}.cls-10{stroke:#f17934;stroke-linecap:round;stroke-linejoin:round;stroke-width:6px;stroke-dasharray:12 12;}.cls-11{fill:#e0702d;}.cls-12{fill:#e8a423;}.cls-13{fill:#73a2c4;}.cls-14{fill:#ffb600;}.cls-15,.cls-23{fill:#afd4d0;}.cls-16{fill:#fcc760;}.cls-17{fill:#fcc70e;}.cls-18{fill:#db8e27;}.cls-19{fill:#faa62e;}.cls-20{fill:#699480;}.cls-21{fill:#e6eda9;}.cls-22{fill:#377257;}.cls-23{mix-blend-mode:lighten;}.cls-24{fill:#e9a33f;}.cls-25{fill:#e5c62e;}.cls-26{fill:#fbcf74;}.cls-27{stroke:#6d6e71;stroke-miterlimit:10;}.cls-28{fill:#f6a070;}.cls-29{fill:#52836c;}.cls-30{fill:#6d6e71;}.cls-31{fill:#939598;}</style></defs><g class="cls-1"><g id="Layer_1" data-name="Layer 1"><path class="cls-2" d="M349.44,332.16c3-19.54-18.34-35.83-38.11-35.45-31,.6-52.35,26.1-78.35,39-20.65,10.22-36.1,11.05-44.46,37.1-1.31,4.08-2.18,8.47-1.11,12.61,1.32,5.07,5.34,9,9.62,12C236.26,425.18,341.66,383.27,349.44,332.16Z"/><path class="cls-2" d="M685.29,167.09c-76-34.48-170.63-27.84-228.69,38.41-31.84,36.34-52,84.56-82.6,122.29-39.18,48.31-93.12,76.74-145.76,104.12-38,19.77-72,30.45-113.36,39.26-41.49,8.85-65,39.95-79.83,82.95-22.5,65.14,12.6,146.81,67.69,185.58,41.76,29.39,108,39.36,158.55,32.66,58.85-7.81,94.52-69.92,153.26-82.33,66.28-14,133.06,32.14,200.29,51.27,89.69,25.52,185.25-81.92,210.7-162.28,12.41-39.22,10.87-81.37,7.75-122.4-5.61-73.81-16.86-149.95-56.78-212.29C754.72,210.29,722.21,183.84,685.29,167.09Z"/><ellipse class="cls-3" cx="189.47" cy="569.83" rx="189.47" ry="31.99"/><ellipse class="cls-3" cx="503.98" cy="862.6" rx="189.47" ry="31.99"/><path class="cls-4" d="M913.5,448h50.77V437.64s0-8.46-8.46-8.46-8.19,10.39-8.19,10.39-1.93-6.19-7.43-6.19-6.74,6.74-6.74,6.74a8.11,8.11,0,0,0-7.43-4c-5.51,0-7.29,5.5-7.29,5.5s-.55-1.65-3.17-1.65-4.13,5.37-4.13,8Z"/><path class="cls-4" d="M882.26,479.26h55.59v-13s0-10.7-9.26-10.7-9,13.13-9,13.13-2.11-7.83-8.13-7.83-7.39,8.53-7.39,8.53A8.86,8.86,0,0,0,896,464.3c-6,0-8,7-8,7a3.33,3.33,0,0,0-3.46-2.09c-2.86,0-4.52,6.79-4.52,10.09Z"/><path class="cls-4" d="M758.73,427.93h88.89V409.86s0-14.81-14.82-14.81-14.33,18.19-14.33,18.19-3.37-10.84-13-10.84-11.8,11.8-11.8,11.8-3.37-7-13-7-12.77,9.64-12.77,9.64-1-2.89-5.54-2.89-7.23,9.4-7.23,14Z"/><path class="cls-5" d="M690.61,438.68s18.43-3.26,22.13-8.41l-38.86.44a16,16,0,0,0-6,1.25l-7.13,3Z"/><path class="cls-5" d="M762.75,419.63l42.69,14.84,30.09-4.67-47-10.17A90.22,90.22,0,0,0,762.75,419.63Z"/><path class="cls-6" d="M664.88,399s7.45-2.07,16.55,7,22.75,25.24,37.64,25.65L853.56,425l49.22-1.79s17.76,0,22.93,7.19c0,0,11.91,4.16,12.14,7.92s-8.32,12.07-34.39,13.65-142.74,5.85-142.74,5.85-25.17-.9-47.65-3.37-45.92-1.37-43.15-11c2-7,11-6.34,11-6.34Z"/><path class="cls-7" d="M838.33,467.39a45.79,45.79,0,0,1-19.4,1.77c-7.46-.88-9-3.66-9-3.66s-5.53-.6-5.53-3.31a10.43,10.43,0,0,1,.59-4l21.12-6.71,10.32,0,1.92,0Z"/><path class="cls-5" d="M853,443.45s-39.84-1.46-58.55,3.42l-60.17,33.34s20.47,1,33.3-3.89S853,443.45,853,443.45Z"/><path class="cls-8" d="M832.43,459.43a11.79,11.79,0,0,0,1.62,6.58c1,1.4,2.93,2.3,4.51,1.34,1.34-.83,1.58-2,1.62-3.49l.1-3.13a21.24,21.24,0,0,0-1.15-8.15,2.23,2.23,0,0,0-.53-.89c-.71-.66-2.05-.36-2.9-.16a3,3,0,0,0-1.66,1.34A11.82,11.82,0,0,0,832.43,459.43Z"/><ellipse class="cls-9" cx="838.33" cy="459.43" rx="3.69" ry="7.96"/><path class="cls-9" d="M925.65,430.29c-2.51-.12-7.92-.6-11.89-2.48l.46-1.45a23.16,23.16,0,0,0,7.12.5A12,12,0,0,1,925.65,430.29Z"/><rect class="cls-9" x="736.52" y="436.83" width="8.08" height="9.08" rx="4.04" transform="translate(-20.81 36.96) rotate(-2.82)"/><rect class="cls-9" x="752.47" y="436.04" width="8.08" height="9.08" rx="4.04" transform="translate(-20.76 37.75) rotate(-2.82)"/><rect class="cls-9" x="768.43" y="435.26" width="8.08" height="9.08" rx="4.04" transform="translate(-20.7 38.53) rotate(-2.82)"/><rect class="cls-9" x="784.39" y="434.47" width="8.08" height="9.08" rx="4.04" transform="translate(-20.64 39.31) rotate(-2.82)"/><rect class="cls-9" x="800.34" y="433.69" width="8.08" height="9.08" rx="4.04" transform="translate(-20.58 40.1) rotate(-2.82)"/><rect class="cls-9" x="816.3" y="432.9" width="8.08" height="9.08" rx="4.04" transform="translate(-20.52 40.88) rotate(-2.82)"/><rect class="cls-9" x="832.26" y="432.11" width="8.08" height="9.08" rx="4.04" transform="translate(-20.47 41.67) rotate(-2.82)"/><rect class="cls-9" x="848.22" y="431.33" width="8.08" height="9.08" rx="4.04" transform="translate(-20.41 42.45) rotate(-2.82)"/><rect class="cls-9" x="864.17" y="430.54" width="8.08" height="9.08" rx="4.04" transform="translate(-20.35 43.23) rotate(-2.82)"/><path class="cls-5" d="M680.15,441.37s18.26-4.11,23.66-.79l-36,14.6a16.18,16.18,0,0,1-6.06,1.18H654Z"/><path class="cls-3" d="M799.38,485.53h88.9V467.47s0-14.82-14.82-14.82-14.33,18.19-14.33,18.19-3.38-10.84-13-10.84-11.81,11.8-11.81,11.8-3.37-7-13-7-12.76,9.63-12.76,9.63-1-2.89-5.54-2.89-7.23,9.4-7.23,14Z"/><path class="cls-10" d="M92.27,247.31c15.63-.3,29.6-9.9,40.66-20.95s20.33-23.94,32.53-33.72c13.71-11,31.17-17.7,48.74-17.09s35.06,8.93,45.42,23.14c7.39,10.13,10.91,22.49,14.08,34.62,2.63,10.06,5.11,20.67,2.49,30.73-3,11.4-11.95,20.06-20.16,28.51-12.23,12.6-23.89,26.64-28.68,43.54a62.79,62.79,0,0,0-.35,32.29"/><path class="cls-6" d="M235.09,387c-6.94-7.45-17.07-16.06-25.79-20.37l17-.81,12.52-11.48C235.71,363.56,234.69,376.81,235.09,387Z"/><path class="cls-10" d="M299.94,199.69c-7.93-23.86-27.45-43.95-51.6-51s-52.24.05-69,18.75-20.57,48.48-7.6,70c8,13.24,21.07,22.62,30.08,35.18,17.77,24.77,15,61.19-3.71,84.75"/><path class="cls-6" d="M183.08,371.09c4.53-9.11,9-21.63,10-31.32l6.75,15.6L215,363C205.22,363.42,192.46,367.13,183.08,371.09Z"/><path class="cls-10" d="M707.72,734c22.27-16.33,54.55-18,76.85-1.12,11.87,9,20.74,22.1,33.25,30.07,20.36,13,48.52,9.21,66.2-7.59s24.34-44.9,17.72-69-25.62-43.67-48.18-51.6c-12.3-4.32-25.85-22.89-26-35.93a34.64,34.64,0,0,1,19.78-31.23"/><path class="cls-6" d="M691.51,751.61c10.79-5.24,25.58-10.4,37-11.43l-18.31-8.1-8.89-17.94C700.77,725.6,696.27,740.6,691.51,751.61Z"/><rect class="cls-9" x="373.37" y="695.86" width="275.31" height="166.74"/><polygon class="cls-7" points="646.95 639.36 375.1 639.36 338.66 703.39 683.39 703.39 646.95 639.36"/><polygon class="cls-6" points="338.66 703.39 367.88 703.39 398.14 639.36 375.1 639.36 338.66 703.39"/><polygon class="cls-6" points="401.76 703.39 430.98 703.39 447.9 639.36 424.86 639.36 401.76 703.39"/><polygon class="cls-6" points="464.86 703.39 494.08 703.39 497.67 639.36 474.62 639.36 464.86 703.39"/><polygon class="cls-6" points="527.96 703.39 557.18 703.39 547.42 639.36 524.38 639.36 527.96 703.39"/><polygon class="cls-6" points="591.07 703.39 620.29 703.39 597.18 639.36 574.14 639.36 591.07 703.39"/><polygon class="cls-6" points="654.17 703.39 683.39 703.39 646.95 639.36 623.9 639.36 654.17 703.39"/><path class="cls-11" d="M368.23,702.76a14.85,14.85,0,1,1-29.7,0Z"/><path class="cls-11" d="M431.24,702.76a14.85,14.85,0,1,1-29.7,0Z"/><path class="cls-11" d="M494.24,702.76a14.85,14.85,0,1,1-29.69,0Z"/><path class="cls-11" d="M557.25,702.76a13.81,13.81,0,0,1-.25,2.67,14.84,14.84,0,0,1-29.45-2.67Z"/><path class="cls-11" d="M620.26,702.76a13.81,13.81,0,0,1-.25,2.67,14.84,14.84,0,0,1-29.45-2.67Z"/><path class="cls-11" d="M683.26,702.76a14.85,14.85,0,1,1-29.69,0Z"/><path class="cls-12" d="M401.54,702.76c0,8.22-7.45,14.87-16.65,14.87s-16.66-6.65-16.66-14.87Z"/><path class="cls-12" d="M464.55,702.76c0,8.22-7.46,14.87-16.66,14.87s-16.65-6.65-16.65-14.87Z"/><path class="cls-12" d="M527.55,702.76c0,8.22-7.46,14.87-16.65,14.87s-16.66-6.65-16.66-14.87Z"/><path class="cls-12" d="M590,702.76c0,8.21-7.44,14.87-16.65,14.87-8.17,0-15-5.26-16.38-12.2a13.07,13.07,0,0,1-.27-2.67Z"/><path class="cls-12" d="M653.05,702.76c0,8.21-7.46,14.87-16.66,14.87-8.17,0-15-5.26-16.38-12.2a13.07,13.07,0,0,1-.27-2.67Z"/><rect class="cls-13" x="497.74" y="747.43" width="122.66" height="72.25"/><path class="cls-14" d="M616.9,750.93v65.25H501.24V750.93H616.9m7-7H494.24v79.25H623.9V743.93Z"/><rect class="cls-13" x="399.75" y="747.43" width="65.39" height="111.67"/><path class="cls-14" d="M461.65,750.93V855.6h-58.4V750.93h58.4m7-7h-72.4V862.6h72.4V743.93Z"/><polygon class="cls-15" points="468.64 786.53 396.25 814.56 396.25 805.76 468.64 777.74 468.64 786.53"/><polygon class="cls-15" points="468.64 773.41 396.25 801.44 396.25 796.7 468.64 768.68 468.64 773.41"/><polygon class="cls-15" points="468.64 795.15 396.25 823.18 396.25 818.44 468.64 790.42 468.64 795.15"/><path class="cls-14" d="M461.65,750.93V855.6h-58.4V750.93h58.4m7-7h-72.4V862.6h72.4V743.93Z"/><rect class="cls-16" x="368.23" y="850.56" width="285.41" height="12.04"/><rect class="cls-13" x="497.65" y="801.18" width="126.25" height="4.18"/><polygon class="cls-14" points="623.9 801.18 497.65 801.18 497.65 805.35 623.9 805.35 623.9 801.18 623.9 801.18"/><path class="cls-9" d="M609.07,773l4.64-.1-4.85,4.64a13.83,13.83,0,0,0-4.76-3.67l-.5-.23a13.67,13.67,0,0,0-3.79.57h0a14.12,14.12,0,0,0-1.89.69h0L596,768.53l4,2.76-2.6-8.37,4.14,4.63-1-6.67,2.76,2.12,5.21-8.32,1.77,10.23,2.8-1.5L609.52,769l5.55-1.76Z"/><path class="cls-17" d="M593,799.53l-.26-.13Z"/><path class="cls-17" d="M605.51,801l-.31.13Z"/><path class="cls-17" d="M593.55,799.79l-.25-.12Z"/><path class="cls-17" d="M605.19,801.1l-.35.12Z"/><path class="cls-17" d="M601.54,801.49l-.53,0Z"/><path class="cls-17" d="M604.8,801.23l-.34.09Z"/><path class="cls-17" d="M601,801.45l-.53-.06Z"/><path class="cls-7" d="M599.06,801.2c.47.08.92.14,1.35.19l-.41-.83Z"/><path class="cls-7" d="M593.57,799.8a14,14,0,0,0,1.39.5l-.54-1.08Z"/><path class="cls-7" d="M607.1,792.06l-3.49,2.61-1.91-3.88L598,793.3l-1.9-3.84-3.58,2.44L589.38,788a24.93,24.93,0,0,0-.47,3.82l3,3.7,3.77-2.58,1.9,3.85,3.68-2.51,1.88,3.83,3.39-2.53,1.83,2.88a14,14,0,0,0,1.38-3.06l-.18.53Z"/><path class="cls-7" d="M609.22,781.9l-3.49,2.61-1.91-3.88-3.68,2.51-1.9-3.84-3.58,2.44L592.45,779a14.7,14.7,0,0,0-1.62,3.3l2.75,3.43,3.77-2.57,1.9,3.84,3.68-2.5,1.89,3.82,3.38-2.53,2.78,4.37c-.05.24-.09.47-.13.71.19-1,.37-2.1.55-3.29a12.16,12.16,0,0,0,.28-2.66q0,.45,0,.84Z"/><path class="cls-7" d="M608,787.18l-3.49,2.6-1.91-3.87-3.68,2.51-1.9-3.85L593.39,787l-2.91-3.63c0-.19.11-.37.16-.55l-.18.6c-.33,1.19-.6,2.3-.84,3.35l0,0,3.07,3.83L596.5,788l1.9,3.85,3.68-2.51,1.89,3.82,3.38-2.53,2.57,4.05q-.09.3-.18.57a37.29,37.29,0,0,0,1.11-4.42c-.05.23-.09.45-.14.67Z"/><path class="cls-17" d="M598.91,773.92c.35-.13.69-.24,1-.34a14.88,14.88,0,0,0-1.9.7,14.08,14.08,0,0,0-2,1.09l.27.33Z"/><path class="cls-7" d="M602.76,799.55l-1.91-3.87-3.68,2.51-1.9-3.85-3.58,2.44-2.75-3.43a6.86,6.86,0,0,0,3.63,5.95l2.23-1.51,1.41,2.86.85.18.63.13,2.69-1.84,1.17,2.38a10.28,10.28,0,0,0,2.89-.18l1.21-.9.24.38-.32.15a5.8,5.8,0,0,0,2.16-1.68l-1.48-2.33Z"/><path class="cls-7" d="M604.23,773.24h0a2.16,2.16,0,0,0-1.09-.22,14.66,14.66,0,0,0-3.19.56l.31-.09L602,777l3.68-2.51,1.88,3.83,1.6-1.2c.21.26.39.53.57.8l-2.52,1.88-1.91-3.87-3.68,2.51-1.9-3.85L596.12,777l-.86-1.07c.26-.2.52-.38.78-.56a12.86,12.86,0,0,0-3,2.8l1.82,2.26,3.77-2.57,1.9,3.85,3.68-2.51,1.88,3.82,3.39-2.53,2.19,3.45a12.26,12.26,0,0,0-2.66-7A13.87,13.87,0,0,0,604.23,773.24Z"/><path class="cls-6" d="M596.12,777l3.58-2.44,1.9,3.85,3.68-2.51,1.91,3.87,2.52-1.88c-.18-.27-.36-.54-.57-.8l-1.6,1.2-1.88-3.83L602,777l-1.72-3.48-.31.09h0c-.33.1-.67.21-1,.34l-2.6,1.78-.27-.33h0c-.26.18-.52.36-.78.56Z"/><path class="cls-6" d="M606.08,783l-1.88-3.82-3.68,2.51-1.9-3.85-3.77,2.57L593,778.17h0l-.28.38,0,0-.26.37v0h0l2.21,2.76,3.58-2.44,1.9,3.84,3.68-2.51,1.91,3.88,3.49-2.61,2.43,3.84q0-.39,0-.84h0c0-.15,0-.3,0-.46h0c0-.15,0-.31,0-.47v0h0l-2.19-3.45Z"/><path class="cls-6" d="M608.2,785.77l-3.38,2.53-1.89-3.82-3.68,2.5-1.9-3.84-3.77,2.57-2.75-3.43h0c-.05.16-.11.33-.16.5l0,.05c0,.18-.11.36-.16.55l2.91,3.63,3.58-2.45,1.9,3.85,3.68-2.51,1.91,3.87,3.49-2.6,2.76,4.34c0-.22.09-.44.14-.67h0c0-.24.08-.47.13-.71Z"/><path class="cls-6" d="M607.35,790.65,604,793.18l-1.89-3.82-3.68,2.51L596.5,788l-3.77,2.57-3.07-3.83,0,0h0l-.06.28c0,.07,0,.14,0,.2,0,.24-.1.46-.14.69h0l3.16,3.94,3.58-2.44,1.9,3.84,3.68-2.51,1.91,3.88,3.49-2.61,2.43,3.83.18-.53,0-.09q.09-.27.18-.57Z"/><path class="cls-6" d="M603.11,798.07l-1.88-3.83-3.68,2.51-1.9-3.85-3.77,2.58-3-3.7h0v0s0,.11,0,.16v.61c0,.17,0,.34,0,.51s0,.12,0,.18a.17.17,0,0,0,0,.07h0l2.75,3.43,3.58-2.44,1.9,3.85,3.68-2.51,1.91,3.87,3.49-2.61,1.48,2.33h0c.1-.12.2-.26.3-.4h0a4.78,4.78,0,0,0,.29-.44h0l-1.83-2.88Z"/><path class="cls-6" d="M597.69,801h0l.61.12.11,0,.59.1h0l.94-.64.41.83h0l.53.06H601l.53,0h0l-1.17-2.38Z"/><path class="cls-18" d="M605.65,800.42l-1.21.9h0l.34-.09h0l.35-.12h0l.31-.13.06,0,.32-.15Z"/><path class="cls-6" d="M592.57,799.3h0l.17.09.26.13.3.14.25.12h0l.85-.58.54,1.08h0l.3.09.28.08.67.17h0l-1.41-2.86Z"/><path class="cls-6" d="M528.36,780.71a4.82,4.82,0,0,1,1,.22,21.15,21.15,0,0,1,4.07,1.5,8.66,8.66,0,0,1,3,3.82,10,10,0,0,1,.78,2.48,10.38,10.38,0,0,1,.15,2.16c0,.44,0,.89-.09,1.33a16.21,16.21,0,0,1-.43,2.6,8.42,8.42,0,0,1-1,2.24,3.9,3.9,0,0,1-.46.61,8.08,8.08,0,0,1-2.06,1.73,5.44,5.44,0,0,1-.91.44,13.37,13.37,0,0,1-1.45.54l-1.18.3c-2.79.7-5.42,1.18-7.93-.54a11.44,11.44,0,0,1-1.47-1.15,8.52,8.52,0,0,1-1.93-2.7c-.34-.78-.68-1.57-1-2.37a11.1,11.1,0,0,1-.58-2.37,6.88,6.88,0,0,1,.14-2.67,7.53,7.53,0,0,1,.51-1.37,17.92,17.92,0,0,1,1.32-2.25,8.5,8.5,0,0,1,1.15-1.31,9.24,9.24,0,0,1,2.33-1.63,15,15,0,0,1,1.91-.77c.64-.22,1.28-.39,1.92-.55A6.37,6.37,0,0,1,528.36,780.71Zm7.24,9c0-.25,0-.62-.1-1a7.32,7.32,0,0,0-.51-1.9,4.23,4.23,0,0,0-1-1.44,8.48,8.48,0,0,0-2.32-1.59,13,13,0,0,0-2.64-.88,8.75,8.75,0,0,0-1.36-.21,7.33,7.33,0,0,0-1.55,0,2.71,2.71,0,0,0-.68.17l-.14.05c-.24.07-.49.13-.73.18a5.91,5.91,0,0,0-2.7,1.55,11.7,11.7,0,0,0-1.36,1.61,8.3,8.3,0,0,0-1.22,2.69,6.05,6.05,0,0,0-.06,2.32,9.53,9.53,0,0,0,.43,1.77,7.61,7.61,0,0,0,1.18,2.26c.27.34.56.66.85,1s.82.9,1.25,1.32a5.51,5.51,0,0,0,1.37,1,8,8,0,0,0,1.06.41,7,7,0,0,0,2.72.35l.82-.08a7,7,0,0,0,1.89-.54,8,8,0,0,0,2.64-1.88,5.44,5.44,0,0,0,1-1.5,6.34,6.34,0,0,0,.3-.83,25.16,25.16,0,0,0,.63-2.7A10.38,10.38,0,0,0,535.6,789.73Z"/><path class="cls-16" d="M535.6,789.73a10.38,10.38,0,0,1-.15,2.21,25.16,25.16,0,0,1-.63,2.7,6.34,6.34,0,0,1-.3.83,5.44,5.44,0,0,1-1,1.5,8,8,0,0,1-2.64,1.88,7,7,0,0,1-1.89.54l-.82.08a7,7,0,0,1-2.72-.35,8,8,0,0,1-1.06-.41,5.51,5.51,0,0,1-1.37-1c-.43-.42-.84-.87-1.25-1.32s-.58-.65-.85-1a7.61,7.61,0,0,1-1.18-2.26,9.53,9.53,0,0,1-.43-1.77,6.05,6.05,0,0,1,.06-2.32,8.3,8.3,0,0,1,1.22-2.69,11.7,11.7,0,0,1,1.36-1.61,5.91,5.91,0,0,1,2.7-1.55c.24,0,.49-.11.73-.18l.14-.05a2.71,2.71,0,0,1,.68-.17,7.33,7.33,0,0,1,1.55,0,8.75,8.75,0,0,1,1.36.21,13,13,0,0,1,2.64.88A8.48,8.48,0,0,1,534,785.4a4.23,4.23,0,0,1,1,1.44,7.32,7.32,0,0,1,.51,1.9C535.56,789.11,535.58,789.48,535.6,789.73Z"/><path class="cls-19" d="M528.44,799.68c-.47,0-1,0-1.42.05a4.07,4.07,0,0,1-1.69-.32,18.4,18.4,0,0,1-1.68-.8l-.66-.39a5.89,5.89,0,0,1-1.48-1.3c-.36-.43-.69-.89-1-1.33a5.27,5.27,0,0,1-.58-.94,13,13,0,0,1-.71-1.72,5.94,5.94,0,0,1-.35-2.27c0-.43.07-.87.14-1.3a5.94,5.94,0,0,1,.29-1,5.82,5.82,0,0,1,.47-1,9.85,9.85,0,0,1,.73-1.16,2.6,2.6,0,0,0,.21-.36,2.44,2.44,0,0,1,.39-.56,5.53,5.53,0,0,1,1.1-1l.88-.63a4.06,4.06,0,0,1,1-.51,9.51,9.51,0,0,1,1.65-.42l.88-.16a5.34,5.34,0,0,1,2.07,0c.49.1,1,.23,1.47.37l.76.21a9.74,9.74,0,0,1,1.34.56l.51.27a5.22,5.22,0,0,1,1.35,1.09,6.19,6.19,0,0,1,1.32,2.18,9.19,9.19,0,0,1,.56,2.21,7.35,7.35,0,0,1-.06,2,19.22,19.22,0,0,1-.62,2.57c-.11.34-.23.69-.36,1a5.53,5.53,0,0,1-1.63,2.3l-.4.31a6.24,6.24,0,0,0-.69.58,3.27,3.27,0,0,1-1.25.77,9.65,9.65,0,0,1-2,.5Zm.14-.67c.19,0,.52-.06.86-.14a10.18,10.18,0,0,0,1.31-.36,2.76,2.76,0,0,0,1-.62,6.6,6.6,0,0,1,.76-.64l.36-.28a4.78,4.78,0,0,0,1.47-2c.13-.33.24-.67.35-1a17.29,17.29,0,0,0,.58-2.36,6.8,6.8,0,0,0,.08-1.8,7.2,7.2,0,0,0-.34-1.66,6.86,6.86,0,0,0-.49-1.23,5.65,5.65,0,0,0-.89-1.3,5.28,5.28,0,0,0-1.26-1,11.26,11.26,0,0,0-1-.51,7.77,7.77,0,0,0-.92-.33c-.48-.14-1-.27-1.45-.39a5.51,5.51,0,0,0-2.36-.12c-.45.09-.91.16-1.36.24a8.33,8.33,0,0,0-1.37.42,2.62,2.62,0,0,0-.49.27l-1.21.86a3.87,3.87,0,0,0-.62.53.67.67,0,0,0-.21.33.18.18,0,0,1,0,.09l-.35.49a11.59,11.59,0,0,0-.78,1.19,6.72,6.72,0,0,0-.6,1.5,8.13,8.13,0,0,0-.18,1.3,5.24,5.24,0,0,0,.28,2.2,13.62,13.62,0,0,0,.69,1.67,5.24,5.24,0,0,0,.62,1c.17.21.33.43.5.65s.56.69.86,1a6.15,6.15,0,0,0,1.5,1,12.67,12.67,0,0,0,1.66.8,3.43,3.43,0,0,0,1.34.29C527.4,799.08,527.91,799.07,528.58,799Z"/><path class="cls-9" d="M526.7,788.38a1,1,0,0,1,1,1.09,1.18,1.18,0,0,1-1,1.18,1,1,0,0,1-1-1.07A1.18,1.18,0,0,1,526.7,788.38Z"/><path class="cls-9" d="M524.59,794.39a1.16,1.16,0,0,1,1-1.21,1,1,0,0,1,1,1,1.16,1.16,0,0,1-1,1.23A1,1,0,0,1,524.59,794.39Z"/><path class="cls-9" d="M532.39,793.19a1,1,0,0,1,1,1,1.13,1.13,0,0,1-1,1.17,1,1,0,0,1-1-1A1.1,1.1,0,0,1,532.39,793.19Z"/><path class="cls-9" d="M531.78,786.22a1,1,0,0,1,1,1,1.11,1.11,0,0,1-1,1.16,1,1,0,0,1-1-1A1.1,1.1,0,0,1,531.78,786.22Z"/><path class="cls-9" d="M530.19,788.48a1.11,1.11,0,0,1-.93,1.19,1,1,0,0,1-1-1,1.1,1.1,0,0,1,1-1.18A.94.94,0,0,1,530.19,788.48Z"/><path class="cls-9" d="M528.33,793.15a.94.94,0,0,1-1-1,1.1,1.1,0,0,1,.94-1.14,1,1,0,0,1,1,1A1.09,1.09,0,0,1,528.33,793.15Z"/><path class="cls-9" d="M527.77,785.71a1.08,1.08,0,0,1,.92-1.15.94.94,0,0,1,1,1,1.09,1.09,0,0,1-.93,1.14A.93.93,0,0,1,527.77,785.71Z"/><path class="cls-9" d="M531.57,790.3a.91.91,0,0,1,1,1,1.06,1.06,0,0,1-.92,1.11.91.91,0,0,1-1-.94A1.07,1.07,0,0,1,531.57,790.3Z"/><path class="cls-9" d="M522.19,790.27a1.07,1.07,0,0,1-.89,1.12.91.91,0,0,1-1-.92,1.08,1.08,0,0,1,.89-1.14A.92.92,0,0,1,522.19,790.27Z"/><path class="cls-9" d="M523.91,794a1,1,0,0,1-.92,1.09.92.92,0,0,1-.93-1A1.05,1.05,0,0,1,523,793,.91.91,0,0,1,523.91,794Z"/><path class="cls-9" d="M528.87,794.54a1,1,0,0,1,.88-1.12.89.89,0,0,1,1,.92,1,1,0,0,1-.89,1.12A.89.89,0,0,1,528.87,794.54Z"/><path class="cls-9" d="M523.36,787.08a.89.89,0,0,1,.95.9,1,1,0,0,1-.86,1.11.87.87,0,0,1-1-.9A1,1,0,0,1,523.36,787.08Z"/><path class="cls-9" d="M524.57,791.06a1,1,0,0,1-.85,1.09.89.89,0,0,1-1-.9,1,1,0,0,1,.89-1.11A.88.88,0,0,1,524.57,791.06Z"/><path class="cls-9" d="M533,789.38a1,1,0,0,1,.88-1,.86.86,0,0,1,.88.91,1,1,0,0,1-.88,1A.86.86,0,0,1,533,789.38Z"/><path class="cls-9" d="M526.26,786.1a1,1,0,0,1-.83,1,.83.83,0,0,1-.89-.87,1,1,0,0,1,.81-1A.84.84,0,0,1,526.26,786.1Z"/><path class="cls-9" d="M525.15,796.14a.82.82,0,0,1,.9.83,1,1,0,0,1-.84,1.06.83.83,0,0,1-.87-.87A1,1,0,0,1,525.15,796.14Z"/><path class="cls-9" d="M528.44,796a1,1,0,0,1-.81,1,.83.83,0,0,1-.87-.85,1,1,0,0,1,.81-1A.83.83,0,0,1,528.44,796Z"/><path class="cls-9" d="M547.92,797.47a.09.09,0,0,0,0-.11,9.24,9.24,0,0,1-.15-1.38c0-.66,0-1.32,0-2a13.46,13.46,0,0,1,.14-1.41,7.27,7.27,0,0,1,.41-1.57,11.22,11.22,0,0,1,1.1-2,15.37,15.37,0,0,1,1.17-1.58c.33-.38.66-.76,1-1.13s.68-.67,1-1c.49-.49,1-1,1.52-1.43s1-.85,1.46-1.27a12,12,0,0,1,1.52-1.13c.32-.2.64-.39,1-.56.6-.32,1.19-.63,1.8-.93s1.15-.36,1.64-.64.86-.79,1.42-1a2.91,2.91,0,0,1,2-.21,4.83,4.83,0,0,1,2.93,3.76,13.83,13.83,0,0,1,.05,1.93c0,.45,0,.89-.09,1.33a8.48,8.48,0,0,1-.2,1.1c-.13.54-.25,1.09-.38,1.64s-.29,1-.44,1.45-.27.82-.41,1.22-.33.8-.51,1.18a15,15,0,0,1-1.88,3,15.53,15.53,0,0,1-2.53,2.53,18.12,18.12,0,0,1-1.61,1.15,13.51,13.51,0,0,1-2.61,1.23,12.69,12.69,0,0,1-1.46.41,11.56,11.56,0,0,1-1.43.25,10.27,10.27,0,0,1-1.92,0c-.37,0-.74-.07-1.11-.08a3.33,3.33,0,0,1-.77-.11c-.43-.1-.85-.21-1.27-.33a5,5,0,0,1-1.1-.52c-.25-.16-.5-.32-.74-.49a4.69,4.69,0,0,1-.81-.73,4,4,0,0,1-.59-.94c-.1-.24-.22-.47-.3-.73a2.85,2.85,0,0,1-.11-.72v-.36a.58.58,0,0,1,0-.26.2.2,0,0,1,.2-.13.17.17,0,0,1,.18.21,1.89,1.89,0,0,0,0,.67,1.81,1.81,0,0,0,.19.75l.12.27a3.53,3.53,0,0,0,1.09,1.47,10.65,10.65,0,0,0,1.27.83,2.39,2.39,0,0,0,.22.12c0-.07,0-.08,0-.1a5.57,5.57,0,0,1-.69-.58,5.25,5.25,0,0,1-.68-.89c-.23-.35-.43-.71-.64-1.07s-.37-.72-.54-1.09a3.73,3.73,0,0,1-.2-.56,5.05,5.05,0,0,1-.29-1.44c0-.11,0-.22,0-.33a10.39,10.39,0,0,1,.11-1.68,1.76,1.76,0,0,1,.18-.59.41.41,0,0,1,.05-.09.19.19,0,0,1,.22-.07.2.2,0,0,1,.12.22.59.59,0,0,1-.06.14,1.74,1.74,0,0,0-.13.51,11.47,11.47,0,0,0-.1,1.66,4.28,4.28,0,0,0,.2,1.28,7.42,7.42,0,0,0,.53,1.38c.2.37.41.73.62,1.1C547.72,797.16,547.82,797.31,547.92,797.47Z"/><path class="cls-20" d="M555.82,798.35c-.35.17-.7.36-1.06.51a7.48,7.48,0,0,1-1.41.45,9.92,9.92,0,0,1-2.71.2,6.78,6.78,0,0,1-2.14-.52l-.45-.19c-.22-.11-.42-.25-.63-.38s-.51-.4-.77-.59a2.39,2.39,0,0,1-.7-.87,1.54,1.54,0,0,0-.17-.42,4.91,4.91,0,0,1-.29-1.66,21.53,21.53,0,0,1,0-2.27,10.1,10.1,0,0,1,.22-1.64,7.58,7.58,0,0,1,.43-1.21c.18-.43.4-.85.62-1.27a9.89,9.89,0,0,1,.75-1.19c.25-.36.52-.71.8-1s.65-.77,1-1.13a20.47,20.47,0,0,1,1.75-1.61c.56-.47,1.13-.91,1.72-1.34.38-.27.76-.56,1.14-.82s.86-.59,1.3-.85l.23-.14a.09.09,0,0,0,.11-.06l.35-.22c.06,0,.09,0,.11-.06l.47-.27a.17.17,0,0,0,.18-.09l.5-.29a.19.19,0,0,0,.19-.09L558,779a.33.33,0,0,0,.26-.13c.4-.21.8-.42,1.22-.6a.09.09,0,0,0,.11-.05l.58-.21s.06,0,.08,0a7.62,7.62,0,0,1,1.39-.34,10.53,10.53,0,0,1,1.36-.11,3.41,3.41,0,0,1,1.06.17,2.46,2.46,0,0,1,.79.44l.4.34a2.53,2.53,0,0,1,.59.82,5.21,5.21,0,0,1,.44,1.49,4.72,4.72,0,0,1,0,1.5c-.11.53-.24,1.07-.4,1.59s-.33,1-.52,1.49-.31.83-.48,1.24c-.28.69-.59,1.37-.91,2s-.68,1.33-1,2a20.32,20.32,0,0,1-1.41,2.33l-.65.93a10.24,10.24,0,0,1-.77,1,18,18,0,0,1-1.39,1.5,9.7,9.7,0,0,1-1.41,1.15l-.68.46c-.06,0-.09,0-.11.06l-.43.25A.24.24,0,0,0,555.82,798.35Z"/><path class="cls-21" d="M558.22,778.82a.33.33,0,0,1-.26.13A.3.3,0,0,1,558.22,778.82Z"/><path class="cls-21" d="M545.78,796.54a1.54,1.54,0,0,1,.17.42A.87.87,0,0,1,545.78,796.54Z"/><path class="cls-21" d="M556.7,779.66a.17.17,0,0,1-.18.09A.17.17,0,0,1,556.7,779.66Z"/><path class="cls-21" d="M557.39,779.28a.19.19,0,0,1-.19.09A.16.16,0,0,1,557.39,779.28Z"/><path class="cls-21" d="M555.59,780.3a.09.09,0,0,1-.11.06C555.5,780.3,555.53,780.28,555.59,780.3Z"/><path class="cls-21" d="M556.05,780c0,.06,0,.08-.11.06S556,780,556.05,780Z"/><path class="cls-21" d="M559.55,778.17a.09.09,0,0,1-.11.05C559.46,778.16,559.5,778.14,559.55,778.17Z"/><path class="cls-21" d="M560.21,777.93s0,.05-.08,0S560.17,777.91,560.21,777.93Z"/><path class="cls-6" d="M554.7,796.14a5,5,0,0,1-2.76.54,3.85,3.85,0,0,1-2.12-.9,3.45,3.45,0,0,1-1.05-1.65,4.23,4.23,0,0,1,.23-2.91,5.47,5.47,0,0,1,1.39-1.91,5.78,5.78,0,0,1,1.56-1,4.8,4.8,0,0,1,2.24-.4,3.77,3.77,0,0,1,2.31.91,3.47,3.47,0,0,1,1.11,1.88,4.27,4.27,0,0,1-.18,2.4,5.18,5.18,0,0,1-1.21,1.91A5.32,5.32,0,0,1,554.7,796.14Z"/><path class="cls-8" d="M583.22,789.82a9.28,9.28,0,0,0-.08,1,13.23,13.23,0,0,0,.5,1.92,6.76,6.76,0,0,1-1,4.77,10.53,10.53,0,0,1-1.9,2.35,5.64,5.64,0,0,1-3.25,1.31c-.55,0-1.18-.26-1.71-.13s-.87.47-1.38.57a2.17,2.17,0,0,1-1.26-.07,1.28,1.28,0,0,1-.78-1,2.08,2.08,0,0,1,.11-.85c.21-.78-.35-1.26-.7-1.9-.92-1.69-.21-4,.7-5.58a8.38,8.38,0,0,1,3.41-3.24,6.51,6.51,0,0,1,3.16-.68,8.39,8.39,0,0,0,1.51.23c.46-.09.72-.49,1.24-.48a1.34,1.34,0,0,1,1.29,1A1.74,1.74,0,0,1,583.22,789.82Z"/><path class="cls-22" d="M582.43,788.78a1.28,1.28,0,0,0,.21-.78,2,2,0,0,0-.64-1.21c-.33-.34-.72-.61-1-1a1.74,1.74,0,0,1-.54-1.25A1.67,1.67,0,0,0,580,786a1.73,1.73,0,0,0,.84,1.21c.2.11.42.18.61.3a1.41,1.41,0,0,1,.64,1,.94.94,0,0,0,.06.28.19.19,0,0,0,.23.12C582.52,788.82,582.35,788.91,582.43,788.78Z"/><path class="cls-6" d="M582.2,788.56a1.11,1.11,0,0,0,.64-1c0-.11,0-.25.1-.3a.13.13,0,0,1,.09,0,.37.37,0,0,1,.31.38.85.85,0,0,1-.18.5,3.19,3.19,0,0,1-.5.6.62.62,0,0,1-.21.15.21.21,0,0,1-.23-.07c-.08-.11,0-.26.1-.36"/><polygon class="cls-23" points="619.74 763.85 500.18 808.87 500.18 800.39 619.74 755.38 619.74 763.85"/><polygon class="cls-23" points="619.74 751.21 500.18 796.22 500.18 791.66 619.74 746.64 619.74 751.21"/><polygon class="cls-23" points="619.74 772.16 500.18 817.18 500.18 812.62 619.74 767.6 619.74 772.16"/><path class="cls-14" d="M616.9,750.93v65.25H501.24V750.93H616.9m7-7H494.24v79.25H623.9V743.93Z"/><path class="cls-10" d="M237.36,618.2c-3.14,15.31-15.11,27.31-28,36.19S182.15,670,170.32,680.26c-13.31,11.49-23.06,27.45-25.64,44.84s2.43,36.09,14.53,48.86c8.61,9.11,20.14,14.81,31.49,20.12,9.41,4.41,19.4,8.78,29.76,8,11.76-.86,21.9-8.11,31.7-14.65,14.61-9.75,30.53-18.67,48-20.32a62.56,62.56,0,0,1,28.43,4.08"/><path class="cls-6" d="M348.82,784c-11.78-2.27-27.4-3.42-38.71-1.47l15.6-12.56,3.94-19.63C333.13,761.24,341.37,774.57,348.82,784Z"/><path class="cls-6" d="M859.2,493.09a13.5,13.5,0,0,1,13.48,13.48v5h-4.91v-5A8.5,8.5,0,0,0,859.2,498h-1.64v-4.91Z"/><polygon class="cls-8" points="878.8 506.01 860.36 506.01 860.36 534.54 884.62 534.54 878.8 506.01"/><rect class="cls-8" x="860.36" y="506.01" width="5.63" height="28.53"/><polygon class="cls-8" points="878.8 506.01 884.62 534.54 878.99 534.54 875.87 506.01 878.8 506.01"/><rect class="cls-6" x="860.36" y="506.01" width="25.03" height="1.94"/><polygon class="cls-9" points="932.36 491.78 930.23 491.78 928.53 518.43 934.06 518.43 932.36 491.78"/><polygon class="cls-20" points="940.25 494.28 922.35 494.28 926.09 498.03 936.5 498.03 940.25 494.28"/><polygon class="cls-20" points="940.25 502.67 922.35 502.67 926.09 506.42 936.5 506.42 940.25 502.67"/><rect class="cls-9" x="889.64" y="516.01" width="58.03" height="19.85"/><rect class="cls-9" x="853.22" y="528.57" width="88.68" height="19.85"/><rect class="cls-20" x="853.22" y="542.39" width="94.45" height="19.85"/><path class="cls-20" d="M937.37,545.65a1.52,1.52,0,0,0-1.51,1.51v2a1.51,1.51,0,0,0,1.51,1.51h2a1.5,1.5,0,0,0,1.51-1.51v-2a1.51,1.51,0,0,0-1.51-1.51Zm-10.77,0a1.51,1.51,0,0,0-1.5,1.51v2a1.5,1.5,0,0,0,1.5,1.51h2a1.5,1.5,0,0,0,1.51-1.51v-2a1.51,1.51,0,0,0-1.51-1.51Zm-10.76,0a1.51,1.51,0,0,0-1.51,1.51v2a1.5,1.5,0,0,0,1.51,1.51h2a1.51,1.51,0,0,0,1.51-1.51v-2a1.52,1.52,0,0,0-1.51-1.51Zm-10.77,0a1.51,1.51,0,0,0-1.5,1.51v2a1.5,1.5,0,0,0,1.5,1.51h2a1.5,1.5,0,0,0,1.51-1.51v-2a1.51,1.51,0,0,0-1.51-1.51Zm-10.76,0a1.51,1.51,0,0,0-1.51,1.51v2a1.5,1.5,0,0,0,1.51,1.51h2a1.5,1.5,0,0,0,1.5-1.51v-2a1.51,1.51,0,0,0-1.5-1.51Zm-10.77,0a1.52,1.52,0,0,0-1.51,1.51v2a1.51,1.51,0,0,0,1.51,1.51h2a1.5,1.5,0,0,0,1.51-1.51v-2a1.51,1.51,0,0,0-1.51-1.51Zm-10.76,0a1.51,1.51,0,0,0-1.51,1.51v2a1.5,1.5,0,0,0,1.51,1.51h2a1.5,1.5,0,0,0,1.51-1.51v-2a1.51,1.51,0,0,0-1.51-1.51Zm-10.77,0a1.51,1.51,0,0,0-1.51,1.51v2a1.5,1.5,0,0,0,1.51,1.51h2a1.51,1.51,0,0,0,1.51-1.51v-2a1.52,1.52,0,0,0-1.51-1.51Z"/><path class="cls-20" d="M947.67,517.72v16h-6.52a1.51,1.51,0,0,1-1.51-1.5v-13a1.51,1.51,0,0,1,1.51-1.5Z"/><rect class="cls-9" x="791.54" y="506.04" width="54.6" height="27.79"/><path class="cls-22" d="M839.43,510.39v19.1a1.31,1.31,0,1,0,2.61,0v-19.1a1.31,1.31,0,1,0-2.61,0Zm-7.3,0v19.1a1.31,1.31,0,1,0,2.62,0v-19.1a1.31,1.31,0,1,0-2.62,0Zm-7.3,0v19.1a1.31,1.31,0,1,0,2.62,0v-19.1a1.31,1.31,0,0,0-2.62,0Zm-7.29,0v19.1a1.31,1.31,0,1,0,2.61,0v-19.1a1.31,1.31,0,1,0-2.61,0Zm-7.3,0v19.1a1.31,1.31,0,1,0,2.62,0v-19.1a1.31,1.31,0,0,0-2.62,0Zm-7.3,0v19.1a1.31,1.31,0,0,0,2.62,0v-19.1a1.31,1.31,0,1,0-2.62,0Zm-7.29,0v19.1a1.31,1.31,0,1,0,2.61,0v-19.1a1.31,1.31,0,1,0-2.61,0Z"/><rect class="cls-24" x="791.54" y="533.83" width="54.6" height="27.79"/><path class="cls-25" d="M839.43,538.18v19.1a1.31,1.31,0,1,0,2.61,0v-19.1a1.31,1.31,0,1,0-2.61,0Zm-7.3,0v19.1a1.31,1.31,0,0,0,2.62,0v-19.1a1.31,1.31,0,0,0-2.62,0Zm-7.3,0v19.1a1.31,1.31,0,0,0,2.62,0v-19.1a1.31,1.31,0,0,0-2.62,0Zm-7.29,0v19.1a1.31,1.31,0,1,0,2.61,0v-19.1a1.31,1.31,0,1,0-2.61,0Zm-7.3,0v19.1a1.31,1.31,0,0,0,2.62,0v-19.1a1.31,1.31,0,0,0-2.62,0Zm-7.3,0v19.1a1.31,1.31,0,0,0,2.62,0v-19.1a1.31,1.31,0,1,0-2.62,0Zm-7.29,0v19.1a1.31,1.31,0,1,0,2.61,0v-19.1a1.31,1.31,0,1,0-2.61,0Z"/><rect class="cls-22" x="736.94" y="533.83" width="54.6" height="27.79"/><path class="cls-9" d="M784.82,538.18v19.1a1.31,1.31,0,0,0,2.62,0v-19.1a1.31,1.31,0,0,0-2.62,0Zm-7.29,0v19.1a1.31,1.31,0,1,0,2.61,0v-19.1a1.31,1.31,0,1,0-2.61,0Zm-7.3,0v19.1a1.31,1.31,0,0,0,2.62,0v-19.1a1.31,1.31,0,0,0-2.62,0Zm-7.3,0v19.1a1.31,1.31,0,1,0,2.62,0v-19.1a1.31,1.31,0,1,0-2.62,0Zm-7.29,0v19.1a1.31,1.31,0,1,0,2.61,0v-19.1a1.31,1.31,0,1,0-2.61,0Zm-7.3,0v19.1a1.31,1.31,0,0,0,2.62,0v-19.1a1.31,1.31,0,0,0-2.62,0Zm-7.3,0v19.1a1.31,1.31,0,1,0,2.62,0v-19.1a1.31,1.31,0,1,0-2.62,0Z"/><rect class="cls-24" x="736.94" y="506.04" width="54.6" height="27.79"/><path class="cls-25" d="M784.82,510.39v19.1a1.31,1.31,0,0,0,2.62,0v-19.1a1.31,1.31,0,0,0-2.62,0Zm-7.29,0v19.1a1.31,1.31,0,1,0,2.61,0v-19.1a1.31,1.31,0,1,0-2.61,0Zm-7.3,0v19.1a1.31,1.31,0,0,0,2.62,0v-19.1a1.31,1.31,0,0,0-2.62,0Zm-7.3,0v19.1a1.31,1.31,0,1,0,2.62,0v-19.1a1.31,1.31,0,1,0-2.62,0Zm-7.29,0v19.1a1.31,1.31,0,1,0,2.61,0v-19.1a1.31,1.31,0,1,0-2.61,0Zm-7.3,0v19.1a1.31,1.31,0,0,0,2.62,0v-19.1a1.31,1.31,0,0,0-2.62,0Zm-7.3,0v19.1a1.31,1.31,0,1,0,2.62,0v-19.1a1.31,1.31,0,1,0-2.62,0Z"/><rect class="cls-9" x="682.34" y="533.83" width="54.6" height="27.79"/><path class="cls-22" d="M730.22,538.18v19.1a1.31,1.31,0,0,0,2.62,0v-19.1a1.31,1.31,0,0,0-2.62,0Zm-7.3,0v19.1a1.31,1.31,0,1,0,2.62,0v-19.1a1.31,1.31,0,1,0-2.62,0Zm-7.29,0v19.1a1.31,1.31,0,1,0,2.61,0v-19.1a1.31,1.31,0,1,0-2.61,0Zm-7.3,0v19.1a1.31,1.31,0,0,0,2.62,0v-19.1a1.31,1.31,0,0,0-2.62,0Zm-7.3,0v19.1a1.31,1.31,0,1,0,2.62,0v-19.1a1.31,1.31,0,1,0-2.62,0Zm-7.29,0v19.1a1.31,1.31,0,1,0,2.61,0v-19.1a1.31,1.31,0,1,0-2.61,0Zm-7.3,0v19.1a1.31,1.31,0,0,0,2.62,0v-19.1a1.31,1.31,0,1,0-2.62,0Z"/><path class="cls-6" d="M1007.56,547.74S776,567.33,676.47,560.3h-30l-24.3,7.53,3,29.14h376.3s-.3-8.09-3-10.55c-4.92-4.45-17.36,2.73-19.6-3.51C976.18,575.26,994.63,570.14,1007.56,547.74Z"/><path class="cls-6" d="M923.26,553.92c48.78-3.21,84.3-6.18,84.3-6.18-12.93,22.4-31.38,27.52-28.64,35.17,2.24,6.24,14.68-.94,19.6,3.51,2.71,2.46,3,10.55,3,10.55H900.23c.66-1.4,1.12-2.65,1.89-4.14,1.79-3.46,3.84-7.07,6-10.57s4.37-6.89,6.51-9.9a52.09,52.09,0,0,0,2.94-4.74c.9-1.64,1.72-3.31,2.47-5A84.73,84.73,0,0,0,923.26,553.92Z"/><path class="cls-8" d="M978.84,582.47c0,.15,0,.29.08.44a3.59,3.59,0,0,0,1.29,1.76,4.84,4.84,0,0,0,2,.8,12.53,12.53,0,0,0,2.57.12c.92,0,1.9-.14,2.91-.25a44.25,44.25,0,0,1,6-.47,10.74,10.74,0,0,1,2.66.38,5.61,5.61,0,0,1,2.16,1.17,4.93,4.93,0,0,1,.91,1.16,9.82,9.82,0,0,1,.7,1.53,19.89,19.89,0,0,1,.91,3.51,34.16,34.16,0,0,1,.49,4.35H625.23l-1-9.76Z"/><path class="cls-6" d="M694.76,597H625.23l-3-29.14h54.26V560.3c3.42.24,7.35.38,11.07.56Z"/><polygon class="cls-8" points="694.76 596.97 625.23 596.97 624.22 587.21 692.63 586.3 694.76 596.97"/><path class="cls-8" d="M907.45,583.43l71.39-1c0,.15,0,.29.08.44a3.59,3.59,0,0,0,1.29,1.76,4.84,4.84,0,0,0,2,.8,12.53,12.53,0,0,0,2.57.12c.92,0,1.9-.14,2.91-.25a44.25,44.25,0,0,1,6-.47,10.74,10.74,0,0,1,2.66.38,5.61,5.61,0,0,1,2.16,1.17,4.93,4.93,0,0,1,.91,1.16,9.82,9.82,0,0,1,.7,1.53,19.89,19.89,0,0,1,.91,3.51,34.16,34.16,0,0,1,.49,4.35H900.23c.66-1.4,1.12-2.65,1.89-4.14C903.71,589.75,905.56,586.56,907.45,583.43Z"/><path class="cls-6" d="M622.54,571l-.33-3.21L646,560.22l30.43.08c3.11.22,6.35.41,9.7.58s6.83.31,10.41.44c7.17.24,14.75.39,22.68.46s16.19.05,24.71,0,17.28-.23,26.2-.45,18-.48,27.17-.8,18.39-.68,27.61-1.08,18.41-.85,27.5-1.31,18.08-1,26.87-1.45c17.59-1,34.39-2.07,49.71-3.09s29.15-2,40.79-2.88c23.27-1.73,37.74-3,37.74-3-.69,1.19-1.4,2.31-2.11,3.4C836.78,569,679.89,564.86,679.89,564.86V571Z"/><rect class="cls-22" x="791.54" y="478.26" width="54.6" height="27.79"/><path class="cls-9" d="M839.43,482.6v19.1a1.31,1.31,0,1,0,2.61,0V482.6a1.31,1.31,0,1,0-2.61,0Zm-7.3,0v19.1a1.31,1.31,0,1,0,2.62,0V482.6a1.31,1.31,0,1,0-2.62,0Zm-7.3,0v19.1a1.31,1.31,0,0,0,2.62,0V482.6a1.31,1.31,0,0,0-2.62,0Zm-7.29,0v19.1a1.31,1.31,0,1,0,2.61,0V482.6a1.31,1.31,0,1,0-2.61,0Zm-7.3,0v19.1a1.31,1.31,0,0,0,2.62,0V482.6a1.31,1.31,0,0,0-2.62,0Zm-7.3,0v19.1a1.31,1.31,0,0,0,2.62,0V482.6a1.31,1.31,0,1,0-2.62,0Zm-7.29,0v19.1a1.31,1.31,0,1,0,2.61,0V482.6a1.31,1.31,0,1,0-2.61,0Z"/><rect class="cls-20" x="902.27" y="519.1" width="7.06" height="10.09" rx="1.35"/><rect class="cls-20" x="925" y="519.1" width="7.06" height="10.09" rx="1.35"/><path class="cls-9" d="M494.62,103.74l23.88-6.31-19.86,32.48a70.93,70.93,0,0,0-28.75-15c-.93-.25-1.87-.49-2.83-.72a68.5,68.5,0,0,0-19,8l-.08,0a77,77,0,0,0-9,6.31h0l-16.77-34,23.54,10.87L422.86,60.77,449.51,82,436.69,45.28l16.66,8.65L470.9,0l20.68,56.2,12.78-12.07L492.44,80.3l26.72-16.91Z"/><path class="cls-17" d="M441.37,275.12c-.5-.14-1-.29-1.47-.45C440.39,274.83,440.87,275,441.37,275.12Z"/><path class="cls-17" d="M507.71,267.82c-.48.37-1,.74-1.47,1.09C506.74,268.56,507.23,268.19,507.71,267.82Z"/><path class="cls-17" d="M444.48,275.9c-.48-.1-.93-.22-1.4-.34C443.55,275.68,444,275.8,444.48,275.9Z"/><path class="cls-17" d="M506.16,269c-.54.37-1.09.72-1.66,1.07C505.07,269.69,505.62,269.34,506.16,269Z"/><path class="cls-17" d="M487.76,275.72c-.91.15-1.84.29-2.78.42C485.93,276,486.85,275.87,487.76,275.72Z"/><path class="cls-17" d="M504.28,270.16c-.52.32-1.06.62-1.61.9C503.22,270.78,503.76,270.48,504.28,270.16Z"/><path class="cls-17" d="M484.66,276.18c-.92.13-1.86.24-2.81.34C482.8,276.42,483.74,276.31,484.66,276.18Z"/><path class="cls-7" d="M474.6,277.11q3.73-.23,7.17-.58l-3-4.23Z"/><path class="cls-7" d="M444.65,275.93a68.68,68.68,0,0,0,7.71,1.17l-4-5.52Z"/><path class="cls-7" d="M505.87,215l-15.11,19.19-14.22-19.72-16.21,18.88-14.14-19.6-15.78,18.39-20.77-18.55A164.39,164.39,0,0,0,411.49,236L431,253.37,447.63,234l14.14,19.59L478,234.72l14,19.48,14.66-18.63,12.73,14.18a91.75,91.75,0,0,0,3.68-19.2c-.11,1.11-.22,2.2-.35,3.26Z"/><path class="cls-7" d="M505.39,154.4l-15.11,19.19-14.22-19.71-16.21,18.87-14.14-19.59-15.78,18.38-14.53-13a94.31,94.31,0,0,0-4.67,20.82l18.09,16.15,16.63-19.37,14.13,19.6,16.21-18.88,14,19.48,14.67-18.63,19.26,21.47q.08,2.14.12,4.2c-.13-6-.41-12.44-.85-19.42a77.31,77.31,0,0,0-1.5-15.54c.32,1.71.58,3.33.78,4.82Z"/><path class="cls-7" d="M504.78,186.08l-15.11,19.19-14.23-19.72-16.2,18.88L445.1,184.84l-15.78,18.38-19.15-17.1c.06-1.12.14-2.23.23-3.32-.1,1.2-.19,2.42-.25,3.67-.36,7.17-.55,13.86-.57,20.12l.14-.17,20.19,18,16.63-19.37,14.14,19.59,16.2-18.87,14.05,19.47,14.67-18.62,17.84,19.88c-.08,1.2-.18,2.36-.29,3.5a232.47,232.47,0,0,0,.74-26.63c0,1.37.05,2.72.06,4Z"/><path class="cls-17" d="M443.14,121.64c1.66-1.17,3.29-2.22,4.87-3.16a77.17,77.17,0,0,0-9,6.3,74.88,74.88,0,0,0-9.05,8.71l1.72,1.54Z"/><path class="cls-7" d="M491.86,263.1l-14.23-19.71-16.21,18.87-14.13-19.59L431.5,261.05,413.41,244.9c4.16,15.31,12.08,24.9,25.5,29.45l9.82-11.43,10.51,14.58c1.49,0,3,0,4.57,0l3.43-.08,11.83-13.78,8.71,12.07a50.46,50.46,0,0,0,14.79-4.59l5.22-6.63,1.66,1.85c-.48.45-1,.87-1.49,1.28a33.05,33.05,0,0,0,9.28-12.25L507,243.91Z"/><path class="cls-7" d="M469.88,111.16h0a10.52,10.52,0,0,0-5.86.12,74.6,74.6,0,0,0-15.91,7.16l1.54-.9,12.78,17.72,16.21-18.88,14.05,19.48,6.93-8.79q2,1.86,3.83,3.82L492.5,144.75,478.28,125l-16.21,18.88-14.14-19.6L432.15,142.7l-5.63-5c1.11-1.47,2.25-2.86,3.41-4.19A74.73,74.73,0,0,0,417.5,153.2l11.93,10.66,16.63-19.37,14.14,19.6,16.21-18.88,14,19.48,14.66-18.63L520.33,163c-3-11.52-9.06-25.69-21.69-36.81A70.71,70.71,0,0,0,469.88,111.16Z"/><path class="cls-6" d="M432.15,142.7l15.78-18.38,14.14,19.6L478.28,125l14.22,19.71,10.93-13.87q-1.8-2-3.83-3.82l-6.93,8.79-14.05-19.48-16.21,18.88-12.78-17.72-1.54.9-.08,0c-1.58.94-3.21,2-4.87,3.16L431.65,135l-1.72-1.54h0c-1.16,1.33-2.3,2.72-3.41,4.19Z"/><path class="cls-6" d="M490.46,164.69l-14-19.48L460.2,164.09l-14.14-19.6-16.63,19.37L417.5,153.2h0s0,.07-.05.1c-.34.81-.68,1.62-1,2.46a2.6,2.6,0,0,0-.1.25q-.47,1.2-.9,2.43s0,.08-.05.13h0l14.53,13,15.78-18.38,14.14,19.59,16.21-18.87,14.22,19.71,15.11-19.19,16.93,18.87c-.2-1.49-.46-3.11-.78-4.82v0c-.16-.84-.34-1.71-.53-2.6a.13.13,0,0,1,0-.06c-.2-.87-.41-1.76-.64-2.67a.29.29,0,0,1,0-.09h0l-15.21-16.94Z"/><path class="cls-6" d="M504.51,177.74l-14.67,18.63-14-19.48-16.21,18.88-14.13-19.6-16.63,19.37-18.09-16.15h0a.07.07,0,0,1,0,.05c-.11,1-.21,2-.3,3.07a2.64,2.64,0,0,0,0,.29c-.09,1.09-.17,2.2-.23,3.32l19.15,17.1,15.78-18.38,14.14,19.59,16.2-18.88,14.23,19.72,15.11-19.19L524,207.45c0-1.32,0-2.67-.06-4h0q0-2.06-.12-4.2Z"/><path class="cls-6" d="M505.6,206.66l-14.67,18.62-14.05-19.47-16.2,18.87-14.14-19.59-16.63,19.37-20.19-18-.14.17v0c0,.56,0,1.11,0,1.66v1.23c0,1.38,0,2.75.06,4.09h0l20.77,18.55,15.78-18.39,14.14,19.6,16.21-18.88,14.22,19.72L505.87,215l16.88,18.81c.13-1.06.24-2.15.35-3.26,0-.17,0-.34,0-.51.11-1.14.21-2.3.29-3.5Z"/><path class="cls-6" d="M492,254.2l-14-19.48L461.77,253.6,447.63,234,431,253.37,411.49,236h0c0,.09,0,.17,0,.25.05.32.11.63.17.95.16.92.33,1.83.51,2.71l.15.74c.21,1,.43,1.93.67,2.87l.27,1c0,.13.06.27.1.39v0l18.09,16.15,15.79-18.38,14.13,19.59,16.21-18.87,14.23,19.71L507,243.91l10.28,11.46h0c.4-.85.77-1.74,1.13-2.66a.19.19,0,0,1,0-.07q.54-1.39,1-2.88h0l-12.73-14.18Z"/><path class="cls-6" d="M467.24,277.42h.19l3.29-.11.62,0c1.06,0,2.1-.09,3.13-.15h.13l4.12-4.81,3,4.23h.08c.95-.1,1.89-.21,2.81-.34l.32,0c.94-.13,1.87-.27,2.78-.42h0l-8.71-12.07Z"/><path class="cls-18" d="M507.79,264.49l-5.22,6.63h0l.1-.06c.55-.28,1.09-.58,1.61-.9l.22-.12c.57-.35,1.12-.7,1.66-1.07l.08-.06c.5-.35,1-.72,1.47-1.09l.25-.2c.51-.41,1-.83,1.49-1.28Z"/><path class="cls-6" d="M438.91,274.35v0c.32.11.67.2,1,.3.49.16,1,.31,1.47.45s1.14.3,1.71.44.92.24,1.4.34l.16,0h0l3.73-4.35,4,5.52h0l1.68.13,1.53.11c1.19.07,2.41.13,3.67.15h0l-10.51-14.58Z"/><rect class="cls-9" x="359.1" y="176.85" width="9.89" height="136.7"/><rect class="cls-9" x="580.7" y="176.85" width="9.89" height="136.7"/><path class="cls-9" d="M548.36,189.21c.21-.21.13-.36.11-.51a47.39,47.39,0,0,1-.62-6.18c-.09-3,0-5.9.11-8.85.1-2.1.24-4.2.53-6.28a37.08,37.08,0,0,1,1.67-7,54.1,54.1,0,0,1,4.48-9.21,65.48,65.48,0,0,1,4.74-7c1.33-1.73,2.68-3.43,4.1-5.06s2.74-3,4.12-4.52c2-2.19,4-4.36,6.14-6.41s3.94-3.81,5.94-5.68a49.94,49.94,0,0,1,6.17-5q1.92-1.32,3.92-2.51c2.41-1.43,4.84-2.82,7.3-4.13,2.12-1.13,4.64-1.63,6.65-2.89s3.46-3.54,5.73-4.71a10.84,10.84,0,0,1,8.07-.9c6,1.86,11.18,10.19,11.88,16.79a64,64,0,0,1,.22,8.65q-.07,3-.38,5.92a48,48,0,0,1-.8,4.92c-.52,2.45-1,4.9-1.56,7.35-.49,2.2-1.14,4.34-1.77,6.5q-.78,2.75-1.66,5.45c-.59,1.81-1.33,3.55-2.07,5.28a69.73,69.73,0,0,1-7.61,13.5A67.41,67.41,0,0,1,603.51,188a69.55,69.55,0,0,1-6.54,5.13,53.21,53.21,0,0,1-10.57,5.52,47.1,47.1,0,0,1-5.92,1.83,45.67,45.67,0,0,1-5.8,1.12,35.31,35.31,0,0,1-7.76.21c-1.5-.15-3-.31-4.51-.34a13.21,13.21,0,0,1-3.12-.51c-1.73-.44-3.44-.91-5.13-1.47a17.84,17.84,0,0,1-4.47-2.34c-1-.7-2-1.41-3-2.18a17.23,17.23,0,0,1-5.69-7.48,27.75,27.75,0,0,1-1.2-3.23,11.8,11.8,0,0,1-.46-3.24c0-.53,0-1.07,0-1.6a2.55,2.55,0,0,1,.22-1.19.82.82,0,0,1,.8-.58.77.77,0,0,1,.72,1,9.71,9.71,0,0,0-.12,3,9.18,9.18,0,0,0,.79,3.35c.16.4.31.81.46,1.22a15.73,15.73,0,0,0,4.44,6.57,45.07,45.07,0,0,0,5.13,3.74c.29.18.6.34.91.51.11-.3-.12-.34-.23-.43a24.6,24.6,0,0,1-2.79-2.62,25.39,25.39,0,0,1-2.76-3.95c-.91-1.56-1.74-3.17-2.58-4.78s-1.51-3.24-2.2-4.9c-.33-.8-.55-1.65-.81-2.48a27,27,0,0,1-1.18-6.45c0-.5,0-1,0-1.5a55.61,55.61,0,0,1,.45-7.52,8.67,8.67,0,0,1,.72-2.6c.07-.14.12-.29.2-.42a.76.76,0,0,1,.91-.31.9.9,0,0,1,.47,1,3.39,3.39,0,0,1-.21.61,8.3,8.3,0,0,0-.56,2.27,59.31,59.31,0,0,0-.4,7.42,23.26,23.26,0,0,0,.8,5.76,34.08,34.08,0,0,0,2.18,6.13c.81,1.66,1.66,3.3,2.51,4.93C547.55,187.8,548,188.48,548.36,189.21Z"/><path class="cls-20" d="M580.36,193.14c-1.42.76-2.82,1.59-4.27,2.27a28.59,28.59,0,0,1-5.73,2,35.87,35.87,0,0,1-11,.86,24.68,24.68,0,0,1-8.65-2.3c-.62-.29-1.24-.57-1.84-.88a17.86,17.86,0,0,1-2.54-1.7c-1.1-.81-2.08-1.77-3.14-2.63a10.14,10.14,0,0,1-2.81-3.89,8.59,8.59,0,0,0-.71-1.87,25.2,25.2,0,0,1-1.18-7.42,98.28,98.28,0,0,1,.13-10.15,46.35,46.35,0,0,1,.91-7.32,36.38,36.38,0,0,1,1.7-5.43c.77-1.92,1.63-3.81,2.53-5.66a48.08,48.08,0,0,1,3-5.34c1.05-1.61,2.11-3.19,3.25-4.71,1.3-1.73,2.66-3.41,4.06-5a86,86,0,0,1,7.09-7.19c2.27-2.09,4.59-4.1,7-6,1.55-1.23,3.07-2.49,4.64-3.67,1.74-1.3,3.46-2.62,5.27-3.78.32-.2.61-.43.92-.65.2.06.35,0,.44-.27l1.44-1c.21.07.35,0,.43-.26l1.89-1.21a.73.73,0,0,0,.74-.43l2-1.29a.71.71,0,0,0,.74-.42l2.34-1.45a1.33,1.33,0,0,0,1-.6c1.62-.94,3.25-1.88,4.93-2.68.21.08.36,0,.46-.23l2.36-.91c.14.08.25,0,.31-.14a29.93,29.93,0,0,1,5.65-1.53,36.74,36.74,0,0,1,5.52-.48,13,13,0,0,1,4.29.73,10.76,10.76,0,0,1,3.21,2c.56.47,1.08,1,1.6,1.51a11.59,11.59,0,0,1,2.4,3.7,25.51,25.51,0,0,1,1.79,6.65,23,23,0,0,1-.15,6.68c-.41,2.41-1,4.78-1.59,7.13s-1.36,4.46-2.11,6.67c-.63,1.86-1.26,3.71-1.94,5.54-1.14,3.09-2.4,6.12-3.72,9.12s-2.73,5.94-4.09,8.92a93.11,93.11,0,0,1-5.71,10.38L600.69,173c-1,1.52-2.05,2.93-3.12,4.35a87.33,87.33,0,0,1-5.67,6.71,40.72,40.72,0,0,1-5.68,5.1l-2.79,2.06c-.21-.06-.36,0-.44.27l-1.73,1.13A1,1,0,0,0,580.36,193.14Z"/><path class="cls-21" d="M590.09,105.79a1.33,1.33,0,0,1-1,.6A1.15,1.15,0,0,1,590.09,105.79Z"/><path class="cls-21" d="M539.67,185a8.59,8.59,0,0,1,.71,1.87A4,4,0,0,1,539.67,185Z"/><path class="cls-21" d="M583.93,109.55a.73.73,0,0,1-.74.43A.67.67,0,0,1,583.93,109.55Z"/><path class="cls-21" d="M586.71,107.84a.71.71,0,0,1-.74.42A.66.66,0,0,1,586.71,107.84Z"/><path class="cls-21" d="M579.43,112.41c-.09.24-.24.33-.44.27C579.06,112.42,579.2,112.33,579.43,112.41Z"/><path class="cls-21" d="M581.3,111.19c-.08.23-.22.33-.43.26C580.94,111.19,581.08,111.1,581.3,111.19Z"/><path class="cls-21" d="M595.48,102.88c-.1.23-.25.31-.46.23C595.11,102.85,595.26,102.77,595.48,102.88Z"/><path class="cls-21" d="M598.15,101.83c-.06.19-.17.22-.31.14C597.9,101.77,598,101.74,598.15,101.83Z"/><path class="cls-6" d="M575.84,183.26c-4,2.05-7.51,2.84-11.21,2.39a14.58,14.58,0,0,1-8.59-4,15.33,15.33,0,0,1-4.24-7.37,20.54,20.54,0,0,1,.93-13,24.14,24.14,0,0,1,5.63-8.54,22.87,22.87,0,0,1,6.33-4.42,18,18,0,0,1,9.08-1.78,14.62,14.62,0,0,1,9.36,4.1,15.79,15.79,0,0,1,4.48,8.38,20.66,20.66,0,0,1-.73,10.75,24.26,24.26,0,0,1-4.9,8.54A21.89,21.89,0,0,1,575.84,183.26Z"/><path class="cls-9" d="M355,298.45a.44.44,0,0,0,.11-.51,49.19,49.19,0,0,1-.62-6.18c-.08-2.95,0-5.9.11-8.85.1-2.1.24-4.2.54-6.29a37,37,0,0,1,1.67-7,52.65,52.65,0,0,1,4.48-9.21,65.13,65.13,0,0,1,4.74-7c1.32-1.72,2.68-3.42,4.1-5.05s2.74-3,4.11-4.52c2-2.19,4-4.37,6.15-6.42,2-1.9,3.94-3.8,5.93-5.67a50.29,50.29,0,0,1,6.18-5.05c1.28-.87,2.58-1.71,3.91-2.5,2.42-1.43,4.85-2.82,7.31-4.13,2.11-1.13,4.64-1.63,6.64-2.9s3.47-3.53,5.73-4.7a10.74,10.74,0,0,1,8.07-.9c6,1.85,11.19,10.19,11.88,16.78a62.6,62.6,0,0,1,.23,8.66q-.09,3-.39,5.92a45.79,45.79,0,0,1-.79,4.92c-.52,2.45-1,4.9-1.56,7.34-.49,2.2-1.15,4.35-1.77,6.51-.53,1.83-1.08,3.65-1.67,5.45s-1.32,3.55-2.07,5.28a69.21,69.21,0,0,1-7.61,13.5,67.79,67.79,0,0,1-10.25,11.3,69.55,69.55,0,0,1-6.54,5.13,54,54,0,0,1-10.57,5.52,47.61,47.61,0,0,1-5.92,1.83,48.24,48.24,0,0,1-5.8,1.12,35.34,35.34,0,0,1-7.76.21c-1.5-.15-3-.31-4.52-.34a13.38,13.38,0,0,1-3.12-.51c-1.72-.44-3.43-.91-5.13-1.48a17.75,17.75,0,0,1-4.46-2.33c-1-.7-2-1.41-3-2.19a17.8,17.8,0,0,1-3.3-3.25,18,18,0,0,1-2.39-4.22,31.94,31.94,0,0,1-1.2-3.23,11.79,11.79,0,0,1-.45-3.24c0-.53,0-1.07,0-1.6a2.8,2.8,0,0,1,.22-1.19.84.84,0,0,1,.81-.58.76.76,0,0,1,.71,1,9.69,9.69,0,0,0-.11,3,9.17,9.17,0,0,0,.78,3.35c.17.4.32.81.47,1.22a15.63,15.63,0,0,0,4.44,6.56,44.18,44.18,0,0,0,5.12,3.75c.3.18.61.34.92.51.11-.3-.12-.35-.23-.44a23,23,0,0,1-2.79-2.62,24.2,24.2,0,0,1-2.76-3.94c-.92-1.56-1.74-3.18-2.58-4.78s-1.52-3.24-2.21-4.9c-.33-.8-.55-1.65-.8-2.48a26.6,26.6,0,0,1-1.19-6.45c0-.5,0-1,0-1.5a55.52,55.52,0,0,1,.46-7.52,8.31,8.31,0,0,1,.72-2.6,2.3,2.3,0,0,1,.2-.42.74.74,0,0,1,.91-.31.92.92,0,0,1,.47,1,2.79,2.79,0,0,1-.22.61,8.29,8.29,0,0,0-.55,2.27,57.47,57.47,0,0,0-.4,7.42,23.19,23.19,0,0,0,.8,5.75,33.87,33.87,0,0,0,2.17,6.14c.81,1.66,1.67,3.3,2.52,4.93C354.2,297,354.6,297.72,355,298.45Z"/><path class="cls-20" d="M387,302.38c-1.43.76-2.83,1.59-4.28,2.27a28.47,28.47,0,0,1-5.72,2,35.63,35.63,0,0,1-11,.87,24.73,24.73,0,0,1-8.65-2.3c-.61-.29-1.23-.57-1.84-.88a19.06,19.06,0,0,1-2.54-1.7c-1.09-.81-2.07-1.77-3.13-2.64a10.15,10.15,0,0,1-2.82-3.88,8.4,8.4,0,0,0-.71-1.87,25.19,25.19,0,0,1-1.17-7.42,95.54,95.54,0,0,1,.12-10.15,46.35,46.35,0,0,1,.91-7.32,37.62,37.62,0,0,1,1.71-5.43c.76-1.93,1.62-3.81,2.52-5.66a46.6,46.6,0,0,1,3-5.34c1-1.61,2.1-3.19,3.24-4.71,1.31-1.74,2.67-3.41,4.07-5a84.39,84.39,0,0,1,7.08-7.19c2.27-2.09,4.59-4.1,7-6,1.54-1.23,3.07-2.49,4.64-3.67,1.73-1.3,3.46-2.62,5.27-3.78.31-.2.61-.43.91-.65.21.06.36,0,.44-.27l1.44-1c.21.06.36,0,.44-.27l1.89-1.21a.72.72,0,0,0,.74-.42l2-1.29a.74.74,0,0,0,.74-.42l2.33-1.46a1.28,1.28,0,0,0,1-.59c1.63-.94,3.26-1.89,4.94-2.68.2.07.35,0,.45-.23l2.37-.91c.14.08.24,0,.3-.14a29.83,29.83,0,0,1,5.66-1.53,36.63,36.63,0,0,1,5.52-.48,13.06,13.06,0,0,1,4.29.73,10.89,10.89,0,0,1,3.21,2c.55.47,1.08,1,1.59,1.5a11.55,11.55,0,0,1,2.41,3.7,25.69,25.69,0,0,1,1.79,6.66,22.7,22.7,0,0,1-.16,6.68,72.61,72.61,0,0,1-1.59,7.13c-.61,2.25-1.36,4.46-2.11,6.67-.62,1.85-1.26,3.71-1.94,5.54-1.14,3.09-2.4,6.12-3.71,9.12s-2.73,5.94-4.1,8.91a93.92,93.92,0,0,1-5.7,10.39c-.87,1.39-1.74,2.79-2.62,4.18s-2,2.93-3.11,4.34a85.46,85.46,0,0,1-5.67,6.71,40.18,40.18,0,0,1-5.68,5.11c-.94.68-1.86,1.37-2.79,2.06-.21-.06-.36,0-.44.27l-1.74,1.13A.93.93,0,0,0,387,302.38Z"/><path class="cls-21" d="M396.73,215a1.28,1.28,0,0,1-1,.59A1.16,1.16,0,0,1,396.73,215Z"/><path class="cls-21" d="M346.31,294.28a8.4,8.4,0,0,1,.71,1.87A4.11,4.11,0,0,1,346.31,294.28Z"/><path class="cls-21" d="M390.58,218.79a.72.72,0,0,1-.74.42A.65.65,0,0,1,390.58,218.79Z"/><path class="cls-21" d="M393.36,217.08a.74.74,0,0,1-.74.42A.65.65,0,0,1,393.36,217.08Z"/><path class="cls-21" d="M386.07,221.65c-.08.24-.23.33-.44.27C385.7,221.65,385.85,221.57,386.07,221.65Z"/><path class="cls-21" d="M388,220.42c-.08.24-.23.33-.44.27C387.58,220.43,387.73,220.34,388,220.42Z"/><path class="cls-21" d="M402.12,212.12c-.1.23-.25.3-.45.23C401.76,212.09,401.91,212,402.12,212.12Z"/><path class="cls-21" d="M404.79,211.07c-.06.19-.16.22-.3.14C404.54,211,404.65,211,404.79,211.07Z"/><path class="cls-6" d="M382.48,292.5c-4,2.05-7.51,2.84-11.2,2.39a14.61,14.61,0,0,1-8.6-4,15.49,15.49,0,0,1-4.24-7.37,20.61,20.61,0,0,1,.94-13A24.14,24.14,0,0,1,365,262a23,23,0,0,1,6.32-4.42,18,18,0,0,1,9.08-1.78,14.57,14.57,0,0,1,9.36,4.1,15.7,15.7,0,0,1,4.49,8.38,20.67,20.67,0,0,1-.74,10.75,24,24,0,0,1-4.89,8.53A21.66,21.66,0,0,1,382.48,292.5Z"/><path class="cls-8" d="M548.15,126.24c.49,2,.68,4.15,1.47,6.52,1.41,4.17,4.88,7.4,6.83,11.31a48.53,48.53,0,0,1,4.41,13.49,50.66,50.66,0,0,1-.41,19.63C559,183.67,557,190.91,554,196.68a36.3,36.3,0,0,1-16.44,15.73c-3.15,1.48-7.49,1-10.34,3-2.53,1.8-4.21,4.94-6.95,6.75a12.22,12.22,0,0,1-7.57,2.29,7.93,7.93,0,0,1-6.51-4.36,15.42,15.42,0,0,1-1.09-5.8c-.3-5.55-4.6-7.38-8-10.79-8.79-8.92-9.35-25.74-7.07-37.75,2-10.67,6.51-20.89,13.48-28.61a40.59,40.59,0,0,1,17.24-11.49c2.64-.87,7.14-.44,9.38-1.85,2.49-1.57,3.19-4.78,6.3-5.91,3.86-1.39,7.18.31,9.62,3.66A12.58,12.58,0,0,1,548.15,126.24Z"/><path class="cls-22" d="M541.43,121.27a9.77,9.77,0,0,0-.36-5.54,12.92,12.92,0,0,0-6.23-6.45c-2.61-1.42-5.42-2.36-8-3.9a11.8,11.8,0,0,1-5.68-7,12.24,12.24,0,0,0,.17,9.87,10.74,10.74,0,0,0,7.37,6c1.39.28,2.81.25,4.19.6a8.94,8.94,0,0,1,5.81,5.14,5.88,5.88,0,0,0,.9,1.7,1.22,1.22,0,0,0,1.63.29C542,121.33,541.19,122.31,541.43,121.27Z"/><path class="cls-6" d="M539.63,120.36a8.19,8.19,0,0,0,1.74-7.88c-.23-.72-.52-1.62,0-2.16a1.26,1.26,0,0,1,.5-.29,2.39,2.39,0,0,1,2.63,1.8,6.87,6.87,0,0,1-.05,3.68,24.85,24.85,0,0,1-1.73,5,3.84,3.84,0,0,1-1,1.39,1.22,1.22,0,0,1-1.51.08c-.66-.56-.42-1.7-.11-2.56"/><path class="cls-8" d="M495.05,194.84c.5,2,.69,4.15,1.48,6.52,1.41,4.17,4.88,7.4,6.83,11.3a48.75,48.75,0,0,1,4.41,13.49,50.71,50.71,0,0,1-.41,19.64c-1.46,6.48-3.41,13.72-6.49,19.49A36.4,36.4,0,0,1,484.43,281c-3.15,1.47-7.49.95-10.35,3-2.52,1.8-4.2,4.94-6.95,6.75a12.23,12.23,0,0,1-7.56,2.29,8,8,0,0,1-6.52-4.36,15.65,15.65,0,0,1-1.08-5.8c-.3-5.55-4.6-7.38-8-10.79-8.79-8.92-9.35-25.74-7.07-37.75,2-10.67,6.51-20.89,13.48-28.61a40.5,40.5,0,0,1,17.24-11.49c2.64-.87,7.14-.44,9.38-1.85,2.49-1.57,3.18-4.79,6.3-5.91,3.86-1.39,7.18.31,9.62,3.66A12.64,12.64,0,0,1,495.05,194.84Z"/><path class="cls-22" d="M488.34,189.87a9.77,9.77,0,0,0-.36-5.54,12.88,12.88,0,0,0-6.23-6.45c-2.61-1.42-5.42-2.36-8-3.9a11.82,11.82,0,0,1-5.67-7,12.24,12.24,0,0,0,.17,9.87,10.77,10.77,0,0,0,7.37,6c1.38.28,2.81.25,4.19.6a9,9,0,0,1,5.81,5.13,5.81,5.81,0,0,0,.9,1.71,1.2,1.2,0,0,0,1.63.28C488.94,189.93,488.1,190.91,488.34,189.87Z"/><path class="cls-6" d="M486.54,189a8.21,8.21,0,0,0,1.74-7.88c-.23-.72-.52-1.62,0-2.16a1.26,1.26,0,0,1,.5-.29,2.39,2.39,0,0,1,2.63,1.79,6.87,6.87,0,0,1-.06,3.68,24.1,24.1,0,0,1-1.72,5,3.75,3.75,0,0,1-1,1.39,1.21,1.21,0,0,1-1.5.08c-.66-.56-.42-1.7-.11-2.56"/><path class="cls-8" d="M565.06,200.44c.49,2,.68,4.15,1.47,6.52,1.41,4.17,4.88,7.4,6.83,11.3a48.75,48.75,0,0,1,4.41,13.49,50.71,50.71,0,0,1-.41,19.64c-1.45,6.48-3.41,13.72-6.49,19.48a36.2,36.2,0,0,1-16.44,15.73c-3.15,1.48-7.49,1-10.34,3-2.53,1.8-4.21,4.94-7,6.75a12.28,12.28,0,0,1-7.57,2.29,7.93,7.93,0,0,1-6.51-4.36,15.49,15.49,0,0,1-1.09-5.8c-.3-5.55-4.6-7.38-8-10.79-8.79-8.93-9.35-25.74-7.07-37.75,2-10.67,6.51-20.89,13.48-28.61a40.5,40.5,0,0,1,17.24-11.49c2.64-.87,7.14-.44,9.38-1.85,2.49-1.57,3.19-4.79,6.3-5.91,3.86-1.4,7.18.31,9.62,3.65A12.62,12.62,0,0,1,565.06,200.44Z"/><path class="cls-22" d="M558.34,195.47a9.77,9.77,0,0,0-.36-5.54,12.88,12.88,0,0,0-6.23-6.45c-2.61-1.43-5.42-2.36-8-3.9a11.89,11.89,0,0,1-5.68-7,12.22,12.22,0,0,0,.17,9.86,10.76,10.76,0,0,0,7.37,6c1.39.28,2.82.25,4.19.6a8.93,8.93,0,0,1,5.81,5.13,5.94,5.94,0,0,0,.9,1.71,1.2,1.2,0,0,0,1.63.28C558.94,195.53,558.1,196.51,558.34,195.47Z"/><path class="cls-6" d="M556.54,194.56a8.19,8.19,0,0,0,1.74-7.89c-.23-.72-.52-1.62,0-2.15a1.06,1.06,0,0,1,.5-.29c1.1-.32,2.24.63,2.63,1.79a6.87,6.87,0,0,1,0,3.68,24.43,24.43,0,0,1-1.73,5,3.8,3.8,0,0,1-1,1.4,1.21,1.21,0,0,1-1.5.08c-.67-.56-.43-1.7-.12-2.56"/><path class="cls-8" d="M374.54,133.85a66.65,66.65,0,0,0,5.91,3.12c4.09,1.64,8.8,1.11,13,2.16a48.94,48.94,0,0,1,13.11,5.43,50.65,50.65,0,0,1,14.65,13.08c4,5.32,8.2,11.51,10.58,17.6A36.33,36.33,0,0,1,433.09,198c-.92,3.35-4.15,6.31-4.45,9.8-.28,3.09,1,6.41.61,9.67a12.28,12.28,0,0,1-3.18,7.24,7.94,7.94,0,0,1-7.56,2.11,15.49,15.49,0,0,1-5.11-2.95c-4.41-3.37-8.6-1.3-13.37-1-12.49.87-25.63-9.64-33.28-19.18-6.79-8.48-11.63-18.53-13-28.85a40.59,40.59,0,0,1,2.48-20.57c1.06-2.57,4.31-5.7,4.69-8.32.43-2.92-1.56-5.54-.39-8.64,1.46-3.84,4.91-5.25,9-4.92A12.46,12.46,0,0,1,374.54,133.85Z"/><path class="cls-22" d="M366.4,135.72a9.74,9.74,0,0,0-4.45-3.33,12.91,12.91,0,0,0-8.94.54c-2.78,1-5.32,2.59-8.15,3.52a11.87,11.87,0,0,1-9-.22,12.2,12.2,0,0,0,7.61,6.29,10.77,10.77,0,0,0,9.34-1.7c1.12-.87,2-2,3.18-2.79a8.92,8.92,0,0,1,7.68-1.08,6.09,6.09,0,0,0,1.89.43,1.21,1.21,0,0,0,1.27-1.06C366.84,135.31,367,136.58,366.4,135.72Z"/><path class="cls-6" d="M364.54,136.5a8.19,8.19,0,0,0-4.86-6.45c-.69-.3-1.57-.66-1.65-1.38a1,1,0,0,1,.1-.57c.47-1,1.93-1.29,3.07-.83A6.87,6.87,0,0,1,364,129.7a24.11,24.11,0,0,1,2.68,4.56,3.65,3.65,0,0,1,.43,1.65,1.2,1.2,0,0,1-.91,1.19c-.86.14-1.57-.79-2-1.58"/><rect class="cls-9" x="359.1" y="177.54" width="9.89" height="136.7"/><rect class="cls-9" x="580.7" y="177.54" width="9.89" height="136.7"/><rect class="cls-26" x="326.86" y="224.36" width="290.61" height="41.68" rx="5.07"/><rect class="cls-26" x="326.86" y="274.38" width="290.61" height="41.68" rx="5.07"/><rect class="cls-26" x="326.86" y="174.35" width="290.61" height="41.68" rx="5.07"/><ellipse class="cls-9" cx="364.04" cy="195.1" rx="4.95" ry="5.46"/><ellipse class="cls-9" cx="585.65" cy="195.1" rx="4.95" ry="5.46"/><ellipse class="cls-9" cx="364.04" cy="247.1" rx="4.95" ry="5.46"/><ellipse class="cls-9" cx="585.65" cy="247.1" rx="4.95" ry="5.46"/><ellipse class="cls-9" cx="364.04" cy="295.22" rx="4.95" ry="5.46"/><ellipse class="cls-9" cx="585.65" cy="295.22" rx="4.95" ry="5.46"/><path class="cls-6" d="M345.52,489.52l-14-5.41a16.17,16.17,0,0,1-6.22-4.3l-44.4-49.64a16.17,16.17,0,0,0-12.05-5.39H218.39V562.25H355.86V504.6A16.17,16.17,0,0,0,345.52,489.52Z"/><line class="cls-27" x1="318.36" y1="562.25" x2="255.88" y2="562.25"/><path class="cls-28" d="M287.12,531a31.24,31.24,0,0,0-31.24,31.24h62.48A31.24,31.24,0,0,0,287.12,531Z"/><rect class="cls-22" x="36.21" y="407.34" width="190.66" height="154.91"/><rect class="cls-9" x="333.36" y="549.19" width="25.57" height="15.34"/><rect class="cls-9" x="32.06" y="549.19" width="30.95" height="17.19"/><polygon class="cls-29" points="308.29 471.86 233.44 471.86 233.44 430.42 272.29 430.42 308.29 471.86"/><path class="cls-9" d="M126.21,531A31.24,31.24,0,0,0,95,562.25h62.47A31.24,31.24,0,0,0,126.21,531Z"/><circle class="cls-30" cx="126.21" cy="562.25" r="26.46"/><circle class="cls-31" cx="126.21" cy="562.25" r="16.26"/><circle class="cls-4" cx="126.21" cy="562.25" r="6.48"/><circle class="cls-30" cx="287.12" cy="562.25" r="26.46"/><circle class="cls-31" cx="287.12" cy="562.25" r="16.26"/><circle class="cls-4" cx="287.12" cy="562.25" r="6.48"/><path class="cls-29" d="M353.23,515.29h.32a0,0,0,0,1,0,0v21.92a0,0,0,0,1,0,0h-.32a11,11,0,0,1-11-11v0A11,11,0,0,1,353.23,515.29Z"/><path class="cls-5" d="M233.44,481.6h74.85v43.53H274.76A26.84,26.84,0,0,0,247.92,552H233.44Z"/><rect class="cls-9" x="240.75" y="493.52" width="11.69" height="1.77"/><circle class="cls-9" cx="60.36" cy="440.16" r="4.36"/><circle class="cls-9" cx="60.36" cy="460.88" r="4.36"/><circle class="cls-9" cx="60.36" cy="481.6" r="4.36"/><circle class="cls-9" cx="60.36" cy="502.32" r="4.36"/><circle class="cls-9" cx="60.36" cy="523.04" r="4.36"/><circle class="cls-9" cx="195.5" cy="440.16" r="4.36"/><circle class="cls-9" cx="195.5" cy="460.88" r="4.36"/><circle class="cls-9" cx="195.5" cy="481.6" r="4.36"/><circle class="cls-9" cx="195.5" cy="502.32" r="4.36"/><circle class="cls-9" cx="195.5" cy="523.04" r="4.36"/><path class="cls-7" d="M107.94,498.62a1.83,1.83,0,0,0,2,1.93h5.29v6.13H87.41v-6.13H92.7a1.84,1.84,0,0,0,1.92-1.93v-27H90c-6.51,0-6.86,5.53-7.33,10.28H76.47V465.24h49.79V481.9h-6.11c-.46-4.93-.87-10.28-7.68-10.28h-4.53Z"/><path class="cls-7" d="M158,500.55v6.13H129.87v-6.13h5.4a1.77,1.77,0,0,0,1.87-1.93v-25a2,2,0,0,0-2.16-2.22h-5.11v-6.14h48.74v16.48h-6.34c-.64-4.27-.24-10.34-5.94-10.34H150.51v10.7h5.12a3.6,3.6,0,0,0,3.55-3.84v-2.41h6.28v18.76h-6.28v-2c0-2.71-1.22-4.21-3.49-4.21h-5.18v10.28a1.83,1.83,0,0,0,2,1.93Z"/></g></g></svg>