<svg id="Layer_1" data-name="Layer 1" xmlns="http://www.w3.org/2000/svg" viewBox="0 0 1214.33 805.24"><defs><style>.cls-1{fill:#e6e7e8;}.cls-2{fill:#f1f2f2;}.cls-3{fill:#fab01b;}.cls-4{fill:#0a4f2e;}.cls-5{fill:#fcc70e;}.cls-6{fill:#f17934;}.cls-7{fill:#db8e27;}.cls-8{fill:#fcc760;}.cls-9{fill:#faa62e;}.cls-10{fill:#699480;}.cls-11{fill:#e6eda9;}.cls-12{fill:#fabe44;}.cls-13{fill:#377257;}.cls-14{fill:#fbcf74;}.cls-15{fill:#005131;}.cls-16{fill:#34735b;}.cls-17{fill:#36745c;}.cls-18{fill:#064d2f;}.cls-19{fill:#32735b;}.cls-20{fill:#f47f4d;}.cls-21{fill:#482912;}.cls-22{fill:#452311;}.cls-23{fill:none;stroke:#452412;stroke-miterlimit:10;}.cls-24{fill:#422511;}.cls-25{fill:#044f36;}.cls-26{fill:#f5945c;}.cls-27{fill:#f07729;}.cls-28{fill:#f47934;}.cls-29{fill:#462813;}.cls-30{fill:#faac31;}</style></defs><ellipse class="cls-1" cx="607.17" cy="731.55" rx="607.17" ry="73.69"/><path class="cls-2" d="M594.94,103.6c-65-49.8-153.09-85.06-236.26-86.6C270,15.35,191.43,54.76,172.7,121.47c-26.09,93,61.15,199.41,149.75,281.41,74.21,68.68,153.25,130,241.09,169.92,82.23,37.39,172,54.19,248.07,37.57,54.86-12,100.33-40.64,136.35-74.22,38.92-36.3,69.11-80.69,78-132.15,12.39-71.42-25.71-179.61-117.43-208.7-58.51-18.56-79.64,19.24-129.36,22.34C714.06,221.71,649.18,145.17,594.94,103.6Z"/><g id="tlp_body" data-name="tlp body"><path class="cls-3" d="M526.24,0H714.09C736.12,0,754,17.16,754,38.33V433.12c0,21.17-17.86,38.33-39.89,38.33H526.24c-22,0-39.88-17.16-39.88-38.33V38.33C486.36,17.16,504.22,0,526.24,0Z"/><path class="cls-4" d="M594.72,43.37H645.6a2.15,2.15,0,0,1,2.19,2.11v.16a2.15,2.15,0,0,1-2.19,2.11H594.72a2.15,2.15,0,0,1-2.19-2.11v-.16A2.15,2.15,0,0,1,594.72,43.37Z"/><path class="cls-4" d="M607,24.75h26.43a2.15,2.15,0,0,1,2.19,2.11V27a2.15,2.15,0,0,1-2.19,2.11H607A2.15,2.15,0,0,1,604.76,27v-.16A2.15,2.15,0,0,1,607,24.75Z"/><ellipse class="cls-4" cx="574.77" cy="44.86" rx="7.21" ry="6.93"/><path class="cls-4" d="M636.23,419.15a23.37,23.37,0,0,0-32.13,0,21.24,21.24,0,0,0,0,30.88,23.39,23.39,0,0,0,32.13,0A21.26,21.26,0,0,0,636.23,419.15Z"/></g><path class="cls-2" d="M724.7,399.51H515.18a14,14,0,0,1-14.28-13.73V85.67c0-7.58,6.39-13.72,14.28-13.72H724.7C732.59,72,739,78.09,739,85.67V385.78A14,14,0,0,1,724.7,399.51Z"/><path class="cls-4" d="M629.05,154.29l17.4-4.6L632,173.35a51.49,51.49,0,0,0-20.94-11l-2.06-.52a49.52,49.52,0,0,0-13.82,5.82l-.06,0a56,56,0,0,0-6.57,4.59h0l-12.22-24.8,17.15,7.93L576.78,123l19.41,15.5-9.34-26.78L599,118l12.79-39.28,15.06,40.94,9.31-8.8-8.69,26.35,19.47-12.31Z"/><path class="cls-5" d="M590.26,279.13l-1.07-.33Z"/><path class="cls-5" d="M638.59,273.8c-.35.28-.71.55-1.07.8C637.88,274.35,638.24,274.08,638.59,273.8Z"/><path class="cls-5" d="M592.53,279.69c-.35-.07-.68-.16-1-.25C591.85,279.53,592.18,279.62,592.53,279.69Z"/><path class="cls-5" d="M637.46,274.64c-.39.27-.8.53-1.21.78C636.66,275.17,637.07,274.91,637.46,274.64Z"/><path class="cls-5" d="M624.05,279.56l-2,.31Z"/><path class="cls-5" d="M636.09,275.51c-.38.23-.77.45-1.18.66C635.32,276,635.71,275.74,636.09,275.51Z"/><path class="cls-5" d="M621.8,279.9l-2,.25Z"/><path class="cls-3" d="M614.47,280.57c1.82-.1,3.56-.24,5.23-.42l-2.23-3.08Z"/><path class="cls-3" d="M592.65,279.72a50.77,50.77,0,0,0,5.62.84l-2.9-4Z"/><path class="cls-3" d="M637.25,235.33l-11,14L615.88,235l-11.8,13.75-10.3-14.28-11.5,13.39-15.13-13.5a120,120,0,0,0,1.35,16.28l14.21,12.69,12.12-14.11,10.29,14.28,11.81-13.75,10.23,14.18,10.69-13.56,9.27,10.32a67,67,0,0,0,2.68-14c-.08.81-.16,1.6-.26,2.37Z"/><path class="cls-3" d="M636.9,191.19l-11,14-10.37-14.36-11.8,13.75-10.3-14.28-11.5,13.4-10.58-9.46a68.32,68.32,0,0,0-3.4,15.17l13.17,11.77,12.11-14.11,10.3,14.27,11.81-13.75,10.23,14.19,10.69-13.57,14,15.64c0,1,.06,2.06.08,3.06-.09-4.36-.3-9.06-.61-14.15a56.76,56.76,0,0,0-1.1-11.32c.24,1.25.43,2.43.57,3.52Z"/><path class="cls-3" d="M636.45,214.26l-11,14-10.36-14.36-11.81,13.75L593,213.36l-11.5,13.39L567.54,214.3c0-.82.1-1.63.16-2.43-.07.88-.13,1.77-.18,2.68-.26,5.22-.4,10.09-.41,14.66l.1-.13,14.71,13.14L594,228.11l10.3,14.27,11.8-13.75,10.24,14.19,10.68-13.57,13,14.49q-.09,1.31-.21,2.55a170.68,170.68,0,0,0,.53-19.4c0,1,0,2,0,2.94Z"/><path class="cls-5" d="M591.56,167.32c1.2-.85,2.39-1.61,3.54-2.3a56,56,0,0,0-6.57,4.59,54.19,54.19,0,0,0-6.6,6.35l1.26,1.11Z"/><path class="cls-3" d="M627,270.37,616.68,256l-11.81,13.75-10.29-14.27-11.5,13.39L569.9,257.11c3,11.15,8.8,18.14,18.57,21.45l7.15-8.32,7.66,10.61c1.08,0,2.19,0,3.33,0l2.5-.06,8.62-10,6.34,8.8a36.72,36.72,0,0,0,10.77-3.35l3.81-4.83,1.21,1.35c-.35.32-.72.63-1.09.93a24,24,0,0,0,6.76-8.92L638,256.39Z"/><path class="cls-3" d="M611,159.69h0a7.62,7.62,0,0,0-4.26.09A54.22,54.22,0,0,0,595.16,165l1.12-.66,9.31,12.91,11.81-13.75,10.24,14.18,5-6.4c1,.91,1.91,1.83,2.79,2.78l-8,10.11L617.15,169.8l-11.81,13.75L595,169.28l-11.49,13.39-4.1-3.66c.81-1.07,1.63-2.09,2.48-3a54.58,54.58,0,0,0-9.06,14.36l8.7,7.76L593.68,184,604,198.24l11.81-13.74L626,198.68l10.68-13.57,11.08,12.34c-2.15-8.39-6.6-18.71-15.8-26.81A51.6,51.6,0,0,0,611,159.69Z"/><path class="cls-6" d="M583.55,182.67,595,169.28l10.3,14.27,11.81-13.75,10.36,14.36,8-10.11c-.88-1-1.81-1.87-2.79-2.78l-5,6.4L617.4,163.49l-11.81,13.75-9.31-12.91-1.12.66-.06,0c-1.15.69-2.34,1.45-3.54,2.3l-8.37,9.75L581.93,176h0c-.85,1-1.67,2-2.48,3Z"/><path class="cls-6" d="M626,198.68,615.79,184.5,604,198.24,593.68,184l-12.11,14.11-8.7-7.76h0l0,.08c-.25.58-.49,1.18-.73,1.79a1.34,1.34,0,0,0-.07.18q-.35.87-.66,1.77l0,.09h0l10.58,9.46,11.5-13.4,10.3,14.28,11.8-13.75,10.37,14.36,11-14,12.33,13.75c-.14-1.09-.33-2.27-.57-3.52v0c-.12-.61-.25-1.25-.39-1.89v0c-.14-.63-.3-1.28-.47-1.94,0,0,0,0,0-.07h0L636.7,185.11Z"/><path class="cls-6" d="M636.26,208.19l-10.69,13.57-10.23-14.19-11.81,13.75-10.3-14.27-12.11,14.11L568,209.39h0v0c-.08.73-.15,1.48-.22,2.23l0,.21c-.06.8-.12,1.61-.16,2.43l13.94,12.45L593,213.36l10.3,14.27,11.81-13.75,10.36,14.36,11-14,14,15.57c0-1,0-1.94,0-2.94h0c0-1,0-2-.08-3.06Z"/><path class="cls-6" d="M637.05,229.25l-10.68,13.57-10.24-14.19-11.8,13.75L594,228.11l-12.11,14.11-14.71-13.14-.1.13h0v1.21c0,.3,0,.6,0,.9,0,1,0,2,0,3h0l15.13,13.5,11.5-13.39,10.3,14.28L615.88,235l10.36,14.36,11-14L649.54,249c.1-.77.18-1.56.26-2.37,0-.13,0-.25,0-.37q.12-1.24.21-2.55Z"/><path class="cls-6" d="M627.16,263.88,616.93,249.7l-11.81,13.75-10.29-14.28-12.12,14.11L568.5,250.59h0l0,.17.12.7c.12.67.24,1.33.37,2,0,.18.07.36.11.54.15.71.32,1.41.49,2.09.06.25.13.51.19.76,0,.09.05.19.08.28h0l13.18,11.77,11.5-13.39,10.29,14.27L616.68,256,627,270.37l11-14,7.49,8.35h0c.29-.62.56-1.27.82-1.94l0-.05c.26-.68.51-1.38.74-2.1h0l-9.27-10.32Z"/><path class="cls-6" d="M609.11,280.8h.14l2.4-.08.45,0,2.27-.11h.1l3-3.5,2.23,3.08h0l2-.25.23,0,2-.31h0l-6.34-8.8Z"/><path class="cls-7" d="M638.65,271.38l-3.81,4.83h0l.07,0c.41-.21.8-.43,1.18-.66l.16-.09c.41-.25.82-.51,1.21-.78l.06,0c.36-.25.72-.52,1.07-.8l.18-.14c.37-.3.74-.61,1.09-.93Z"/><path class="cls-6" d="M588.47,278.56v0l.73.22,1.07.33,1.25.31c.34.09.67.18,1,.25l.12,0h0l2.72-3.17,2.9,4h0l1.23.1,1.11.08c.87.05,1.76.09,2.68.11h0l-7.66-10.61Z"/><rect class="cls-4" x="530.33" y="207.54" width="7.21" height="99.58"/><rect class="cls-4" x="691.76" y="207.54" width="7.21" height="99.58"/><path class="cls-6" d="M621,219.38a15.27,15.27,0,0,1,3.51.8c4.61,1.55,9.31,2.95,13.59,5.52s7.95,9,10.11,14.08a41.17,41.17,0,0,1,3.09,17.11c0,1.63-.18,3.26-.31,4.89a64.65,64.65,0,0,1-1.44,9.6,32.47,32.47,0,0,1-3.19,8.26,16.82,16.82,0,0,1-1.52,2.23,29.65,29.65,0,0,1-6.89,6.39,23,23,0,0,1-3.06,1.62,39.36,39.36,0,0,1-4.85,2c-1.3.4-2.62.74-3.93,1.11-9.3,2.6-18.09,4.37-26.48-2a39.17,39.17,0,0,1-4.9-4.25,31,31,0,0,1-6.44-10C587.12,273.9,586,271,585,268a44.27,44.27,0,0,1-2-8.73,28.25,28.25,0,0,1,.46-9.82,30.07,30.07,0,0,1,1.73-5.05,66.39,66.39,0,0,1,4.4-8.31,31.73,31.73,0,0,1,3.83-4.81,31.33,31.33,0,0,1,7.79-6,44.35,44.35,0,0,1,6.39-2.87,65.22,65.22,0,0,1,6.42-2C617,219.69,618.81,219.19,621,219.38Zm24.18,33.24c-.06-1-.13-2.3-.31-3.65a32.26,32.26,0,0,0-1.7-7,15.91,15.91,0,0,0-3.24-5.33,27.91,27.91,0,0,0-7.75-5.83,41.22,41.22,0,0,0-8.79-3.26,28.11,28.11,0,0,0-4.55-.78,22.59,22.59,0,0,0-5.19.17,8.45,8.45,0,0,0-2.27.63,2.58,2.58,0,0,1-.46.18c-.81.23-1.63.46-2.44.67a18.94,18.94,0,0,0-9,5.71,41.31,41.31,0,0,0-4.54,5.93,31.92,31.92,0,0,0-4.09,9.91,24.4,24.4,0,0,0-.2,8.56,37.81,37.81,0,0,0,1.44,6.5,28.37,28.37,0,0,0,3.94,8.32c.91,1.27,1.89,2.45,2.86,3.65,1.35,1.67,2.73,3.31,4.17,4.87a18.25,18.25,0,0,0,4.55,3.82,28.42,28.42,0,0,0,3.55,1.54,21.55,21.55,0,0,0,9.1,1.27c.91-.06,1.81-.18,2.72-.31a20.82,20.82,0,0,0,6.32-2,27.21,27.21,0,0,0,8.82-6.92,20.21,20.21,0,0,0,3.47-5.54,22.53,22.53,0,0,0,1-3,99,99,0,0,0,2.1-10A40.55,40.55,0,0,0,645.17,252.62Z"/><path class="cls-8" d="M645.17,252.62a40.55,40.55,0,0,1-.5,8.13,99,99,0,0,1-2.1,10,22.53,22.53,0,0,1-1,3,20.21,20.21,0,0,1-3.47,5.54,27.21,27.21,0,0,1-8.82,6.92,20.82,20.82,0,0,1-6.32,2c-.91.13-1.81.25-2.72.31a21.55,21.55,0,0,1-9.1-1.27,28.42,28.42,0,0,1-3.55-1.54,18.25,18.25,0,0,1-4.55-3.82c-1.44-1.56-2.82-3.2-4.17-4.87-1-1.2-2-2.38-2.86-3.65a28.37,28.37,0,0,1-3.94-8.32,37.81,37.81,0,0,1-1.44-6.5,24.4,24.4,0,0,1,.2-8.56,31.92,31.92,0,0,1,4.09-9.91,41.31,41.31,0,0,1,4.54-5.93,18.94,18.94,0,0,1,9-5.71c.81-.21,1.63-.44,2.44-.67a2.58,2.58,0,0,0,.46-.18,8.45,8.45,0,0,1,2.27-.63,22.59,22.59,0,0,1,5.19-.17,28.11,28.11,0,0,1,4.55.78,41.22,41.22,0,0,1,8.79,3.26,27.91,27.91,0,0,1,7.75,5.83,15.91,15.91,0,0,1,3.24,5.33,32.26,32.26,0,0,1,1.7,7C645,250.32,645.11,251.67,645.17,252.62Z"/><path class="cls-9" d="M621.25,289.27c-1.57.11-3.14.14-4.72.21a12.47,12.47,0,0,1-5.65-1.2,56.8,56.8,0,0,1-5.62-2.95c-.75-.46-1.47-1-2.21-1.44a19.72,19.72,0,0,1-4.92-4.78c-1.21-1.58-2.3-3.28-3.49-4.89a19.06,19.06,0,0,1-1.92-3.47,51.3,51.3,0,0,1-2.4-6.35,23.65,23.65,0,0,1-1.15-8.35c.08-1.61.24-3.2.47-4.79a23.53,23.53,0,0,1,1-3.78,25.07,25.07,0,0,1,1.56-3.73,39.45,39.45,0,0,1,2.45-4.25,10.66,10.66,0,0,0,.72-1.34,10.07,10.07,0,0,1,1.27-2.07,21.59,21.59,0,0,1,3.68-3.49c1-.78,2-1.53,3-2.31a13.27,13.27,0,0,1,3.39-1.9,31.85,31.85,0,0,1,5.51-1.55c1-.18,2-.35,2.94-.56a16.26,16.26,0,0,1,6.91.09c1.66.36,3.29.85,4.92,1.36l2.52.79a31.81,31.81,0,0,1,4.49,2c.57.3,1.13.66,1.69,1a19.08,19.08,0,0,1,4.54,4,24.39,24.39,0,0,1,4.39,8.05,36.07,36.07,0,0,1,1.87,8.15,30.48,30.48,0,0,1-.18,7.51,75.59,75.59,0,0,1-2.09,9.46c-.37,1.28-.75,2.56-1.2,3.8a20.19,20.19,0,0,1-5.45,8.49c-.44.39-.89.77-1.34,1.14a21.71,21.71,0,0,0-2.29,2.12,11.1,11.1,0,0,1-4.17,2.86,31.22,31.22,0,0,1-6.61,1.82Zm.48-2.47a26.45,26.45,0,0,0,2.86-.5A31.57,31.57,0,0,0,629,285a9.41,9.41,0,0,0,3.5-2.28,23.65,23.65,0,0,1,2.54-2.38c.41-.32.81-.67,1.22-1a17.46,17.46,0,0,0,4.89-7.51c.43-1.21.8-2.46,1.17-3.71a71.18,71.18,0,0,0,2-8.68,28.44,28.44,0,0,0,.28-6.64,30,30,0,0,0-1.15-6.11,28.7,28.7,0,0,0-1.64-4.56,20.92,20.92,0,0,0-3-4.77,18.34,18.34,0,0,0-4.22-3.73c-1.15-.7-2.33-1.31-3.52-1.89A21.62,21.62,0,0,0,628,230.5c-1.6-.51-3.21-1-4.83-1.43a16.63,16.63,0,0,0-7.9-.45c-1.51.32-3,.6-4.53.9a24.9,24.9,0,0,0-4.6,1.55,6.85,6.85,0,0,0-1.61,1c-1.35,1.07-2.71,2.12-4.06,3.18a13.65,13.65,0,0,0-2.06,2,2.34,2.34,0,0,0-.69,1.19,1,1,0,0,1-.17.35c-.38.61-.75,1.23-1.16,1.81a38.87,38.87,0,0,0-2.58,4.39,24,24,0,0,0-2,5.54,32.79,32.79,0,0,0-.62,4.76,21.07,21.07,0,0,0,.94,8.1,47.6,47.6,0,0,0,2.32,6.18,20.7,20.7,0,0,0,2,3.6c.58.77,1.12,1.6,1.68,2.39a46.39,46.39,0,0,0,2.9,3.73,20.86,20.86,0,0,0,5,3.88,41.34,41.34,0,0,0,5.54,2.92,10.48,10.48,0,0,0,4.48,1.08C617.78,287.05,619.51,287.05,621.73,286.8Z"/><path class="cls-4" d="M615.46,247.65c1.63-.23,3.48,1.39,3.49,4,0,1.69-1.1,4.13-3.35,4.36-2,.2-3.5-1.67-3.53-4C612.05,250.17,613.33,247.8,615.46,247.65Z"/><path class="cls-4" d="M608.41,269.79c-.09-2,1.22-4.27,3.32-4.45s3.37,1.69,3.43,3.73c.07,2.69-1.67,4.37-3.25,4.53C610,273.78,608.46,272.08,608.41,269.79Z"/><path class="cls-4" d="M634.45,265.34c1.57-.24,3.37,1.3,3.38,3.83,0,1.94-1.14,4.08-3.24,4.28s-3.4-1.67-3.42-3.8C631.15,267.09,632.9,265.4,634.45,265.34Z"/><path class="cls-4" d="M632.42,239.69c1.83-.17,3.39,1.55,3.41,3.82s-1.46,4.15-3.29,4.29c-1.47.11-3.28-1.08-3.34-3.74S630.89,239.84,632.42,239.69Z"/><path class="cls-4" d="M627.11,248c.09,2.26-1.32,4.14-3.11,4.37-1.56.19-3.26-1.14-3.38-3.57-.1-2.23,1.34-4.2,3.19-4.36C625.43,244.31,627,245.72,627.11,248Z"/><path class="cls-4" d="M620.88,265.21c-1.74.26-3.31-1.37-3.35-3.65,0-2.05,1.26-4,3.12-4.19S623.92,259,624,261,622.58,265.09,620.88,265.21Z"/><path class="cls-4" d="M619,237.79c0-2.16,1.31-4.06,3.09-4.22,2-.17,3.28,1.7,3.3,3.65s-1.07,4-3.12,4.17C620.5,241.58,619.05,239.93,619,237.79Z"/><path class="cls-4" d="M631.73,254.72c1.46-.18,3.16,1.06,3.22,3.53,0,2.18-1.35,3.95-3.07,4.11-1.46.13-3.09-1.08-3.19-3.5C628.61,256.77,630,254.87,631.73,254.72Z"/><path class="cls-4" d="M600.39,254.62c.07,2-1.25,3.93-3,4.1-2,.2-3.16-1.82-3.19-3.37-.05-2.15,1.27-4.07,3-4.21S600.32,252.55,600.39,254.62Z"/><path class="cls-4" d="M606.13,268.35c0,2.25-1.5,3.94-3.07,4-1.87.09-3.09-1.66-3.1-3.6,0-1.78,1.14-3.79,3-4C604.72,264.65,606.12,266.27,606.13,268.35Z"/><path class="cls-4" d="M622.69,270.33c-.12-2,1.17-3.94,2.95-4.11,2-.18,3.14,1.63,3.18,3.39,0,2.25-1.31,3.92-3,4.12S622.75,272.38,622.69,270.33Z"/><path class="cls-4" d="M604.3,242.86c1.66-.19,3.11,1.31,3.18,3.3s-1.09,3.89-2.89,4.11-3.09-1.12-3.21-3.34S602.71,243,604.3,242.86Z"/><path class="cls-4" d="M608.34,257.53c.1,2-1.28,3.8-2.83,4s-3.16-1.2-3.24-3.3c-.1-2.43,1.49-4,3-4.11C607.12,254,608.33,255.76,608.34,257.53Z"/><path class="cls-4" d="M636.57,251.32c0-1.52,1-3.62,2.92-3.77s2.93,1.72,2.94,3.37-1.07,3.65-2.92,3.77S636.55,253,636.57,251.32Z"/><path class="cls-4" d="M614,239.25c0,1.86-1,3.65-2.76,3.85s-2.94-1.39-3-3.2c0-2,1.17-3.64,2.71-3.81C612.78,235.89,613.89,237.49,614,239.25Z"/><path class="cls-4" d="M610.27,276.23c1.82-.2,2.94,1.41,3,3.08.09,2.25-1.31,3.74-2.78,3.88s-2.87-1.32-2.93-3.19A3.45,3.45,0,0,1,610.27,276.23Z"/><path class="cls-4" d="M621.27,275.75a3.51,3.51,0,0,1-2.71,3.78c-1.21.14-2.81-.84-2.91-3.11a3.48,3.48,0,0,1,2.71-3.78C619.89,272.45,621.21,273.88,621.27,275.75Z"/><path class="cls-4" d="M668.2,216.54c.15-.15.09-.26.08-.37a35.74,35.74,0,0,1-.46-4.5q-.08-3.22.09-6.45c.07-1.53.17-3.06.39-4.57a27,27,0,0,1,1.21-5.11,39.3,39.3,0,0,1,3.27-6.71,46.79,46.79,0,0,1,3.45-5.12q1.44-1.89,3-3.68c1-1.13,2-2.2,3-3.3,1.46-1.59,2.93-3.17,4.48-4.67s2.87-2.77,4.32-4.13a37.46,37.46,0,0,1,4.5-3.68c.93-.63,1.88-1.25,2.85-1.82,1.76-1,3.53-2.05,5.32-3,1.54-.82,3.38-1.19,4.84-2.11s2.53-2.57,4.18-3.42a7.83,7.83,0,0,1,5.87-.66c4.35,1.35,8.15,7.42,8.66,12.23a47.31,47.31,0,0,1,.17,6.3c0,1.44-.14,2.88-.29,4.31a33.51,33.51,0,0,1-.57,3.59c-.38,1.78-.75,3.57-1.14,5.35-.36,1.6-.84,3.16-1.29,4.74-.38,1.33-.79,2.65-1.22,4s-1,2.58-1.5,3.84a50.18,50.18,0,0,1-5.55,9.84,50.82,50.82,0,0,1-12.23,12,38.68,38.68,0,0,1-7.7,4,34.63,34.63,0,0,1-4.31,1.34,38.32,38.32,0,0,1-4.22.82,25.51,25.51,0,0,1-5.66.14c-1.09-.1-2.19-.22-3.29-.24a9.78,9.78,0,0,1-2.27-.37c-1.26-.32-2.5-.67-3.74-1.08a12.62,12.62,0,0,1-3.25-1.7c-.74-.51-1.48-1-2.18-1.59a12.57,12.57,0,0,1-2.41-2.37,13.24,13.24,0,0,1-1.74-3.07,21.48,21.48,0,0,1-.87-2.36,8.51,8.51,0,0,1-.33-2.36c0-.39,0-.78,0-1.16a1.83,1.83,0,0,1,.16-.87.59.59,0,0,1,.58-.42.55.55,0,0,1,.52.69,7.27,7.27,0,0,0-.08,2.18,6.85,6.85,0,0,0,.57,2.44c.12.29.23.59.34.89a11.47,11.47,0,0,0,3.24,4.78,31.72,31.72,0,0,0,3.73,2.72c.21.14.44.25.66.38.09-.22-.08-.25-.16-.32a16.67,16.67,0,0,1-2-1.91,18.68,18.68,0,0,1-2-2.87c-.66-1.14-1.26-2.31-1.87-3.48s-1.11-2.36-1.61-3.57c-.24-.59-.4-1.2-.59-1.81a19.6,19.6,0,0,1-.86-4.69c0-.37,0-.73,0-1.1a40,40,0,0,1,.33-5.47,6.08,6.08,0,0,1,.52-1.9c.05-.1.09-.21.15-.31a.54.54,0,0,1,.66-.22.66.66,0,0,1,.35.73,3.29,3.29,0,0,1-.16.44,6.24,6.24,0,0,0-.41,1.65,42.54,42.54,0,0,0-.29,5.41,16.88,16.88,0,0,0,.59,4.19,24.7,24.7,0,0,0,1.58,4.47c.59,1.21,1.21,2.4,1.83,3.59C667.61,215.52,667.9,216,668.2,216.54Z"/><path class="cls-10" d="M691.51,219.4c-1,.56-2.06,1.17-3.11,1.66a20.74,20.74,0,0,1-4.17,1.48,26.21,26.21,0,0,1-8,.64,18.3,18.3,0,0,1-6.3-1.68l-1.34-.64a14.22,14.22,0,0,1-1.85-1.24c-.8-.59-1.51-1.29-2.28-1.92a7.52,7.52,0,0,1-2.06-2.83,6.15,6.15,0,0,0-.51-1.36,18.1,18.1,0,0,1-.86-5.4,70.27,70.27,0,0,1,.09-7.4,33.18,33.18,0,0,1,.67-5.34,27.4,27.4,0,0,1,1.24-4c.56-1.4,1.18-2.77,1.84-4.12a34.53,34.53,0,0,1,2.21-3.89c.76-1.17,1.53-2.33,2.36-3.43q1.43-1.9,3-3.67a62.32,62.32,0,0,1,5.16-5.24q2.49-2.28,5.08-4.37c1.13-.89,2.24-1.82,3.38-2.68s2.52-1.91,3.84-2.75c.23-.14.45-.31.67-.47.15,0,.26,0,.32-.2l1-.7c.15,0,.26,0,.32-.19l1.37-.88a.53.53,0,0,0,.54-.31l1.49-.94a.53.53,0,0,0,.54-.31l1.7-1.06a.92.92,0,0,0,.75-.43c1.19-.69,2.37-1.37,3.6-2,.15.06.26,0,.33-.16l1.72-.67c.11.06.18,0,.23-.1a22,22,0,0,1,4.12-1.11,25.75,25.75,0,0,1,4-.35,9.48,9.48,0,0,1,3.13.53,8,8,0,0,1,2.34,1.45c.4.34.79.72,1.16,1.1A8.4,8.4,0,0,1,721,157.2a18.5,18.5,0,0,1,1.31,4.85,16.94,16.94,0,0,1-.12,4.87c-.3,1.75-.69,3.48-1.15,5.19s-1,3.25-1.54,4.86c-.46,1.35-.92,2.7-1.41,4-.84,2.24-1.75,4.45-2.71,6.64s-2,4.33-3,6.49a68.24,68.24,0,0,1-4.16,7.56l-1.9,3.05c-.7,1.11-1.49,2.14-2.27,3.17a62.91,62.91,0,0,1-4.13,4.88,29.55,29.55,0,0,1-4.14,3.72c-.68.5-1.36,1-2,1.51-.16-.05-.26,0-.32.19l-1.27.82A.71.71,0,0,0,691.51,219.4Z"/><path class="cls-11" d="M698.59,155.78a.92.92,0,0,1-.75.43A.84.84,0,0,1,698.59,155.78Z"/><path class="cls-11" d="M661.87,213.51a6.15,6.15,0,0,1,.51,1.36A3.06,3.06,0,0,1,661.87,213.51Z"/><path class="cls-11" d="M694.11,158.52a.53.53,0,0,1-.54.31A.48.48,0,0,1,694.11,158.52Z"/><path class="cls-11" d="M696.14,157.27a.53.53,0,0,1-.54.31A.47.47,0,0,1,696.14,157.27Z"/><path class="cls-11" d="M690.83,160.6c-.06.18-.17.24-.32.2C690.56,160.61,690.67,160.54,690.83,160.6Z"/><path class="cls-11" d="M692.2,159.71c-.06.17-.17.24-.32.19C691.93,159.71,692,159.65,692.2,159.71Z"/><path class="cls-11" d="M702.52,153.66c-.07.17-.18.22-.33.16C702.26,153.64,702.37,153.58,702.52,153.66Z"/><path class="cls-11" d="M704.47,152.89c-.05.14-.12.16-.23.1S704.36,152.83,704.47,152.89Z"/><path class="cls-6" d="M688.22,212.21a13.71,13.71,0,0,1-8.17,1.74,10.64,10.64,0,0,1-6.26-2.93,11.27,11.27,0,0,1-3.09-5.37,15.1,15.1,0,0,1,.68-9.46,17.6,17.6,0,0,1,4.11-6.22,16.69,16.69,0,0,1,4.6-3.22,13.15,13.15,0,0,1,6.62-1.3,10.7,10.7,0,0,1,6.82,3,11.51,11.51,0,0,1,3.26,6.11,15.1,15.1,0,0,1-.53,7.83,17.52,17.52,0,0,1-3.57,6.21A15.84,15.84,0,0,1,688.22,212.21Z"/><path class="cls-4" d="M527.35,296.12a.34.34,0,0,0,.08-.38,35.38,35.38,0,0,1-.45-4.49c-.06-2.15,0-4.3.08-6.45.07-1.54.18-3.06.39-4.58a27,27,0,0,1,1.22-5.11,38.8,38.8,0,0,1,3.26-6.7,47.39,47.39,0,0,1,3.45-5.13c1-1.25,2-2.49,3-3.68s2-2.2,3-3.29c1.46-1.6,2.93-3.18,4.47-4.67s2.87-2.77,4.32-4.14a37.2,37.2,0,0,1,4.5-3.67c.94-.64,1.89-1.25,2.86-1.83,1.75-1,3.52-2.05,5.32-3,1.54-.82,3.38-1.19,4.84-2.1s2.52-2.58,4.17-3.43a7.85,7.85,0,0,1,5.88-.66c4.34,1.35,8.15,7.42,8.65,12.23a45.72,45.72,0,0,1,.17,6.3c0,1.44-.14,2.88-.28,4.32a36.06,36.06,0,0,1-.58,3.58c-.38,1.78-.74,3.57-1.14,5.35-.35,1.6-.83,3.17-1.29,4.74-.38,1.33-.78,2.66-1.21,4s-1,2.58-1.51,3.85A50.87,50.87,0,0,1,575,287a49.69,49.69,0,0,1-7.47,8.23,51,51,0,0,1-4.76,3.73,39,39,0,0,1-7.7,4,34.73,34.73,0,0,1-4.32,1.33,33.8,33.8,0,0,1-4.22.82,26,26,0,0,1-5.65.15c-1.1-.11-2.19-.23-3.29-.25a9.36,9.36,0,0,1-2.28-.37c-1.25-.32-2.5-.66-3.73-1.07a13,13,0,0,1-3.26-1.71c-.74-.51-1.47-1-2.18-1.59a12.81,12.81,0,0,1-2.4-2.37,12.55,12.55,0,0,1-1.74-3.07,19.46,19.46,0,0,1-.87-2.35,8.18,8.18,0,0,1-.34-2.37c0-.38,0-.77,0-1.16a2.14,2.14,0,0,1,.16-.87.6.6,0,0,1,.59-.42.56.56,0,0,1,.52.69,7.27,7.27,0,0,0-.09,2.18,6.61,6.61,0,0,0,.58,2.44c.12.29.22.59.34.89a11.44,11.44,0,0,0,3.23,4.78,32.67,32.67,0,0,0,3.73,2.73l.67.37c.08-.22-.09-.25-.17-.32a17.31,17.31,0,0,1-2-1.9,17.66,17.66,0,0,1-2-2.88c-.67-1.13-1.27-2.31-1.88-3.48s-1.1-2.36-1.61-3.57a18.18,18.18,0,0,1-.58-1.81,19,19,0,0,1-.87-4.69c0-.37,0-.73,0-1.1a41.62,41.62,0,0,1,.33-5.47,6.55,6.55,0,0,1,.53-1.9,1.64,1.64,0,0,1,.14-.3.55.55,0,0,1,.67-.23.67.67,0,0,1,.34.73,2.32,2.32,0,0,1-.16.44,5.86,5.86,0,0,0-.4,1.65,42.54,42.54,0,0,0-.29,5.41,16.87,16.87,0,0,0,.58,4.19,24.18,24.18,0,0,0,1.58,4.47c.59,1.21,1.22,2.4,1.84,3.6C526.76,295.09,527.06,295.59,527.35,296.12Z"/><path class="cls-10" d="M550.66,299c-1,.55-2,1.16-3.11,1.66a21.81,21.81,0,0,1-4.17,1.48,26.11,26.11,0,0,1-8,.63,18.07,18.07,0,0,1-6.31-1.68l-1.34-.64a13.89,13.89,0,0,1-1.85-1.24c-.79-.59-1.51-1.29-2.28-1.92a7.31,7.31,0,0,1-2.05-2.83,6.37,6.37,0,0,0-.52-1.36,18.76,18.76,0,0,1-.86-5.4,73.12,73.12,0,0,1,.1-7.4,33.18,33.18,0,0,1,.66-5.33,26.64,26.64,0,0,1,1.24-3.95c.56-1.41,1.19-2.78,1.84-4.13a36.15,36.15,0,0,1,2.21-3.89c.76-1.17,1.54-2.33,2.37-3.43q1.42-1.89,3-3.67a62.3,62.3,0,0,1,5.16-5.24q2.47-2.28,5.08-4.37c1.12-.89,2.23-1.81,3.38-2.67s2.52-1.91,3.84-2.75c.22-.15.44-.32.66-.48a.25.25,0,0,0,.32-.19l1-.7c.16,0,.26,0,.32-.2l1.38-.88a.53.53,0,0,0,.54-.31l1.48-.94a.53.53,0,0,0,.54-.31l1.7-1.05a1,1,0,0,0,.76-.44c1.18-.68,2.37-1.37,3.59-1.95.15,0,.26,0,.34-.17l1.72-.66c.1.06.18,0,.22-.1a21.7,21.7,0,0,1,4.12-1.12,26,26,0,0,1,4-.34,9.17,9.17,0,0,1,3.12.52,7.73,7.73,0,0,1,2.34,1.46,15,15,0,0,1,1.16,1.09,8.3,8.3,0,0,1,1.76,2.7,18.7,18.7,0,0,1,1.3,4.84,16.59,16.59,0,0,1-.11,4.87q-.45,2.63-1.16,5.19c-.45,1.64-1,3.25-1.53,4.86-.46,1.35-.93,2.7-1.42,4-.83,2.25-1.75,4.45-2.71,6.64s-2,4.33-3,6.49a66.78,66.78,0,0,1-4.16,7.57c-.63,1-1.26,2-1.9,3s-1.49,2.14-2.27,3.17a62.73,62.73,0,0,1-4.13,4.89,29.62,29.62,0,0,1-4.14,3.72c-.68.49-1.35,1-2,1.5-.15-.05-.26,0-.32.19l-1.26.83A.7.7,0,0,0,550.66,299Z"/><path class="cls-11" d="M557.75,235.35a1,1,0,0,1-.76.44A.84.84,0,0,1,557.75,235.35Z"/><path class="cls-11" d="M521,293.08a6.37,6.37,0,0,1,.52,1.36A2.91,2.91,0,0,1,521,293.08Z"/><path class="cls-11" d="M553.27,238.09a.53.53,0,0,1-.54.31A.47.47,0,0,1,553.27,238.09Z"/><path class="cls-11" d="M555.29,236.84a.53.53,0,0,1-.54.31A.48.48,0,0,1,555.29,236.84Z"/><path class="cls-11" d="M550,240.18a.25.25,0,0,1-.32.19C549.71,240.18,549.82,240.11,550,240.18Z"/><path class="cls-11" d="M551.35,239.28c-.06.18-.16.24-.32.2C551.08,239.29,551.19,239.22,551.35,239.28Z"/><path class="cls-11" d="M561.68,233.23c-.08.17-.19.22-.34.17C561.41,233.21,561.52,233.15,561.68,233.23Z"/><path class="cls-11" d="M563.62,232.47c0,.14-.12.16-.22.1S563.52,232.4,563.62,232.47Z"/><path class="cls-6" d="M547.37,291.78a13.7,13.7,0,0,1-8.16,1.75,10.69,10.69,0,0,1-6.26-2.94,11.19,11.19,0,0,1-3.09-5.37,14.92,14.92,0,0,1,.68-9.45,17.53,17.53,0,0,1,4.1-6.23,16.7,16.7,0,0,1,4.61-3.21,13,13,0,0,1,6.61-1.3,10.63,10.63,0,0,1,6.82,3,11.44,11.44,0,0,1,3.26,6.11,14.88,14.88,0,0,1-.53,7.83,17.5,17.5,0,0,1-3.57,6.22A16,16,0,0,1,547.37,291.78Z"/><path class="cls-12" d="M668,170.67a48.31,48.31,0,0,0,1.08,4.75c1,3,3.55,5.4,5,8.24a35.74,35.74,0,0,1,3.2,9.83,36.62,36.62,0,0,1-.3,14.3c-1,4.72-2.48,10-4.72,14.19a26.44,26.44,0,0,1-12,11.46c-2.3,1.08-5.46.7-7.54,2.18-1.84,1.31-3.06,3.6-5.06,4.92a8.91,8.91,0,0,1-5.51,1.67,5.77,5.77,0,0,1-4.75-3.18,11.27,11.27,0,0,1-.79-4.22c-.22-4.05-3.36-5.38-5.8-7.86-6.4-6.5-6.81-18.75-5.15-27.5,1.47-7.77,4.74-15.22,9.82-20.84a29.46,29.46,0,0,1,12.56-8.37c1.92-.64,5.2-.32,6.83-1.35,1.81-1.14,2.32-3.48,4.59-4.3,2.81-1,5.23.22,7,2.66A9.18,9.18,0,0,1,668,170.67Z"/><path class="cls-13" d="M663.15,167.05a7.1,7.1,0,0,0-.26-4,9.45,9.45,0,0,0-4.54-4.7c-1.9-1-4-1.72-5.81-2.84a8.59,8.59,0,0,1-4.13-5.08,8.91,8.91,0,0,0,.12,7.19A7.87,7.87,0,0,0,653.9,162c1,.2,2.05.18,3.05.43a6.55,6.55,0,0,1,4.24,3.74,4.13,4.13,0,0,0,.65,1.25.87.87,0,0,0,1.18.2C663.59,167.1,663,167.81,663.15,167.05Z"/><path class="cls-6" d="M661.84,166.39a6,6,0,0,0,1.27-5.74c-.17-.52-.38-1.18,0-1.57a.78.78,0,0,1,.36-.21,1.74,1.74,0,0,1,1.92,1.31,5.19,5.19,0,0,1,0,2.68,17.61,17.61,0,0,1-1.26,3.64,2.73,2.73,0,0,1-.7,1,.89.89,0,0,1-1.1,0c-.48-.4-.3-1.24-.08-1.86"/><path class="cls-12" d="M553.59,171.07a46.14,46.14,0,0,0,3.6,3.28c2.57,1.91,6,2.39,8.79,3.91a35.54,35.54,0,0,1,8.25,6.23,36.86,36.86,0,0,1,7.93,11.91c1.83,4.47,3.68,9.61,4.24,14.34A26.42,26.42,0,0,1,583.13,227c-1.27,2.19-4.08,3.69-4.94,6.1-.75,2.12-.45,4.7-1.34,6.93a8.86,8.86,0,0,1-3.56,4.51,5.75,5.75,0,0,1-5.71.11,11.12,11.12,0,0,1-3.07-3c-2.49-3.19-5.82-2.49-9.25-3.13-9-1.68-16.31-11.49-20-19.62-3.23-7.22-4.81-15.19-3.86-22.71a29.53,29.53,0,0,1,5.52-14c1.22-1.62,4.08-3.23,4.83-5,.84-2-.09-4.19,1.31-6.16,1.72-2.44,4.42-2.8,7.27-1.82A9.3,9.3,0,0,1,553.59,171.07Z"/><path class="cls-13" d="M547.51,170.9a7,7,0,0,0-2.53-3.16,9.35,9.35,0,0,0-6.41-1.26c-2.15.23-4.22.85-6.39,1a8.63,8.63,0,0,1-6.29-1.8,8.92,8.92,0,0,0,4.21,5.82,7.82,7.82,0,0,0,6.9.51c1-.4,1.79-1,2.75-1.38a6.52,6.52,0,0,1,5.62.65,4.49,4.49,0,0,0,1.25.64.87.87,0,0,0,1.08-.51C547.89,170.69,547.8,171.62,547.51,170.9Z"/><path class="cls-6" d="M546.05,171.1a6,6,0,0,0-2.24-5.43c-.44-.34-1-.75-.92-1.28a.89.89,0,0,1,.18-.38,1.74,1.74,0,0,1,2.32,0,5,5,0,0,1,1.5,2.22,17.4,17.4,0,0,1,1.05,3.71,2.69,2.69,0,0,1,0,1.23.89.89,0,0,1-.87.68c-.63-.06-1-.85-1.13-1.49"/><path class="cls-12" d="M680.36,224.72a48.31,48.31,0,0,0,1.08,4.75c1,3,3.55,5.39,5,8.24a35.47,35.47,0,0,1,3.21,9.82,36.86,36.86,0,0,1-.3,14.31c-1.06,4.72-2.48,10-4.72,14.19a26.46,26.46,0,0,1-12,11.46c-2.29,1.08-5.46.7-7.53,2.18-1.84,1.31-3.06,3.6-5.07,4.92a9,9,0,0,1-5.5,1.67,5.78,5.78,0,0,1-4.75-3.18,11.32,11.32,0,0,1-.79-4.23c-.22-4-3.36-5.37-5.8-7.86-6.4-6.5-6.81-18.74-5.15-27.49a43.11,43.11,0,0,1,9.82-20.85,29.64,29.64,0,0,1,12.56-8.37c1.92-.63,5.19-.31,6.83-1.34,1.81-1.15,2.32-3.49,4.59-4.31,2.81-1,5.23.23,7,2.67A9.07,9.07,0,0,1,680.36,224.72Z"/><path class="cls-13" d="M675.47,221.1a7,7,0,0,0-.27-4,9.39,9.39,0,0,0-4.53-4.7c-1.9-1-3.95-1.72-5.81-2.84a8.64,8.64,0,0,1-4.14-5.08,9,9,0,0,0,.13,7.19,7.83,7.83,0,0,0,5.37,4.36c1,.21,2,.19,3,.44a6.48,6.48,0,0,1,4.23,3.74,4.39,4.39,0,0,0,.66,1.25.87.87,0,0,0,1.18.2C675.9,221.15,675.3,221.86,675.47,221.1Z"/><path class="cls-6" d="M674.16,220.44a6,6,0,0,0,1.27-5.74c-.17-.53-.38-1.18,0-1.57a.81.81,0,0,1,.37-.21,1.72,1.72,0,0,1,1.91,1.3,5,5,0,0,1,0,2.68,17.1,17.1,0,0,1-1.25,3.65,2.72,2.72,0,0,1-.71,1,.88.88,0,0,1-1.09.06c-.48-.41-.31-1.24-.08-1.86"/><rect class="cls-4" x="530.33" y="208.05" width="7.21" height="99.58"/><rect class="cls-4" x="691.76" y="208.05" width="7.21" height="99.58"/><rect class="cls-14" x="506.85" y="242.15" width="211.69" height="30.36" rx="5.07"/><rect class="cls-14" x="506.85" y="278.58" width="211.69" height="30.36" rx="5.07"/><rect class="cls-14" x="506.85" y="205.72" width="211.69" height="30.36" rx="5.07"/><ellipse class="cls-4" cx="533.94" cy="220.84" rx="3.6" ry="3.97"/><ellipse class="cls-4" cx="695.36" cy="220.84" rx="3.6" ry="3.97"/><ellipse class="cls-4" cx="533.94" cy="258.72" rx="3.6" ry="3.97"/><ellipse class="cls-4" cx="695.36" cy="258.72" rx="3.6" ry="3.97"/><ellipse class="cls-4" cx="533.94" cy="293.76" rx="3.6" ry="3.97"/><ellipse class="cls-4" cx="695.36" cy="293.76" rx="3.6" ry="3.97"/><path class="cls-12" d="M856.73,268.54c-5.8,6-13.68,11.48-21.4,9.08-6.49-2-10.69-9.22-11.73-16.47s.47-14.61,2-21.76c2.33-11.12,15.73-62.44,29.86-37.94,4.68,8.11,5.55,21.27,8.32,30.4C868.4,247.2,868.12,256.71,856.73,268.54Z"/><path class="cls-14" d="M861.74,142.57s47.16,32,.07,66.67c0,0-9.86,19.08-31.89,4.46,0,0-13.66-13.27,1.16-56.81C831.08,156.89,829.84,143.55,861.74,142.57Z"/><path class="cls-3" d="M906,558c18.19,14.29,79.9,105.23,79.9,105.23l27.28,39c0,2.59-7.14,16.88-7.14,16.88-15.59,9.1-22.09,3.25-22.09,3.25l-87.69-96.14C854,583.32,835.82,506.67,835.82,506.67c0-3.9-3.24-3.9-3.24-3.9-11.05-1.3-57.82,127.32-57.82,127.32l-3.89,87.7-13,20.13-27.93,2.6-2.6-18.19,2.6-49.37,2.6-21.43c3.31-35,21.44-126.67,21.44-126.67,4.54-7.8,27.28-88.35,27.28-88.35L785.81,406c4.54.65,106.53,8.45,106.53,8.45l9.09,133.81Z"/><path class="cls-15" d="M1022.91,710.64s22.08,13-5.2,29.88l-40.28,24.69H958s2.64-14.33,26-42.88L1007.46,694Z"/><path class="cls-14" d="M870.25,507.32h31.18s4.54,16-1,26.52c0,0-8.76,15.7-25.65,3.36C874.8,537.2,868.3,538.5,870.25,507.32Z"/><path class="cls-16" d="M794.25,242.29S721.5,306.6,702,315c0,0-83.8,40.92-93.54,40.92l11.69,26s83.15-20.14,114.33-38.33c0,0,51.32-25.33,53.26-36.38l15-3.89,4.54-65Z"/><path class="cls-17" d="M882.59,230.59s26.64,1.3,33.78,51.32c0,0,9.75,50.67,9.1,70.81,0,0-5.2,105.45-24,156.76h-31s8.23-29.64,12.12-95.8L861.81,367V291l2.6-60.42Z"/><path class="cls-18" d="M863.38,223.25S857.1,248.78,846.22,254c0,0-26.64,8.44-20.14-23.39l3.9-9.74h-10.4s-26,11.69-27.93,38.33c0,0-3.9,36.37-2.6,70.15L785.81,406v5.2s60.41,10.49,78.6,6.5a32.77,32.77,0,0,0,18.18-4s.65-37.58-4.54-88.9c0,0-15-63.66-8.16-81.2,0,0-2.24-7.14,12.7-13"/><path class="cls-19" d="M861.24,220.9s-15,15.55-21.83,13.75l-2.11-1.59A19,19,0,0,1,830,220.85h-3.07s-5.89,25.76.87,31c0,0,16.16,7.8,23.25,0,0,0,13.82-18.55,17.06-27Z"/><polygon class="cls-20" points="821.53 397.54 839.41 376.1 842.52 254.75 832.03 253.13 824.13 300.1 813.74 350.12 813.74 378.7 821.53 397.54"/><circle class="cls-20" cx="839.41" cy="248.78" r="8.6"/><path class="cls-21" d="M866.86,207.77l.09.07c2.27,1.83,8.11-.2,10-1.87,7.25-6.42,11.8-21.24,13.19-30.45,1.73-11.5-1.25-24.33-10.15-31.82-4.61-3.88-10-6-15.77-7.25-6-1.3-11-4.32-17.41-4.23a23.05,23.05,0,0,0-14.26,4.86,17,17,0,0,0-6.42,13.36,8.65,8.65,0,0,0,1.79,5.38,4.84,4.84,0,0,0,5.18,1.61c2.69-1,2.4-5.59,4.34-7.79,2.11-2.4,5-5,8.46-4.73,0,0,6.34,8.77,10.72,8.77,0,0,9.26,5.85,18.51,3.41-.51.14-.87,10.92-1.08,12-1.25,6.69-3.25,13.33-4.86,19.94,4.9,1,4.08-5.91,6.53-7.68,3.17-2.29,4.18.57,4.28,3.07.18,4.22-2,11.79-6.33,13.58l-5.84,2.43C865.88,201.25,865.47,206.43,866.86,207.77Z"/><ellipse class="cls-22" cx="848.93" cy="176" rx="6.82" ry="3.01" transform="translate(540.59 986.3) rotate(-80.88)"/><ellipse class="cls-22" cx="828.08" cy="172.85" rx="6.82" ry="3.01" transform="translate(526.16 963.06) rotate(-80.88)"/><path class="cls-23" d="M837.61,203.1s7.81-.41,11-6.74"/><path class="cls-24" d="M832.55,189.54c-2.37-.38-4.87-1.47-5.11-4.33a4,4,0,0,1,.93-3c2.17-2.6,7.45-2.68,7.68-2.68a.64.64,0,0,1,.63.69.69.69,0,0,1-.65.7s-4.94.08-6.72,2.22a2.56,2.56,0,0,0-.59,1.94c.35,4.09,8,3.2,8.13,3.19a.64.64,0,0,1,.7.62.71.71,0,0,1-.59.77A17.49,17.49,0,0,1,832.55,189.54Z"/><path class="cls-25" d="M769.67,722.33v36.38H698.76s-31.83-9.74-14.29-18.19l42.22-13.64v6.5s24.69,2.59,26.64-.65C753.33,732.73,766.1,723,769.67,722.33Z"/><path class="cls-14" d="M592.84,385.4c-4.27-3.43-6-9.45-4.94-14.82a21.65,21.65,0,0,1,9.15-13.16,23.29,23.29,0,0,1,18.68-3.77C648.51,362.05,614.53,402.82,592.84,385.4Z"/><path class="cls-8" d="M262.27,467.84c2.33,5,7.77,8.06,13.25,8.29a21.6,21.6,0,0,0,14.93-5.81,23.25,23.25,0,0,0,8.05-17.27C298,419.21,250.44,442.66,262.27,467.84Z"/><path class="cls-26" d="M276.87,437.73l18.11-40c10.41-23,20.9-46.16,35.3-66.9,22.48-32.38,53.57-57.63,84.22-82.41,7.28-5.89,15.19-12.05,24.54-12.77,8-.62,18,3.63,21.17,11.91,4.49,11.83-8.22,21-15.32,28.68-20.57,22.11-44.67,40.56-65.74,62.17-32,32.78-56.37,72.19-77.55,112.79-.6,1.16-1.33,2.43-2.59,2.79-1.48.41-2.93-.61-4.12-1.58C288.57,447.26,283.18,442.87,276.87,437.73Z"/><path class="cls-4" d="M311.83,511.15c.45,7.2.49,14.33-1.91,19.89-7,16.32-18.35,21.61-33.88,28.4-17.67,7.72-22.64,18-22.93,36-.22,13.65-20.92,37.22-5.92,48.94,18,14,40.86-18.81,58.16-20.84,13.78-1.62,22.55-12,27.81-24,2.57-5.89,3.21-12.47,5.63-18.29,3.28-7.93,9.64-15.41,14.13-22.78,10.38-17.06,20-35.29,21.09-55.62,1.09-20.9,9.05-39.92,4.59-61.54-2.08-10.08-6.91-23.45-16.36-28.92-11.22-6.49-25.72,3.85-32.5,12.95-5,6.76-8.07,14.79-10.53,22.86A200,200,0,0,0,311,492.57C310.66,498.1,311.42,504.65,311.83,511.15Z"/><path class="cls-4" d="M424.19,623.35a26.15,26.15,0,0,0,2.18,7c5.79,12.13,44.11,38.79,54.45,19.77,2.34-4.32,3-10.63,4.81-15.39C494.23,612.6,503,588,494,564.62c-6.68-17.49-19.47-31.61-25.17-49.23-5.8-17.9-13.15-37.32-23.37-53.18-9.55-14.83-30.83-42.74-50.37-41-13.23,1.16-24.61,14.67-21.84,27.66,2.72,12.79,13.67,22.44,20.23,33.24,8.57,14.11,15,30.42,21.5,45.57,8.58,20,23.59,44.79,14.89,66C426,603.06,422.59,613.63,424.19,623.35Z"/><path class="cls-6" d="M365.68,232.08c-14.41,10-21.6,28-22.76,47.47-1.73,28.82,4.37,54.17-3.39,82.54-3.27,12-13.47,32.35-9.33,44.38,3.91,11.39,22.71,25.29,33.2,29.93,11.94,5.26,25.41,5.14,38.44,4.57,4.56-.2,9.2-.45,13.52-1.88,14.23-4.69,18.8-19.49,20.92-32.68,3-18.86,5.6-38.18,9.19-57.74,5.6-30.46,31.93-88.19.6-112.77C436,228,425.9,225.43,413.65,225c-8.8-.33-17.54-1.62-26.27-.69A46.09,46.09,0,0,0,365.68,232.08Z"/><path class="cls-4" d="M378.57,225.36a151.81,151.81,0,0,1,4.79,72.76c14.51,10.46,35.31,9.07,52.47,7.36a2.46,2.46,0,0,0,1.45-.47,2.58,2.58,0,0,0,.61-1.34c3.08-13.17,6.2-26.55,8-40.31a168.65,168.65,0,0,0,1.46-21.46c0-8.43,1.87-7.21,7.61-2.73a3,3,0,0,1,1,1.05,3.58,3.58,0,0,1,.22,1.5c-.23,24.38-8.56,47.74-8.25,71.27.06,4.66,1.14,10.29,5.51,11.61-12.94,47.95-18.92,95.19-18.25,140.33,0,1.6,0,3.32-.94,4.6a7.09,7.09,0,0,1-3.88,2.18c-17.78,5.12-31.24-3.53-47.09-9.26-17-6.14-33.21-3.9-49.46-14.06-2.7-1.69-5.41-3.67-6.88-6.47-1.86-3.55-1.36-7.68-.8-11.52,1.69-11.68,1.53-22.94,2.42-34.71,1-12.92,6.69-26.28,10.59-38.81a27.33,27.33,0,0,1,3.55-8,33.88,33.88,0,0,1,4.8-4.93c28.33-26,39-73.06,24.16-112.35-.54-1.43-.87-1.48-.51-3,.32-1.36,1.62-2.13,2.79-2.75A4.91,4.91,0,0,1,377,225c1.66.35,2.52,2.33,2.76,4.13s.13,3.72.93,5.3"/><path class="cls-27" d="M254,588.63s35.12,13.72,52.23,35.26L265,677s12.48,29.16,29.58,50.7c0,0,1.8,6.86-3.6,8.82s-53.12-5.88-95.43-65.13Z"/><path class="cls-27" d="M433.34,635.34s31.79-21.25,58-22.31l12.31,68.25s28.72,7.63,54.87,6.57c0,0,6,2.76,4.08,8.57s-37.42,41.43-106.39,40.33Z"/><path class="cls-26" d="M436.59,145.93c-1.52-6.66-7.21-12-13.76-13.94s-13.76-.94-20,1.91a36.8,36.8,0,0,0-12.65,57.43"/><path class="cls-28" d="M451.52,177.3c4.34-3.94,8.74-8,11.78-13s4.58-11.24,2.74-16.8c-2.32-7.05-9.72-11.55-17.11-12.28s-14.75,1.68-21.48,4.83a99.49,99.49,0,0,0-48.7,50.18c-3.18,7.37-5,17,.71,22.59,3.68,3.59,9.5,4.2,14.47,2.84s9.28-4.39,13.48-7.36Z"/><path class="cls-12" d="M424.38,235.18c-1.78,3.53-4.42,7.11-8.29,7.87-4.86.95-9.56-3.22-10.91-8s-.23-9.85,1.07-14.63c1.05-3.9,2.28-7.88,4.79-11,5.38-6.75,15-5.62,18,2.77C431.44,218.85,427.33,229.33,424.38,235.18Z"/><path class="cls-8" d="M449.94,180.88c2,10.48.78,22.06-5.73,30.51s-19,12.58-28.43,7.52c-9.13-4.93-12.59-16.17-14.26-26.42-1.26-7.78-2-15.79-.4-23.51s5.68-15.21,12.34-19.43C435.72,135.45,446.74,164.18,449.94,180.88Z"/><path class="cls-21" d="M448,168.5a2.3,2.3,0,0,1-1.78-.85c0-.05-2.61-3.11-5.86-3a2.29,2.29,0,0,1-.21-4.57c5.63-.27,9.47,4.45,9.63,4.65a2.29,2.29,0,0,1-.35,3.22A2.33,2.33,0,0,1,448,168.5Z"/><ellipse class="cls-21" cx="425.81" cy="179.72" rx="3.4" ry="5.78" transform="translate(-23.29 70.51) rotate(-9.22)"/><ellipse class="cls-21" cx="446.3" cy="177.95" rx="3.4" ry="5.78" transform="translate(-22.74 73.77) rotate(-9.22)"/><path class="cls-21" d="M417,175.77a2.48,2.48,0,0,1-.54-.06,2.29,2.29,0,0,1-1.68-2.76c1.61-6.71,9.62-9.83,10-10a2.29,2.29,0,0,1,1.63,4.27h0c-.06,0-6.11,2.41-7.16,6.76A2.28,2.28,0,0,1,417,175.77Z"/><path class="cls-21" d="M441,196a19.27,19.27,0,0,1-4.52-.58.76.76,0,1,1,.39-1.47c.08,0,7.68,1.92,8.66-1.7a2.15,2.15,0,0,0-.27-1.82c-1.19-1.84-5-2.81-6.39-3a.76.76,0,1,1,.23-1.51c.23,0,5.63.92,7.44,3.71a3.64,3.64,0,0,1,.46,3.05C446.31,195.32,443.55,196,441,196Z"/><path class="cls-21" d="M436.71,209.25a.75.75,0,0,1-.38-.1,8.36,8.36,0,0,0-.85-.13c-2.36-.31-7.88-1-10.41-6a.74.74,0,0,1,.33-1,.75.75,0,0,1,1,.33c2.17,4.24,7,4.87,9.26,5.17a3.07,3.07,0,0,1,1.52.39.76.76,0,0,1,.1,1.07A.74.74,0,0,1,436.71,209.25Z"/><path class="cls-29" d="M407.5,173.46a68.84,68.84,0,0,0,6,17.34l-5.43,2.8-6.76-15.54"/><path class="cls-28" d="M393.73,190.35c-8.75-10.37,2-24.2,8.76-32.39,4.27-5.16,8.83-7.81,14.38-11.39,8.22-5.31,33.27-19.48,35.16-.74.67,6.68-13.09,8-18.46,10.56A98.11,98.11,0,0,0,393.73,190.35Z"/><path class="cls-8" d="M612.72,389.26c4.46-3.18,6.55-9.09,5.8-14.51a21.59,21.59,0,0,0-8.36-13.67c-5.15-4-12-6.11-18.42-4.86C558.51,362.67,590,405.36,612.72,389.26Z"/><path class="cls-26" d="M580.5,380.22,537.9,369.5c-24.49-6.17-49.14-12.39-72.11-22.89-35.85-16.38-66.2-42.5-96-68.27-7.09-6.12-14.54-12.82-16.92-21.88-2-7.79.38-18.39,8-22.95,10.85-6.51,22.17,4.35,30.95,10,25.41,16.32,47.83,36.77,72.83,53.68,37.94,25.65,81.05,42.67,124.76,56.32,1.25.39,2.63.88,3.2,2.06.67,1.38-.08,3-.82,4.33Z"/><path class="cls-30" d="M400,371c-.24,1.79.23,2.68.88,2.76l3.26.42-1.08,8.29L386,380.3,387,372l3.26.42c.57.08,1.28-.66,1.51-2.45l4.72-36.48-2.83-.36c-4-.52-5.19,6.92-6.31,13.31l-3.83-.5,2.91-22.51,30.13,8-2.39,18.49-3.76-.48c.58-6.7,1.26-14-2.93-14.51l-2.79-.36Z"/><path class="cls-30" d="M424.09,377.12l-1,8-12-1.55,1-8,2.32.3c.43.05.9-.68,1.12-2.4l4.21-32.53c.25-2-.05-2.95-.55-3l-2.19-.28.8-6.23,21.74,5.79-3.39,16.59-2.72-.35c.44-5.59,1.64-13.46-.81-13.78l-6.78-.88L424,352.69l2.19.29c.92.12,1.81-2.07,2.17-4.81l.4-3.13,2.69.35-3.15,24.4-2.69-.35.34-2.66c.46-3.52.19-5.54-.79-5.67l-2.22-.28-1.72,13.37c-.23,1.72.07,2.56.52,2.61Z"/></svg>