<svg id="Layer_1" data-name="Layer 1" xmlns="http://www.w3.org/2000/svg" viewBox="0 0 1122.92 756.93"><defs><style>.cls-1{fill:#f1f2f2;}.cls-2{fill:#e6e7e8;}.cls-16,.cls-3{fill:#fab01b;}.cls-4{fill:#fbcf74;}.cls-5{fill:#0a4f2e;}.cls-6{fill:#699480;}.cls-7{fill:#e6eda9;}.cls-8{fill:#f17934;}.cls-9{fill:#d1d3d4;}.cls-10{fill:#f47934;}.cls-11{fill:#fabe44;}.cls-12{font-size:58.24px;}.cls-12,.cls-14{fill:#6d6e71;}.cls-12,.cls-16{font-family:Campton-Bold, Campton;font-weight:700;}.cls-13{letter-spacing:-0.05em;}.cls-15{fill:#f5945c;}.cls-16{font-size:116.58px;}.cls-17,.cls-18{fill:none;stroke-width:10px;}.cls-17{stroke:#f17934;stroke-linecap:round;stroke-linejoin:round;}.cls-18{stroke:#f47934;stroke-miterlimit:10;}</style></defs><path class="cls-1" d="M326.67,497.76c-13.62-17.07-17.25-37.58.38-53.87,17.37-16.05,43.73-21.62,66.11-14s39.82,28.18,43.76,51.5c1.55,9.19,1,19-3.38,27.24C411.61,549.36,351.94,529.46,326.67,497.76Z"/><path class="cls-1" d="M472.78,88.2a126.21,126.21,0,0,0-20-6.83C382.38,64,301.38,68.17,233.65,94,165.71,119.82,120.43,163,119.12,238.35c-1.28,73.64,52.44,142.57,128.2,152.92C301.2,398.64,360,377.37,408.45,402c56.87,28.82,77.73,97.7,133.66,131.26,64.1,38.45,122.78,67.87,200.34,55.69C821.14,576.55,891.83,526.51,935,459.56c47.79-74.16,72.06-173.63,33.74-255.31C946.55,157,938.76,125,890,98.15c-17.18-9.44-35-18.53-54.4-21.46s-40.8,1.2-54.57,15.16c-11.69,11.84-16.31,28.77-24.78,43.1-26.2,44.28-87.07,57.44-136.72,43.92C560.94,162.92,524.21,110.52,472.78,88.2Z"/><path class="cls-1" d="M600,89.23c-13.62-17.08-17.26-37.58.38-53.88,17.37-16,43.73-21.61,66.11-14s39.82,28.17,43.76,51.49c1.55,9.19,1,19-3.39,27.25C685,140.82,625.28,120.92,600,89.23Z"/><ellipse class="cls-2" cx="644.77" cy="689.41" rx="478.15" ry="67.52"/><ellipse class="cls-3" cx="883.88" cy="336.39" rx="179.13" ry="184.56"/><ellipse class="cls-4" cx="883.88" cy="336.39" rx="156.7" ry="161.45"/><path class="cls-3" d="M900.31,410.52V432H873.57V410.73c-25.72-3.79-46.94-19.35-49.8-49.84h34.7c2.24,12.62,12.65,20.61,29,20.61,12.24,0,19.59-4.84,19.59-12.83,0-5.05-2.65-10.3-14.69-12.62l-22.86-5c-27.35-6.1-40.21-18.93-40.21-41.64,0-25.23,17.55-42.06,44.29-45.63V240.82h26.74v23.76c19.79,3.78,40.82,15.56,43.47,45.63h-34.7c-1.83-10.72-8.16-18.08-22.85-18.08C874,292.13,866,297,866,306.22c0,8.2,5.71,11.77,16.74,14.08l19.38,4.21C927.66,330,944,340.7,944,365.31S927,406.31,900.31,410.52Z"/><path class="cls-5" d="M815.15,681.27c.74-.67.46-1.16.38-1.63a141.36,141.36,0,0,1-2.19-19.76c-.29-9.45-.1-18.9.4-28.34a199,199,0,0,1,1.88-20.12A108.89,108.89,0,0,1,821.53,589c4-10.51,9.78-20.06,15.82-29.48A208.23,208.23,0,0,1,854.07,537c4.69-5.52,9.47-11,14.48-16.18,4.73-4.94,9.68-9.66,14.54-14.47,7.07-7,14.2-14,21.69-20.53,7-6.09,13.93-12.17,21-18.17a176.29,176.29,0,0,1,21.81-16.14c4.53-2.8,9.13-5.5,13.83-8,8.52-4.57,17.1-9,25.8-13.22,7.46-3.61,16.39-5.21,23.46-9.25,7.34-4.19,12.24-11.33,20.23-15.05,8.84-4.13,19.11-5.53,28.5-2.89,21.06,5.93,39.49,32.61,42,53.72a185.68,185.68,0,0,1,.81,27.7q-.32,9.51-1.38,18.95a135.39,135.39,0,0,1-2.79,15.74c-1.84,7.84-3.59,15.7-5.51,23.52-1.73,7-4.06,13.91-6.25,20.82-1.86,5.85-3.81,11.68-5.89,17.45s-4.68,11.35-7.31,16.9a217.29,217.29,0,0,1-26.88,43.22,227.17,227.17,0,0,1-36.2,36.16,245,245,0,0,1-23.09,16.41,196.7,196.7,0,0,1-37.33,17.67,179,179,0,0,1-20.91,5.85,185,185,0,0,1-20.47,3.6,138,138,0,0,1-27.41.66c-5.31-.48-10.61-1-16-1.08a52.09,52.09,0,0,1-11-1.62c-6.08-1.43-12.13-2.93-18.11-4.73a65.61,65.61,0,0,1-15.78-7.48c-3.58-2.24-7.14-4.52-10.57-7a61.1,61.1,0,0,1-11.66-10.42,56,56,0,0,1-8.43-13.51A87.46,87.46,0,0,1,785,665.28a34.46,34.46,0,0,1-1.61-10.38c0-1.71-.05-3.42-.06-5.12a8.14,8.14,0,0,1,.77-3.81,2.93,2.93,0,0,1,2.86-1.86,2.5,2.5,0,0,1,2.51,3c-1,3.18-.48,6.4-.4,9.58a27.29,27.29,0,0,0,2.77,10.72c.59,1.28,1.11,2.59,1.65,3.89a50.38,50.38,0,0,0,15.68,21,157.26,157.26,0,0,0,18.09,12c1,.6,2.14,1.09,3.23,1.64.4-1-.41-1.1-.8-1.38a80.58,80.58,0,0,1-9.87-8.39A79.52,79.52,0,0,1,810,683.57c-3.24-5-6.14-10.15-9.1-15.29s-5.36-10.37-7.79-15.67a81.12,81.12,0,0,1-2.85-8A78.56,78.56,0,0,1,786.12,624c-.09-1.61-.09-3.22-.11-4.82a162.73,162.73,0,0,1,1.6-24.06,25.84,25.84,0,0,1,2.54-8.34,11.9,11.9,0,0,1,.71-1.32,2.78,2.78,0,0,1,3.22-1,2.82,2.82,0,0,1,1.66,3.2,9.8,9.8,0,0,1-.76,2,24.91,24.91,0,0,0-2,7.25,170.08,170.08,0,0,0-1.4,23.76,68,68,0,0,0,2.83,18.42,100.94,100.94,0,0,0,7.68,19.64C805,664,808,669.26,811,674.5,812.3,676.76,813.72,679,815.15,681.27Z"/><path class="cls-6" d="M928.16,693.84c-5,2.45-10,5.1-15.09,7.29a109.17,109.17,0,0,1-20.21,6.5A139.15,139.15,0,0,1,854,710.41,94.48,94.48,0,0,1,823.45,703c-2.18-.92-4.37-1.83-6.51-2.82a66.58,66.58,0,0,1-9-5.43c-3.86-2.59-7.34-5.68-11.06-8.44A32.66,32.66,0,0,1,787,673.92a26,26,0,0,0-2.51-6c-2.93-7.54-3.8-15.57-4.16-23.73a281.93,281.93,0,0,1,.45-32.49c.56-7.86,1.27-15.72,3.22-23.45a110.38,110.38,0,0,1,6-17.36c2.7-6.17,5.74-12.19,8.91-18.13a153.57,153.57,0,0,1,10.72-17.1c3.68-5.13,7.44-10.21,11.47-15.07q6.9-8.33,14.34-16.12a290.92,290.92,0,0,1,25-23c8-6.68,16.2-13.11,24.62-19.19,5.45-3.94,10.84-8,16.39-11.76,6.12-4.17,12.21-8.39,18.61-12.09,1.1-.63,2.15-1.39,3.23-2.09a1.2,1.2,0,0,0,1.55-.85l5.08-3.08a1.17,1.17,0,0,0,1.55-.85l6.67-3.88a2.62,2.62,0,0,0,2.62-1.35l7.19-4.13a2.63,2.63,0,0,0,2.62-1.36l8.25-4.64a4.7,4.7,0,0,0,3.66-1.9c5.75-3,11.5-6,17.44-8.6a1.17,1.17,0,0,0,1.6-.73l8.35-2.92a.66.66,0,0,0,1.08-.43,114,114,0,0,1,20-4.91,141.77,141.77,0,0,1,19.49-1.52,49.33,49.33,0,0,1,15.15,2.33,38.57,38.57,0,0,1,11.34,6.37c1.95,1.5,3.81,3.14,5.62,4.81a36.64,36.64,0,0,1,8.5,11.84,75.9,75.9,0,0,1,6.32,21.3,66.56,66.56,0,0,1-.54,21.39,218.68,218.68,0,0,1-5.61,22.81c-2.18,7.22-4.81,14.29-7.45,21.36-2.22,5.94-4.46,11.87-6.86,17.74-4,9.87-8.48,19.57-13.12,29.17s-9.64,19-14.45,28.54a292.29,292.29,0,0,1-20.16,33.24q-4.6,6.7-9.23,13.39c-3.39,4.87-7.21,9.38-11,13.9a276.92,276.92,0,0,1-20,21.48,139.74,139.74,0,0,1-20.06,16.34c-3.29,2.17-6.56,4.4-9.84,6.6a1.17,1.17,0,0,0-1.55.86l-6.14,3.61A3.5,3.5,0,0,0,928.16,693.84Z"/><path class="cls-7" d="M962.5,414.28a4.7,4.7,0,0,1-3.66,1.9A4.12,4.12,0,0,1,962.5,414.28Z"/><path class="cls-7" d="M784.46,667.92a26,26,0,0,1,2.51,6A12.43,12.43,0,0,1,784.46,667.92Z"/><path class="cls-7" d="M940.78,426.31a2.62,2.62,0,0,1-2.62,1.35A2.36,2.36,0,0,1,940.78,426.31Z"/><path class="cls-7" d="M950.59,420.82a2.63,2.63,0,0,1-2.62,1.36A2.36,2.36,0,0,1,950.59,420.82Z"/><path class="cls-7" d="M924.86,435.47a1.2,1.2,0,0,1-1.55.85C923.56,435.47,924.08,435.19,924.86,435.47Z"/><path class="cls-7" d="M931.49,431.54a1.17,1.17,0,0,1-1.55.85C930.2,431.56,930.71,431.26,931.49,431.54Z"/><path class="cls-7" d="M981.54,405a1.17,1.17,0,0,1-1.6.73C980.25,404.86,980.79,404.61,981.54,405Z"/><path class="cls-7" d="M991,401.6a.66.66,0,0,1-1.08.43C990.08,401.39,990.46,401.29,991,401.6Z"/><path class="cls-8" d="M912.19,662.23c-14.15,6.57-26.52,9.09-39.57,7.66A54,54,0,0,1,842.27,657a48.44,48.44,0,0,1-15-23.61c-4.12-14.25-2.49-28.07,3.29-41.53a77.13,77.13,0,0,1,19.89-27.34,81.11,81.11,0,0,1,22.34-14.13,68.92,68.92,0,0,1,32.06-5.72c12.41.82,23.6,4.9,33.06,13.13a49.16,49.16,0,0,1,15.82,26.82c2.68,11.73,1.46,23.18-2.58,34.4a75.61,75.61,0,0,1-17.3,27.33C926.94,653.48,918.94,659.16,912.19,662.23Z"/><polygon class="cls-9" points="516.36 494.35 144.1 670.69 0 371.52 372.26 195.17 516.36 494.35"/><path class="cls-2" d="M69.13,284.26h418.8a0,0,0,0,1,0,0V609.21a7.12,7.12,0,0,1-7.12,7.12H76.25a7.12,7.12,0,0,1-7.12-7.12V284.26a0,0,0,0,1,0,0Z" transform="translate(-144.15 131.41) rotate(-21.23)"/><path class="cls-1" d="M567.81,547.74l-415,129.45,1.18-2.58a54.81,54.81,0,0,0,2.5-39.21l-87.31-280,399.8-124.7Z"/><rect class="cls-2" x="303.92" y="382.12" width="185.86" height="17.35" transform="translate(-98.36 135.88) rotate(-17.32)"/><rect class="cls-2" x="314.25" y="415.24" width="185.86" height="17.35" transform="translate(-107.75 140.46) rotate(-17.32)"/><rect class="cls-2" x="324.58" y="448.37" width="185.86" height="17.35" transform="translate(-117.14 145.04) rotate(-17.32)"/><rect class="cls-2" x="334.91" y="481.49" width="185.86" height="17.35" transform="translate(-126.54 149.62) rotate(-17.32)"/><rect class="cls-2" x="345.24" y="514.61" width="185.86" height="17.35" transform="translate(-135.93 154.2) rotate(-17.32)"/><rect class="cls-10" x="161.28" y="472.87" width="24.24" height="138.78" transform="translate(-153.59 76.22) rotate(-17.32)"/><rect class="cls-11" x="209.12" y="518.35" width="24.24" height="79.78" transform="translate(-156.18 91.19) rotate(-17.32)"/><rect class="cls-10" x="246.07" y="494.81" width="24.24" height="91.51" transform="translate(-149.24 101.39) rotate(-17.32)"/><rect class="cls-11" x="277.91" y="436.49" width="24.24" height="138.78" transform="translate(-137.47 109.3) rotate(-17.32)"/><text class="cls-12" transform="translate(211.22 390.01) rotate(-17.32)">NE<tspan class="cls-13" x="78.91" y="0">W</tspan><tspan x="137.55" y="0">S</tspan></text><rect class="cls-14" x="105.21" y="383.3" width="384.94" height="3.3" transform="translate(-101.12 106.09) rotate(-17.32)"/><circle class="cls-10" cx="594.42" cy="680.77" r="48.58"/><path class="cls-10" d="M393.6,601.84s59.07-22.72,59.07-152.24S594.42,320.08,594.42,320.08s141.74,0,141.74,129.52,59.07,152.24,59.07,152.24"/><rect class="cls-15" x="364.06" y="594.42" width="460.71" height="86.34" rx="21.4"/><circle class="cls-5" cx="698.94" cy="353.82" r="73.15"/><text class="cls-16" transform="translate(666.03 389.51)">1</text><line class="cls-17" x1="883.88" y1="118.55" x2="959.65" y2="23.59"/><path class="cls-8" d="M978.47,0c-4.74,14.39-8.7,33.76-8.07,48.24L957.18,26.68l-23.95-8.1C947.48,16,965.5,7.82,978.47,0Z"/><path class="cls-18" d="M190.76,177.69s68.37,128.12,184.64,43.7c0,0,71.58-103.12,150.93-15.82,0,0,58.34,105.27,107-27.5,0,0,39.87-114.55,131.16-44.27,0,0,84.4,39,131.56-30.47"/><circle class="cls-3" cx="364.74" cy="226.38" r="18.9"/><circle class="cls-3" cx="546.55" cy="232.22" r="17.03"/><circle class="cls-3" cx="754.92" cy="127.09" r="18.9"/><circle class="cls-3" cx="923.07" cy="72.74" r="18.9"/></svg>