<svg xmlns="http://www.w3.org/2000/svg" viewBox="0 0 1259.44 822.69"><defs><style>.cls-1{isolation:isolate;}.cls-2{fill:#e6e7e8;}.cls-3{fill:#f1f2f2;}.cls-4{fill:#fab01b;}.cls-5{fill:#0a4f2e;}.cls-6{fill:#fcc70e;}.cls-7{fill:#f17934;}.cls-8{fill:#db8e27;}.cls-9{fill:#fabe44;}.cls-10{fill:#377257;}.cls-11,.cls-22,.cls-23,.cls-24{fill:none;}.cls-11{stroke:#ee7a53;stroke-width:4px;}.cls-11,.cls-22,.cls-23{stroke-linecap:round;stroke-linejoin:round;}.cls-12{fill:#b0b5b7;}.cls-13{fill:#ee7a53;}.cls-14{fill:#74be44;}.cls-15,.cls-18{fill:#e8ddc7;mix-blend-mode:multiply;}.cls-16{fill:#ffb600;}.cls-17{fill:#faa71a;}.cls-18{opacity:0.67;}.cls-19{fill:#bc8f2d;}.cls-20{fill:#d1d3d4;}.cls-21{fill:#f5945c;}.cls-22,.cls-23{stroke:#f17934;stroke-width:6px;}.cls-23{stroke-dasharray:12.41 12.41;}.cls-24{stroke:#6d6e71;stroke-miterlimit:10;}.cls-25{fill:#f6a070;}.cls-26{fill:#52836c;}.cls-27{fill:#6d6e71;}.cls-28{fill:#939598;}.cls-29{fill:#fcc760;}.cls-30{fill:#faa62e;}.cls-31{fill:#699480;}.cls-32{fill:#e6eda9;}.cls-33{fill:#fbcf74;}</style></defs><g class="cls-1"><g id="Layer_1" data-name="Layer 1"><ellipse class="cls-2" cx="618.96" cy="757.74" rx="530.34" ry="64.95"/><path class="cls-3" d="M663.85,98.86C589.7,42,489.21,1.81,394.33.06,293.12-1.82,203.54,43.13,182.17,119.24,152.4,225.31,251.93,346.73,353,440.27c84.66,78.35,174.83,148.28,275,193.84,93.81,42.66,196.24,61.82,283,42.86,62.59-13.67,114.46-46.36,155.54-84.67,44.4-41.41,78.85-92,89-150.75,14.14-81.47-29.33-204.9-134-238.09-66.75-21.17-90.85,21.95-147.58,25.49C799.75,233.59,725.73,146.27,663.85,98.86Z"/><g id="tlp_body" data-name="tlp body"><rect class="cls-4" x="430.78" y="9.99" width="401.1" height="735.25" rx="59.78"/><rect class="cls-5" x="589.91" y="77.63" width="82.83" height="6.82" rx="3.29"/><rect class="cls-5" x="608.24" y="48.59" width="46.18" height="6.82" rx="3.29"/><circle class="cls-5" cx="563.28" cy="79.95" r="10.8"/><path class="cls-5" d="M655.41,663.67a34.05,34.05,0,1,0,0,48.16A34.05,34.05,0,0,0,655.41,663.67Z"/></g><rect class="cls-3" x="452.57" y="122.2" width="356.83" height="510.85" rx="10.68"/><rect class="cls-2" x="474.3" y="145.69" width="311.26" height="200.68"/><rect class="cls-2" x="474.3" y="365.39" width="311.26" height="96.08"/><rect class="cls-2" x="474.3" y="490.72" width="311.26" height="96.08"/><path class="cls-5" d="M508.18,527.48l8.48-2-7,10.36a26.35,26.35,0,0,0-10.22-4.8l-1-.23a26.21,26.21,0,0,0-6.74,2.55l0,0a27.87,27.87,0,0,0-3.21,2h0l-6-10.85,8.37,3.46-8.14-14.2,9.47,6.78-4.55-11.72,5.92,2.76,6.23-17.19,7.35,17.91,4.54-3.85L507.4,520l9.5-5.38Z"/><path class="cls-6" d="M489.26,582.11l-.52-.14Z"/><path class="cls-6" d="M512.83,579.78c-.17.12-.34.24-.52.35C512.49,580,512.66,579.9,512.83,579.78Z"/><path class="cls-6" d="M490.37,582.36l-.5-.11Z"/><path class="cls-6" d="M512.28,580.15l-.59.34Z"/><path class="cls-6" d="M505.74,582.3l-1,.13Z"/><path class="cls-6" d="M511.61,580.53l-.57.28Z"/><path class="cls-6" d="M504.64,582.45l-1,.1Z"/><path class="cls-4" d="M501.06,582.74q1.33-.07,2.55-.18l-1.08-1.35Z"/><path class="cls-4" d="M490.42,582.37c.86.16,1.78.28,2.74.37L491.75,581Z"/><path class="cls-4" d="M512.18,562.94l-5.37,6.12-5.06-6.29-5.75,6-5-6.25-5.61,5.87L478,562.49a46.17,46.17,0,0,0,.65,7.13l6.94,5.55,5.9-6.17,5,6.25,5.76-6,5,6.21,5.21-5.94L517,574a26.43,26.43,0,0,0,1.31-6.12c0,.35-.08.7-.13,1Z"/><path class="cls-4" d="M512,543.63l-5.37,6.11-5.06-6.28-5.75,6-5-6.25-5.61,5.86L480,545a27.57,27.57,0,0,0-1.66,6.64l6.43,5.15,5.91-6.17,5,6.24,5.76-6,5,6.2,5.21-5.93,6.85,6.84c0,.46,0,.9,0,1.34q-.08-2.87-.3-6.19a22.16,22.16,0,0,0-.54-5c.12.55.21,1.06.28,1.54Z"/><path class="cls-4" d="M511.79,553.72l-5.37,6.12-5.05-6.28-5.76,6-5-6.24-5.6,5.86-6.81-5.45c0-.36.05-.71.08-1.06,0,.38-.06.77-.08,1.17-.13,2.29-.2,4.42-.21,6.41l.05,0,7.18,5.75,5.91-6.18,5,6.25,5.76-6,5,6.21,5.21-5.94,6.34,6.34c0,.38-.07.75-.1,1.12a69.29,69.29,0,0,0,.26-8.49c0,.44,0,.87,0,1.29Z"/><path class="cls-6" d="M489.89,533.18c.59-.37,1.17-.7,1.73-1a29.31,29.31,0,0,0-3.21,2,26.2,26.2,0,0,0-3.22,2.78l.62.49Z"/><path class="cls-4" d="M507.2,578.28,502.14,572l-5.76,6-5-6.25-5.61,5.86-6.42-5.15c1.47,4.88,4.29,7.94,9.06,9.39l3.48-3.64,3.74,4.65h1.62l1.22,0,4.2-4.39,3.1,3.85a19.56,19.56,0,0,0,5.25-1.47l1.86-2.11.59.59-.53.41a10.81,10.81,0,0,0,3.3-3.91l-3.66-3.65Z"/><path class="cls-4" d="M499.39,529.84h0a4.08,4.08,0,0,0-2.08,0,28.09,28.09,0,0,0-5.65,2.28l.55-.29,4.54,5.65,5.75-6,5,6.21,2.46-2.8c.48.4.93.8,1.36,1.22l-3.88,4.42-5.06-6.28-5.76,6-5-6.24L486,539.9l-2-1.6c.4-.47.8-.92,1.21-1.34a23.66,23.66,0,0,0-4.41,6.28l4.24,3.4,5.91-6.17,5,6.24,5.76-6,5,6.21,5.21-5.94,5.4,5.4a22.65,22.65,0,0,0-7.7-11.74A26.2,26.2,0,0,0,499.39,529.84Z"/><path class="cls-7" d="M486,539.9l5.61-5.86,5,6.24,5.76-6,5.06,6.28,3.88-4.42c-.43-.42-.88-.82-1.36-1.22l-2.46,2.8-5-6.21-5.75,6-4.54-5.65-.55.29h0c-.56.31-1.14.64-1.73,1l-4.08,4.27-.62-.49h0c-.41.42-.81.87-1.21,1.34Z"/><path class="cls-7" d="M506.7,546.91l-5-6.21-5.76,6-5-6.24L485,546.64l-4.24-3.4h0l0,0-.36.78,0,.08c-.11.25-.22.51-.32.77l0,0h0l5.16,4.14,5.61-5.86,5,6.25,5.75-6,5.06,6.28,5.37-6.11,6,6c-.07-.48-.16-1-.28-1.54h0c-.06-.26-.12-.54-.19-.82v0c-.07-.28-.15-.57-.23-.85v0h0l-5.4-5.4Z"/><path class="cls-7" d="M511.69,551.07,506.48,557l-5-6.2-5.76,6-5-6.24-5.91,6.17-6.43-5.15h0v0c0,.32-.08.65-.11,1v.09c0,.35-.06.7-.08,1.06l6.81,5.45,5.6-5.86,5,6.24,5.76-6,5.05,6.28,5.37-6.12,6.81,6.82c0-.42,0-.85,0-1.29h0c0-.44,0-.88,0-1.34Z"/><path class="cls-7" d="M512.08,560.28l-5.21,5.94-5-6.21-5.76,6-5-6.25L485.19,566,478,560.21l-.05,0h0v.92c0,.44,0,.88,0,1.3h0l7.37,5.92,5.61-5.87,5,6.25,5.75-6,5.06,6.29,5.37-6.12,6,6c.05-.34.09-.69.13-1a.88.88,0,0,1,0-.16c0-.37.07-.74.1-1.12Z"/><path class="cls-7" d="M507.26,575.44l-5-6.21-5.76,6-5-6.25-5.9,6.17-6.94-5.55h0s0,0,0,.08l.06.3q.07.43.18.87c0,.07,0,.15.05.23l.24.92.09.32a.93.93,0,0,1,0,.13h0l6.42,5.15,5.61-5.86,5,6.25,5.76-6,5.06,6.29,5.36-6.12,3.66,3.65h0c.14-.27.27-.55.4-.85v0c.12-.29.24-.6.36-.92h0l-4.52-4.52Z"/><path class="cls-7" d="M498.45,582.84h.07l1.17,0h.22l1.11,0h0l1.47-1.53,1.08,1.35h0l1-.1.12,0,1-.13h0l-3.1-3.85Z"/><path class="cls-8" d="M512.86,578.72,511,580.83h0l0,0,.57-.28.08,0,.59-.34,0,0c.18-.11.35-.23.52-.35l.09-.06.53-.41Z"/><path class="cls-7" d="M488.39,581.86h0l.36.1.52.14.61.14.5.11h.05l1.33-1.39,1.41,1.76h0l.59,0,.55,0,1.3,0h0l-3.74-4.65Z"/><path class="cls-9" d="M516.71,388a37.21,37.21,0,0,0,1.73,3.59c1.4,2.24,4,3.66,5.74,5.67A27.52,27.52,0,0,1,530.71,416a44.37,44.37,0,0,1-1.83,12.19,23,23,0,0,1-8.65,11.32c-1.85,1.27-4.7,1.54-6.28,3.1-1.41,1.38-2.11,3.43-3.65,4.85a8.64,8.64,0,0,1-4.58,2.33,5.21,5.21,0,0,1-4.7-1.68,8.37,8.37,0,0,1-1.39-3.22c-.86-3.19-3.84-3.69-6.4-5.22-6.7-4-9.08-13.73-9.06-21a33.84,33.84,0,0,1,5.22-18.42,26.93,26.93,0,0,1,9.68-9c1.59-.85,4.52-1.2,5.79-2.31s1.47-3.21,3.34-4.27c2.31-1.32,4.64-.77,6.6.85A7,7,0,0,1,516.71,388Z"/><path class="cls-10" d="M511.81,386a5.29,5.29,0,0,0-.9-3.18,8.05,8.05,0,0,0-4.76-2.92c-1.85-.48-3.77-.66-5.59-1.22a7.22,7.22,0,0,1-4.47-3.29,6.63,6.63,0,0,0,1.29,5.71,7,7,0,0,0,5.44,2.51c.93,0,1.84-.23,2.76-.21a5.73,5.73,0,0,1,4.35,2.22,3.25,3.25,0,0,0,.78.87.83.83,0,0,0,1.07-.05C512.2,385.91,511.78,386.59,511.81,386Z"/><path class="cls-7" d="M510.55,385.67a4.56,4.56,0,0,0,.17-4.82c-.24-.39-.53-.87-.28-1.24a.75.75,0,0,1,.29-.24,1.57,1.57,0,0,1,1.9.69,3.76,3.76,0,0,1,.4,2.15,13.36,13.36,0,0,1-.5,3.14,2.26,2.26,0,0,1-.46.93.85.85,0,0,1-1,.25c-.49-.24-.47-.93-.38-1.47"/><path class="cls-7" d="M624.75,238.47v9.88H612.43v-9.78c-11.84-1.74-21.62-8.91-22.93-22.95h16c1,5.81,5.82,9.49,13.34,9.49,5.64,0,9-2.23,9-5.91,0-2.33-1.22-4.75-6.77-5.81l-10.53-2.33C598,208.25,592,202.35,592,191.89c0-11.62,8.09-19.37,20.4-21V160.31h12.32v10.95c9.11,1.74,18.79,7.17,20,21h-16c-.85-4.93-3.76-8.32-10.53-8.32-5.64,0-9.31,2.22-9.31,6.48,0,3.78,2.64,5.43,7.71,6.49l8.93,1.94c11.75,2.52,19.27,7.46,19.27,18.79S637.06,236.53,624.75,238.47Z"/><path class="cls-11" d="M475.93,290.54c0,16,18.17,49.18,58.88,25.2,0,0,28.35-31.16,60.33,6.59,0,0,8,26.12,39.26-12.41,0,0,10.17-17.45,42.88-5.82,0,0,46.53,16.72,56.7-42.16,0,0,17.45-50.15,48.7,3.64"/><circle class="cls-4" cx="509.37" cy="323.55" r="7.17"/><rect class="cls-12" x="574.66" y="400.15" width="139.91" height="8.79"/><rect class="cls-12" x="574.66" y="428.63" width="65.19" height="8.79"/><rect class="cls-12" x="577.22" y="525.25" width="139.91" height="8.79"/><rect class="cls-12" x="577.22" y="553.73" width="65.19" height="8.79"/><rect class="cls-13" x="724.82" y="447.39" width="51.28" height="9.52"/><rect class="cls-13" x="724.82" y="571.23" width="51.28" height="9.52"/><circle class="cls-4" cx="577.34" cy="306.19" r="7.17"/><circle class="cls-4" cx="652.47" cy="299.02" r="7.17"/><circle class="cls-4" cx="726.54" cy="283.27" r="7.17"/><circle class="cls-4" cx="766.33" cy="246.04" r="7.17"/><path class="cls-14" d="M565.48,175.29a.38.38,0,0,0-.1,0,.2.2,0,0,1,.09-.12Z"/><path class="cls-14" d="M567.32,198.78c-3-5-4.44-9.32-4.77-13,0-.57-.08-1.12-.08-1.66A24.41,24.41,0,0,1,567.32,198.78Z"/><path class="cls-5" d="M576.49,210.91a78.66,78.66,0,0,1-9.17-12.13,24.41,24.41,0,0,0-4.85-14.7,14.27,14.27,0,0,1,2.91-8.76.38.38,0,0,1,.1,0v-.11a14.68,14.68,0,0,1,8.36,7.08C577,187.92,578.36,197.19,576.49,210.91Z"/><path class="cls-15" d="M565.48,175.29a.38.38,0,0,0-.1,0,.2.2,0,0,1,.09-.12Z"/><path class="cls-15" d="M567.32,198.78c-3-5-4.44-9.32-4.77-13,0-.57-.08-1.12-.08-1.66A24.41,24.41,0,0,1,567.32,198.78Z"/><path class="cls-16" d="M567.32,198.78a36.27,36.27,0,0,1-2.2,12.68,44.49,44.49,0,0,1-57.2,27.26q-1.79-.65-3.48-1.41c-1.16-.54-2.27-1.13-3.37-1.75a5.28,5.28,0,0,1-.56-.35,9.23,9.23,0,0,1,.51-15.7A43.53,43.53,0,0,0,520.77,196c6.65-19.17,22.32-23.78,33.64-18.48-.33.39-.66.78-1,1.19-1.79-.53-3.4-.29-3.92.69-.67,1.3.73,3.38,3.15,4.64s4.93,1.28,5.6,0c.5-.94-.1-2.28-1.4-3.42.3-.38.62-.74,1-1.09a21.59,21.59,0,0,1,4.64,4.52c0,.54,0,1.09.08,1.66C562.88,189.46,564.37,193.8,567.32,198.78Z"/><path class="cls-17" d="M558.28,184.07c-.67,1.29-3.19,1.29-5.6,0s-3.82-3.34-3.15-4.64c.52-1,2.13-1.22,3.92-.69.3-.41.63-.8,1-1.19.61.29,1.21.59,1.78.93s1.11.68,1.64,1.07c-.33.35-.65.71-1,1.09C558.18,181.79,558.78,183.13,558.28,184.07Z"/><path class="cls-17" d="M567.32,198.78c-3-5-4.44-9.32-4.77-13,0-.57-.08-1.12-.08-1.66A24.41,24.41,0,0,1,567.32,198.78Z"/><path class="cls-18" d="M561,220.47A44.53,44.53,0,0,1,508,238.77c-1.22-.44-2.41-.94-3.57-1.46q1.69.76,3.48,1.41a44.51,44.51,0,0,0,52.76-18A2.47,2.47,0,0,0,561,220.47Z"/><path class="cls-15" d="M558.28,184.07c-.67,1.29-3.19,1.29-5.6,0s-3.82-3.34-3.15-4.64c.52-1,2.13-1.22,3.92-.69a8.42,8.42,0,0,1,1.69.68l.16.09a7.86,7.86,0,0,1,1.58,1.13C558.18,181.79,558.78,183.13,558.28,184.07Z"/><path class="cls-19" d="M565.48,175.29a.38.38,0,0,0-.1,0,15.17,15.17,0,0,0-7.55,4.24c-.33.35-.65.71-1,1.09s-.58.78-.86,1.19a1.35,1.35,0,0,1-.25.28,1.42,1.42,0,0,1-1.34.38,1.63,1.63,0,0,1-.39-.13l-.49-.26-.28-.15a1.49,1.49,0,0,1-.57-2.11c.24-.38.49-.74.75-1.1s.63-.8,1-1.19a19,19,0,0,1,10.24-6.05l.38,1.74.44,1.93v.11Z"/><path class="cls-15" d="M565.48,175.29a.38.38,0,0,0-.1,0,15.17,15.17,0,0,0-7.55,4.24c-.33.35-.65.71-1,1.09s-.58.78-.86,1.19a1.35,1.35,0,0,1-.25.28,1.48,1.48,0,0,1-1.34.38,1.63,1.63,0,0,1-.39-.13l-.49-.26a18.65,18.65,0,0,1,1.75-2.59c.29-.36.57-.69.89-1a18.62,18.62,0,0,1,8.84-5.24l.44,1.93v.11Z"/><path class="cls-20" d="M1131.52,221.1h107.62V199.23s0-17.94-17.94-17.94-17.35,22-17.35,22-4.08-13.13-15.75-13.13-14.29,14.3-14.29,14.3-4.08-8.46-15.75-8.46-15.46,11.66-15.46,11.66-1.16-3.5-6.71-3.5-8.75,11.38-8.75,16.92Z"/><path class="cls-20" d="M1084.31,259.6h117.83V232s0-22.68-19.64-22.68-19,27.84-19,27.84-4.47-16.59-17.24-16.59-15.65,18.06-15.65,18.06a18.81,18.81,0,0,0-17.24-10.69c-12.78,0-16.93,14.75-16.93,14.75s-1.28-4.42-7.34-4.42-9.58,14.38-9.58,21.38Z"/><path class="cls-20" d="M803.46,178.64H991.88v-38.3s0-31.4-31.4-31.4-30.39,38.55-30.39,38.55-7.14-23-27.57-23-25,25-25,25-7.15-14.81-27.58-14.81-27.06,20.43-27.06,20.43-2-6.13-11.74-6.13-15.32,19.92-15.32,29.62Z"/><path class="cls-21" d="M735.37,201.41s39.07-6.91,46.9-17.83l-82.36.94a34.22,34.22,0,0,0-12.82,2.65L672,193.5Z"/><path class="cls-21" d="M888.29,161l90.48,31.46,63.77-9.91L943,161S919.31,156.74,888.29,161Z"/><path class="cls-7" d="M680.83,117.4s15.79-4.39,35.08,14.9,48.22,53.49,79.79,54.37l285.06-14.3,104.35-3.81s37.64,0,48.59,15.25c0,0,25.26,8.82,25.73,16.79s-17.63,25.59-72.9,28.93S884,241.93,884,241.93s-53.36-1.9-101-7.14-97.35-2.92-91.48-23.26c4.29-14.86,23.35-13.43,23.35-13.43Z"/><path class="cls-4" d="M1048.49,262.28s-17.69,6.53-41.13,3.76c-15.8-1.87-19.11-7.76-19.11-7.76s-11.72-1.28-11.72-7,1.24-8.48,1.24-8.48l44.76-14.22,21.89.06,4.07-.06Z"/><path class="cls-21" d="M1079.6,211.53s-84.45-3.09-124.09,7.25L828,289.45s43.38,2.1,70.57-8.24S1079.6,211.53,1079.6,211.53Z"/><path class="cls-9" d="M1036,245.41c0,4.67.71,10,3.41,13.94,2,3,6.23,4.88,9.57,2.84,2.85-1.75,3.34-4.25,3.44-7.39l.2-6.64c.18-5.68-.35-11.95-2.43-17.28a4.72,4.72,0,0,0-1.12-1.88c-1.51-1.39-4.34-.76-6.14-.34a6.32,6.32,0,0,0-3.53,2.84C1036.7,235.44,1036,240.75,1036,245.41Z"/><ellipse class="cls-5" cx="1048.49" cy="245.41" rx="7.82" ry="16.86"/><path class="cls-5" d="M1233.59,183.65c-5.33-.27-16.8-1.29-25.21-5.28l1-3.06a49.27,49.27,0,0,0,15.1,1.05A25.72,25.72,0,0,1,1233.59,183.65Z"/><rect class="cls-5" x="832.68" y="197.5" width="17.12" height="19.25" rx="8.56" transform="translate(-9.17 41.63) rotate(-2.82)"/><rect class="cls-5" x="866.5" y="195.83" width="17.12" height="19.25" rx="8.56" transform="translate(-9.05 43.29) rotate(-2.82)"/><rect class="cls-5" x="900.32" y="194.17" width="17.12" height="19.25" rx="8.56" transform="translate(-8.92 44.95) rotate(-2.82)"/><rect class="cls-5" x="934.15" y="192.5" width="17.12" height="19.25" rx="8.56" transform="translate(-8.8 46.62) rotate(-2.82)"/><rect class="cls-5" x="967.97" y="190.84" width="17.12" height="19.25" rx="8.56" transform="translate(-8.68 48.28) rotate(-2.82)"/><rect class="cls-5" x="1001.79" y="189.17" width="17.12" height="19.25" rx="8.56" transform="translate(-8.56 49.94) rotate(-2.82)"/><rect class="cls-5" x="1035.62" y="187.51" width="17.12" height="19.25" rx="8.56" transform="translate(-8.43 51.6) rotate(-2.82)"/><rect class="cls-5" x="1069.44" y="185.84" width="17.12" height="19.25" rx="8.56" transform="translate(-8.31 53.26) rotate(-2.82)"/><rect class="cls-5" x="1103.26" y="184.17" width="17.12" height="19.25" rx="8.56" transform="translate(-8.19 54.92) rotate(-2.82)"/><path class="cls-21" d="M713.19,207.12s38.72-8.71,50.16-1.66L687,236.39a34.17,34.17,0,0,1-12.86,2.51h-16.4Z"/><path class="cls-2" d="M863.4,333.87h188.42v-38.3s0-31.4-31.4-31.4S990,302.72,990,302.72s-7.15-23-27.58-23-25,25-25,25S930.29,290,909.87,290s-27.07,20.43-27.07,20.43-2-6.13-11.74-6.13-15.32,19.92-15.32,29.62Z"/><path class="cls-22" d="M285.75,297.76a55.73,55.73,0,0,1,5.84-1.4"/><path class="cls-23" d="M303.94,295.51a55.66,55.66,0,0,1,53.39,49.64c1.05,9.6-.4,19.33.46,29,2.18,24.26,20.53,46.26,44,52.75,19.54,5.41,41.56-.23,56.66-13.63"/><path class="cls-22" d="M462.86,408.87a54.51,54.51,0,0,0,3.79-4.65"/><path class="cls-7" d="M573,651.32,556.68,645a18.92,18.92,0,0,1-7.25-5L497.71,582.2a18.84,18.84,0,0,0-14-6.27H424.9V736H585V668.89A18.85,18.85,0,0,0,573,651.32Z"/><line class="cls-24" x1="541.33" y1="736.04" x2="468.57" y2="736.04"/><path class="cls-25" d="M505,699.65A36.38,36.38,0,0,0,468.57,736h72.76A36.38,36.38,0,0,0,505,699.65Z"/><rect class="cls-10" x="212.71" y="555.61" width="222.07" height="180.43"/><rect class="cls-5" x="558.8" y="720.82" width="29.78" height="17.87"/><rect class="cls-5" x="207.88" y="720.82" width="36.05" height="20.02"/><polygon class="cls-26" points="529.61 630.76 442.42 630.76 442.42 582.49 487.67 582.49 529.61 630.76"/><path class="cls-5" d="M317.53,699.65A36.38,36.38,0,0,0,281.15,736h72.76A36.38,36.38,0,0,0,317.53,699.65Z"/><circle class="cls-27" cx="317.53" cy="736.03" r="30.82"/><circle class="cls-28" cx="317.53" cy="736.03" r="18.94"/><circle class="cls-20" cx="317.53" cy="736.03" r="7.54"/><circle class="cls-27" cx="504.95" cy="736.03" r="30.82"/><circle class="cls-28" cx="504.95" cy="736.03" r="18.94"/><circle class="cls-20" cx="504.95" cy="736.03" r="7.54"/><path class="cls-26" d="M582,681.34h.37a0,0,0,0,1,0,0v25.53a0,0,0,0,1,0,0H582a12.76,12.76,0,0,1-12.76-12.76v0A12.76,12.76,0,0,1,582,681.34Z"/><path class="cls-21" d="M442.42,642.1h87.19v50.7H490.55a31.26,31.26,0,0,0-31.26,31.26H442.42Z"/><rect class="cls-5" x="450.95" y="655.98" width="13.62" height="2.07"/><circle class="cls-5" cx="240.84" cy="593.84" r="5.08"/><circle class="cls-5" cx="240.84" cy="617.97" r="5.08"/><circle class="cls-5" cx="240.84" cy="642.1" r="5.08"/><circle class="cls-5" cx="240.84" cy="666.24" r="5.08"/><circle class="cls-5" cx="240.84" cy="690.37" r="5.08"/><circle class="cls-5" cx="398.23" cy="593.84" r="5.08"/><circle class="cls-5" cx="398.23" cy="617.97" r="5.08"/><circle class="cls-5" cx="398.23" cy="642.1" r="5.08"/><circle class="cls-5" cx="398.23" cy="666.24" r="5.08"/><circle class="cls-5" cx="398.23" cy="690.37" r="5.08"/><path class="cls-4" d="M299.43,655.44a1.92,1.92,0,0,0,2.09,2h5.57v6.47H277.81v-6.47h5.57a1.94,1.94,0,0,0,2-2V627h-4.84c-6.86,0-7.23,5.83-7.72,10.83h-6.56V620.28h52.44v17.55H312.3c-.49-5.19-.92-10.83-8.09-10.83h-4.78Z"/><path class="cls-4" d="M352.11,657.46v6.47H322.53v-6.47h5.69a1.86,1.86,0,0,0,2-2V629.09a2.15,2.15,0,0,0-2.26-2.35h-5.39v-6.46h51.33v17.36h-6.68c-.67-4.5-.25-10.9-6.25-10.9H344.27V638h5.39a3.79,3.79,0,0,0,3.74-4v-2.54H360v19.76H353.4V649c0-2.85-1.29-4.43-3.68-4.43h-5.45v10.83a1.92,1.92,0,0,0,2.08,2Z"/><path class="cls-9" d="M74.79,168.42a64,64,0,0,0,5.67,4.13c4,2.31,9.27,2.33,13.61,4a48.36,48.36,0,0,1,25.72,23.59c3.06,6.26,6.18,13.5,7.32,20.39a40.33,40.33,0,0,1-4,24.75c-1.79,3.52-6,6.31-7.14,10.05-1,3.31-.4,7.06-1.62,10.54a15.16,15.16,0,0,1-5.15,7.42,9.21,9.21,0,0,1-8.68,1.33,14.87,14.87,0,0,1-4.84-3.85c-4-4.22-9-2.51-14.27-2.76-13.74-.65-25.5-13.7-31.53-25-5.36-10-8.24-21.54-7.25-32.88a47.26,47.26,0,0,1,7.54-21.95c1.75-2.64,6-5.62,7-8.4,1.15-3.1-.38-6.19,1.62-9.4,2.48-4,6.55-5,11-4.18A12.71,12.71,0,0,1,74.79,168.42Z"/><path class="cls-10" d="M65.53,169.4a9.26,9.26,0,0,0-4-4.17c-3-1.54-6.56-1.35-9.82-.56s-6.37,2.12-9.66,2.77-6.93.53-9.68-1.39a11.69,11.69,0,0,0,6.75,7.78,12.24,12.24,0,0,0,10.53-.65c1.42-.8,2.66-1.88,4.11-2.61a10,10,0,0,1,8.57-.18,6.28,6.28,0,0,0,1.94.7,1.49,1.49,0,0,0,1.63-1C66.1,169,66,170.41,65.53,169.4Z"/><path class="cls-7" d="M63.33,170a8,8,0,0,0-3.75-7.61c-.68-.4-1.54-.91-1.46-1.7a1.31,1.31,0,0,1,.24-.6,2.77,2.77,0,0,1,3.53-.51,6.59,6.59,0,0,1,2.41,3,23.6,23.6,0,0,1,1.83,5.28,3.92,3.92,0,0,1,.08,1.83,1.51,1.51,0,0,1-1.27,1.18c-1,0-1.51-1.06-1.82-2"/><path class="cls-5" d="M193.26,144.78l27.51-6.59-22.88,33.92c-8.33-6.66-19.13-12.26-33.12-15.71-1.07-.26-2.15-.51-3.26-.75A83.41,83.41,0,0,0,139.66,164l-.09.05a88.36,88.36,0,0,0-10.4,6.58h0l-19.32-35.54L137,146.45,110.6,99.91l30.69,22.21L126.52,83.73l19.2,9,20.22-56.31,23.82,58.68,14.72-12.6-13.73,37.77,30.79-17.66Z"/><path class="cls-6" d="M131.92,323.73c-.58-.14-1.14-.3-1.69-.46C130.78,323.43,131.34,323.59,131.92,323.73Z"/><path class="cls-6" d="M208.34,316.1c-.55.4-1.11.78-1.69,1.15C207.23,316.88,207.79,316.5,208.34,316.1Z"/><path class="cls-6" d="M135.5,324.55c-.55-.11-1.07-.24-1.61-.36C134.43,324.31,135,324.44,135.5,324.55Z"/><path class="cls-6" d="M206.56,317.3c-.62.39-1.26.77-1.92,1.12C205.3,318.07,205.94,317.69,206.56,317.3Z"/><path class="cls-6" d="M185.35,324.35c-1,.16-2.11.31-3.19.45C183.25,324.66,184.31,324.51,185.35,324.35Z"/><path class="cls-6" d="M204.39,318.56c-.6.32-1.22.64-1.86.94C203.17,319.2,203.79,318.88,204.39,318.56Z"/><path class="cls-6" d="M181.79,324.84c-1.06.13-2.14.25-3.25.36C179.65,325.09,180.73,325,181.79,324.84Z"/><path class="cls-4" d="M170.2,325.81c2.87-.16,5.62-.35,8.26-.61L175,320.79Z"/><path class="cls-4" d="M135.69,324.58a84.89,84.89,0,0,0,8.89,1.21L140,320Z"/><path class="cls-4" d="M206.22,261l-17.4,20L172.43,260.4l-18.67,19.72-16.29-20.47-18.18,19.2L95.36,259.49a155.06,155.06,0,0,0,2.14,23.34L120,301l19.15-20.22,16.29,20.46,18.67-19.71,16.18,20.33,16.9-19.44,14.66,14.8a87.33,87.33,0,0,0,4.24-20.05c-.12,1.16-.26,2.3-.41,3.4Z"/><path class="cls-4" d="M205.67,197.68l-17.4,20-16.39-20.59-18.67,19.71-16.29-20.46-18.18,19.2L102,202a90.68,90.68,0,0,0-5.38,21.74l20.84,16.87,19.15-20.23,16.29,20.46,18.67-19.71,16.19,20.34,16.89-19.45,22.2,22.42c.05,1.49.09,2.95.13,4.38-.15-6.24-.47-13-1-20.28a72.93,72.93,0,0,0-1.73-16.22c.38,1.78.67,3.47.9,5Z"/><path class="cls-4" d="M205,230.76l-17.4,20-16.39-20.58L152.5,249.92l-16.29-20.46L118,248.66,96,230.8c.07-1.17.16-2.33.26-3.47-.11,1.26-.21,2.53-.28,3.83-.41,7.5-.64,14.48-.65,21l.15-.18,23.26,18.83,19.16-20.22,16.29,20.46,18.67-19.71L189,271.69l16.89-19.45L226.47,273c-.1,1.25-.22,2.46-.34,3.65a220.71,220.71,0,0,0,.85-27.8c0,1.43.05,2.83.07,4.21Z"/><path class="cls-6" d="M134,163.47c1.9-1.22,3.78-2.31,5.61-3.3a89.68,89.68,0,0,0-10.4,6.58,82.9,82.9,0,0,0-10.43,9.09l2,1.61Z"/><path class="cls-4" d="M190.08,311.18l-16.39-20.59L155,310.3l-16.29-20.45L120.55,309,99.71,292.17c4.79,16,13.91,26,29.38,30.76L140.39,311l12.12,15.22c1.71,0,3.45,0,5.26,0l3.95-.09,13.63-14.39,10,12.61a62.74,62.74,0,0,0,17-4.8l6-6.92,1.92,1.93c-.56.47-1.13.91-1.72,1.34a35.18,35.18,0,0,0,10.69-12.79l-11.84-12Z"/><path class="cls-4" d="M164.77,152.53h0a13.27,13.27,0,0,0-6.74.12,90.74,90.74,0,0,0-18.33,7.48l1.78-.93,14.72,18.5L174.83,158,191,178.31l8-9.18c1.56,1.3,3,2.62,4.42,4l-12.59,14.49L174.43,167l-18.67,19.71-16.28-20.46-18.19,19.2-6.48-5.25q1.92-2.29,3.92-4.37a77.6,77.6,0,0,0-14.31,20.58l13.74,11.13,19.16-20.22,16.29,20.45,18.67-19.7,16.19,20.33L205.36,189l17.51,17.69a74.24,74.24,0,0,0-25-38.43C189.56,161.58,178.76,156,164.77,152.53Z"/><path class="cls-7" d="M121.29,185.47l18.19-19.2,16.28,20.46L174.43,167l16.39,20.59,12.59-14.49c-1.39-1.37-2.86-2.69-4.42-4l-8,9.18L174.83,158l-18.67,19.72-14.72-18.5-1.78.93-.09,0c-1.83,1-3.71,2.08-5.61,3.3l-13.24,14-2-1.61h0q-2,2.07-3.92,4.37Z"/><path class="cls-7" d="M188.47,208.42l-16.19-20.33-18.67,19.7-16.29-20.45-19.16,20.22-13.74-11.13h0l0,.1c-.4.84-.79,1.7-1.17,2.57,0,.08-.07.18-.11.26-.35.83-.7,1.68-1,2.53a.78.78,0,0,1,0,.14h0l16.74,13.55,18.18-19.2,16.29,20.46,18.67-19.71,16.39,20.59,17.4-20,19.5,19.71c-.23-1.57-.52-3.26-.9-5v0c-.19-.88-.39-1.79-.62-2.72a.13.13,0,0,1,0-.06c-.23-.91-.47-1.84-.74-2.79a.29.29,0,0,1,0-.09h0L205.36,189Z"/><path class="cls-7" d="M204.65,222.05,187.76,241.5l-16.19-20.34L152.9,240.87l-16.29-20.46-19.15,20.23L96.62,223.77h0s0,0,0,.06c-.13,1-.24,2.12-.35,3.2l0,.3c-.1,1.14-.19,2.3-.26,3.47L118,248.66l18.18-19.2,16.29,20.46,18.67-19.71,16.39,20.58,17.4-20,22.09,22.31c0-1.38,0-2.78-.07-4.21h0c0-1.43-.08-2.89-.13-4.38Z"/><path class="cls-7" d="M205.91,252.24,189,271.69l-16.19-20.33-18.67,19.71-16.29-20.46-19.16,20.22L95.45,252l-.15.18h0c0,.59,0,1.16,0,1.74v1.29c0,1.44,0,2.87.07,4.26h0l23.93,19.36,18.18-19.2,16.29,20.47,18.67-19.72L188.82,281l17.4-20,19.44,19.64c.15-1.1.29-2.24.41-3.4l.06-.53c.12-1.19.24-2.4.34-3.65Z"/><path class="cls-7" d="M190.27,301.88l-16.18-20.33-18.67,19.71L139.13,280.8,120,301,97.5,282.83h0a1.84,1.84,0,0,1,.05.25c.06.34.13.66.19,1,.19,1,.39,1.9.59,2.83l.18.77c.24,1,.5,2,.77,3,.1.36.2.73.31,1.08,0,.14.07.28.11.41h0L120.55,309l18.18-19.19L155,310.3l18.67-19.71,16.39,20.59,17.4-20,11.84,12h0c.46-.89.89-1.82,1.3-2.78l0-.07c.41-1,.8-2,1.18-3h0l-14.66-14.8Z"/><path class="cls-7" d="M161.72,326.13h.22c1.28,0,2.55-.07,3.79-.12l.71,0,3.61-.16h.15l4.75-5,3.51,4.41h.08c1.11-.11,2.19-.23,3.25-.36l.37,0c1.08-.14,2.15-.29,3.19-.45h0l-10-12.61Z"/><path class="cls-8" d="M208.43,312.63l-6,6.92h0l.11-.05c.64-.3,1.26-.62,1.86-.94l.25-.14c.66-.35,1.3-.73,1.92-1.12l.09-.05c.58-.37,1.14-.75,1.69-1.15l.29-.2c.59-.43,1.16-.87,1.72-1.34Z"/><path class="cls-7" d="M129.09,322.93l0,0,1.16.32c.55.16,1.11.32,1.69.46s1.31.31,2,.46,1.06.25,1.61.36l.19,0h0L140,320l4.59,5.75v0l1.93.13c.59,0,1.16.09,1.76.12,1.38.08,2.79.13,4.23.16h0L140.39,311Z"/><rect class="cls-5" x="37.14" y="221.12" width="11.4" height="142.74"/><rect class="cls-5" x="292.43" y="221.12" width="11.4" height="142.74"/><path class="cls-7" d="M180.51,238.1a26.39,26.39,0,0,1,5.55,1.13c7.29,2.22,14.72,4.24,21.5,7.93s12.57,12.88,16,20.18a54.89,54.89,0,0,1,4.1,13.12,54.22,54.22,0,0,1,.79,11.4c-.06,2.34-.28,4.68-.49,7a84.66,84.66,0,0,1-2.28,13.75,43.6,43.6,0,0,1-5,11.84,22.27,22.27,0,0,1-2.4,3.2,45.37,45.37,0,0,1-10.9,9.16,39.6,39.6,0,0,1-4.83,2.32,66,66,0,0,1-7.67,2.81c-2.07.57-4.15,1.06-6.22,1.58-14.71,3.74-28.61,6.27-41.88-2.8a61,61,0,0,1-7.75-6.09,44.51,44.51,0,0,1-10.18-14.29c-1.83-4.11-3.59-8.25-5.13-12.51a57.62,57.62,0,0,1-3.09-12.52,36.39,36.39,0,0,1,.73-14.08A40.84,40.84,0,0,1,124,274a92.8,92.8,0,0,1,7-11.92,47.61,47.61,0,0,1,6.06-6.9,49.59,49.59,0,0,1,12.32-8.59,76.43,76.43,0,0,1,10.11-4.1c3.35-1.15,6.74-2.06,10.15-2.88C174.15,238.53,177.07,237.82,180.51,238.1Zm38.24,47.63c-.09-1.35-.21-3.29-.49-5.22a42.38,42.38,0,0,0-2.69-10,22.47,22.47,0,0,0-5.12-7.64,44.3,44.3,0,0,0-12.26-8.36,69.93,69.93,0,0,0-13.9-4.67,48.62,48.62,0,0,0-7.19-1.11,39,39,0,0,0-8.21.24,14.22,14.22,0,0,0-3.59.9,4,4,0,0,1-.73.26c-1.29.33-2.57.65-3.86,1a30.53,30.53,0,0,0-14.25,8.19,58.73,58.73,0,0,0-7.17,8.5A43,43,0,0,0,132.82,282a31.61,31.61,0,0,0-.33,12.25,50.25,50.25,0,0,0,2.28,9.33A39.28,39.28,0,0,0,141,315.45c1.44,1.82,3,3.52,4.52,5.24,2.14,2.39,4.32,4.74,6.59,7a28.4,28.4,0,0,0,7.21,5.47,45.68,45.68,0,0,0,5.61,2.21,37.34,37.34,0,0,0,14.4,1.82c1.43-.08,2.86-.25,4.29-.44a35.62,35.62,0,0,0,10-2.84A42.9,42.9,0,0,0,207.57,324a29.36,29.36,0,0,0,5.49-8,32.44,32.44,0,0,0,1.58-4.36A129.59,129.59,0,0,0,218,297.39,52.31,52.31,0,0,0,218.75,285.73Z"/><path class="cls-29" d="M218.75,285.73a52.31,52.31,0,0,1-.8,11.66,129.59,129.59,0,0,1-3.31,14.28,32.44,32.44,0,0,1-1.58,4.36,29.36,29.36,0,0,1-5.49,8,42.9,42.9,0,0,1-13.95,9.91,35.62,35.62,0,0,1-10,2.84c-1.43.19-2.86.36-4.29.44a37.34,37.34,0,0,1-14.4-1.82,45.68,45.68,0,0,1-5.61-2.21,28.4,28.4,0,0,1-7.21-5.47c-2.27-2.24-4.45-4.59-6.59-7-1.54-1.72-3.08-3.42-4.52-5.24a39.28,39.28,0,0,1-6.23-11.92,50.25,50.25,0,0,1-2.28-9.33,31.61,31.61,0,0,1,.33-12.25,43,43,0,0,1,6.47-14.21,58.73,58.73,0,0,1,7.17-8.5,30.53,30.53,0,0,1,14.25-8.19c1.29-.31,2.57-.63,3.86-1a4,4,0,0,0,.73-.26,14.22,14.22,0,0,1,3.59-.9,39,39,0,0,1,8.21-.24,48.62,48.62,0,0,1,7.19,1.11,69.93,69.93,0,0,1,13.9,4.67,44.3,44.3,0,0,1,12.26,8.36,22.47,22.47,0,0,1,5.12,7.64,42.38,42.38,0,0,1,2.69,10C218.54,282.44,218.66,284.38,218.75,285.73Z"/><path class="cls-30" d="M180.92,338.28c-2.49.16-5,.2-7.46.29a21.24,21.24,0,0,1-8.94-1.72,89,89,0,0,1-8.88-4.23c-1.19-.65-2.33-1.39-3.5-2.06a30.14,30.14,0,0,1-7.78-6.85c-1.92-2.26-3.65-4.7-5.52-7a27.28,27.28,0,0,1-3-5,73,73,0,0,1-3.8-9.1,31.21,31.21,0,0,1-1.81-12,65.48,65.48,0,0,1,.74-6.85,32.86,32.86,0,0,1,1.51-5.43,34.06,34.06,0,0,1,2.47-5.34,55.73,55.73,0,0,1,3.88-6.1,13.08,13.08,0,0,0,1.13-1.92,13.71,13.71,0,0,1,2-3,32.77,32.77,0,0,1,5.81-5c1.56-1.11,3.13-2.19,4.69-3.3a21.25,21.25,0,0,1,5.37-2.73,51.89,51.89,0,0,1,8.7-2.22c1.55-.26,3.1-.5,4.65-.8a27.91,27.91,0,0,1,10.93.12c2.63.52,5.21,1.22,7.79,1.95,1.33.38,2.66.74,4,1.14a52.12,52.12,0,0,1,7.09,2.93c.91.43,1.79.94,2.68,1.43a29.22,29.22,0,0,1,7.18,5.74,33.8,33.8,0,0,1,6.94,11.54,47.91,47.91,0,0,1,3,11.68,38.91,38.91,0,0,1-.29,10.77,99.87,99.87,0,0,1-3.3,13.55c-.58,1.84-1.19,3.67-1.9,5.45a28.82,28.82,0,0,1-8.61,12.17c-.7.56-1.41,1.11-2.13,1.64a33.29,33.29,0,0,0-3.61,3,17.66,17.66,0,0,1-6.6,4.1,52.59,52.59,0,0,1-10.45,2.61Zm.76-3.54c1-.13,2.77-.33,4.52-.72a56.71,56.71,0,0,0,7-1.89,15.41,15.41,0,0,0,5.54-3.28,35.87,35.87,0,0,1,4-3.4c.65-.46,1.28-1,1.92-1.46a24.94,24.94,0,0,0,7.73-10.76c.7-1.73,1.27-3.53,1.85-5.32a91.94,91.94,0,0,0,3.1-12.44,37.09,37.09,0,0,0,.43-9.52,46,46,0,0,0-4.4-15.29,29.51,29.51,0,0,0-4.69-6.84,28.14,28.14,0,0,0-6.67-5.34c-1.82-1-3.68-1.89-5.56-2.72a38.35,38.35,0,0,0-4.85-1.73c-2.53-.74-5.08-1.43-7.64-2.05a28.93,28.93,0,0,0-12.5-.64c-2.38.46-4.77.86-7.16,1.29a42,42,0,0,0-7.27,2.21,11.45,11.45,0,0,0-2.54,1.39L148,260.78a21.21,21.21,0,0,0-3.26,2.83,3.29,3.29,0,0,0-1.09,1.71,1.3,1.3,0,0,1-.26.49c-.6.87-1.19,1.77-1.83,2.6a51.68,51.68,0,0,0-4.08,6.29,31.26,31.26,0,0,0-3.18,7.94,41.23,41.23,0,0,0-1,6.82,27.92,27.92,0,0,0,1.48,11.61,67.83,67.83,0,0,0,3.68,8.87,28.63,28.63,0,0,0,3.23,5.15c.92,1.12,1.76,2.3,2.65,3.44,1.45,1.86,3,3.65,4.58,5.34a32.61,32.61,0,0,0,7.91,5.56,70.19,70.19,0,0,0,8.75,4.19,17.65,17.65,0,0,0,7.08,1.54C175.43,335.09,178.17,335.09,181.68,334.74Z"/><path class="cls-5" d="M171.76,278.62c2.59-.33,5.51,2,5.52,5.72,0,2.43-1.73,5.93-5.29,6.26-3.13.29-5.54-2.39-5.58-5.68C166.37,282.23,168.4,278.84,171.76,278.62Z"/><path class="cls-5" d="M160.62,310.35c-.14-2.89,1.92-6.12,5.24-6.37s5.34,2.42,5.42,5.34a6,6,0,0,1-5.14,6.49C163.16,316.08,160.69,313.63,160.62,310.35Z"/><path class="cls-5" d="M201.79,304c2.49-.35,5.34,1.85,5.35,5.49,0,2.78-1.8,5.84-5.12,6.13s-5.38-2.4-5.41-5.45C196.58,306.49,199.34,304.05,201.79,304Z"/><path class="cls-5" d="M198.58,267.21c2.9-.25,5.37,2.22,5.4,5.46s-2.31,6-5.21,6.16c-2.32.16-5.19-1.55-5.27-5.36A5.84,5.84,0,0,1,198.58,267.21Z"/><path class="cls-5" d="M190.19,279.15a5.88,5.88,0,0,1-4.93,6.25c-2.46.29-5.15-1.62-5.33-5.1a5.84,5.84,0,0,1,5-6.26C187.52,273.83,190,275.85,190.19,279.15Z"/><path class="cls-5" d="M180.34,303.79c-2.75.36-5.24-2-5.3-5.24a5.79,5.79,0,0,1,4.94-6c2.93-.3,5.17,2.26,5.25,5.2S183,303.62,180.34,303.79Z"/><path class="cls-5" d="M177.4,264.48c-.09-3.09,2.06-5.82,4.88-6,3.22-.26,5.19,2.43,5.23,5.22a5.72,5.72,0,0,1-4.95,6C179.73,269.91,177.45,267.55,177.4,264.48Z"/><path class="cls-5" d="M197.49,288.75c2.31-.26,5,1.53,5.09,5.05a5.61,5.61,0,0,1-4.85,5.9c-2.31.19-4.89-1.54-5-5A5.62,5.62,0,0,1,197.49,288.75Z"/><path class="cls-5" d="M147.92,288.61a5.57,5.57,0,0,1-4.72,5.87c-3.22.29-5-2.6-5-4.83-.07-3.09,2-5.83,4.71-6A4.87,4.87,0,0,1,147.92,288.61Z"/><path class="cls-5" d="M157,308.29a5.52,5.52,0,0,1-4.85,5.76c-3,.13-4.89-2.38-4.91-5.16,0-2.55,1.8-5.44,4.81-5.69C154.78,303,157,305.3,157,308.29Z"/><path class="cls-5" d="M183.19,311.13a5.49,5.49,0,0,1,4.68-5.89c3.11-.27,5,2.33,5,4.85A5.55,5.55,0,0,1,188.2,316C185.54,316.3,183.29,314.06,183.19,311.13Z"/><path class="cls-5" d="M154.12,271.76a4.7,4.7,0,0,1,5,4.71c.11,2.83-1.73,5.59-4.56,5.9-2.63.3-4.89-1.61-5.08-4.78C149.32,274.57,151.59,271.94,154.12,271.76Z"/><path class="cls-5" d="M160.5,292.77a5.52,5.52,0,0,1-4.48,5.74,4.67,4.67,0,0,1-5.12-4.73,5.43,5.43,0,0,1,4.7-5.89A4.72,4.72,0,0,1,160.5,292.77Z"/><path class="cls-5" d="M205.16,283.87c-.07-2.18,1.51-5.18,4.61-5.4,2.9-.2,4.64,2.47,4.64,4.84s-1.68,5.23-4.61,5.4A4.54,4.54,0,0,1,205.16,283.87Z"/><path class="cls-5" d="M169.42,266.57a5.16,5.16,0,0,1-4.36,5.52c-2.84.29-4.65-2-4.72-4.59a5.09,5.09,0,0,1,4.29-5.45C167.53,261.76,169.28,264.05,169.42,266.57Z"/><path class="cls-5" d="M163.56,319.58A4.35,4.35,0,0,1,168.3,324a5.1,5.1,0,0,1-4.4,5.57c-2.55.23-4.54-1.89-4.63-4.57A5.06,5.06,0,0,1,163.56,319.58Z"/><path class="cls-5" d="M181,318.89a5.14,5.14,0,0,1-4.28,5.43,4.36,4.36,0,0,1-4.61-4.46,5.1,5.1,0,0,1,4.29-5.43A4.36,4.36,0,0,1,181,318.89Z"/><path class="cls-5" d="M255.17,234c.24-.22.15-.38.12-.54a46.47,46.47,0,0,1-.71-6.44c-.1-3.09,0-6.17.13-9.25a65.26,65.26,0,0,1,.61-6.56,35.57,35.57,0,0,1,1.93-7.32,53.52,53.52,0,0,1,5.16-9.61,66.3,66.3,0,0,1,5.46-7.35c1.53-1.8,3.08-3.58,4.72-5.28s3.16-3.15,4.74-4.72c2.31-2.29,4.63-4.55,7.08-6.69,2.27-2,4.54-4,6.84-5.93a56.36,56.36,0,0,1,7.11-5.27c1.48-.91,3-1.79,4.51-2.62q4.17-2.23,8.42-4.31c2.43-1.18,5.34-1.7,7.65-3s4-3.69,6.6-4.91a13.62,13.62,0,0,1,9.3-.94c6.87,1.93,12.88,10.64,13.69,17.52a60.66,60.66,0,0,1,.26,9q-.1,3.1-.45,6.18a45,45,0,0,1-.91,5.14c-.6,2.56-1.17,5.12-1.8,7.67-.56,2.3-1.32,4.54-2,6.79q-.9,2.87-1.92,5.69c-.68,1.89-1.53,3.71-2.38,5.52a71.78,71.78,0,0,1-8.77,14.1,74.4,74.4,0,0,1-11.81,11.79,79.74,79.74,0,0,1-7.54,5.36A64.5,64.5,0,0,1,299,243.83a57.47,57.47,0,0,1-6.82,1.91,61.06,61.06,0,0,1-6.68,1.18,45.27,45.27,0,0,1-8.94.21c-1.73-.16-3.46-.32-5.21-.35a17.49,17.49,0,0,1-3.59-.53c-2-.47-4-1-5.91-1.55a21.29,21.29,0,0,1-5.15-2.43c-1.16-.74-2.33-1.48-3.44-2.28a20.21,20.21,0,0,1-3.81-3.4,18.32,18.32,0,0,1-2.75-4.41,29.79,29.79,0,0,1-1.38-3.37,11.12,11.12,0,0,1-.53-3.39c0-.55,0-1.11,0-1.67a2.66,2.66,0,0,1,.26-1.24,1,1,0,0,1,.93-.61.82.82,0,0,1,.82,1,9.11,9.11,0,0,0-.13,3.12,8.94,8.94,0,0,0,.9,3.5c.19.42.36.85.54,1.27a16.52,16.52,0,0,0,5.11,6.86,52.45,52.45,0,0,0,5.91,3.9c.34.2.7.36,1.05.54.13-.32-.13-.36-.26-.46a25.4,25.4,0,0,1-3.22-2.73,25.94,25.94,0,0,1-3.18-4.13c-1.05-1.62-2-3.31-3-5s-1.75-3.38-2.54-5.12c-.38-.84-.63-1.72-.93-2.59a25.8,25.8,0,0,1-1.36-6.73c0-.52,0-1,0-1.57a52.83,52.83,0,0,1,.53-7.85,8.4,8.4,0,0,1,.82-2.72,3.62,3.62,0,0,1,.24-.43.91.91,0,0,1,1.05-.33.94.94,0,0,1,.54,1.05,3.14,3.14,0,0,1-.25.64,7.73,7.73,0,0,0-.64,2.36,54.29,54.29,0,0,0-.46,7.75,22.22,22.22,0,0,0,.92,6,33.32,33.32,0,0,0,2.51,6.41c.93,1.73,1.92,3.44,2.9,5.15C254.24,232.55,254.7,233.27,255.17,234Z"/><path class="cls-31" d="M292,238.13c-1.64.79-3.26,1.66-4.93,2.37a35.18,35.18,0,0,1-6.59,2.13,45.55,45.55,0,0,1-12.68.9,30.66,30.66,0,0,1-10-2.4c-.71-.3-1.43-.6-2.13-.92a22.25,22.25,0,0,1-2.92-1.77c-1.26-.85-2.39-1.86-3.61-2.76a10.68,10.68,0,0,1-3.25-4.05,8.44,8.44,0,0,0-.81-2,24,24,0,0,1-1.36-7.74,91.49,91.49,0,0,1,.15-10.6,43.18,43.18,0,0,1,1.05-7.65,35.41,35.41,0,0,1,2-5.66c.88-2,1.87-4,2.91-5.92a51.07,51.07,0,0,1,3.49-5.58c1.21-1.67,2.43-3.33,3.75-4.91q2.25-2.72,4.67-5.26a93.42,93.42,0,0,1,8.17-7.51c2.61-2.18,5.28-4.28,8-6.26,1.78-1.29,3.54-2.61,5.35-3.84,2-1.36,4-2.74,6.07-3.94.36-.21.7-.46,1.05-.68a.4.4,0,0,0,.51-.28l1.66-1a.38.38,0,0,0,.5-.27l2.18-1.27a.83.83,0,0,0,.85-.44l2.35-1.35a.85.85,0,0,0,.85-.44l2.69-1.52a1.52,1.52,0,0,0,1.2-.61c1.87-1,3.75-2,5.69-2.81a.38.38,0,0,0,.52-.24l2.72-.95c.17.09.29.06.36-.14a36.83,36.83,0,0,1,6.51-1.6,46.85,46.85,0,0,1,6.36-.5,16.44,16.44,0,0,1,4.94.76,12.63,12.63,0,0,1,3.7,2.08c.64.49,1.24,1,1.83,1.57a11.91,11.91,0,0,1,2.78,3.86,24.88,24.88,0,0,1,2.06,6.95,21.83,21.83,0,0,1-.18,7,70.82,70.82,0,0,1-1.83,7.44c-.71,2.35-1.57,4.66-2.43,7-.72,1.94-1.45,3.87-2.24,5.78-1.31,3.23-2.76,6.39-4.28,9.52s-3.14,6.21-4.71,9.31a94,94,0,0,1-6.58,10.84q-1.5,2.19-3,4.37c-1.1,1.59-2.35,3.06-3.59,4.54a92.11,92.11,0,0,1-6.53,7,46.29,46.29,0,0,1-6.54,5.33c-1.08.71-2.15,1.43-3.22,2.15a.38.38,0,0,0-.5.28l-2,1.18A1.12,1.12,0,0,0,292,238.13Z"/><path class="cls-32" d="M303.24,146.93a1.52,1.52,0,0,1-1.2.61A1.35,1.35,0,0,1,303.24,146.93Z"/><path class="cls-32" d="M245.16,229.67a8.44,8.44,0,0,1,.81,2A4.14,4.14,0,0,1,245.16,229.67Z"/><path class="cls-32" d="M296.15,150.85a.83.83,0,0,1-.85.44A.77.77,0,0,1,296.15,150.85Z"/><path class="cls-32" d="M299.35,149.06a.85.85,0,0,1-.85.44A.77.77,0,0,1,299.35,149.06Z"/><path class="cls-32" d="M291,153.84a.4.4,0,0,1-.51.28A.35.35,0,0,1,291,153.84Z"/><path class="cls-32" d="M293.12,152.56a.38.38,0,0,1-.5.27A.35.35,0,0,1,293.12,152.56Z"/><path class="cls-32" d="M309.45,143.88a.38.38,0,0,1-.52.24C309,143.85,309.2,143.77,309.45,143.88Z"/><path class="cls-32" d="M312.53,142.79c-.07.2-.19.23-.36.14C312.24,142.72,312.36,142.69,312.53,142.79Z"/><path class="cls-7" d="M286.83,227.81c-4.62,2.15-8.66,3-12.91,2.5a17.57,17.57,0,0,1-9.9-4.21,15.79,15.79,0,0,1-4.89-7.7,19.58,19.58,0,0,1,1.08-13.54,25.13,25.13,0,0,1,6.48-8.93,26.7,26.7,0,0,1,7.29-4.61,22.54,22.54,0,0,1,10.46-1.86,17.8,17.8,0,0,1,10.79,4.28,16.07,16.07,0,0,1,5.16,8.75,19.75,19.75,0,0,1-.84,11.23,26,26,0,0,1-12.72,14.09Z"/><path class="cls-5" d="M32.42,348.09c.24-.22.15-.38.13-.53a46.8,46.8,0,0,1-.72-6.45c-.09-3.08,0-6.17.13-9.25a65.84,65.84,0,0,1,.62-6.56A35.89,35.89,0,0,1,34.5,318a54.51,54.51,0,0,1,5.16-9.61A68.56,68.56,0,0,1,45.12,301c1.53-1.8,3.09-3.57,4.72-5.28S53,292.59,54.59,291c2.3-2.28,4.63-4.55,7.07-6.69q3.41-3,6.84-5.93a57.76,57.76,0,0,1,7.11-5.26c1.48-.92,3-1.8,4.52-2.62q4.16-2.25,8.41-4.32c2.44-1.18,5.35-1.7,7.66-3s4-3.69,6.6-4.91a13.58,13.58,0,0,1,9.29-.94C119,259.27,125,268,125.78,274.86a60.52,60.52,0,0,1,.26,9c-.07,2.07-.21,4.13-.45,6.19a42.72,42.72,0,0,1-.91,5.13c-.6,2.56-1.17,5.12-1.8,7.67-.56,2.3-1.32,4.54-2,6.8q-.91,2.85-1.93,5.69c-.68,1.88-1.52,3.7-2.38,5.51a70.57,70.57,0,0,1-8.77,14.1A74,74,0,0,1,96,346.78a80.81,80.81,0,0,1-7.53,5.35,63.69,63.69,0,0,1-12.18,5.76,57.47,57.47,0,0,1-6.82,1.91A60.64,60.64,0,0,1,62.75,361a44.52,44.52,0,0,1-8.94.21c-1.73-.15-3.46-.32-5.2-.35a16.92,16.92,0,0,1-3.6-.53c-2-.46-4-.95-5.91-1.54A21.46,21.46,0,0,1,34,356.33c-1.17-.73-2.33-1.48-3.45-2.28a20.17,20.17,0,0,1-3.81-3.4A18.32,18.32,0,0,1,24,346.24a28.35,28.35,0,0,1-1.38-3.37,11.36,11.36,0,0,1-.52-3.38c0-.56,0-1.12,0-1.68a2.54,2.54,0,0,1,.25-1.24,1,1,0,0,1,.93-.6.81.81,0,0,1,.82,1,9.64,9.64,0,0,0-.13,3.12,8.94,8.94,0,0,0,.9,3.5c.2.42.37.85.54,1.27a16.46,16.46,0,0,0,5.12,6.86,51.44,51.44,0,0,0,5.9,3.9c.34.2.7.36,1,.54.13-.31-.13-.36-.26-.45A27.1,27.1,0,0,1,33.93,353a26.46,26.46,0,0,1-3.18-4.12c-1.05-1.63-2-3.31-3-5s-1.75-3.38-2.54-5.11a24.4,24.4,0,0,1-.93-2.6A25.33,25.33,0,0,1,23,329.41c0-.52,0-1,0-1.57a51.59,51.59,0,0,1,.52-7.85,8.49,8.49,0,0,1,.83-2.72,2.55,2.55,0,0,1,.23-.43.91.91,0,0,1,1.05-.33.93.93,0,0,1,.54,1.05,3.14,3.14,0,0,1-.25.64,8.34,8.34,0,0,0-.64,2.36,55.93,55.93,0,0,0-.46,7.76,21.83,21.83,0,0,0,.93,6,32.65,32.65,0,0,0,2.5,6.41c.93,1.74,1.92,3.44,2.9,5.15C31.49,346.62,32,347.33,32.42,348.09Z"/><path class="cls-31" d="M69.29,352.19c-1.64.8-3.25,1.66-4.92,2.38a36,36,0,0,1-6.6,2.12,45.53,45.53,0,0,1-12.68.91,31,31,0,0,1-10-2.41c-.71-.3-1.42-.6-2.12-.92a21.32,21.32,0,0,1-2.93-1.77c-1.26-.85-2.39-1.85-3.61-2.75a10.78,10.78,0,0,1-3.24-4.06,8.65,8.65,0,0,0-.82-2A24.32,24.32,0,0,1,21.05,336a93.8,93.8,0,0,1,.15-10.6,43.18,43.18,0,0,1,1.05-7.65,36.78,36.78,0,0,1,2-5.66c.89-2,1.88-4,2.91-5.91a50.21,50.21,0,0,1,3.5-5.58c1.2-1.68,2.42-3.33,3.74-4.92Q36.61,293,39,290.41a96.39,96.39,0,0,1,8.16-7.51c2.62-2.18,5.29-4.27,8-6.26,1.77-1.28,3.53-2.6,5.34-3.84,2-1.35,4-2.73,6.07-3.94.36-.21.7-.45,1.06-.68a.38.38,0,0,0,.5-.28l1.66-1a.39.39,0,0,0,.51-.28l2.17-1.26a.87.87,0,0,0,.86-.45l2.34-1.34a.86.86,0,0,0,.86-.45l2.69-1.51a1.52,1.52,0,0,0,1.19-.62c1.88-1,3.75-2,5.69-2.81a.37.37,0,0,0,.52-.23l2.73-1c.16.09.28.06.35-.14a36.94,36.94,0,0,1,6.52-1.6,45.14,45.14,0,0,1,6.35-.49,16.12,16.12,0,0,1,4.94.75,12.51,12.51,0,0,1,3.7,2.08c.64.49,1.25,1,1.84,1.57A12.08,12.08,0,0,1,115.9,263,24.72,24.72,0,0,1,118,270a21.54,21.54,0,0,1-.17,7,76.16,76.16,0,0,1-1.83,7.44c-.71,2.36-1.57,4.67-2.43,7-.73,1.94-1.46,3.87-2.24,5.79-1.32,3.22-2.77,6.38-4.28,9.52s-3.15,6.2-4.72,9.31a95.61,95.61,0,0,1-6.57,10.84c-1,1.46-2,2.91-3,4.37s-2.35,3.06-3.59,4.53a88.35,88.35,0,0,1-6.53,7A45.6,45.6,0,0,1,76,348.06c-1.08.71-2.14,1.43-3.21,2.15a.39.39,0,0,0-.51.28l-2,1.18A1.12,1.12,0,0,0,69.29,352.19Z"/><path class="cls-32" d="M80.49,261a1.52,1.52,0,0,1-1.19.62A1.32,1.32,0,0,1,80.49,261Z"/><path class="cls-32" d="M22.41,343.73a8.65,8.65,0,0,1,.82,2A4,4,0,0,1,22.41,343.73Z"/><path class="cls-32" d="M73.41,264.91a.87.87,0,0,1-.86.45A.78.78,0,0,1,73.41,264.91Z"/><path class="cls-32" d="M76.61,263.12a.86.86,0,0,1-.86.45A.78.78,0,0,1,76.61,263.12Z"/><path class="cls-32" d="M68.21,267.9a.38.38,0,0,1-.5.28C67.79,267.9,68,267.81,68.21,267.9Z"/><path class="cls-32" d="M70.38,266.62a.39.39,0,0,1-.51.28A.36.36,0,0,1,70.38,266.62Z"/><path class="cls-32" d="M86.7,258a.37.37,0,0,1-.52.23A.35.35,0,0,1,86.7,258Z"/><path class="cls-32" d="M89.78,256.85c-.07.2-.19.23-.35.14C89.49,256.78,89.61,256.75,89.78,256.85Z"/><path class="cls-7" d="M64.08,341.88c-4.62,2.14-8.65,3-12.91,2.49a17.56,17.56,0,0,1-9.9-4.2,15.75,15.75,0,0,1-4.88-7.7,19.56,19.56,0,0,1,1.07-13.55A25.16,25.16,0,0,1,44,310a26.41,26.41,0,0,1,7.28-4.61,22.44,22.44,0,0,1,10.47-1.87,17.75,17.75,0,0,1,10.78,4.29,16,16,0,0,1,5.16,8.75,19.54,19.54,0,0,1-.84,11.22,24.67,24.67,0,0,1-5.64,8.91A25,25,0,0,1,64.08,341.88Z"/><path class="cls-9" d="M254.92,168.27a63.36,63.36,0,0,0,1.71,6.81c1.61,4.36,5.61,7.73,7.87,11.81a48.37,48.37,0,0,1,4.59,34.59c-1.67,6.76-3.92,14.32-7.47,20.34a40.29,40.29,0,0,1-18.93,16.43c-3.63,1.54-8.64,1-11.92,3.12-2.91,1.88-4.84,5.16-8,7.05a15.23,15.23,0,0,1-8.71,2.4,9.21,9.21,0,0,1-7.51-4.56,15,15,0,0,1-1.25-6.06c-.35-5.79-5.3-7.7-9.17-11.26-10.12-9.32-10.77-26.88-8.15-39.42,2.33-11.14,7.51-21.81,15.53-29.87a47.29,47.29,0,0,1,19.87-12c3-.91,8.22-.46,10.8-1.93,2.87-1.64,3.67-5,7.26-6.17,4.45-1.46,8.27.32,11.08,3.81A12.59,12.59,0,0,1,254.92,168.27Z"/><path class="cls-10" d="M247.19,163.08a9.31,9.31,0,0,0-.42-5.78c-1.29-3.09-4.17-5.25-7.17-6.73s-6.25-2.46-9.19-4.08-5.66-4-6.54-7.27a11.68,11.68,0,0,0,.19,10.3,12.27,12.27,0,0,0,8.5,6.26c1.59.29,3.24.26,4.82.62a10.08,10.08,0,0,1,6.7,5.37,6.18,6.18,0,0,0,1,1.78,1.48,1.48,0,0,0,1.88.29C247.87,163.15,246.91,164.17,247.19,163.08Z"/><path class="cls-7" d="M245.12,162.14a8,8,0,0,0,2-8.24c-.26-.75-.6-1.69,0-2.24a1.23,1.23,0,0,1,.57-.31,2.76,2.76,0,0,1,3,1.87,6.65,6.65,0,0,1-.06,3.85,23.91,23.91,0,0,1-2,5.22,3.92,3.92,0,0,1-1.11,1.46,1.51,1.51,0,0,1-1.73.08c-.77-.58-.49-1.78-.13-2.67"/><path class="cls-9" d="M274.4,245.75a64.56,64.56,0,0,0,1.71,6.81c1.61,4.35,5.61,7.73,7.87,11.8a48.46,48.46,0,0,1,4.6,34.59c-1.68,6.77-3.93,14.33-7.47,20.35a40.4,40.4,0,0,1-18.94,16.42c-3.63,1.55-8.64,1-11.92,3.13-2.91,1.88-4.84,5.15-8,7a15.12,15.12,0,0,1-8.71,2.39,9.21,9.21,0,0,1-7.51-4.56,15,15,0,0,1-1.25-6.05c-.35-5.8-5.3-7.71-9.17-11.27-10.12-9.31-10.77-26.87-8.15-39.42,2.33-11.14,7.51-21.8,15.54-29.87a47.3,47.3,0,0,1,19.86-12c3-.91,8.22-.45,10.8-1.93,2.87-1.64,3.67-5,7.26-6.17,4.45-1.46,8.27.32,11.08,3.82A12.52,12.52,0,0,1,274.4,245.75Z"/><path class="cls-10" d="M266.67,240.56a9.2,9.2,0,0,0-.42-5.79c-1.29-3.09-4.17-5.24-7.17-6.73s-6.25-2.46-9.19-4.07-5.66-4.05-6.54-7.28a11.68,11.68,0,0,0,.19,10.3,12.24,12.24,0,0,0,8.5,6.26c1.59.29,3.24.26,4.82.63a10,10,0,0,1,6.7,5.36,6.05,6.05,0,0,0,1,1.78,1.5,1.5,0,0,0,1.88.3C267.35,240.63,266.4,241.65,266.67,240.56Z"/><path class="cls-7" d="M264.6,239.61a8,8,0,0,0,2-8.23c-.26-.75-.6-1.69,0-2.25a1.2,1.2,0,0,1,.58-.3,2.74,2.74,0,0,1,3,1.87,6.53,6.53,0,0,1-.06,3.84,23.23,23.23,0,0,1-2,5.22,3.92,3.92,0,0,1-1.11,1.46,1.49,1.49,0,0,1-1.73.08c-.76-.58-.49-1.77-.13-2.67"/><rect class="cls-5" x="37.14" y="221.85" width="11.4" height="142.74"/><rect class="cls-5" x="292.43" y="221.85" width="11.4" height="142.74"/><rect class="cls-33" y="270.73" width="334.79" height="43.52" rx="12.26"/><rect class="cls-33" y="322.95" width="334.79" height="43.52" rx="12.26"/><rect class="cls-33" y="218.51" width="334.79" height="43.52" rx="12.26"/><circle class="cls-5" cx="42.84" cy="240.18" r="5.7"/><circle class="cls-5" cx="298.13" cy="240.18" r="5.7"/><circle class="cls-5" cx="42.84" cy="294.48" r="5.7"/><circle class="cls-5" cx="298.13" cy="294.48" r="5.7"/><circle class="cls-5" cx="42.84" cy="344.71" r="5.7"/><circle class="cls-5" cx="298.13" cy="344.71" r="5.7"/></g></g></svg>