<svg xmlns="http://www.w3.org/2000/svg" viewBox="0 0 870.53 785.87"><defs><style>.cls-1{isolation:isolate;}.cls-2{fill:#f1f2f2;}.cls-3{fill:none;stroke:#f17934;stroke-linecap:round;stroke-linejoin:round;stroke-width:6px;stroke-dasharray:12;}.cls-4{fill:#74be44;}.cls-5{fill:#0a4f2e;}.cls-6,.cls-9{fill:#e8ddc7;mix-blend-mode:multiply;}.cls-7{fill:#ffb600;}.cls-8{fill:#faa71a;}.cls-9{opacity:0.67;}.cls-10{fill:#bc8f2d;}.cls-11{fill:#699480;}.cls-12{fill:#e6eda9;}.cls-13{fill:#f17934;}.cls-14{fill:#fabe44;}.cls-15{fill:#377257;}.cls-16{fill:#fbcf74;}.cls-17{fill:#faf396;}.cls-18{fill:#fcc70e;}.cls-19{fill:#fab01b;}.cls-20{fill:#db8e27;}</style></defs><g class="cls-1"><g id="Layer_1" data-name="Layer 1"><path class="cls-2" d="M524.59,613.68a126.59,126.59,0,0,0,20.33,5.84c71.15,13.94,151.85,5.74,218.23-23.35C829.74,567,872.83,521.6,870.43,446.32c-2.34-73.62-59.38-139.82-135.56-146.44-54.18-4.7-111.81,19.43-161.46-2.74-58.21-26-82.44-93.75-140-124.52-65.91-35.25-126-61.75-202.83-45.77-78,16.2-146.13,69.67-185.93,138.66C.6,341.93-18.75,442.47,23.55,522.17c24.46,46.1,33.82,77.71,83.82,102.09,17.62,8.59,35.89,16.79,55.39,18.77s40.69-3.21,53.75-17.83c11.1-12.4,14.88-29.54,22.64-44.26,24-45.52,84.14-61.66,134.39-50.6C432.86,543.39,472.12,593.92,524.59,613.68Z"/><path class="cls-2" d="M397.47,618.91c14.44,16.39,19.08,36.69,2.27,53.83-16.56,16.88-42.62,23.74-65.34,17.21s-41.17-26.18-46.24-49.28c-2-9.1-2-19,2-27.38C310.09,571.56,370.66,588.5,397.47,618.91Z"/><path class="cls-2" d="M650.38,197.43c14.44,16.38,19.08,36.68,2.27,53.83C636.09,268.14,610,275,587.31,268.46s-41.16-26.18-46.24-49.27c-2-9.11-2-19,2-27.38C563,150.07,623.58,167,650.38,197.43Z"/><circle class="cls-3" cx="446.74" cy="471.22" r="311.65"/><path class="cls-4" d="M827.08,232.5c-.08,0-.21,0-.29.08a.8.8,0,0,1,.25-.33Z"/><path class="cls-4" d="M832.2,298c-8.23-13.9-12.39-26-13.31-36.37-.13-1.6-.21-3.11-.21-4.62C826.83,267.65,832,281.52,832.2,298Z"/><path class="cls-5" d="M857.78,331.83c-11-12.26-19.44-23.52-25.58-33.81-.25-16.5-5.37-30.37-13.52-41a39.87,39.87,0,0,1,8.11-24.45c.08,0,.21,0,.29-.08l0-.25v-.05c8.86,2.9,17.26,9,23.31,19.75C859.21,267.74,863,293.57,857.78,331.83Z"/><path class="cls-6" d="M827.08,232.5c-.08,0-.21,0-.29.08a.8.8,0,0,1,.25-.33Z"/><path class="cls-6" d="M832.2,298c-8.23-13.9-12.39-26-13.31-36.37-.13-1.6-.21-3.11-.21-4.62C826.83,267.65,832,281.52,832.2,298Z"/><path class="cls-7" d="M832.2,298c.21,10.71-1.68,22.6-6.13,35.37a124.13,124.13,0,0,1-159.53,76q-5-1.82-9.7-3.94c-3.23-1.52-6.34-3.15-9.41-4.88-.54-.29-1-.63-1.55-1-15.88-10.29-15.29-34.23,1.43-43.81,24.65-14.07,45-36.5,55.06-65.44,18.57-53.47,62.25-66.32,93.84-51.54-.92,1.09-1.85,2.18-2.69,3.32-5-1.47-9.49-.8-10.92,1.93-1.89,3.61,2,9.41,8.78,12.94s13.73,3.57,15.62,0c1.39-2.61-.29-6.35-3.9-9.54.84-1,1.72-2.06,2.64-3A59.16,59.16,0,0,1,818.68,257c0,1.51.08,3,.21,4.62C819.81,272,824,284.12,832.2,298Z"/><path class="cls-8" d="M807,257c-1.89,3.61-8.9,3.61-15.62,0s-10.67-9.33-8.78-12.94c1.43-2.73,5.92-3.4,10.92-1.93.84-1.14,1.77-2.23,2.69-3.32,1.68.8,3.36,1.64,5,2.6a53.47,53.47,0,0,1,4.57,3c-.92,1-1.8,2-2.64,3C806.71,250.64,808.39,254.38,807,257Z"/><path class="cls-8" d="M832.2,298c-8.23-13.9-12.39-26-13.31-36.37-.13-1.6-.21-3.11-.21-4.62C826.83,267.65,832,281.52,832.2,298Z"/><path class="cls-9" d="M814.44,358.51a124.2,124.2,0,0,1-147.64,51c-3.41-1.22-6.72-2.6-10-4.07q4.73,2.13,9.7,3.94a124.15,124.15,0,0,0,147.14-50.32A7.67,7.67,0,0,0,814.44,358.51Z"/><path class="cls-6" d="M807,257c-1.89,3.61-8.9,3.61-15.62,0s-10.67-9.33-8.78-12.94c1.43-2.73,5.92-3.4,10.92-1.93a22.88,22.88,0,0,1,4.7,1.89c.17.08.3.17.47.25a22.35,22.35,0,0,1,4.41,3.15C806.71,250.64,808.39,254.38,807,257Z"/><path class="cls-10" d="M827.08,232.5c-.08,0-.21,0-.29.08a42.32,42.32,0,0,0-21,11.85c-.92,1-1.8,2-2.64,3s-1.64,2.19-2.4,3.32a4.61,4.61,0,0,1-.71.8,4,4,0,0,1-3.74,1.05,4.84,4.84,0,0,1-1.09-.38l-1.35-.71-.79-.42a4.15,4.15,0,0,1-1.6-5.88c.67-1.06,1.39-2.06,2.1-3.07s1.77-2.23,2.69-3.32A53.09,53.09,0,0,1,824.77,222l1.05,4.87L827,232.2v.05Z"/><path class="cls-6" d="M827.08,232.5c-.08,0-.21,0-.29.08a42.32,42.32,0,0,0-21,11.85c-.92,1-1.8,2-2.64,3s-1.64,2.19-2.4,3.32a4.61,4.61,0,0,1-.71.8,4.25,4.25,0,0,1-3.74,1.05,4.84,4.84,0,0,1-1.09-.38l-1.35-.71a50.3,50.3,0,0,1,4.88-7.23c.8-1,1.59-1.93,2.48-2.86a51.59,51.59,0,0,1,24.65-14.61L827,232.2v.05Z"/><path class="cls-5" d="M613.08,732.35c.42-.37.26-.65.22-.91a79.1,79.1,0,0,1-1.23-11.07c-.16-5.29-.06-10.58.22-15.87a111.66,111.66,0,0,1,1.06-11.26,61.33,61.33,0,0,1,3.3-12.56,91.66,91.66,0,0,1,8.86-16.51,117.2,117.2,0,0,1,9.37-12.6c2.63-3.09,5.3-6.14,8.11-9.07,2.65-2.76,5.42-5.4,8.14-8.1,4-3.93,8-7.82,12.14-11.49,3.9-3.41,7.8-6.82,11.74-10.18a99.8,99.8,0,0,1,12.21-9c2.54-1.56,5.12-3.08,7.75-4.49,4.77-2.56,9.58-5.05,14.45-7.41,4.18-2,9.17-2.92,13.13-5.18,4.11-2.34,6.86-6.34,11.33-8.43a23.28,23.28,0,0,1,16-1.61c11.8,3.32,22.12,18.26,23.5,30.08a104.34,104.34,0,0,1,.45,15.51c-.12,3.55-.37,7.09-.77,10.61a75.4,75.4,0,0,1-1.57,8.82c-1,4.39-2,8.79-3.09,13.17-1,3.94-2.26,7.79-3.49,11.66-1,3.27-2.13,6.53-3.3,9.77s-2.62,6.35-4.09,9.46a121.5,121.5,0,0,1-15.06,24.2,126.46,126.46,0,0,1-20.27,20.25,137.55,137.55,0,0,1-12.93,9.19,109.44,109.44,0,0,1-20.9,9.89,98.69,98.69,0,0,1-11.71,3.28,103.87,103.87,0,0,1-11.47,2,77.09,77.09,0,0,1-15.34.37c-3-.27-5.94-.55-8.93-.6a29.49,29.49,0,0,1-6.18-.92c-3.4-.79-6.79-1.64-10.14-2.64a36.68,36.68,0,0,1-8.83-4.19c-2-1.26-4-2.53-5.92-3.92a33.83,33.83,0,0,1-6.53-5.83,31.38,31.38,0,0,1-4.73-7.56,49.14,49.14,0,0,1-2.36-5.79,19.12,19.12,0,0,1-.91-5.81c0-1,0-1.92,0-2.87a4.52,4.52,0,0,1,.44-2.14,1.63,1.63,0,0,1,1.59-1,1.39,1.39,0,0,1,1.41,1.7c-.56,1.79-.27,3.59-.23,5.37a15.3,15.3,0,0,0,1.56,6c.33.72.62,1.45.92,2.18a28.3,28.3,0,0,0,8.78,11.77,87.85,87.85,0,0,0,10.13,6.7c.59.34,1.2.61,1.81.92.23-.54-.23-.61-.45-.77a45.83,45.83,0,0,1-5.52-4.7,44.08,44.08,0,0,1-5.46-7.08c-1.81-2.79-3.44-5.68-5.1-8.56s-3-5.81-4.36-8.78a44.47,44.47,0,0,1-1.59-4.45,43.51,43.51,0,0,1-2.34-11.55c-.05-.9-.05-1.8-.06-2.7a90.63,90.63,0,0,1,.89-13.47,14.47,14.47,0,0,1,1.43-4.67,5.76,5.76,0,0,1,.39-.74,1.55,1.55,0,0,1,1.8-.56,1.58,1.58,0,0,1,.94,1.79,5.7,5.7,0,0,1-.43,1.1,13.59,13.59,0,0,0-1.1,4.06,93.94,93.94,0,0,0-.79,13.3,38,38,0,0,0,1.59,10.32,56.42,56.42,0,0,0,4.3,11c1.59,3,3.29,5.9,5,8.83C611.49,729.83,612.28,731.06,613.08,732.35Z"/><path class="cls-11" d="M676.37,739.39c-2.82,1.37-5.59,2.86-8.45,4.08a61,61,0,0,1-11.32,3.65,77.92,77.92,0,0,1-21.77,1.55,53.13,53.13,0,0,1-17.1-4.12c-1.22-.52-2.44-1-3.64-1.58a36.71,36.71,0,0,1-5-3.05c-2.17-1.44-4.11-3.18-6.2-4.72a18.49,18.49,0,0,1-5.57-7,14.2,14.2,0,0,0-1.4-3.36,41.36,41.36,0,0,1-2.33-13.29,157.8,157.8,0,0,1,.25-18.19,75.81,75.81,0,0,1,1.8-13.13,61.73,61.73,0,0,1,3.37-9.72c1.52-3.46,3.22-6.83,5-10.16a86.66,86.66,0,0,1,6-9.57c2.07-2.88,4.17-5.72,6.43-8.44,2.57-3.11,5.26-6.11,8-9a162.54,162.54,0,0,1,14-12.89c4.48-3.74,9.07-7.34,13.78-10.75,3.06-2.2,6.07-4.47,9.18-6.58,3.43-2.34,6.84-4.7,10.42-6.77.62-.36,1.21-.78,1.81-1.17a.68.68,0,0,0,.87-.48l2.85-1.72a.66.66,0,0,0,.86-.48l3.74-2.17a1.46,1.46,0,0,0,1.46-.76l4-2.31a1.48,1.48,0,0,0,1.47-.76l4.62-2.6a2.69,2.69,0,0,0,2.05-1.07c3.22-1.69,6.44-3.38,9.76-4.81a.66.66,0,0,0,.9-.41l4.67-1.63c.28.14.49.09.61-.25A64.26,64.26,0,0,1,722.72,573a80.17,80.17,0,0,1,10.91-.85,27.94,27.94,0,0,1,8.49,1.31,21.41,21.41,0,0,1,6.35,3.57c1.09.84,2.13,1.75,3.15,2.69a20.56,20.56,0,0,1,4.76,6.63,42.6,42.6,0,0,1,3.54,11.92,37.17,37.17,0,0,1-.31,12A123.21,123.21,0,0,1,756.47,623c-1.22,4-2.69,8-4.17,12-1.24,3.32-2.5,6.64-3.84,9.93-2.26,5.53-4.75,11-7.35,16.34s-5.39,10.65-8.09,16a162.87,162.87,0,0,1-11.29,18.61c-1.72,2.5-3.44,5-5.17,7.5-1.89,2.73-4,5.25-6.16,7.79a155.5,155.5,0,0,1-11.21,12A77.37,77.37,0,0,1,688,732.3c-1.84,1.22-3.67,2.47-5.51,3.7a.66.66,0,0,0-.87.48l-3.43,2A2,2,0,0,0,676.37,739.39Z"/><path class="cls-12" d="M695.6,582.84a2.69,2.69,0,0,1-2.05,1.07A2.3,2.3,0,0,1,695.6,582.84Z"/><path class="cls-12" d="M595.9,724.88a14.2,14.2,0,0,1,1.4,3.36A7,7,0,0,1,595.9,724.88Z"/><path class="cls-12" d="M683.43,589.58a1.46,1.46,0,0,1-1.46.76A1.31,1.31,0,0,1,683.43,589.58Z"/><path class="cls-12" d="M688.93,586.51a1.48,1.48,0,0,1-1.47.76A1.33,1.33,0,0,1,688.93,586.51Z"/><path class="cls-12" d="M674.52,594.71a.68.68,0,0,1-.87.48Q673.86,594.47,674.52,594.71Z"/><path class="cls-12" d="M678.23,592.51a.66.66,0,0,1-.86.48C677.51,592.52,677.8,592.35,678.23,592.51Z"/><path class="cls-12" d="M706.26,577.62a.66.66,0,0,1-.9.41C705.54,577.57,705.84,577.43,706.26,577.62Z"/><path class="cls-12" d="M711.54,575.74c-.12.34-.33.39-.61.25C711,575.63,711.25,575.57,711.54,575.74Z"/><path class="cls-13" d="M667.43,721.69c-7.93,3.68-14.86,5.09-22.17,4.29a30.27,30.27,0,0,1-17-7.22,27.1,27.1,0,0,1-8.38-13.22c-2.31-8-1.4-15.72,1.84-23.26A43.16,43.16,0,0,1,632.87,667a45.3,45.3,0,0,1,12.51-7.91,38.49,38.49,0,0,1,18-3.21,30.43,30.43,0,0,1,18.51,7.36,27.53,27.53,0,0,1,8.86,15,33.68,33.68,0,0,1-1.44,19.26,44.65,44.65,0,0,1-21.83,24.2Z"/><path class="cls-14" d="M260,635c.78,2.92,1.08,5.94,2.33,9.32,2.22,6,7.69,10.59,10.78,16.17a66.29,66.29,0,0,1,6.3,47.38c-2.29,9.27-5.38,19.62-10.23,27.87a55.26,55.26,0,0,1-25.94,22.5c-5,2.11-11.82,1.36-16.33,4.28-4,2.57-6.63,7.06-11,9.65A20.77,20.77,0,0,1,204,775.45c-4.18-.3-8.35-2.53-10.29-6.24-1.32-2.52-1.54-5.45-1.71-8.29-.48-7.94-7.27-10.56-12.57-15.44-13.86-12.76-14.75-36.81-11.15-54,3.19-15.26,10.28-29.87,21.27-40.92a64.93,64.93,0,0,1,27.21-16.43c4.16-1.24,11.26-.62,14.79-2.64,3.93-2.25,5-6.85,9.95-8.46,6.09-2,11.33.45,15.17,5.23A17.34,17.34,0,0,1,260,635Z"/><path class="cls-15" d="M249.36,627.89a12.65,12.65,0,0,0-.58-7.92c-1.76-4.24-5.71-7.19-9.82-9.23s-8.56-3.37-12.59-5.57-7.74-5.54-9-10a16.07,16.07,0,0,0,.27,14.11,16.76,16.76,0,0,0,11.64,8.57c2.18.4,4.44.36,6.6.86a13.76,13.76,0,0,1,9.18,7.34,8.38,8.38,0,0,0,1.41,2.45,2.05,2.05,0,0,0,2.57.4C250.3,628,249,629.38,249.36,627.89Z"/><path class="cls-13" d="M246.52,626.6a10.94,10.94,0,0,0,2.74-11.28c-.36-1-.82-2.32,0-3.08a1.78,1.78,0,0,1,.79-.42c1.72-.45,3.52.9,4.14,2.57a8.91,8.91,0,0,1-.08,5.26,32.73,32.73,0,0,1-2.72,7.15,5.41,5.41,0,0,1-1.53,2,2.07,2.07,0,0,1-2.37.11c-1-.8-.66-2.43-.18-3.66"/><path class="cls-5" d="M318.66,454.8l15.36,12-14.45,27.69c-7.23,12.76,5.19,25.2,13.09,29.53s19.88,4.77,31.17,4.61l20.32-33.22,15.35,8.31-26.64-49.37Zm2.26,67.77,33,60.9c6.62,8.46,19.12,10.46,32.06,10.16h34.78V536l-65.94-.46C344.56,536.1,331.16,534,320.92,522.57ZM528.34,410.32l-17.94,7.62-17.21-26.06c-7.66-12.51-24.56-7.69-32.18-2.87s-13.8,15.07-19.14,25l19.21,33.88-14.71,9.4,56.1.64ZM468,379.44l-69.25-.69c-10.61,1.69-18.42,11.65-24.43,23.12l-16.86,30.42,50.45,28,32.37-57.45C444.67,393.55,453.05,382.88,468,379.44Zm3,235,2-19.38,31.13-2.42c14.66-.63,18.63-17.75,18.11-26.75s-6.49-19.38-12.6-28.87l-39,.37L469.62,520l-27.75,48.76Zm56.28-37.83,34.18-60.23c3.66-10.1-1.26-21.76-8.38-32.57l-18.43-29.49L485.72,484.9l34.54,56.16C526.21,549.41,531.48,561.92,527.26,576.63Z"/><path class="cls-16" d="M414,206.1A283.69,283.69,0,0,1,323.65,77.67a75.54,75.54,0,0,1-1.26-46.33C325.55,20.8,334.09,1.86,346.64.13,365-2.4,379.36,32.75,383.37,46.43a217.17,217.17,0,0,0,77.94,112.36Z"/><path class="cls-7" d="M433.1,126.35a253.7,253.7,0,0,0,80.82,59.43,121.18,121.18,0,0,1,36.69,26.75h0a51.8,51.8,0,0,0,30.19,15.33q11,1.6,22.37,2.32-.64,10.11-1.28,20.23c-4.85-.3-9.68-.72-14.46-1.26-18.35-2-36.38.55-52.48,7.83h0c-16,7.39-36.72,7.06-54.77-1.46a331.25,331.25,0,0,1-101.89-74.36Z"/><path class="cls-17" d="M431.08,77.18c16.09-17.68,48.16-27.05,79.17-9.7a15.54,15.54,0,0,1,4.41,3.67,16.18,16.18,0,0,1,.7,23.59c-5.54,5.54-15.18,7.42-21.66,3C469.06,81,444,80.93,425.25,90.5h0c-5.19,11.75-3.39,24.57,7.87,35.83l-24,24c-.62-.63-1.16-1.26-1.72-1.9l-.09.09c-16-16-12-36.2,2.47-50.15Z"/><path class="cls-7" d="M431.08,77.18c16.09-17.68,48.16-27.05,79.17-9.7a15.54,15.54,0,0,1,4.41,3.67,16.18,16.18,0,0,1,.7,23.59c-5.54,5.54-15.18,7.42-21.66,3C469.06,81,444,80.93,425.25,90.5h0c-5.19,11.75-3.39,24.57,7.87,35.83l-24,24c-.62-.63-1.16-1.26-1.72-1.9l-.09.09c-16-16-12-36.2,2.47-50.15Z"/><path class="cls-7" d="M425.25,90.49c-5.2,11.77-3.41,24.59,7.85,35.86l-2.74,19.11-21.22,4.85C388.81,130,400.75,103,425.25,90.49Z"/><path class="cls-16" d="M425.78,86.2a54.68,54.68,0,0,0-13.53,9.68l20.9-20.79c15.52-17,46.45-26.08,76.36-9.35a15.61,15.61,0,1,1-16.76,26.31C469,75.87,443.84,77,425.78,86.2Z"/><path class="cls-17" d="M336,172.26c-17.67,16.08-27.05,48.15-9.69,79.16a15.72,15.72,0,0,0,3.66,4.42,16.19,16.19,0,0,0,23.59.7c5.54-5.54,7.43-15.18,3-21.66-16.77-24.64-16.83-49.73-7.26-68.45v0c11.76-5.19,24.58-3.4,35.83,7.86l24-24c-.62-.63-1.26-1.16-1.89-1.73l.08-.08c-16-16-36.2-12-50.15,2.47Z"/><path class="cls-7" d="M336,172.26c-17.67,16.08-27.05,48.15-9.69,79.16a15.72,15.72,0,0,0,3.66,4.42,16.19,16.19,0,0,0,23.59.7c5.54-5.54,7.43-15.18,3-21.66-16.77-24.64-16.83-49.73-7.26-68.45v0c11.76-5.19,24.58-3.4,35.83,7.86l24-24c-.62-.63-1.26-1.16-1.89-1.73l.08-.08c-16-16-36.2-12-50.15,2.47Z"/><path class="cls-7" d="M349.32,166.42c8-2.91,17.71,3.48,29,14.74L399,173.78l10.16-23.47C388.81,130,361.84,141.92,349.32,166.42Z"/><path class="cls-16" d="M345,167a55,55,0,0,1,9.69-13.54l-20.79,20.91c-17.05,15.51-26.09,46.44-9.35,76.35a15.61,15.61,0,1,0,26.31-16.76C334.7,210.16,335.79,185,345,167Z"/><path class="cls-7" d="M409.14,150.31a286.38,286.38,0,0,0,193.25,92.21c-.17,2.63-.33,5.26-.5,7.89-4.85-.3-9.68-.72-14.46-1.26-18.35-2-36.38.55-52.48,7.83h0c-16,7.39-36.72,7.06-54.77-1.46a331.25,331.25,0,0,1-101.89-74.36Z"/><path class="cls-18" d="M215.36,453.87q.48,2,.87,3.84Q215.84,455.84,215.36,453.87Z"/><path class="cls-18" d="M214.3,449.83c.37,1.34.72,2.66,1,3.95C215,452.49,214.67,451.17,214.3,449.83Z"/><path class="cls-5" d="M175.38,310.66l32.94-7.9-27.39,40.62c-10-8-22.92-14.68-39.67-18.81-1.28-.3-2.58-.6-3.9-.89a99.9,99.9,0,0,0-26.17,10,.53.53,0,0,0-.1.06,108.38,108.38,0,0,0-12.46,7.88h0L75.48,299.05,108,312.65,76.39,256.93l36.76,26.6-17.69-46,23,10.82L142.66,181l28.53,70.27,17.63-15.09-16.45,45.22,36.87-21.14Z"/><path class="cls-18" d="M101.92,525c-.69-.17-1.35-.37-2-.56C100.57,524.58,101.23,524.78,101.92,525Z"/><path class="cls-18" d="M193.44,515.81c-.66.48-1.34.94-2,1.37C192.1,516.75,192.78,516.29,193.44,515.81Z"/><path class="cls-18" d="M106.22,525.92c-.66-.13-1.29-.28-1.93-.42C104.93,525.64,105.56,525.79,106.22,525.92Z"/><path class="cls-18" d="M191.31,517.25c-.75.47-1.52.91-2.3,1.34C189.79,518.16,190.56,517.72,191.31,517.25Z"/><path class="cls-18" d="M165.91,525.69c-1.25.2-2.53.37-3.82.53C163.39,526.06,164.66,525.89,165.91,525.69Z"/><path class="cls-18" d="M188.71,518.75c-.73.39-1.47.77-2.23,1.13C187.24,519.52,188,519.14,188.71,518.75Z"/><path class="cls-18" d="M161.64,526.28c-1.27.15-2.56.29-3.88.42C159.08,526.57,160.37,526.43,161.64,526.28Z"/><path class="cls-19" d="M147.76,527.43c3.44-.18,6.74-.41,9.9-.72l-4.21-5.29Z"/><path class="cls-19" d="M106.44,526a102.39,102.39,0,0,0,10.64,1.46l-5.49-6.89Z"/><path class="cls-19" d="M190.9,449.77l-20.84,24-19.63-24.66-22.35,23.61-19.51-24.51-21.77,23L58.15,448a184.52,184.52,0,0,0,2.56,28l26.91,21.78,22.94-24.21,19.5,24.5,22.36-23.6,19.38,24.35L192,475.5l17.55,17.73a105,105,0,0,0,5.08-24c-.15,1.39-.31,2.75-.49,4.07Z"/><path class="cls-19" d="M190.24,374,169.4,398l-19.62-24.65L127.42,397l-19.5-24.5-21.78,23-20-16.22a108.63,108.63,0,0,0-6.45,26l25,20.19,22.93-24.21,19.5,24.5,22.36-23.6,19.39,24.35L189,403.19,215.6,430c.06,1.78.11,3.53.15,5.24-.17-7.48-.56-15.55-1.16-24.28a87.37,87.37,0,0,0-2.08-19.43c.45,2.14.81,4.16,1.08,6Z"/><path class="cls-19" d="M189.39,413.62l-20.84,24L148.93,413l-22.36,23.6-19.5-24.5-21.78,23L58.88,413.67c.08-1.41.19-2.79.31-4.16-.13,1.51-.25,3-.34,4.59-.49,9-.76,17.33-.78,25.16l.19-.21L86.11,461.6l22.94-24.22,19.5,24.5,22.36-23.6,19.39,24.35,20.23-23.29,24.61,24.87c-.11,1.49-.25,3-.4,4.37a265,265,0,0,0,1-33.29c0,1.71.07,3.39.09,5Z"/><path class="cls-18" d="M104.37,333c2.28-1.46,4.53-2.77,6.72-4A106.2,106.2,0,0,0,98.63,337a99,99,0,0,0-12.49,10.89l2.38,1.92Z"/><path class="cls-19" d="M171.57,509.92l-19.63-24.65-22.35,23.6-19.5-24.5-21.78,23-25-20.2C69.09,506.3,80,518.29,98.53,524l13.54-14.3,14.51,18.23q3.06.06,6.3,0l4.73-.1,16.32-17.23,12,15.1a74.89,74.89,0,0,0,20.4-5.75l7.2-8.29,2.29,2.32c-.66.56-1.35,1.09-2.06,1.6a42.07,42.07,0,0,0,12.81-15.32l-14.18-14.32Z"/><path class="cls-19" d="M141.26,319.94h0a15.92,15.92,0,0,0-8.08.14,108.75,108.75,0,0,0-21.95,9c.72-.39,1.43-.76,2.13-1.12L131,350.06l22.36-23.6,19.39,24.35,9.54-11q2.81,2.32,5.29,4.77l-15.07,17.35-19.62-24.65-22.36,23.6L111,336.39l-21.77,23-7.76-6.28c1.53-1.84,3.1-3.58,4.69-5.24A93.05,93.05,0,0,0,69,372.51l16.46,13.33,22.94-24.22,19.51,24.5,22.35-23.6,19.39,24.35,20.23-23.29,21,21.18c-4.06-14.41-12.49-32.12-29.91-46C171,330.77,158,324.06,141.26,319.94Z"/><path class="cls-13" d="M89.2,359.38l21.77-23,19.51,24.5,22.36-23.6,19.62,24.65,15.07-17.35q-2.49-2.44-5.29-4.77l-9.54,11-19.39-24.35L131,350.06l-17.63-22.15c-.7.36-1.41.73-2.13,1.12l-.1.06c-2.19,1.18-4.44,2.49-6.72,4L88.52,349.78l-2.38-1.92h0c-1.59,1.66-3.16,3.4-4.69,5.24Z"/><path class="cls-13" d="M169.64,386.87l-19.39-24.35-22.35,23.6-19.51-24.5L85.45,385.84,69,372.51h0l-.06.12c-.48,1-.94,2-1.39,3.07-.05.11-.09.22-.14.32-.42,1-.83,2-1.24,3l-.06.16h0l20,16.22,21.78-23,19.5,24.5,22.36-23.6L169.4,398l20.84-24,23.35,23.59c-.27-1.87-.63-3.89-1.08-6v0c-.23-1-.47-2.14-.74-3.25a.64.64,0,0,1,0-.07c-.27-1.09-.56-2.21-.88-3.34l0-.11h0l-21-21.18Z"/><path class="cls-13" d="M189,403.19l-20.23,23.29L149.4,402.13,127,425.73l-19.5-24.5L84.61,425.44l-25-20.19h0a.2.2,0,0,1,0,.07c-.15,1.26-.29,2.53-.41,3.83,0,.12,0,.24,0,.36-.12,1.37-.23,2.75-.31,4.16l26.41,21.38,21.78-23,19.5,24.5L148.93,413l19.62,24.65,20.84-24,26.45,26.72c0-1.66-.05-3.34-.09-5h0c0-1.71-.09-3.46-.15-5.24Z"/><path class="cls-13" d="M190.53,439.34,170.3,462.63l-19.39-24.35-22.36,23.6-19.5-24.5L86.11,461.6,58.26,439.05l-.19.21,0,0c0,.7,0,1.39,0,2.08,0,.52,0,1,0,1.54,0,1.73,0,3.44.08,5.11h0L86.8,471.2l21.77-23,19.51,24.51,22.35-23.61,19.63,24.66,20.84-24,23.28,23.52c.18-1.32.34-2.68.49-4.07,0-.21.05-.43.07-.64.15-1.42.29-2.88.4-4.37Z"/><path class="cls-13" d="M171.8,498.79l-19.38-24.35L130.06,498l-19.5-24.5L87.62,497.75,60.71,476h0l.06.31c.07.4.15.79.23,1.19.22,1.15.46,2.28.71,3.39.07.31.13.62.2.92.29,1.23.6,2.42.93,3.59.12.43.24.87.36,1.29.05.16.09.33.14.49l0,0,25,20.2,21.78-23,19.5,24.5,22.35-23.6,19.63,24.65,20.84-24,14.18,14.32h0c.54-1.06,1-2.17,1.55-3.33l0-.08c.5-1.16,1-2.36,1.41-3.61h0L192,475.5Z"/><path class="cls-13" d="M137.61,527.82h.26l4.54-.14.86,0c1.46-.06,2.9-.12,4.31-.2h.18l5.69-6,4.21,5.29h.1c1.32-.13,2.61-.27,3.88-.42l.45-.06c1.29-.16,2.57-.33,3.82-.53h0l-12-15.1Z"/><path class="cls-20" d="M193.55,511.65l-7.2,8.29h0l.14-.07c.76-.36,1.5-.74,2.23-1.13l.3-.16c.78-.43,1.55-.87,2.3-1.34l.1-.07c.69-.43,1.37-.89,2-1.37l.34-.24c.71-.51,1.4-1,2.06-1.6Z"/><path class="cls-13" d="M98.53,524l0,0,1.39.38c.67.19,1.33.39,2,.56s1.57.37,2.37.55c.64.14,1.27.29,1.93.42l.21.05h0l5.15-5.43,5.49,6.89h0c.76.07,1.55.11,2.32.16s1.39.11,2.11.15c1.65.09,3.33.15,5.06.19h0l-14.51-18.23Z"/></g></g></svg>