<svg id="Layer_1" data-name="Layer 1" xmlns="http://www.w3.org/2000/svg" viewBox="0 0 532.11 368.78"><defs><style>.cls-1{font-size:60.07px;fill:#231f20;font-family:Campton-Bold, Campton;font-weight:700;}.cls-2{letter-spacing:-0.04em;}.cls-3{letter-spacing:0em;}.cls-4{letter-spacing:0em;}.cls-5{letter-spacing:-0.02em;}.cls-6{letter-spacing:-0.01em;}.cls-7{letter-spacing:-0.02em;}.cls-8{letter-spacing:0em;}.cls-9{fill:#e6e7e8;}.cls-10{fill:#f1f2f2;}.cls-11{fill:#fab01b;}.cls-12{fill:#0a4f2e;}.cls-13{fill:#fcc70e;}.cls-14{fill:#f17934;}.cls-15{fill:#db8e27;}.cls-16{fill:#fcc760;}.cls-17{fill:#faa62e;}.cls-18{fill:#699480;}.cls-19{fill:#e6eda9;}.cls-20{fill:#fabe44;}.cls-21{fill:#377257;}.cls-22{fill:#fbcf74;}.cls-23{fill:#005131;}.cls-24{fill:#34735b;}.cls-25{fill:#36745c;}.cls-26{fill:#064d2f;}.cls-27{fill:#32735b;}.cls-28{fill:#f47f4d;}.cls-29{fill:#044f36;}.cls-30{fill:#482912;}.cls-31{fill:#452311;}.cls-32{fill:none;stroke:#452412;stroke-miterlimit:10;}.cls-33{fill:#422511;}.cls-34{fill:#f5945c;}.cls-35{fill:#f07729;}.cls-36{fill:#f47934;}.cls-37{fill:#462813;}.cls-38{fill:#faac31;}</style></defs><text class="cls-1" transform="translate(15.93 417.79)">Find <tspan class="cls-2" x="142.42" y="0">y</tspan><tspan class="cls-3" x="177.74" y="0">o</tspan><tspan class="cls-4" x="213.42" y="0">u</tspan><tspan class="cls-5" x="249.82" y="0">r</tspan><tspan x="273.19" y="0"> </tspan><tspan class="cls-6" x="288.63" y="0">p</tspan><tspan class="cls-7" x="325.63" y="0">r</tspan><tspan x="349.36" y="0">od</tspan><tspan class="cls-8" x="422.82" y="0">u</tspan><tspan x="459.1" y="0">ce</tspan></text><ellipse class="cls-9" cx="266.05" cy="336.49" rx="266.05" ry="32.29"/><path class="cls-10" d="M260.7,61.33c-28.49-21.82-67.09-37.28-103.53-37.95-38.88-.72-73.29,16.55-81.49,45.78-11.44,40.74,26.79,87.38,65.61,123.31,32.52,30.09,67.16,57,105.65,74.46,36,16.38,75.37,23.74,108.7,16.46,24-5.25,44-17.81,59.74-32.53,17.06-15.9,30.29-35.35,34.2-57.9,5.43-31.29-11.26-78.7-51.45-91.45-25.64-8.13-34.9,8.43-56.69,9.79C312.89,113.08,284.46,79.54,260.7,61.33Z"/><g id="tlp_body" data-name="tlp body"><path class="cls-11" d="M227.37,0h77.36c9.08,0,16.43,7.07,16.43,15.79V178.37c0,8.72-7.35,15.78-16.43,15.78H227.37c-9.07,0-16.42-7.06-16.42-15.78V15.79C211,7.07,218.3,0,227.37,0Z"/><path class="cls-12" d="M255.57,17.86h21a.88.88,0,0,1,.9.87v.07a.88.88,0,0,1-.9.86h-21a.89.89,0,0,1-.9-.86v-.07A.89.89,0,0,1,255.57,17.86Z"/><path class="cls-12" d="M260.61,10.19h10.88a.89.89,0,0,1,.91.87v.07a.88.88,0,0,1-.91.86H260.61a.88.88,0,0,1-.9-.86v-.07A.88.88,0,0,1,260.61,10.19Z"/><ellipse class="cls-12" cx="247.36" cy="18.48" rx="2.97" ry="2.85"/><path class="cls-12" d="M272.67,172.61a9.63,9.63,0,0,0-13.23,0,8.74,8.74,0,0,0,0,12.72,9.63,9.63,0,0,0,13.23,0A8.76,8.76,0,0,0,272.67,172.61Z"/></g><path class="cls-10" d="M309.1,164.53H222.82a5.78,5.78,0,0,1-5.88-5.66V35.28a5.77,5.77,0,0,1,5.88-5.65H309.1A5.77,5.77,0,0,1,315,35.28V158.87A5.78,5.78,0,0,1,309.1,164.53Z"/><path class="cls-12" d="M269.71,63.54l7.17-1.9-6,9.75a21.24,21.24,0,0,0-8.63-4.51l-.84-.22a20.41,20.41,0,0,0-5.69,2.4h0A24,24,0,0,0,253,71h0l-5-10.21L255.05,64l-6.86-13.37,8,6.38-3.85-11,5,2.6,5.27-16.18,6.2,16.86,3.84-3.62-3.58,10.85,8-5.08Z"/><path class="cls-13" d="M253.74,115l-.44-.13Z"/><path class="cls-13" d="M273.64,112.76l-.44.33Z"/><path class="cls-13" d="M254.67,115.18l-.42-.1Z"/><path class="cls-13" d="M273.18,113.1l-.5.32Z"/><path class="cls-13" d="M267.65,115.13c-.27,0-.55.09-.83.12C267.11,115.22,267.38,115.17,267.65,115.13Z"/><path class="cls-13" d="M272.61,113.46q-.24.15-.48.27Q272.37,113.61,272.61,113.46Z"/><path class="cls-13" d="M266.73,115.27l-.85.1Z"/><path class="cls-11" d="M263.71,115.54c.75,0,1.46-.1,2.15-.17L265,114.1Z"/><path class="cls-11" d="M254.72,115.19a19.84,19.84,0,0,0,2.32.35l-1.2-1.65Z"/><path class="cls-11" d="M273.09,96.91l-4.53,5.76-4.27-5.91-4.86,5.66-4.24-5.88-4.74,5.51-6.23-5.56a48.3,48.3,0,0,0,.56,6.71l5.85,5.22,5-5.81,4.24,5.88,4.86-5.66,4.22,5.84,4.4-5.59,3.81,4.26a27.27,27.27,0,0,0,1.11-5.76c0,.33-.07.66-.11,1Z"/><path class="cls-11" d="M272.94,78.74l-4.53,5.75-4.26-5.91-4.87,5.66L255,78.36l-4.73,5.52L246,80a28,28,0,0,0-1.4,6.24L250,91.08l5-5.81,4.24,5.87,4.86-5.66,4.22,5.84,4.4-5.58,5.78,6.44,0,1.26c0-1.8-.12-3.73-.25-5.83a23.07,23.07,0,0,0-.45-4.66c.1.51.17,1,.23,1.45Z"/><path class="cls-11" d="M272.76,88.24,268.23,94,264,88.08l-4.86,5.66-4.24-5.87-4.74,5.51-5.74-5.13c0-.34,0-.67.07-1,0,.36-.06.73-.08,1.1-.1,2.16-.16,4.16-.17,6l0,0,6.06,5.41,5-5.81,4.24,5.88,4.86-5.66,4.22,5.84,4.4-5.59,5.35,6-.09,1.05a68.1,68.1,0,0,0,.22-8c0,.41,0,.81,0,1.21Z"/><path class="cls-13" d="M254.27,68.91c.5-.35,1-.67,1.46-1a22.44,22.44,0,0,0-5.42,4.5l.51.46Z"/><path class="cls-11" d="M268.88,111.34l-4.26-5.91-4.86,5.66-4.25-5.88-4.73,5.52-5.43-4.85c1.25,4.59,3.63,7.47,7.65,8.84l2.95-3.43,3.15,4.37c.45,0,.9,0,1.37,0l1,0,3.55-4.14,2.61,3.63a15.23,15.23,0,0,0,4.44-1.38l1.56-2,.5.56-.44.38A10,10,0,0,0,276.5,109l-3.08-3.43Z"/><path class="cls-11" d="M262.29,65.76h0a3.07,3.07,0,0,0-1.75,0,22.32,22.32,0,0,0-4.77,2.14l.46-.26L260.05,73l4.86-5.66,4.22,5.84,2.08-2.64c.4.38.78.76,1.15,1.15l-3.28,4.16-4.27-5.91L260,75.59l-4.24-5.88L251,75.23l-1.69-1.51c.34-.44.68-.86,1-1.26a22.38,22.38,0,0,0-3.73,5.92l3.58,3.19,5-5.81,4.24,5.88L264.25,76l4.21,5.84,4.4-5.59,4.56,5.09a21.67,21.67,0,0,0-6.5-11A21.24,21.24,0,0,0,262.29,65.76Z"/><path class="cls-14" d="M251,75.23l4.74-5.52L260,75.59l4.86-5.66,4.27,5.91,3.28-4.16c-.37-.39-.75-.77-1.15-1.15l-2.08,2.64-4.22-5.84L260.05,73l-3.83-5.31-.46.26,0,0c-.47.28-1,.6-1.46,1l-3.45,4-.51-.46h0c-.35.4-.69.82-1,1.26Z"/><path class="cls-14" d="M268.46,81.82,264.25,76l-4.86,5.66-4.24-5.88-5,5.81-3.58-3.19h0v0c-.11.24-.21.48-.31.73l0,.08L246,80v0h0l4.36,3.89L255,78.36l4.24,5.88,4.87-5.66,4.26,5.91,4.53-5.75L278,84.4c-.06-.45-.13-.94-.23-1.45h0c-.05-.25-.1-.51-.16-.78v0c-.06-.26-.12-.53-.19-.8v0h0l-4.56-5.09Z"/><path class="cls-14" d="M272.68,85.74l-4.4,5.58-4.22-5.84-4.86,5.66L255,85.27l-5,5.81-5.42-4.85h0v0c0,.3-.07.61-.09.92v.08c0,.33,0,.66-.07,1l5.74,5.13,4.74-5.51,4.24,5.87L264,88.08,268.23,94l4.53-5.75,5.75,6.41c0-.4,0-.8,0-1.21h0l0-1.26Z"/><path class="cls-14" d="M273,94.41l-4.4,5.59-4.22-5.84-4.86,5.66-4.24-5.88-5,5.81-6.06-5.41,0,0h0v.86c0,.42,0,.83,0,1.23h0l6.23,5.56,4.74-5.51,4.24,5.88,4.86-5.66,4.27,5.91,4.53-5.76,5.06,5.65c0-.32.07-.65.11-1,0,0,0-.1,0-.15l.09-1.05Z"/><path class="cls-14" d="M268.94,108.67l-4.22-5.84-4.86,5.66-4.24-5.88-5,5.81-5.85-5.22h0a.2.2,0,0,0,0,.07,2.93,2.93,0,0,0,.05.29l.15.81c0,.07,0,.15,0,.22.06.29.13.58.2.86a2.81,2.81,0,0,0,.08.31l0,.12h0l5.43,4.85,4.73-5.52,4.25,5.88,4.86-5.66,4.26,5.91,4.54-5.75L276.5,109h0c.12-.25.23-.52.34-.79v0c.11-.28.21-.57.31-.87h0l-3.81-4.26Z"/><path class="cls-14" d="M261.5,115.64h.06l1,0h.19l.94,0h0L265,114.1l.91,1.27h0l.85-.1.09,0c.28,0,.56-.08.83-.12h0l-2.61-3.63Z"/><path class="cls-15" d="M273.66,111.76l-1.56,2h0l0,0q.24-.12.48-.27l.07,0,.5-.32h0l.44-.33.08-.06.44-.38Z"/><path class="cls-14" d="M253,114.72h0l.3.1.44.13.51.13.42.1h.05l1.12-1.3,1.2,1.65h0l.5,0,.46,0c.36,0,.73,0,1.1,0h0L256,111.29Z"/><rect class="cls-12" x="229.06" y="85.47" width="2.97" height="41.01"/><rect class="cls-12" x="295.54" y="85.47" width="2.97" height="41.01"/><path class="cls-14" d="M266.39,90.35a6.19,6.19,0,0,1,1.45.32,27.9,27.9,0,0,1,5.6,2.28c1.77,1.06,3.27,3.7,4.16,5.8a16.68,16.68,0,0,1,1.06,3.77,16.2,16.2,0,0,1,.21,3.27c0,.67-.07,1.35-.13,2a26.33,26.33,0,0,1-.59,4,13.32,13.32,0,0,1-1.31,3.4,6.78,6.78,0,0,1-.63.92,12.35,12.35,0,0,1-2.84,2.63,10.14,10.14,0,0,1-1.26.67,16.94,16.94,0,0,1-2,.81l-1.62.45c-3.83,1.08-7.45,1.8-10.91-.8a18.48,18.48,0,0,1-2-1.75,12.93,12.93,0,0,1-2.65-4.11c-.47-1.18-.93-2.37-1.33-3.59a18.08,18.08,0,0,1-.81-3.6,11.76,11.76,0,0,1,.19-4.05,13,13,0,0,1,.71-2.07,28.66,28.66,0,0,1,1.81-3.43,13.33,13.33,0,0,1,1.58-2,12.94,12.94,0,0,1,3.21-2.47,19.25,19.25,0,0,1,2.63-1.18c.87-.32,1.76-.59,2.64-.82A7.88,7.88,0,0,1,266.39,90.35Zm10,13.68c0-.39-.05-1-.13-1.5a12.5,12.5,0,0,0-.7-2.88,6.58,6.58,0,0,0-1.33-2.2,11.63,11.63,0,0,0-3.19-2.4,16.82,16.82,0,0,0-3.62-1.34,11.91,11.91,0,0,0-1.88-.32,9,9,0,0,0-2.13.07,3.56,3.56,0,0,0-.94.26.62.62,0,0,1-.19.07l-1,.28a7.74,7.74,0,0,0-3.71,2.35,16.76,16.76,0,0,0-1.87,2.44,13,13,0,0,0-1.69,4.08,10.22,10.22,0,0,0-.08,3.53,16,16,0,0,0,.59,2.68,11.74,11.74,0,0,0,1.63,3.42c.37.52.77,1,1.17,1.5.56.69,1.13,1.37,1.72,2a7.35,7.35,0,0,0,1.88,1.57,11.14,11.14,0,0,0,1.46.64,9,9,0,0,0,3.74.52,10.37,10.37,0,0,0,1.12-.13,8.5,8.5,0,0,0,2.61-.81,11.29,11.29,0,0,0,3.63-2.85,8.71,8.71,0,0,0,1.43-2.28,9.27,9.27,0,0,0,.41-1.26,37.77,37.77,0,0,0,.86-4.1A16.24,16.24,0,0,0,276.35,104Z"/><path class="cls-16" d="M276.35,104a16.24,16.24,0,0,1-.21,3.35,37.77,37.77,0,0,1-.86,4.1,9.27,9.27,0,0,1-.41,1.26,8.71,8.71,0,0,1-1.43,2.28,11.29,11.29,0,0,1-3.63,2.85,8.5,8.5,0,0,1-2.61.81,10.37,10.37,0,0,1-1.12.13,9,9,0,0,1-3.74-.52,11.14,11.14,0,0,1-1.46-.64,7.35,7.35,0,0,1-1.88-1.57c-.59-.64-1.16-1.32-1.72-2-.4-.49-.8-1-1.17-1.5a11.74,11.74,0,0,1-1.63-3.42,16,16,0,0,1-.59-2.68,10.22,10.22,0,0,1,.08-3.53,13,13,0,0,1,1.69-4.08,16.76,16.76,0,0,1,1.87-2.44,7.74,7.74,0,0,1,3.71-2.35l1-.28a.62.62,0,0,0,.19-.07,3.56,3.56,0,0,1,.94-.26,9,9,0,0,1,2.13-.07,11.91,11.91,0,0,1,1.88.32A16.82,16.82,0,0,1,271,95.05a11.63,11.63,0,0,1,3.19,2.4,6.58,6.58,0,0,1,1.33,2.2,12.5,12.5,0,0,1,.7,2.88C276.3,103.08,276.33,103.64,276.35,104Z"/><path class="cls-17" d="M266.5,119.13c-.65,0-1.29.06-1.94.08a5.06,5.06,0,0,1-2.33-.49,21.26,21.26,0,0,1-2.31-1.22c-.31-.18-.61-.4-.91-.59a7.9,7.9,0,0,1-2-2c-.5-.65-1-1.35-1.44-2a8.2,8.2,0,0,1-.79-1.43,21,21,0,0,1-1-2.61,9.88,9.88,0,0,1-.47-3.44c0-.67.1-1.32.19-2a9.15,9.15,0,0,1,.4-1.56,10.41,10.41,0,0,1,.64-1.54,15.91,15.91,0,0,1,1-1.75,3.6,3.6,0,0,0,.29-.55,4.34,4.34,0,0,1,.53-.85,8.53,8.53,0,0,1,1.51-1.44l1.22-1a5.25,5.25,0,0,1,1.4-.78,12.19,12.19,0,0,1,2.27-.64l1.21-.23a6.63,6.63,0,0,1,2.84,0c.69.15,1.36.35,2,.56l1,.33a13.32,13.32,0,0,1,1.85.84l.69.41A7.68,7.68,0,0,1,274.28,97a9.88,9.88,0,0,1,1.81,3.32,14.85,14.85,0,0,1,.77,3.35,12.88,12.88,0,0,1-.07,3.1,30.36,30.36,0,0,1-.87,3.89c-.15.53-.3,1.06-.49,1.57a8.29,8.29,0,0,1-2.24,3.49l-.55.47a8.69,8.69,0,0,0-.95.88,4.52,4.52,0,0,1-1.71,1.17,12.1,12.1,0,0,1-2.72.75Zm.2-1a10.27,10.27,0,0,0,1.17-.21,13,13,0,0,0,1.81-.54,4,4,0,0,0,1.45-.94,9.59,9.59,0,0,1,1-1c.17-.13.34-.27.5-.42a7.11,7.11,0,0,0,2-3.09c.19-.5.34-1,.49-1.53a28.79,28.79,0,0,0,.8-3.57,11.9,11.9,0,0,0,.12-2.73,12.21,12.21,0,0,0-.48-2.52,12,12,0,0,0-.67-1.88,8.64,8.64,0,0,0-1.22-2A7.64,7.64,0,0,0,272,96.2c-.47-.29-1-.54-1.45-.78a9.71,9.71,0,0,0-1.26-.5c-.66-.21-1.32-.41-2-.59a7,7,0,0,0-3.25-.18l-1.87.37a10,10,0,0,0-1.89.64,2.53,2.53,0,0,0-.66.4l-1.68,1.3a6,6,0,0,0-.85.82.92.92,0,0,0-.28.49.37.37,0,0,1-.07.14c-.15.25-.31.51-.47.75a15.25,15.25,0,0,0-1.07,1.8,10,10,0,0,0-.83,2.28,14.39,14.39,0,0,0-.25,2,8.84,8.84,0,0,0,.38,3.34,22.27,22.27,0,0,0,1,2.55,9.29,9.29,0,0,0,.84,1.48c.24.32.46.66.69,1,.38.54.78,1,1.2,1.54a8.67,8.67,0,0,0,2.05,1.6,17.75,17.75,0,0,0,2.28,1.2,4.3,4.3,0,0,0,1.85.44C265.07,118.21,265.78,118.21,266.7,118.11Z"/><path class="cls-12" d="M264.11,102c.68-.1,1.44.57,1.44,1.64a1.75,1.75,0,0,1-1.38,1.8,1.48,1.48,0,0,1-1.45-1.63A1.74,1.74,0,0,1,264.11,102Z"/><path class="cls-12" d="M261.21,111.1a1.7,1.7,0,0,1,1.37-1.83,1.42,1.42,0,0,1,1.41,1.54,1.7,1.7,0,0,1-1.34,1.86A1.43,1.43,0,0,1,261.21,111.1Z"/><path class="cls-12" d="M271.93,109.27c.65-.1,1.4.54,1.4,1.58a1.66,1.66,0,0,1-1.33,1.76c-.85.09-1.41-.69-1.41-1.56A1.65,1.65,0,0,1,271.93,109.27Z"/><path class="cls-12" d="M271.1,98.71a1.43,1.43,0,0,1,1.4,1.57,1.68,1.68,0,0,1-1.35,1.77c-.61,0-1.35-.45-1.37-1.54A1.62,1.62,0,0,1,271.1,98.71Z"/><path class="cls-12" d="M268.91,102.14a1.66,1.66,0,0,1-1.28,1.8c-.64.08-1.34-.47-1.39-1.47a1.65,1.65,0,0,1,1.31-1.8A1.37,1.37,0,0,1,268.91,102.14Z"/><path class="cls-12" d="M266.35,109.22c-.72.1-1.37-.57-1.38-1.51a1.64,1.64,0,0,1,1.28-1.72,1.38,1.38,0,0,1,1.37,1.5A1.63,1.63,0,0,1,266.35,109.22Z"/><path class="cls-12" d="M265.58,97.93a1.61,1.61,0,0,1,1.27-1.74,1.36,1.36,0,0,1,1.36,1.5,1.61,1.61,0,0,1-1.28,1.72C266.19,99.49,265.6,98.81,265.58,97.93Z"/><path class="cls-12" d="M270.82,104.9c.6-.08,1.3.44,1.32,1.45a1.56,1.56,0,0,1-1.26,1.69c-.6.06-1.28-.44-1.31-1.44A1.57,1.57,0,0,1,270.82,104.9Z"/><path class="cls-12" d="M257.91,104.86a1.58,1.58,0,0,1-1.23,1.69c-.84.08-1.3-.75-1.32-1.39a1.61,1.61,0,0,1,1.23-1.74A1.34,1.34,0,0,1,257.91,104.86Z"/><path class="cls-12" d="M260.27,110.51a1.54,1.54,0,0,1-1.26,1.66,1.36,1.36,0,0,1-1.28-1.48,1.57,1.57,0,0,1,1.25-1.64A1.32,1.32,0,0,1,260.27,110.51Z"/><path class="cls-12" d="M267.09,111.33a1.56,1.56,0,0,1,1.22-1.7,1.31,1.31,0,0,1,1.31,1.4,1.57,1.57,0,0,1-1.23,1.7A1.3,1.3,0,0,1,267.09,111.33Z"/><path class="cls-12" d="M259.52,100a1.28,1.28,0,0,1,1.31,1.35,1.57,1.57,0,0,1-1.19,1.7c-.68.08-1.27-.47-1.32-1.38A1.53,1.53,0,0,1,259.52,100Z"/><path class="cls-12" d="M261.18,106.05A1.55,1.55,0,0,1,260,107.7a1.27,1.27,0,0,1-1.34-1.36,1.53,1.53,0,0,1,1.23-1.69A1.3,1.3,0,0,1,261.18,106.05Z"/><path class="cls-12" d="M272.81,103.5A1.47,1.47,0,0,1,274,102c.76-.06,1.21.71,1.21,1.39a1.49,1.49,0,0,1-1.2,1.55A1.26,1.26,0,0,1,272.81,103.5Z"/><path class="cls-12" d="M263.51,98.53a1.46,1.46,0,0,1-1.14,1.58c-.74.08-1.21-.57-1.23-1.32a1.42,1.42,0,0,1,1.12-1.56C263,97.15,263.47,97.8,263.51,98.53Z"/><path class="cls-12" d="M262,113.76a1.17,1.17,0,0,1,1.23,1.26,1.43,1.43,0,0,1-1.14,1.6c-.67.07-1.18-.54-1.21-1.31A1.41,1.41,0,0,1,262,113.76Z"/><path class="cls-12" d="M266.51,113.56a1.46,1.46,0,0,1-1.12,1.56,1.19,1.19,0,0,1-1.2-1.28,1.44,1.44,0,0,1,1.12-1.56C265.94,112.2,266.48,112.79,266.51,113.56Z"/><path class="cls-12" d="M285.83,89.18c.07-.07,0-.11,0-.16a14.32,14.32,0,0,1-.19-1.85c0-.88,0-1.77,0-2.65,0-.64.08-1.27.16-1.89a11.49,11.49,0,0,1,.51-2.1,15.65,15.65,0,0,1,1.34-2.76,19,19,0,0,1,1.42-2.11c.4-.52.8-1,1.23-1.52s.82-.91,1.24-1.36c.6-.65,1.2-1.31,1.84-1.92s1.18-1.14,1.78-1.7a14.79,14.79,0,0,1,1.85-1.52c.39-.26.78-.51,1.18-.75.72-.43,1.45-.84,2.19-1.24s1.39-.49,2-.87,1-1.06,1.72-1.41a3.3,3.3,0,0,1,2.42-.27c1.79.56,3.36,3.06,3.56,5a17.24,17.24,0,0,1,.07,2.59c0,.6,0,1.19-.11,1.78s-.14,1-.24,1.48c-.16.73-.31,1.47-.47,2.2s-.34,1.3-.53,2-.32,1.1-.5,1.64-.4,1.06-.62,1.58a20.63,20.63,0,0,1-2.29,4,20.27,20.27,0,0,1-3.07,3.39,22.1,22.1,0,0,1-2,1.54A15.94,15.94,0,0,1,297.25,92a14.07,14.07,0,0,1-1.78.55,12.74,12.74,0,0,1-1.74.34,10.67,10.67,0,0,1-2.33.06c-.45,0-.9-.09-1.35-.1a3.76,3.76,0,0,1-.94-.15c-.51-.14-1-.28-1.54-.45a4.77,4.77,0,0,1-1.34-.7c-.3-.21-.6-.42-.89-.65a5.4,5.4,0,0,1-1-1,5.22,5.22,0,0,1-.72-1.26,8,8,0,0,1-.36-1,3.55,3.55,0,0,1-.14-1c0-.16,0-.32,0-.48a.85.85,0,0,1,.06-.36.27.27,0,0,1,.25-.18.23.23,0,0,1,.21.29,3,3,0,0,0,0,.9,2.87,2.87,0,0,0,.24,1c0,.12.09.25.14.37a4.72,4.72,0,0,0,1.33,2,15.1,15.1,0,0,0,1.54,1.12c.09.06.18.1.27.15s0-.1-.06-.13a6.87,6.87,0,0,1-.84-.78,7.67,7.67,0,0,1-.83-1.19c-.27-.46-.52-1-.77-1.43a16.1,16.1,0,0,1-.66-1.47c-.1-.24-.17-.49-.25-.75a7.74,7.74,0,0,1-.35-1.93c0-.15,0-.3,0-.45a16.78,16.78,0,0,1,.13-2.25,3,3,0,0,1,.22-.79l.06-.12a.22.22,0,0,1,.27-.09.27.27,0,0,1,.15.3,1.34,1.34,0,0,1-.07.18,2.61,2.61,0,0,0-.17.68,20.69,20.69,0,0,0-.12,2.23,7.14,7.14,0,0,0,.24,1.72,9.59,9.59,0,0,0,.66,1.84c.24.5.5,1,.75,1.48Z"/><path class="cls-18" d="M295.43,90.36c-.42.22-.84.47-1.28.68a9.2,9.2,0,0,1-1.71.61,11.2,11.2,0,0,1-3.31.26,7.38,7.38,0,0,1-2.59-.69c-.19-.09-.37-.17-.55-.27a5.4,5.4,0,0,1-.77-.51c-.32-.24-.62-.53-.94-.79a3.1,3.1,0,0,1-.84-1.16,2.49,2.49,0,0,0-.21-.56,7.54,7.54,0,0,1-.36-2.23c0-1,0-2,0-3a13.51,13.51,0,0,1,.28-2.2,10.27,10.27,0,0,1,.51-1.63c.23-.58.48-1.14.75-1.7a15.71,15.71,0,0,1,.91-1.6c.32-.48.64-1,1-1.41s.8-1,1.22-1.51a24,24,0,0,1,2.12-2.16c.68-.63,1.38-1.23,2.09-1.8.47-.37.93-.75,1.4-1.1s1-.79,1.58-1.13l.27-.2a.1.1,0,0,0,.13-.08l.44-.29c.06,0,.1,0,.13-.08l.56-.36a.22.22,0,0,0,.23-.13l.61-.39a.22.22,0,0,0,.22-.12l.7-.44a.36.36,0,0,0,.31-.18c.49-.28,1-.56,1.48-.8a.1.1,0,0,0,.14-.07l.71-.27s.07,0,.09,0a8.56,8.56,0,0,1,1.7-.46,11.5,11.5,0,0,1,1.65-.15,4.06,4.06,0,0,1,1.29.22,3.22,3.22,0,0,1,1,.6,5.11,5.11,0,0,1,.48.45,3.55,3.55,0,0,1,.72,1.11,7.8,7.8,0,0,1,.54,2,6.78,6.78,0,0,1-.05,2c-.12.72-.28,1.43-.47,2.14s-.41,1.34-.64,2-.38,1.11-.58,1.66c-.34.93-.72,1.84-1.11,2.74S304.44,79.06,304,80a29.39,29.39,0,0,1-1.71,3.12l-.79,1.25c-.29.46-.61.88-.93,1.3-.54.71-1.11,1.38-1.7,2a13.66,13.66,0,0,1-1.71,1.53l-.83.62c-.07,0-.11,0-.14.08l-.52.34A.28.28,0,0,0,295.43,90.36Z"/><path class="cls-19" d="M298.35,64.15a.36.36,0,0,1-.31.18A.36.36,0,0,1,298.35,64.15Z"/><path class="cls-19" d="M283.23,87.93a2.49,2.49,0,0,1,.21.56A1.31,1.31,0,0,1,283.23,87.93Z"/><path class="cls-19" d="M296.51,65.28a.22.22,0,0,1-.23.13A.2.2,0,0,1,296.51,65.28Z"/><path class="cls-19" d="M297.34,64.77a.22.22,0,0,1-.22.12A.19.19,0,0,1,297.34,64.77Z"/><path class="cls-19" d="M295.15,66.14a.1.1,0,0,1-.13.08C295,66.14,295.09,66.11,295.15,66.14Z"/><path class="cls-19" d="M295.72,65.77c0,.07-.07.1-.13.08S295.65,65.75,295.72,65.77Z"/><path class="cls-19" d="M300,63.28a.1.1,0,0,1-.14.07C299.86,63.27,299.9,63.25,300,63.28Z"/><path class="cls-19" d="M300.77,63c0,.05,0,.06-.09,0S300.73,62.94,300.77,63Z"/><path class="cls-14" d="M294.08,87.39a5.64,5.64,0,0,1-3.36.72,4.4,4.4,0,0,1-2.58-1.21,4.59,4.59,0,0,1-1.27-2.21,6.1,6.1,0,0,1,.28-3.89,7,7,0,0,1,1.69-2.57,6.85,6.85,0,0,1,1.89-1.32,5.4,5.4,0,0,1,2.73-.54,4.39,4.39,0,0,1,2.8,1.23,4.78,4.78,0,0,1,1.35,2.52,6.18,6.18,0,0,1-.22,3.22,7.24,7.24,0,0,1-1.47,2.56A6.62,6.62,0,0,1,294.08,87.39Z"/><path class="cls-12" d="M227.83,122a.15.15,0,0,0,0-.16,14.3,14.3,0,0,1-.18-1.85c0-.88,0-1.77,0-2.65,0-.64.07-1.27.16-1.89a11.47,11.47,0,0,1,.5-2.1,15.69,15.69,0,0,1,1.35-2.76,18.09,18.09,0,0,1,1.42-2.11c.4-.52.8-1,1.23-1.52s.82-.91,1.23-1.36c.6-.65,1.21-1.31,1.85-1.92s1.18-1.14,1.78-1.7a14.1,14.1,0,0,1,1.85-1.52q.57-.39,1.17-.75c.73-.43,1.46-.84,2.19-1.24s1.4-.49,2-.87,1-1.06,1.72-1.41a3.3,3.3,0,0,1,2.42-.27c1.79.56,3.35,3.06,3.56,5a18.68,18.68,0,0,1,.07,2.59c0,.6-.06,1.19-.12,1.78a14.69,14.69,0,0,1-.23,1.48c-.16.73-.31,1.47-.47,2.2s-.35,1.3-.53,2-.33,1.09-.5,1.64-.4,1.06-.62,1.58a21.15,21.15,0,0,1-2.29,4.05,20.67,20.67,0,0,1-5,4.93,15.67,15.67,0,0,1-3.17,1.65,13.92,13.92,0,0,1-1.77.55,13.36,13.36,0,0,1-1.74.34,10.67,10.67,0,0,1-2.33.06c-.45,0-.9-.09-1.35-.1a4.29,4.29,0,0,1-.94-.15c-.52-.14-1-.28-1.54-.45a5.35,5.35,0,0,1-1.34-.7c-.3-.21-.61-.42-.9-.65a5.73,5.73,0,0,1-1-1,5.19,5.19,0,0,1-.71-1.26,7.1,7.1,0,0,1-.36-1,3.23,3.23,0,0,1-.14-1c0-.16,0-.32,0-.48a.84.84,0,0,1,.07-.35.26.26,0,0,1,.24-.18.24.24,0,0,1,.22.29,3,3,0,0,0,0,.9,2.67,2.67,0,0,0,.24,1c.05.12.09.24.14.37a4.72,4.72,0,0,0,1.33,2,14.07,14.07,0,0,0,1.54,1.12l.27.15c0-.09,0-.1-.07-.13a7.69,7.69,0,0,1-.84-.78,7.61,7.61,0,0,1-.82-1.19c-.28-.46-.52-1-.78-1.43s-.45-1-.66-1.47c-.1-.24-.16-.5-.24-.75a7.82,7.82,0,0,1-.35-1.93c0-.15,0-.3,0-.45a16.78,16.78,0,0,1,.13-2.25,2.65,2.65,0,0,1,.22-.79.67.67,0,0,1,.06-.12.21.21,0,0,1,.27-.09.26.26,0,0,1,.14.3,1.27,1.27,0,0,1-.06.18,2.61,2.61,0,0,0-.17.68,16.58,16.58,0,0,0-.12,2.23,7.14,7.14,0,0,0,.24,1.72,10.28,10.28,0,0,0,.65,1.84c.25.5.5,1,.76,1.48Z"/><path class="cls-18" d="M237.43,123.12c-.43.23-.85.48-1.28.69a9,9,0,0,1-1.72.61,11.16,11.16,0,0,1-3.3.26,7.54,7.54,0,0,1-2.59-.69l-.56-.27a5.31,5.31,0,0,1-.76-.51c-.33-.24-.62-.53-.94-.79a3.1,3.1,0,0,1-.84-1.16,2.51,2.51,0,0,0-.22-.56,7.88,7.88,0,0,1-.35-2.23,28,28,0,0,1,0-3,14.69,14.69,0,0,1,.27-2.2,11.41,11.41,0,0,1,.51-1.63c.23-.58.49-1.14.76-1.7a15.71,15.71,0,0,1,.91-1.6c.31-.48.63-1,1-1.41s.79-1,1.21-1.51a25.57,25.57,0,0,1,2.13-2.16c.68-.63,1.38-1.23,2.09-1.8.46-.37.92-.75,1.39-1.1s1-.79,1.58-1.13c.1-.06.19-.14.28-.2a.1.1,0,0,0,.13-.08l.43-.29c.07,0,.11,0,.13-.08l.57-.36a.22.22,0,0,0,.22-.13l.61-.39a.23.23,0,0,0,.23-.12l.7-.44a.37.37,0,0,0,.31-.18c.49-.28,1-.56,1.48-.8a.1.1,0,0,0,.14-.07l.7-.27c.05,0,.08,0,.1,0a10.33,10.33,0,0,1,1.69-.46,11.62,11.62,0,0,1,1.66-.14,4.06,4.06,0,0,1,1.29.22,3.35,3.35,0,0,1,1,.6q.24.21.48.45a3.55,3.55,0,0,1,.72,1.11,7.8,7.8,0,0,1,.54,2,7.13,7.13,0,0,1-.05,2,20,20,0,0,1-.48,2.14c-.18.67-.41,1.34-.63,2s-.38,1.11-.58,1.66c-.34.93-.72,1.84-1.12,2.74s-.82,1.78-1.22,2.67a27.78,27.78,0,0,1-1.72,3.12l-.78,1.25a15.37,15.37,0,0,1-.94,1.3,23.58,23.58,0,0,1-1.7,2,12.91,12.91,0,0,1-1.7,1.53l-.84.62c-.06,0-.1,0-.13.08l-.52.34A.29.29,0,0,0,237.43,123.12Z"/><path class="cls-19" d="M240.35,96.92a.37.37,0,0,1-.31.18A.34.34,0,0,1,240.35,96.92Z"/><path class="cls-19" d="M225.22,120.7a2.51,2.51,0,0,1,.22.56A1.2,1.2,0,0,1,225.22,120.7Z"/><path class="cls-19" d="M238.5,98.05a.22.22,0,0,1-.22.13A.2.2,0,0,1,238.5,98.05Z"/><path class="cls-19" d="M239.34,97.54a.23.23,0,0,1-.23.12A.2.2,0,0,1,239.34,97.54Z"/><path class="cls-19" d="M237.15,98.91A.1.1,0,0,1,237,99C237,98.91,237.08,98.88,237.15,98.91Z"/><path class="cls-19" d="M237.71,98.54c0,.07-.06.1-.13.08S237.65,98.52,237.71,98.54Z"/><path class="cls-19" d="M242,96.05a.1.1,0,0,1-.14.07C241.86,96,241.9,96,242,96.05Z"/><path class="cls-19" d="M242.77,95.73c0,.06-.05.07-.1,0S242.72,95.71,242.77,95.73Z"/><path class="cls-14" d="M236.07,120.16a5.63,5.63,0,0,1-3.36.72,4.38,4.38,0,0,1-2.57-1.21,4.61,4.61,0,0,1-1.28-2.21,6.17,6.17,0,0,1,.28-3.89,7.28,7.28,0,0,1,1.69-2.57,6.83,6.83,0,0,1,1.9-1.32,5.38,5.38,0,0,1,2.72-.54,4.4,4.4,0,0,1,2.81,1.23,4.74,4.74,0,0,1,1.35,2.52,6.28,6.28,0,0,1-.22,3.22,7.24,7.24,0,0,1-1.47,2.56A6.51,6.51,0,0,1,236.07,120.16Z"/><path class="cls-20" d="M285.77,70.29c.15.61.2,1.24.44,1.95.42,1.25,1.47,2.22,2.05,3.39a14.57,14.57,0,0,1,1.32,4.05,15.16,15.16,0,0,1-.12,5.89,23.82,23.82,0,0,1-1.95,5.85,10.91,10.91,0,0,1-4.93,4.72c-.94.44-2.24.28-3.1.89s-1.26,1.49-2.09,2a3.68,3.68,0,0,1-2.26.69,2.39,2.39,0,0,1-2-1.31,4.63,4.63,0,0,1-.32-1.74c-.1-1.67-1.39-2.22-2.39-3.24-2.64-2.68-2.81-7.72-2.12-11.32a17.75,17.75,0,0,1,4-8.59,12.11,12.11,0,0,1,5.17-3.44c.79-.26,2.14-.13,2.81-.56s1-1.43,1.9-1.77a2.41,2.41,0,0,1,2.88,1.1A3.6,3.6,0,0,1,285.77,70.29Z"/><path class="cls-21" d="M283.76,68.8a3.06,3.06,0,0,0-.11-1.67,3.94,3.94,0,0,0-1.87-1.93c-.78-.43-1.63-.71-2.39-1.17a3.53,3.53,0,0,1-1.71-2.09,3.67,3.67,0,0,0,.05,3A3.23,3.23,0,0,0,280,66.7c.41.08.84.07,1.25.18A2.7,2.7,0,0,1,283,68.42a1.56,1.56,0,0,0,.27.51.34.34,0,0,0,.48.08C283.93,68.82,283.68,69.11,283.76,68.8Z"/><path class="cls-14" d="M283.22,68.52a2.48,2.48,0,0,0,.52-2.36c-.07-.22-.16-.49,0-.65a.28.28,0,0,1,.15-.08.71.71,0,0,1,.79.53,2.1,2.1,0,0,1,0,1.11,7.2,7.2,0,0,1-.52,1.5,1.1,1.1,0,0,1-.29.42.36.36,0,0,1-.45,0c-.2-.17-.12-.51,0-.77"/><path class="cls-20" d="M238.64,70.45c.47.42.88.9,1.48,1.35,1.06.79,2.47,1,3.62,1.61a14.57,14.57,0,0,1,3.4,2.57,15.23,15.23,0,0,1,3.26,4.9,23.58,23.58,0,0,1,1.75,5.91,10.94,10.94,0,0,1-1.35,6.69c-.52.9-1.68,1.52-2,2.51s-.19,1.94-.55,2.85a3.69,3.69,0,0,1-1.47,1.86,2.35,2.35,0,0,1-2.35,0,4.68,4.68,0,0,1-1.27-1.24c-1-1.32-2.4-1-3.81-1.29-3.69-.69-6.71-4.73-8.21-8.08a17.79,17.79,0,0,1-1.59-9.35A12.22,12.22,0,0,1,231.79,75c.5-.67,1.68-1.33,2-2.06s0-1.73.54-2.54a2.43,2.43,0,0,1,3-.75A3.87,3.87,0,0,1,238.64,70.45Z"/><path class="cls-21" d="M236.13,70.38a2.89,2.89,0,0,0-1-1.3,3.84,3.84,0,0,0-2.64-.52c-.88.1-1.74.35-2.63.41a3.58,3.58,0,0,1-2.59-.74A3.63,3.63,0,0,0,229,70.62a3.22,3.22,0,0,0,2.84.21c.39-.16.74-.42,1.14-.57a2.68,2.68,0,0,1,2.31.27,1.93,1.93,0,0,0,.51.27.36.36,0,0,0,.45-.21C236.29,70.29,236.25,70.68,236.13,70.38Z"/><path class="cls-14" d="M235.53,70.46a2.47,2.47,0,0,0-.92-2.24c-.18-.13-.41-.3-.38-.52a.35.35,0,0,1,.08-.16.71.71,0,0,1,.95,0,2,2,0,0,1,.62.92,7.49,7.49,0,0,1,.43,1.52,1.1,1.1,0,0,1,0,.51.36.36,0,0,1-.35.28c-.26,0-.4-.35-.47-.61"/><path class="cls-20" d="M290.84,92.54a19.93,19.93,0,0,0,.45,2c.42,1.25,1.46,2.22,2,3.39a14.91,14.91,0,0,1,1.32,4,15.36,15.36,0,0,1-.13,5.89,23.94,23.94,0,0,1-1.94,5.85,10.93,10.93,0,0,1-4.93,4.71c-1,.45-2.25.29-3.11.9s-1.26,1.48-2.08,2a3.65,3.65,0,0,1-2.27.68,2.37,2.37,0,0,1-2-1.31,4.55,4.55,0,0,1-.32-1.73c-.09-1.67-1.38-2.22-2.39-3.24-2.64-2.68-2.8-7.72-2.12-11.33a17.81,17.81,0,0,1,4-8.58,12.32,12.32,0,0,1,5.18-3.45c.79-.26,2.14-.13,2.81-.55s.95-1.44,1.89-1.77a2.41,2.41,0,0,1,2.88,1.09A3.73,3.73,0,0,1,290.84,92.54Z"/><path class="cls-21" d="M288.83,91.05a2.85,2.85,0,0,0-.11-1.66,3.86,3.86,0,0,0-1.87-1.93c-.78-.43-1.63-.71-2.39-1.17a3.54,3.54,0,0,1-1.7-2.09,3.67,3.67,0,0,0,.05,3A3.22,3.22,0,0,0,285,89c.41.09.84.08,1.25.18A2.7,2.7,0,0,1,288,90.67a1.83,1.83,0,0,0,.27.52.36.36,0,0,0,.49.08C289,91.07,288.76,91.37,288.83,91.05Z"/><path class="cls-14" d="M288.29,90.78a2.45,2.45,0,0,0,.52-2.36c-.07-.22-.16-.49,0-.65a.46.46,0,0,1,.15-.09.72.72,0,0,1,.79.54,2,2,0,0,1,0,1.1,7.07,7.07,0,0,1-.51,1.51,1.22,1.22,0,0,1-.29.41.35.35,0,0,1-.45,0c-.2-.17-.13-.51,0-.77"/><rect class="cls-12" x="229.06" y="85.68" width="2.97" height="41.01"/><rect class="cls-12" x="295.54" y="85.68" width="2.97" height="41.01"/><rect class="cls-22" x="219.39" y="99.72" width="87.18" height="12.5" rx="5.07"/><rect class="cls-22" x="219.39" y="114.73" width="87.18" height="12.5" rx="5.07"/><rect class="cls-22" x="219.39" y="84.72" width="87.18" height="12.5" rx="5.07"/><ellipse class="cls-12" cx="230.54" cy="90.95" rx="1.48" ry="1.64"/><ellipse class="cls-12" cx="297.02" cy="90.95" rx="1.48" ry="1.64"/><ellipse class="cls-12" cx="230.54" cy="106.54" rx="1.48" ry="1.64"/><ellipse class="cls-12" cx="297.02" cy="106.54" rx="1.48" ry="1.64"/><ellipse class="cls-12" cx="230.54" cy="120.98" rx="1.48" ry="1.64"/><ellipse class="cls-12" cx="297.02" cy="120.98" rx="1.48" ry="1.64"/><path class="cls-20" d="M393.86,97.86c-3,3.07-7,5.85-10.91,4.63-3.3-1-5.44-4.7-6-8.39s.23-7.45,1-11.09c1.19-5.67,8-31.83,15.22-19.34,2.38,4.13,2.83,10.84,4.24,15.5C399.81,87,399.66,91.83,393.86,97.86Z"/><path class="cls-11" d="M419,245.37c9.27,7.28,40.72,53.63,40.72,53.63l13.9,19.86c0,1.33-3.64,8.61-3.64,8.61-7.95,4.64-11.26,1.66-11.26,1.66l-44.69-49c-21.52-21.85-30.79-60.91-30.79-60.91a1.74,1.74,0,0,0-1.65-2c-5.63-.66-29.46,64.89-29.46,64.89l-2,44.69-6.62,10.26-14.24,1.33-1.32-9.27L329.24,304,330.57,293c1.69-17.82,10.92-64.55,10.92-64.55,2.32-4,13.91-45,13.91-45l2.31-15.56c2.32.33,54.3,4.3,54.3,4.3l4.63,68.2Z"/><path class="cls-23" d="M478.55,323.17s11.25,6.62-2.65,15.23L455.37,351h-9.93s1.35-7.3,13.24-21.85l12-14.42Z"/><path class="cls-22" d="M400.75,219.55h15.89s2.31,8.16-.5,13.52c0,0-4.47,8-13.07,1.71C403.07,234.78,399.76,235.44,400.75,219.55Z"/><path class="cls-24" d="M362,84.48s-37.08,32.78-47,37.08c0,0-42.71,20.86-47.67,20.86l6,13.24s42.37-10.27,58.26-19.53c0,0,26.15-12.92,27.15-18.54l7.61-2,2.32-33.1Z"/><path class="cls-25" d="M407,78.52s13.57.67,17.21,26.16c0,0,5,25.82,4.64,36.08,0,0-2.65,53.74-12.25,79.89H400.86s4.19-15.1,6.18-48.82L396.45,148V109.31l1.32-30.79Z"/><path class="cls-26" d="M400.75,76.21s-6.7,11.58-12.25,14.23c0,0-13.57,4.3-10.26-11.92l2-5h-5.3s-13.24,6-14.24,19.53a287.13,287.13,0,0,0-1.32,35.75l-1.66,39.07v2.64s30.79,5.35,40.06,3.32a16.71,16.71,0,0,0,9.27-2,425.57,425.57,0,0,0-2.32-45.3s-7.65-32.45-4.16-41.39c0,0-1.13-3.64,6.48-6.62"/><path class="cls-27" d="M395.16,73.56s-6.65,8-10.13,7l-4.19-3.17-.61-3.86h-2.64s-1.93,13.13,1.51,15.78c0,0,8.24,4,11.86,0,0,0,8.13-8.83,9.79-13.13Z"/><polygon class="cls-28" points="375.92 163.6 385.03 152.68 386.62 90.83 381.27 90.01 377.25 113.94 371.95 139.44 371.95 154 375.92 163.6"/><circle class="cls-28" cx="385.03" cy="87.79" r="4.38"/><path class="cls-29" d="M349.49,329.13v18.54H313.35s-16.22-5-7.28-9.27l21.52-7v3.31s12.58,1.33,13.57-.33C341.16,334.42,347.67,329.46,349.49,329.13Z"/><path class="cls-22" d="M396.52,28s27.08,18.37,0,38.28c0,0-5.66,11-18.31,2.56,0,0-7.84-7.62.66-32.62C378.91,36.18,378.2,28.52,396.52,28Z"/><path class="cls-30" d="M399.46,65.39a.1.1,0,0,0,.05,0c1.3,1,4.65-.11,5.74-1.07,4.16-3.68,6.77-12.2,7.57-17.48,1-6.61-.72-14-5.83-18.27a20.42,20.42,0,0,0-9.06-4.16c-3.43-.75-6.33-2.48-10-2.43a13.25,13.25,0,0,0-8.19,2.79,9.75,9.75,0,0,0-3.68,7.67,4.94,4.94,0,0,0,1,3.09,2.77,2.77,0,0,0,3,.92c1.54-.58,1.38-3.21,2.49-4.47s2.89-2.87,4.86-2.71c0,0,3.64,5,6.15,5,0,0,5.32,3.36,10.63,2-.29.08-.5,6.26-.62,6.9-.72,3.84-1.87,7.65-2.79,11.45,2.81.6,2.34-3.4,3.75-4.42,1.82-1.31,2.4.34,2.46,1.77.1,2.42-1.17,6.77-3.64,7.79L400,61.19C398.89,61.65,398.66,64.62,399.46,65.39Z"/><ellipse class="cls-31" cx="389.16" cy="47.15" rx="3.92" ry="1.73" transform="translate(280.92 423.92) rotate(-80.88)"/><ellipse class="cls-31" cx="377.19" cy="45.34" rx="3.92" ry="1.73" transform="translate(272.64 410.58) rotate(-80.88)"/><path class="cls-32" d="M382.66,62.71s4.49-.23,6.3-3.87"/><path class="cls-33" d="M379.76,54.93c-1.36-.22-2.79-.85-2.93-2.49a2.3,2.3,0,0,1,.53-1.74c1.25-1.49,4.28-1.54,4.41-1.54a.38.38,0,0,1,.36.4.39.39,0,0,1-.38.4s-2.83,0-3.85,1.27a1.52,1.52,0,0,0-.34,1.12c.2,2.35,4.62,1.83,4.67,1.83a.37.37,0,0,1,.4.35.41.41,0,0,1-.34.45A10.12,10.12,0,0,1,379.76,54.93Z"/><path class="cls-22" d="M259.37,157.42a7.85,7.85,0,0,1-2.51-7.56,11,11,0,0,1,4.66-6.7,11.85,11.85,0,0,1,9.52-1.92C287.75,145.52,270.43,166.29,259.37,157.42Z"/><path class="cls-16" d="M90.91,199.43a7.81,7.81,0,0,0,6.75,4.22,11,11,0,0,0,7.61-3,11.86,11.86,0,0,0,4.1-8.8C109.14,174.65,84.88,186.6,90.91,199.43Z"/><path class="cls-34" d="M98.35,184.09l9.22-20.4c5.31-11.72,10.66-23.52,18-34.1,11.45-16.5,27.3-29.36,42.92-42,3.71-3,7.74-6.14,12.5-6.51,4.09-.32,9.19,1.85,10.79,6.07,2.29,6-4.19,10.72-7.81,14.62-10.48,11.27-22.76,20.67-33.5,31.68-16.29,16.71-28.73,36.79-39.52,57.48-.31.59-.68,1.24-1.32,1.42a2.52,2.52,0,0,1-2.1-.8Z"/><path class="cls-12" d="M116.16,221.5c.23,3.67.25,7.3-1,10.14-3.59,8.31-9.35,11-17.26,14.47-9,3.93-11.54,9.16-11.69,18.35-.11,7-10.66,19-3,24.94,9.16,7.16,20.82-9.58,29.64-10.62,7-.83,11.49-6.09,14.17-12.24,1.31-3,1.64-6.36,2.87-9.32,1.68-4.05,4.92-7.86,7.2-11.61,5.29-8.7,10.21-18,10.75-28.35.56-10.65,4.61-20.34,2.34-31.36-1.06-5.14-3.52-12-8.34-14.74-5.71-3.31-13.1,2-16.56,6.6a37.44,37.44,0,0,0-5.36,11.65A101.8,101.8,0,0,0,115.76,212,79,79,0,0,0,116.16,221.5Z"/><path class="cls-12" d="M173.42,278.68a13.71,13.71,0,0,0,1.12,3.59c3,6.19,22.48,19.77,27.74,10.08,1.2-2.2,1.52-5.42,2.46-7.84,4.38-11.3,8.82-23.83,4.26-35.76-3.4-8.91-9.92-16.11-12.82-25.09s-6.71-19-11.91-27.1c-4.87-7.56-15.72-21.78-25.68-20.9-6.74.59-12.54,7.47-11.13,14.09s7,11.44,10.31,16.94c4.37,7.2,7.65,15.5,11,23.22,4.38,10.21,12,22.83,7.59,33.64C174.35,268.34,172.61,273.73,173.42,278.68Z"/><path class="cls-14" d="M143.61,79.28c-7.35,5.09-11,14.27-11.6,24.2-.88,14.68,2.22,27.6-1.73,42.06-1.67,6.09-6.86,16.48-4.76,22.61,2,5.81,11.58,12.89,16.93,15.26,6.08,2.68,12.94,2.62,19.58,2.33a25.38,25.38,0,0,0,6.9-1c7.25-2.39,9.58-9.93,10.66-16.65,1.54-9.62,2.85-19.46,4.68-29.43,2.85-15.53,16.27-44.95.3-57.47-5.14-4-10.27-5.34-16.51-5.57-4.49-.16-8.95-.82-13.4-.35A23.51,23.51,0,0,0,143.61,79.28Z"/><path class="cls-12" d="M150.18,75.86a77.47,77.47,0,0,1,2.44,37.08c7.39,5.33,18,4.62,26.74,3.75a1.28,1.28,0,0,0,.74-.24,1.37,1.37,0,0,0,.31-.69,206.64,206.64,0,0,0,4.06-20.54,86.49,86.49,0,0,0,.74-10.93c0-4.3,1-3.68,3.88-1.39a1.47,1.47,0,0,1,.49.53,1.76,1.76,0,0,1,.11.76c-.11,12.43-4.36,24.33-4.2,36.32,0,2.38.58,5.25,2.81,5.92A259.6,259.6,0,0,0,179,198a3.74,3.74,0,0,1-.48,2.34,3.59,3.59,0,0,1-2,1.11c-9.06,2.61-15.92-1.8-24-4.72-8.66-3.12-16.92-2-25.21-7.16a9.34,9.34,0,0,1-3.5-3.3c-1-1.81-.69-3.91-.41-5.87.86-5.95.78-11.69,1.24-17.69.5-6.58,3.4-13.39,5.39-19.78a14.18,14.18,0,0,1,1.81-4.09,16.6,16.6,0,0,1,2.45-2.51C148.74,123.05,154.19,99,146.62,79c-.28-.73-.44-.76-.26-1.53s.82-1.09,1.42-1.4a2.56,2.56,0,0,1,1.6-.42c.85.18,1.29,1.18,1.41,2.1a8.34,8.34,0,0,0,.47,2.71"/><path class="cls-35" d="M86.7,261s17.9,7,26.62,18L92.28,306s6.36,14.86,15.07,25.84c0,0,.92,3.5-1.83,4.5s-27.07-3-48.64-33.2Z"/><path class="cls-35" d="M178.09,284.8s16.2-10.84,29.53-11.38l6.27,34.78s14.64,3.89,28,3.35c0,0,3.08,1.41,2.07,4.37S224.87,337,189.72,336.48Z"/><path class="cls-34" d="M179.75,35.38a10.16,10.16,0,0,0-7-7.11,14.66,14.66,0,0,0-10.18,1,18.75,18.75,0,0,0-6.45,29.27"/><path class="cls-36" d="M187.36,51.36a31.06,31.06,0,0,0,6-6.6,10.56,10.56,0,0,0,1.4-8.56c-1.19-3.59-5-5.88-8.73-6.26s-7.51.86-10.94,2.46A50.74,50.74,0,0,0,150.27,58c-1.62,3.76-2.57,8.65.36,11.51,1.87,1.83,4.84,2.14,7.37,1.45a22.91,22.91,0,0,0,6.87-3.75Z"/><path class="cls-20" d="M173.52,80.86c-.9,1.8-2.25,3.62-4.22,4-2.48.49-4.87-1.64-5.56-4.07s-.12-5,.54-7.45a15.13,15.13,0,0,1,2.45-5.63c2.74-3.44,7.66-2.86,9.18,1.41C177.12,72.54,175,77.88,173.52,80.86Z"/><path class="cls-16" d="M186.55,53.19c1,5.34.39,11.24-2.92,15.55s-9.71,6.41-14.49,3.83-6.42-8.24-7.27-13.46a33.57,33.57,0,0,1-.2-12c.8-3.93,2.89-7.75,6.28-9.9C179.3,30,184.92,44.68,186.55,53.19Z"/><path class="cls-30" d="M185.55,46.88a1.18,1.18,0,0,1-.91-.43,4.21,4.21,0,0,0-3-1.51,1.17,1.17,0,0,1-.1-2.33A6.53,6.53,0,0,1,186.46,45a1.17,1.17,0,0,1-.18,1.64A1.19,1.19,0,0,1,185.55,46.88Z"/><ellipse class="cls-30" cx="174.25" cy="52.6" rx="1.73" ry="2.94" transform="translate(-6.17 28.58) rotate(-9.22)"/><ellipse class="cls-30" cx="184.7" cy="51.69" rx="1.73" ry="2.94" transform="translate(-5.89 30.25) rotate(-9.22)"/><path class="cls-30" d="M169.77,50.58a1.33,1.33,0,0,1-.28,0,1.17,1.17,0,0,1-.86-1.4c.83-3.42,4.91-5,5.08-5.08a1.17,1.17,0,1,1,.84,2.18h0s-3.12,1.23-3.65,3.44A1.16,1.16,0,0,1,169.77,50.58Z"/><path class="cls-30" d="M182,60.88a9.46,9.46,0,0,1-2.3-.3.39.39,0,0,1-.28-.47.4.4,0,0,1,.48-.28s3.91,1,4.41-.86a1.08,1.08,0,0,0-.14-.93c-.6-.94-2.56-1.43-3.26-1.54a.4.4,0,0,1-.32-.45.39.39,0,0,1,.45-.32c.11,0,2.86.46,3.78,1.89a1.84,1.84,0,0,1,.24,1.55C184.7,60.55,183.29,60.88,182,60.88Z"/><path class="cls-30" d="M179.81,67.65a.46.46,0,0,1-.2-.05l-.43-.07c-1.2-.16-4-.53-5.31-3a.39.39,0,0,1,.69-.36c1.11,2.16,3.55,2.48,4.72,2.64.43.06.63.08.77.2a.39.39,0,0,1-.24.69Z"/><path class="cls-37" d="M164.92,49.41A35,35,0,0,0,168,58.24l-2.77,1.43-3.44-7.92"/><path class="cls-36" d="M157.9,58c-4.46-5.29,1-12.34,4.47-16.51,2.17-2.63,4.5-4,7.33-5.81,4.18-2.7,17-9.93,17.91-.38.34,3.41-6.67,4.11-9.41,5.39A50,50,0,0,0,157.9,58Z"/><path class="cls-16" d="M269.5,159.38a7.83,7.83,0,0,0,3-7.39,11,11,0,0,0-4.26-7,11.88,11.88,0,0,0-9.39-2.48C241.88,145.83,258,167.59,269.5,159.38Z"/><path class="cls-34" d="M253.08,154.78l-21.7-5.47c-12.49-3.14-25-6.31-36.75-11.66-18.27-8.35-33.74-21.66-48.94-34.79-3.62-3.12-7.42-6.54-8.62-11.16-1-4,.18-9.37,4.05-11.69,5.53-3.32,11.3,2.22,15.78,5.09,12.95,8.32,24.37,18.74,37.11,27.36,19.34,13.07,41.31,21.74,63.59,28.7a1.88,1.88,0,0,1,1.21,3.26Z"/><path class="cls-38" d="M158.86,147.76c0,.79.36,1.15.77,1.15h2.05v3.66H150.89v-3.66H153c.36,0,.74-.36.74-1.15V131.64h-1.78c-2.53,0-2.67,3.3-2.85,6.14h-2.41v-9.94L166,129.61v8.17H163.6c-.18-2.94-.34-6.14-3-6.14h-1.76Z"/><path class="cls-38" d="M174.28,149.05v3.52h-7.59v-3.52h1.47c.26,0,.5-.35.5-1.11V133.57c0-.87-.27-1.28-.58-1.28h-1.39v-2.75l13.95,1.29-.78,7.4h-1.71c-.17-2.45-.06-5.94-1.6-5.94h-4.28v6.15h1.39c.58,0,1-1,1-2.21v-1.39h1.7v10.79h-1.7v-1.18c0-1.55-.33-2.42-.94-2.42h-1.4v5.91c0,.76.25,1.11.54,1.11Z"/></svg>