<svg xmlns="http://www.w3.org/2000/svg" viewBox="0 0 53.78 59.81"><defs><style>.cls-1{fill:#ffffff;}</style></defs><g id="Layer_25" data-name="Layer 25"><path class="cls-1" d="M34.06,48.76H19.72l0,0a7.85,7.85,0,0,1,14.3,0A.08.08,0,0,1,34.06,48.76Z"/><path class="cls-1" d="M34.7,52.83a7.86,7.86,0,0,1-15.62,0Z"/><path class="cls-1" d="M53.31,46.18,50.1,43.25A12.61,12.61,0,0,1,46,34V23.65A19.11,19.11,0,0,0,31.39,5.07a4.73,4.73,0,0,0,0-.54,4.54,4.54,0,0,0-9.07,0,4.75,4.75,0,0,0,0,.54A19.11,19.11,0,0,0,7.77,23.65V34a12.61,12.61,0,0,1-4.09,9.3L.48,46.18a1.45,1.45,0,0,0,1,2.53H52.32A1.46,1.46,0,0,0,53.31,46.18Z"/></g></svg>